<svg class="img-fluid" id="outputsvg" xmlns="http://www.w3.org/2000/svg" style="transform: matrix(1, 0, 0, 1, 0, 0); transform-origin: 50% 50%; cursor: move; transition: transform 200ms ease-in-out 0s;" width="140" height="142" viewBox="0 0 1400 1420"><g id="l7YjardYyv1tQA9Cb3cvmCv" fill="rgb(2,114,159)" style="transform: none;"><g><path id="pNthAQnY8" d="M678 1379 c-15 -8 -18 -25 -18 -110 0 -98 0 -99 23 -94 15 4 44 -8 92 -36 87 -51 323 -188 350 -203 11 -6 28 -17 38 -25 16 -13 16 -16 1 -32 -14 -16 -13 -19 8 -38 12 -12 33 -24 45 -27 13 -4 23 -9 23 -14 0 -4 18 -15 40 -25 37 -17 41 -17 65 -1 25 17 26 19 23 124 l-3 107 -115 67 c-63 37 -126 74 -140 81 -14 7 -96 55 -182 105 -171 100 -227 132 -231 132 -1 0 -10 -5 -19 -11z"></path><path id="pqDOhkvMa" d="M36 1008 c-13 -7 -16 -28 -16 -114 l0 -105 65 -40 c65 -41 74 -52 55 -64 -17 -11 -11 -37 10 -42 11 -3 20 -9 20 -14 0 -4 16 -13 35 -20 19 -7 35 -16 35 -20 0 -15 41 -20 73 -8 40 14 30 18 235 -100 79 -46 147 -80 152 -75 4 5 10 53 13 107 5 91 4 97 -14 97 -18 0 -107 49 -141 78 -13 11 -15 19 -8 27 8 9 1 18 -27 32 -67 36 -118 65 -127 73 -5 5 -17 3 -27 -3 -20 -12 -42 -4 -117 46 -30 20 -40 32 -33 40 14 17 -161 118 -183 105z"></path><path id="pvYUpVL7Y" d="M673 993 c-9 -3 -13 -34 -13 -105 0 -95 1 -99 20 -93 15 5 43 -7 96 -40 68 -43 74 -49 60 -64 -15 -16 -6 -51 14 -51 4 0 32 -16 61 -35 60 -40 64 -40 101 -21 25 13 31 12 75 -10 26 -14 59 -33 73 -44 23 -18 24 -19 7 -38 -21 -23 -22 -32 -3 -32 8 0 16 -4 18 -8 2 -5 32 -25 67 -44 62 -35 64 -35 92 -19 l29 16 0 107 0 106 -47 27 c-70 41 -85 55 -72 71 9 11 7 15 -7 20 -11 4 -50 25 -87 46 -49 28 -75 38 -92 34 -26 -7 -21 -9 -222 107 -127 74 -144 81 -170 70z"></path><path id="p3ACZihRi" d="M33 623 c-9 -3 -13 -36 -13 -113 l0 -108 128 -72 c126 -73 193 -112 390 -229 57 -34 106 -61 109 -61 4 0 15 -8 25 -17 31 -28 40 -3 42 106 2 96 1 101 -19 101 -11 0 -36 10 -55 22 -38 23 -37 22 -230 133 -166 95 -205 124 -191 138 7 7 -4 18 -37 35 -26 14 -49 28 -52 31 -7 9 -70 41 -78 40 -4 0 -13 -3 -19 -6z"></path></g></g><g id="l55jxLbE7SCYbuAFeZV6OOB" fill="rgb(84,154,189)" style="transform: none;"><g><path id="p19iuGVA5o" d="M660 1369 c-34 -21 -332 -194 -532 -308 -54 -31 -98 -61 -98 -68 0 -11 150 -103 168 -103 5 0 15 7 22 15 7 8 44 33 84 55 39 22 96 55 126 73 31 17 101 58 157 90 l102 57 3 105 c2 58 3 105 3 105 0 0 -16 -10 -35 -21z"></path><path id="ptNFSeMph" d="M590 944 c-52 -31 -120 -69 -150 -86 -86 -48 -92 -54 -78 -66 14 -10 67 -41 131 -75 33 -17 40 -18 55 -5 9 8 45 32 80 52 l62 37 0 100 c0 54 -1 99 -2 99 -2 -1 -46 -26 -98 -56z"></path><path id="p188tMHEMQ" d="M1165 881 c-3 -6 -30 -24 -60 -41 -30 -17 -55 -35 -55 -38 0 -8 32 -27 123 -75 l57 -30 23 20 c12 11 40 30 62 41 l39 20 -34 20 c-19 12 -40 24 -45 29 -6 4 -27 17 -48 27 -20 11 -37 23 -37 28 0 11 -17 10 -25 -1z"></path><path id="p4jRkqRfX" d="M88 655 c-38 -22 -68 -43 -68 -46 0 -3 17 -14 37 -25 21 -10 40 -22 43 -25 15 -17 90 -51 102 -45 7 3 37 22 67 41 l54 34 -26 12 c-15 7 -27 15 -27 19 0 3 -16 12 -35 19 -19 7 -35 17 -35 22 0 5 -7 9 -15 9 -7 0 -18 6 -22 13 -6 10 -24 3 -75 -28z"></path><path id="pXp3H6MLd" d="M818 677 c-15 -12 -49 -33 -75 -47 -26 -14 -51 -29 -55 -35 -4 -5 -8 -52 -8 -104 0 -77 2 -92 15 -88 8 4 74 41 147 83 73 42 143 82 156 89 23 12 22 14 -33 46 -31 19 -67 40 -81 47 -13 7 -24 17 -24 23 0 14 -13 10 -42 -14z"></path><path id="pXWzMNLSg" d="M1145 480 c-16 -10 -120 -70 -231 -134 -110 -64 -205 -116 -211 -116 -19 0 -24 -31 -22 -127 2 -94 6 -106 29 -78 7 8 16 15 21 15 5 0 41 20 81 44 40 23 170 99 288 166 118 68 223 129 233 136 16 10 11 16 -50 49 -37 21 -70 41 -73 45 -12 16 -37 16 -65 0z"></path></g></g></svg>