<svg class="img-fluid" id="outputsvg" xmlns="http://www.w3.org/2000/svg" style="transform: matrix(1, 0, 0, 1, -3.93912, 1.8875); transform-origin: 50% 50%; cursor: move; transition: transform 200ms ease-in-out 0s;" width="350" height="450" viewBox="0 0 3500 4500"><g id="l3GoHT4sZ4EwwxvYoXF3hVU" fill="rgb(32,25,21)" style="transform: none;"><g style="transform: none;"><path id="pRGOXKYAi" d="M2 3978 l3 -522 50 -13 c28 -7 65 -13 84 -13 23 0 50 -12 85 -37 28 -20 77 -49 109 -65 32 -16 81 -52 110 -81 29 -29 70 -58 92 -66 22 -8 56 -26 75 -41 19 -15 68 -49 108 -74 69 -45 72 -49 67 -79 -3 -18 -9 -66 -15 -107 -11 -91 -19 -134 -30 -180 -8 -30 -13 -140 -11 -202 1 -17 30 -26 32 -10 14 134 21 183 36 262 10 52 21 100 24 105 3 6 14 46 23 90 10 44 25 96 34 115 17 37 173 200 191 200 6 0 11 7 11 15 0 8 7 15 15 15 10 0 15 10 15 34 0 20 6 36 14 39 8 3 22 22 31 41 9 19 25 38 34 41 10 3 24 17 31 30 7 14 19 25 27 25 7 0 13 7 13 15 0 8 4 15 9 15 4 0 11 33 14 72 4 47 11 77 21 84 19 13 32 149 22 218 -7 44 -9 46 -41 46 -29 0 -39 -7 -71 -52 -21 -29 -42 -55 -47 -56 -4 -2 -17 -23 -28 -45 -24 -46 -46 -75 -69 -87 -16 -9 -16 3 9 245 5 55 10 109 11 119 0 18 2 18 28 -6 41 -39 65 -48 126 -48 53 0 55 1 83 43 54 81 123 237 123 277 0 25 -4 30 -25 30 l-25 0 22 25 c12 14 31 25 44 25 64 0 124 32 124 65 0 13 -25 15 -146 15 -132 0 -148 -2 -172 -21 l-26 -20 -8 20 c-7 21 -11 21 -623 21 l-615 0 2 -522z"></path><path id="p1Exz8eQfk" d="M1610 4465 c0 -33 2 -35 35 -35 33 0 35 2 35 35 0 33 -2 35 -35 35 -33 0 -35 -2 -35 -35z"></path><path id="p1Eo6R3AZq" d="M1700 4470 c0 -28 3 -30 35 -30 32 0 35 2 35 30 0 28 -3 30 -35 30 -32 0 -35 -2 -35 -30z"></path><path id="pXOim4kAl" d="M1960 4443 c1 -32 -2 -77 -5 -101 -9 -51 -2 -60 69 -96 30 -15 77 -48 103 -72 62 -57 104 -60 150 -11 46 50 63 79 63 111 0 29 1 29 13 11 8 -11 42 -83 77 -160 88 -195 144 -362 195 -579 24 -101 27 -130 21 -202 -5 -53 -3 -84 3 -84 6 0 6 -12 0 -32 -12 -43 -12 -95 1 -103 6 -3 10 1 10 10 0 9 4 14 9 11 5 -3 11 2 13 12 5 20 88 92 110 96 25 5 114 51 128 67 3 3 21 11 40 19 37 15 119 67 160 102 14 11 60 46 104 77 43 31 95 68 115 84 20 15 64 46 99 68 58 39 62 43 62 80 0 37 -2 39 -30 39 -19 0 -33 -7 -40 -20 -6 -11 -18 -20 -28 -20 -16 1 -16 1 1 11 9 5 17 21 17 34 0 38 32 85 58 85 l22 0 0 310 0 310 -770 0 -771 0 1 -57z m1195 -106 c-14 -20 -15 -18 -15 33 l1 55 14 -33 c13 -30 13 -36 0 -55z m-421 -104 c4 -54 8 -117 10 -141 2 -23 0 -45 -5 -48 -5 -3 -9 -23 -9 -45 0 -38 1 -39 36 -39 27 0 37 5 41 20 3 11 13 20 23 20 10 0 20 4 22 8 2 5 20 12 41 15 36 6 37 5 37 -24 0 -27 3 -29 35 -29 29 0 35 4 35 21 0 33 25 16 28 -19 3 -30 6 -32 42 -32 21 0 41 -4 44 -9 3 -4 -10 -37 -29 -72 l-34 -63 -3 39 c-3 39 -4 40 -46 43 l-43 3 3 -43 c3 -43 3 -43 44 -46 l42 -3 -55 -122 c-69 -152 -103 -203 -196 -296 l-75 -73 -4 158 c-4 130 -9 170 -27 219 -19 52 -21 72 -15 153 6 82 5 92 -11 92 -14 0 -16 7 -10 55 7 50 5 57 -16 75 -20 16 -21 19 -6 20 13 0 17 8 17 35 0 34 -1 35 -38 35 -37 0 -38 1 -34 30 3 24 9 30 28 30 19 0 24 -5 24 -25 0 -22 4 -25 35 -25 34 0 35 1 35 40 0 30 -4 40 -16 40 -11 0 -14 6 -8 23 3 12 11 24 15 25 5 2 9 15 9 28 0 14 6 24 14 24 11 0 16 -23 20 -97z"></path><path id="pl1BxBXa3" d="M1200 2895 c0 -33 2 -35 35 -35 33 0 35 2 35 35 0 33 -2 35 -35 35 -33 0 -35 -2 -35 -35z"></path><path id="pAFF98HJx" d="M2670 2765 c0 -38 3 -45 20 -45 23 0 28 37 10 71 -18 32 -30 21 -30 -26z"></path><path id="pWyYKY8ZD" d="M2830 2580 c0 -23 4 -30 20 -30 12 0 20 7 20 18 0 9 -9 23 -20 30 -18 11 -20 10 -20 -18z"></path><path id="p8QmAXUlP" d="M726 2427 c-3 -13 -3 -41 0 -64 3 -31 1 -42 -11 -47 -20 -7 -19 -104 2 -143 15 -30 17 -99 3 -108 -5 -3 -10 -15 -10 -26 0 -10 -4 -19 -9 -19 -14 0 -41 -142 -42 -230 -2 -89 -1 -264 1 -315 0 -16 -2 -40 -5 -52 -5 -20 -8 -21 -25 -11 -15 10 -22 10 -32 0 -10 -10 -9 -18 5 -41 24 -40 22 -53 -13 -86 -24 -23 -30 -35 -26 -59 3 -16 1 -37 -4 -47 -5 -9 -10 -40 -11 -68 -2 -40 2 -54 17 -65 15 -12 19 -26 18 -69 -1 -52 1 -58 42 -103 24 -26 44 -52 44 -59 0 -6 9 -17 20 -25 14 -10 16 -17 9 -26 -14 -17 -3 -33 19 -28 12 4 40 -20 93 -78 62 -68 86 -86 130 -102 30 -11 65 -26 79 -33 14 -7 30 -13 36 -13 18 0 114 -64 114 -76 0 -10 142 -65 180 -69 29 -4 75 -26 88 -42 6 -9 12 -12 12 -5 0 7 10 10 28 7 15 -3 51 -7 79 -9 29 -2 58 -8 66 -14 12 -10 123 -14 267 -10 74 2 153 -4 165 -13 19 -13 170 -27 216 -20 35 6 54 16 82 47 20 21 37 42 37 47 0 4 7 7 15 7 15 0 55 34 55 46 0 3 9 19 20 34 11 16 23 50 27 77 8 58 29 95 52 88 23 -7 39 6 61 50 15 30 17 41 7 47 -8 5 -7 8 5 8 9 0 20 9 23 21 4 11 18 24 31 29 13 5 29 21 34 35 6 16 14 23 25 19 8 -3 15 -2 15 4 0 5 8 12 18 14 9 3 32 35 51 72 21 42 42 71 56 76 27 10 55 47 55 71 0 9 6 22 14 28 19 16 25 68 15 126 -13 73 -20 142 -20 207 1 31 -4 60 -9 63 -5 3 -7 12 -4 19 3 8 -4 31 -15 52 -11 20 -23 57 -27 81 -6 39 -3 46 22 70 25 24 27 28 11 31 -10 2 -29 1 -42 -2 -19 -5 -24 -15 -30 -61 -6 -52 8 -144 26 -170 12 -17 40 -257 39 -341 0 -40 -38 -114 -64 -124 -14 -5 -32 -24 -41 -42 -31 -69 -80 -123 -113 -126 -25 -3 -31 -8 -34 -30 -2 -20 -11 -29 -35 -36 -18 -5 -35 -17 -38 -27 -4 -11 -15 -24 -26 -29 -10 -6 -19 -17 -19 -25 0 -8 -9 -20 -21 -27 -11 -7 -31 -34 -45 -60 -13 -26 -28 -49 -34 -53 -5 -3 -10 -25 -10 -48 -1 -55 -13 -75 -85 -140 -57 -51 -64 -55 -129 -62 -38 -4 -75 -9 -83 -12 -7 -3 -13 2 -13 10 0 27 -135 48 -158 25 -9 -9 -18 -9 -37 0 -35 16 -67 15 -101 -3 -43 -22 -137 -19 -186 6 -31 16 -53 20 -87 16 -33 -4 -58 0 -86 13 -22 10 -71 25 -109 34 -80 19 -145 46 -146 62 0 6 -17 19 -37 30 -21 10 -46 29 -56 41 -11 14 -34 24 -63 29 -97 14 -186 64 -115 64 29 0 31 3 31 34 0 35 -5 39 -100 70 -8 2 2 5 22 5 20 1 43 8 52 16 8 8 24 15 35 15 18 0 21 6 21 45 0 33 -4 45 -15 45 -8 0 -15 9 -15 20 0 15 -7 20 -29 20 -17 0 -33 5 -36 10 -3 6 3 10 14 10 18 0 21 6 21 48 0 46 -2 49 -35 61 -19 7 -35 19 -35 27 0 10 -14 14 -55 14 l-55 0 0 -35 c0 -19 5 -35 10 -35 6 0 10 -11 10 -25 0 -18 -5 -25 -20 -25 -15 0 -20 7 -20 29 0 16 -4 41 -10 55 -6 18 -6 26 1 26 24 0 40 33 50 105 13 85 1 148 -32 165 -9 5 -19 20 -23 34 -13 51 -35 249 -29 259 4 6 10 80 14 165 7 122 12 160 26 181 15 21 18 45 16 133 -1 59 -7 116 -13 128 -9 16 -9 25 -1 33 6 6 11 47 11 94 0 64 -3 83 -14 83 -8 0 -16 -10 -20 -23z"></path><path id="p17hTidTj0" d="M2880 2378 c0 -54 10 -78 32 -78 18 0 19 4 13 36 -7 39 -25 74 -37 74 -5 0 -8 -15 -8 -32z"></path><path id="pKrGZBBTK" d="M2920 2261 c0 -58 12 -91 32 -91 17 0 19 5 12 47 -10 66 -44 100 -44 44z"></path><path id="pmj9ZxGfE" d="M1039 2023 c0 -11 -3 -13 -6 -5 -5 13 -43 16 -80 6 -18 -5 -23 -13 -23 -42 l0 -35 50 6 c47 6 50 5 56 -19 9 -33 40 -44 129 -44 71 0 75 1 81 24 5 20 13 26 42 28 36 3 37 4 40 51 l3 47 -145 0 c-132 0 -146 -2 -147 -17z"></path><path id="p4su7lTNO" d="M1970 1971 c-22 -6 -25 -13 -28 -64 -3 -64 -7 -62 86 -51 34 5 52 11 52 20 0 8 7 14 16 14 12 0 14 9 12 43 l-3 42 -55 2 c-30 1 -66 -2 -80 -6z"></path><path id="pR8MOByQJ" d="M1223 881 c-4 -15 -13 -21 -34 -21 -15 0 -31 -4 -34 -10 -3 -5 -17 -10 -30 -10 -12 0 -25 -7 -29 -15 -3 -8 -12 -15 -21 -15 -11 0 -15 -12 -15 -50 0 -46 2 -50 25 -50 20 0 25 -6 31 -36 6 -35 7 -36 50 -32 40 3 44 1 44 -19 0 -20 5 -23 40 -23 29 0 40 4 40 15 0 8 4 15 9 15 14 0 24 138 14 205 l-8 60 -38 3 c-32 3 -39 0 -44 -17z"></path><path id="pC7IpE2i8" d="M1710 815 c0 -8 -9 -15 -21 -15 -18 0 -20 -5 -17 -42 l3 -43 46 1 c25 0 62 8 82 17 33 16 37 22 37 57 l0 40 -65 0 c-51 0 -65 -3 -65 -15z"></path><path id="pdpPouU8h" d="M1898 763 c-3 -34 -8 -39 -68 -69 -36 -18 -77 -33 -92 -34 -25 0 -28 -4 -28 -34 l0 -34 75 -7 c80 -8 146 0 157 18 4 7 8 22 8 35 0 12 4 22 8 22 15 0 32 50 32 95 l0 45 -44 0 c-44 0 -45 0 -48 -37z"></path><path id="p10HO9yY23" d="M1380 650 c0 -5 -9 -10 -20 -10 -16 0 -20 -7 -20 -35 0 -34 1 -35 40 -35 22 0 40 5 40 10 0 6 7 10 15 10 10 0 15 11 15 35 0 33 -2 35 -35 35 -19 0 -35 -4 -35 -10z"></path></g></g><g id="l6zfM2G4dhta8S9u955mFgA" fill="rgb(78,56,45)" style="transform: none;"><g style="transform: none;"><path id="p10yvrnCB" d="M1200 4484 c0 -29 21 -64 37 -64 10 0 30 8 44 18 14 9 41 27 60 40 l34 22 -87 -1 c-64 -2 -88 -6 -88 -15z"></path><path id="puOSOLU2n" d="M1434 4492 c-6 -4 -14 -17 -18 -30 -4 -12 -16 -27 -27 -32 -11 -6 -19 -21 -19 -36 0 -16 -8 -28 -22 -34 -17 -6 -19 -9 -6 -9 11 -1 15 -6 12 -16 -10 -24 6 -38 24 -22 24 20 46 32 40 21 -3 -5 -15 -31 -27 -59 -37 -85 -65 -138 -94 -182 -33 -49 -62 -55 -114 -23 -51 31 -66 62 -64 133 1 63 -10 100 -23 78 -9 -14 -43 -233 -50 -316 -7 -82 -24 -258 -26 -270 -1 -5 -1 -30 0 -55 2 -32 4 -37 7 -17 2 15 10 27 17 27 28 0 97 62 120 109 14 27 29 51 33 53 5 1 26 27 48 57 38 53 39 54 46 28 6 -23 5 -86 -4 -152 -1 -10 -10 -27 -20 -37 -10 -10 -15 -23 -12 -27 2 -5 -2 -26 -11 -47 -11 -26 -13 -39 -5 -42 6 -2 11 -11 10 -20 0 -11 -2 -12 -6 -4 -9 22 -25 12 -21 -13 6 -27 -10 -33 -30 -13 -8 8 -12 9 -12 1 0 -6 5 -13 11 -15 15 -5 -10 -46 -32 -53 -9 -3 -22 -18 -29 -33 -8 -15 -27 -39 -43 -54 -22 -22 -26 -31 -18 -47 9 -15 7 -20 -10 -24 -12 -3 -18 -10 -14 -16 3 -6 0 -11 -8 -11 -8 0 -18 -7 -21 -16 -4 -9 -9 -14 -13 -11 -3 4 -17 -8 -32 -26 -14 -19 -42 -47 -61 -64 -45 -40 -74 -99 -96 -198 -9 -44 -20 -84 -24 -90 -4 -5 -12 -48 -20 -95 -7 -47 -17 -93 -22 -103 -5 -9 -11 -97 -15 -195 -4 -125 -9 -181 -19 -192 -10 -12 -11 -25 -3 -55 16 -60 27 -161 21 -192 -3 -15 -11 -37 -18 -48 -8 -11 -14 -36 -14 -56 0 -19 -3 -39 -7 -43 -9 -8 -17 -190 -15 -321 1 -73 4 -101 16 -190 5 -42 24 -85 36 -85 15 0 42 -71 31 -84 -5 -6 -7 -23 -6 -38 2 -15 0 -30 -5 -33 -5 -3 -7 -13 -4 -23 5 -15 5 -15 -6 1 -6 9 -8 22 -5 27 9 15 -4 30 -20 24 -7 -3 -11 -12 -8 -20 3 -8 2 -22 -3 -31 -4 -10 -8 -31 -8 -48 -1 -17 -6 -29 -13 -28 -6 1 -17 -4 -23 -12 -19 -23 -27 -18 -22 15 4 28 -4 36 -32 31 -4 -1 -14 4 -22 10 -11 9 -14 8 -14 -8 0 -10 5 -24 11 -30 15 -15 39 -121 32 -140 -5 -13 0 -15 30 -9 21 4 37 3 37 -2 0 -5 14 -12 30 -16 27 -5 30 -8 20 -25 -15 -29 -12 -40 10 -34 11 3 20 0 20 -6 0 -6 9 -11 21 -11 15 0 19 -5 15 -15 -3 -8 5 -27 18 -42 16 -19 23 -38 21 -61 -2 -18 2 -38 9 -45 6 -7 22 -25 34 -42 25 -32 94 -63 157 -71 24 -3 48 -14 60 -27 12 -12 38 -31 58 -41 20 -11 37 -24 37 -30 1 -16 66 -43 146 -62 38 -9 88 -25 111 -35 29 -14 59 -19 95 -18 34 2 64 -3 84 -13 44 -24 189 -28 229 -7 26 13 35 13 60 3 39 -17 75 -17 89 -1 15 18 96 2 96 -19 0 -16 35 -17 110 -5 25 4 55 3 67 -2 19 -8 32 -1 95 58 83 76 108 116 102 162 -2 18 1 35 6 38 6 4 21 27 34 53 14 26 34 53 45 60 12 7 21 19 21 27 0 8 9 19 19 25 11 5 22 18 26 29 3 10 20 22 38 27 24 7 33 16 35 36 3 22 9 27 34 30 33 3 82 57 113 126 9 18 27 37 41 42 53 20 76 120 60 260 -3 30 -6 87 -7 125 -1 39 -6 75 -11 82 -6 7 -7 17 -3 23 4 6 1 18 -7 27 -29 35 -43 173 -17 173 25 0 47 45 54 108 3 37 16 108 27 157 24 106 21 129 -42 329 -22 68 -40 136 -40 152 0 49 -32 142 -56 165 -18 17 -36 23 -65 22 -35 -1 -42 3 -50 25 -16 43 -37 168 -49 292 -5 63 -13 127 -16 143 -6 30 -34 38 -34 10 0 -54 33 -344 45 -404 21 -101 27 -109 79 -109 28 0 48 -6 59 -18 26 -29 47 -88 47 -134 0 -24 17 -95 39 -158 61 -182 67 -216 46 -286 -9 -32 -19 -92 -22 -132 -6 -74 -29 -122 -58 -122 -19 0 -31 -121 -16 -170 6 -20 11 -50 11 -66 0 -16 7 -42 16 -59 20 -38 26 -251 7 -267 -18 -14 -53 -86 -53 -108 0 -14 -8 -20 -32 -22 -32 -3 -33 -5 -36 -51 -3 -47 -3 -47 -40 -48 -20 -1 -56 -1 -79 1 -48 2 -113 -31 -113 -58 0 -8 -6 -23 -14 -31 -7 -9 -18 -29 -23 -46 -8 -26 -16 -31 -52 -36 -28 -4 -47 -13 -58 -29 -9 -12 -27 -32 -40 -43 -14 -13 -23 -32 -23 -49 0 -24 -4 -28 -30 -28 -26 0 -30 -4 -30 -28 0 -26 -1 -27 -47 -23 -54 4 -73 -13 -73 -66 0 -32 -1 -33 -41 -33 -54 0 -79 -15 -79 -46 0 -25 -1 -25 -57 -18 -32 4 -100 8 -150 8 -78 0 -93 2 -93 15 -1 21 -67 51 -113 51 -34 0 -37 -2 -37 -30 0 -18 -6 -33 -15 -36 -8 -4 -15 -12 -15 -20 0 -19 -39 -18 -62 3 -10 9 -42 18 -73 21 -51 4 -66 12 -103 57 -7 8 -24 15 -37 15 -14 0 -25 5 -25 10 0 6 -7 10 -15 10 -8 0 -24 9 -35 20 -11 11 -26 20 -34 20 -7 0 -25 9 -39 21 -15 11 -42 23 -61 26 -27 4 -33 9 -29 24 6 21 18 25 28 9 8 -12 71 -40 92 -40 8 0 25 -12 39 -27 42 -45 172 -71 202 -41 9 9 12 7 12 -10 0 -18 6 -22 34 -22 54 0 66 8 66 45 0 18 -6 35 -12 38 -10 3 -8 9 5 24 9 11 17 27 17 36 0 9 5 17 10 17 6 0 10 14 10 30 0 37 9 38 41 4 13 -14 36 -32 52 -40 18 -10 27 -22 27 -39 0 -22 5 -25 52 -31 46 -6 50 -8 30 -17 -17 -8 -22 -18 -22 -49 l0 -38 71 0 71 0 -4 40 -4 40 38 0 c36 0 111 23 193 60 22 9 50 21 63 24 13 4 22 15 22 27 0 14 7 19 25 19 23 0 25 4 25 40 0 33 -3 40 -20 40 -15 0 -20 7 -20 25 0 15 -7 39 -15 55 -14 26 -21 29 -105 41 -62 8 -90 16 -90 25 0 10 -20 13 -82 12 -116 -3 -219 16 -338 61 -35 14 -89 24 -150 27 -52 3 -117 13 -143 21 -34 10 -65 13 -108 8 -46 -5 -64 -4 -77 8 -9 8 -34 22 -55 32 -22 10 -44 29 -50 42 -5 12 -16 23 -24 23 -7 0 -16 8 -20 18 -3 9 -14 35 -24 58 -10 22 -24 67 -30 100 -6 32 -15 67 -20 76 -5 10 -9 24 -9 31 0 7 -13 27 -29 43 -39 40 -54 99 -45 185 6 68 7 69 35 69 36 0 99 30 99 47 0 19 95 17 126 -3 20 -14 43 -16 119 -12 91 5 95 6 125 38 16 18 30 38 30 46 0 8 19 19 45 26 25 7 45 16 45 20 0 4 6 8 14 8 40 0 34 134 -8 163 -6 4 -96 7 -201 6 -160 -1 -196 1 -230 16 -54 23 -108 30 -132 16 -19 -10 -22 -7 -30 32 -14 58 -9 283 7 332 7 22 21 64 31 93 24 69 35 157 21 166 -8 5 -8 15 -2 32 6 14 10 36 10 50 0 13 5 24 10 24 6 0 10 21 10 46 0 61 25 104 62 104 15 0 28 4 28 9 0 5 18 22 39 38 22 15 47 44 56 63 9 19 29 46 45 59 17 13 30 27 30 33 0 5 17 32 38 61 22 29 45 67 52 84 7 18 30 49 52 69 38 34 42 35 89 29 35 -5 59 -3 82 8 18 8 73 18 122 21 50 4 108 11 130 16 22 5 82 10 133 10 l92 0 0 40 c0 39 1 40 35 40 33 0 35 2 35 35 0 28 -4 35 -19 35 -10 0 -36 16 -57 35 -21 20 -50 39 -64 42 -14 3 -29 9 -35 13 -5 5 -28 11 -50 15 -57 10 -125 38 -125 52 0 7 -6 16 -14 20 -19 12 -30 133 -12 133 14 0 26 41 26 86 0 31 -32 44 -110 44 -32 0 -71 7 -86 15 -16 8 -44 15 -61 15 -18 0 -33 2 -33 5 0 23 108 220 131 239 16 14 29 33 29 44 0 11 6 25 14 31 12 10 15 7 18 -20 4 -48 83 -110 282 -224 29 -16 82 -53 117 -80 35 -28 93 -71 128 -95 79 -56 202 -160 263 -222 25 -26 51 -48 57 -48 6 0 11 -7 11 -15 0 -10 11 -15 35 -15 34 0 35 1 35 40 0 22 -4 40 -10 40 -5 0 -10 6 -10 13 0 12 -14 28 -143 171 -40 44 -74 84 -76 90 -2 6 -15 25 -29 41 l-25 30 29 5 c60 10 121 82 134 158 6 39 8 41 9 15 1 -28 5 -33 26 -33 19 0 23 4 18 18 -3 9 -10 22 -15 28 -4 6 -23 51 -41 100 -29 80 -35 89 -60 92 -15 2 -27 1 -27 -1 0 -2 11 -39 25 -81 14 -42 25 -92 25 -110 0 -33 -35 -92 -79 -130 -21 -19 -22 -19 -44 1 -12 11 -35 32 -50 46 -15 14 -52 37 -83 53 -68 34 -79 46 -65 73 12 22 14 73 5 120 -5 21 -12 31 -25 31 -17 0 -18 -7 -16 -62 2 -62 2 -63 -25 -66 -20 -2 -28 1 -28 13 0 8 -7 18 -15 21 -11 5 -13 16 -8 50 l6 44 -154 0 c-131 0 -158 -3 -184 -18 -24 -15 -35 -16 -57 -8 -16 6 -28 14 -28 18 0 10 -12 10 -26 0z m-284 -452 c0 -5 11 -10 25 -10 14 0 25 -4 25 -10 0 -5 16 -10 36 -10 l36 0 -19 -32 c-14 -25 -28 -34 -54 -38 -25 -4 -35 -10 -37 -27 -4 -25 -29 -49 -40 -38 -4 4 -1 10 6 12 19 7 16 103 -3 103 -18 0 -20 26 -2 45 14 17 27 19 27 5z m150 -2046 c0 -19 -28 -30 -43 -15 -18 18 -25 13 -36 -22 -10 -30 -16 -34 -49 -35 -80 -4 -117 21 -105 69 4 14 22 16 119 17 94 0 114 -2 114 -14z m-360 -83 c19 -5 53 -12 75 -16 40 -8 39 -8 -34 -21 -41 -7 -79 -11 -83 -8 -10 6 -11 54 0 54 4 0 23 -4 42 -9z m-224 -920 l7 -32 -39 7 c-21 3 -41 8 -43 10 -2 2 9 17 25 33 32 33 41 30 50 -18z m114 -85 c55 -8 70 -21 70 -56 0 -15 7 -33 16 -41 14 -11 14 -13 -1 -22 -12 -6 -22 -3 -36 12 -11 12 -24 19 -29 16 -4 -3 -14 16 -21 41 -10 32 -18 44 -29 41 -9 -2 -21 2 -28 9 -16 17 -16 29 1 17 6 -6 32 -13 57 -17z m450 -72 c0 -15 -6 -24 -16 -24 -10 0 -14 -6 -10 -15 3 -8 0 -15 -6 -15 -6 0 -9 -3 -6 -6 4 -3 16 0 28 6 22 12 22 11 16 -27 -3 -21 -6 -50 -6 -65 0 -22 -3 -25 -21 -21 -27 7 -35 30 -20 54 9 16 8 19 -9 19 -11 0 -20 5 -20 11 0 6 -9 9 -19 6 -24 -6 -36 29 -14 41 8 5 14 13 14 17 -1 5 11 11 26 13 29 4 37 8 39 23 3 19 4 20 14 14 6 -3 10 -17 10 -31z m105 14 c7 -16 20 -24 45 -26 41 -4 60 -18 60 -43 0 -14 -7 -19 -28 -19 -15 0 -38 -7 -51 -16 -32 -23 -42 -8 -45 65 -3 64 3 76 19 39z m-405 -23 c0 -9 -6 -12 -15 -9 -8 4 -15 10 -15 15 0 5 7 9 15 9 8 0 15 -7 15 -15z m148 -51 c-13 -28 -38 -44 -38 -25 0 6 6 11 14 11 8 0 17 12 20 26 4 15 9 24 12 21 3 -3 0 -18 -8 -33z m682 15 c0 -9 -55 -36 -84 -41 -10 -2 -21 3 -23 10 -3 7 4 12 16 12 12 0 21 6 21 14 0 9 12 14 35 14 19 0 35 -4 35 -9z m150 -39 c0 -11 -4 -20 -10 -20 -5 0 -9 -3 -9 -7 3 -17 -1 -33 -9 -33 -4 0 -6 18 -4 40 4 41 32 59 32 20z m-1030 -66 c24 -13 23 -14 -20 -11 -34 1 -46 6 -48 20 -3 16 0 18 20 12 12 -4 34 -14 48 -21z m984 -48 c-7 -18 -64 -29 -110 -20 l-37 7 49 21 c27 12 58 26 69 33 17 10 21 9 27 -8 4 -10 5 -25 2 -33z m467 -86 c33 0 33 4 6 -80 -16 -50 -84 -120 -118 -120 -25 0 -27 3 -31 50 -3 44 -1 50 20 55 18 4 22 12 22 45 0 38 2 40 30 40 26 0 30 4 31 28 2 23 2 24 6 5 3 -18 11 -23 34 -23z"></path><path id="p92PZu65U" d="M2660 4473 c0 -30 3 -33 28 -32 l27 1 -25 7 -25 7 23 12 c25 14 29 32 7 32 -8 0 -15 -6 -15 -12 0 -9 -4 -8 -10 2 -7 11 -10 7 -10 -17z"></path><path id="p1FJudOlFK" d="M3120 4483 c0 -10 12 -46 26 -80 19 -45 32 -63 46 -63 25 0 23 17 -12 94 -28 63 -60 89 -60 49z"></path><path id="ppPMLjgJp" d="M2580 4452 c0 -10 6 -24 13 -31 10 -11 9 -12 -2 -6 -9 5 -12 4 -7 -3 4 -7 20 -12 37 -12 27 0 29 3 29 35 0 33 -2 35 -35 35 -27 0 -35 -4 -35 -18z"></path><path id="p198awkFou" d="M2913 4376 c-23 -11 -32 -36 -13 -36 6 0 10 -11 10 -25 0 -14 5 -25 10 -25 6 0 10 7 10 15 0 8 5 15 10 15 12 0 14 57 3 63 -5 2 -18 -1 -30 -7z"></path><path id="pYcnwL7Uf" d="M2580 4340 c15 -28 50 -26 50 3 0 16 -3 18 -9 8 -6 -9 -11 -10 -15 -2 -4 6 -14 11 -22 11 -12 0 -12 -4 -4 -20z"></path><path id="p17Z72Sr5I" d="M3098 4331 c-9 -11 -24 -31 -33 -45 -10 -14 -23 -26 -31 -26 -8 0 -25 -18 -40 -39 -16 -25 -31 -38 -40 -34 -9 3 -14 -2 -14 -15 0 -28 13 -34 31 -14 8 9 58 43 110 76 53 32 101 67 107 77 11 17 9 19 -18 19 -16 0 -30 -4 -30 -10 0 -19 -19 -10 -22 10 -3 21 -3 21 -20 1z"></path><path id="pM6XTPOb2" d="M2492 4270 c13 -20 37 -34 45 -26 13 13 -11 46 -33 46 -22 0 -23 -2 -12 -20z"></path><path id="pGnvCVfRR" d="M2523 4217 c23 -9 27 -16 22 -34 -4 -19 -1 -23 20 -23 22 0 25 4 25 35 l0 35 -47 -1 c-46 -1 -47 -2 -20 -12z"></path><path id="ptZaXWAFC" d="M2460 4081 c0 -31 59 -194 72 -199 5 -2 8 -14 8 -27 0 -12 7 -42 15 -65 32 -90 87 -338 87 -395 1 -33 -2 -108 -7 -167 -7 -93 -6 -108 7 -108 10 0 20 17 28 48 13 46 35 82 51 82 12 0 49 32 49 42 0 5 -8 8 -18 8 -17 0 -19 13 -25 153 -4 83 -13 179 -21 212 -9 33 -15 81 -16 107 0 26 -4 49 -9 52 -4 3 -11 28 -15 56 -4 27 -11 50 -16 50 -5 0 -10 12 -12 27 -2 19 -10 29 -23 31 -16 2 -17 1 -5 -7 12 -8 12 -11 -4 -17 -16 -6 -16 -9 -5 -18 8 -6 14 -17 15 -23 3 -38 5 -42 19 -37 10 4 15 0 15 -16 0 -11 -4 -18 -10 -15 -17 10 -3 -145 19 -207 17 -48 36 -188 26 -188 -2 0 -15 53 -30 118 -73 311 -195 626 -195 503z"></path><path id="p153juCTE1" d="M2555 4068 c0 -27 4 -33 23 -34 19 -1 22 4 22 32 0 29 -4 34 -23 34 -19 0 -23 -5 -22 -32z"></path><path id="pKvAP13ip" d="M2990 4045 c0 -33 2 -35 35 -35 19 0 35 3 35 8 0 4 -16 20 -35 35 l-35 28 0 -36z"></path><path id="pOGrpUP70" d="M3130 3935 c0 -24 4 -35 15 -35 8 0 15 4 15 9 0 5 3 16 6 24 3 10 -3 20 -15 27 -19 10 -21 8 -21 -25z"></path><path id="p100XL0UTx" d="M3420 3905 c0 -8 -13 -28 -30 -45 -16 -17 -30 -37 -30 -45 0 -7 -5 -15 -10 -17 -7 -2 -5 -19 5 -47 15 -45 11 -60 -20 -61 -5 0 -21 -10 -34 -21 -21 -17 -22 -22 -10 -34 13 -13 23 -8 84 38 125 94 151 127 100 127 -16 0 -25 -6 -25 -15 0 -8 -7 -15 -15 -15 -8 0 -15 7 -15 15 0 8 6 15 14 15 14 0 32 92 21 110 -9 15 -35 12 -35 -5z"></path><path id="pFXH9TfYO" d="M3040 3770 c0 -11 -4 -20 -10 -20 -5 0 -10 -16 -10 -35 0 -49 15 -44 45 15 31 61 31 60 0 60 -18 0 -25 -5 -25 -20z"></path><path id="pAhUQ7sJN" d="M3320 3740 c0 -11 5 -20 10 -20 6 0 10 9 10 20 0 11 -4 20 -10 20 -5 0 -10 -9 -10 -20z"></path><path id="pCqofZeAl" d="M1014 3579 c-8 -14 -8 -161 1 -189 8 -26 21 -25 28 1 5 20 -10 189 -18 197 -2 2 -6 -2 -11 -9z"></path><path id="pzM03jj6L" d="M2950 3554 c0 -44 18 -42 37 4 13 31 12 32 -12 32 -22 0 -25 -4 -25 -36z"></path><path id="p5BlbRJK2" d="M2790 3343 l0 -37 35 34 c19 19 35 35 35 37 0 2 -16 3 -35 3 -34 0 -35 -1 -35 -37z"></path><path id="pr3vI27vv" d="M966 3314 c-4 -15 -5 -29 -2 -31 9 -9 26 8 26 27 0 30 -17 32 -24 4z"></path><path id="pDI6syzdu" d="M1113 2929 c-40 -18 -43 -22 -43 -59 0 -22 5 -40 10 -40 6 0 10 -8 10 -19 0 -13 10 -20 31 -25 47 -9 89 -7 89 4 0 6 9 10 21 10 11 0 29 5 40 11 11 6 54 11 96 11 97 0 143 23 143 73 l0 32 -113 12 c-159 16 -234 13 -284 -10z"></path><path id="pEILEtb1j" d="M1308 2686 c-46 -30 -48 -33 -48 -80 0 -58 17 -75 73 -76 26 0 53 10 87 33 46 30 50 35 50 72 0 45 -5 55 -37 73 -35 19 -74 13 -125 -22z"></path><path id="pDW4ugxdk" d="M1747 2003 c-4 -3 -7 -30 -7 -60 0 -46 3 -53 20 -53 11 0 20 -4 20 -10 0 -17 55 -38 117 -45 66 -8 208 7 291 31 49 14 52 16 52 48 0 35 -13 46 -53 46 -13 0 -39 11 -59 25 -36 24 -42 25 -206 25 -93 0 -172 -3 -175 -7z m331 -70 c2 -7 -3 -13 -12 -13 -9 0 -16 -7 -16 -15 0 -12 -8 -14 -32 -10 -20 4 -34 1 -40 -7 -6 -9 -8 -3 -6 17 2 21 10 31 28 36 35 10 73 6 78 -8z"></path><path id="pdwoaR9wQ" d="M1817 1813 c-4 -3 -7 -24 -7 -45 0 -38 0 -38 40 -38 l40 0 0 45 c0 44 0 45 -33 45 -19 0 -37 -3 -40 -7z"></path><path id="pR2BRvlfC" d="M608 1193 c-29 -15 -32 -21 -22 -47 9 -23 26 -20 55 12 42 44 23 65 -33 35z"></path><path id="pA5gywngx" d="M1867 533 c-12 -12 -7 -64 7 -79 8 -8 28 -14 45 -14 27 0 31 3 31 28 0 56 -10 72 -44 72 -18 0 -36 -3 -39 -7z"></path></g></g><g id="l6fypp0eehHO7o73fvu1Dg2" fill="rgb(130,79,58)" style="transform: none;"><g style="transform: none;"><path id="pZZ5xrdP4" d="M1835 4430 c-7 -33 -1 -50 21 -50 10 0 14 12 14 40 0 48 -25 56 -35 10z"></path><path id="pUL7H4T7O" d="M1547 4443 c-4 -3 -7 -25 -7 -48 0 -39 4 -44 68 -96 37 -30 126 -90 197 -133 72 -44 153 -97 182 -120 28 -23 78 -59 109 -81 56 -39 183 -139 215 -170 9 -8 21 -15 27 -15 7 0 12 -8 12 -17 0 -10 23 -40 50 -68 28 -27 50 -53 50 -57 0 -5 16 -8 35 -8 34 0 35 1 35 38 0 55 -87 192 -121 192 -5 0 -9 6 -9 13 0 15 -45 57 -60 57 -6 0 -10 8 -10 18 0 9 -12 28 -26 41 -14 13 -41 49 -61 79 -20 30 -45 57 -55 60 -10 2 -18 11 -18 18 0 8 -6 14 -13 14 -7 0 -18 9 -25 20 -8 13 -23 20 -42 20 -30 0 -30 0 -14 -25 8 -13 28 -32 44 -42 26 -17 92 -95 101 -120 2 -6 31 -40 64 -75 73 -79 149 -167 153 -179 8 -20 -12 -6 -56 39 -62 63 -184 166 -263 222 -35 24 -93 67 -129 96 -36 28 -85 62 -110 75 -112 62 -248 155 -279 192 -11 14 -11 21 3 42 16 25 16 25 -12 25 -16 0 -32 -3 -35 -7z"></path><path id="p19Gu62mRC" d="M1896 4285 c7 -17 59 -45 86 -45 11 0 18 7 18 20 0 11 -7 20 -15 20 -8 0 -15 -5 -15 -11 0 -6 -13 -1 -29 10 -34 25 -53 27 -45 6z"></path><path id="p12zXkJ1ki" d="M1370 4155 c0 -9 -7 -18 -15 -21 -24 -10 -75 -99 -75 -132 0 -18 3 -32 8 -32 4 0 20 21 36 46 24 39 31 43 38 29 9 -15 11 -15 24 2 7 10 14 13 14 6 0 -7 6 -10 13 -7 7 2 22 -5 34 -16 23 -21 43 -26 43 -12 0 5 20 8 45 8 45 1 59 -9 30 -20 -8 -3 -15 -15 -15 -27 0 -14 5 -19 14 -16 10 4 12 0 9 -14 -4 -15 -8 -17 -19 -8 -12 10 -14 6 -12 -22 3 -29 0 -34 -20 -37 -13 -2 -21 -9 -19 -15 5 -17 58 -21 68 -6 6 10 10 9 15 -4 4 -10 2 -23 -3 -28 -16 -16 -3 -57 19 -62 11 -3 17 -10 14 -16 -9 -13 79 -52 128 -57 21 -2 44 -8 50 -12 6 -5 22 -12 36 -15 14 -3 45 -25 70 -48 25 -23 37 -39 28 -36 -19 7 -88 -18 -88 -31 0 -4 14 -13 30 -19 57 -22 35 -34 -57 -33 -49 1 -108 -3 -133 -8 -25 -5 -52 -10 -60 -10 -19 0 -149 -12 -173 -15 -9 -2 -22 -8 -28 -14 -6 -6 -24 -8 -42 -4 -18 4 -38 6 -44 5 -7 -1 -20 -2 -28 -3 -24 -2 -92 -68 -105 -104 -7 -17 -30 -55 -52 -84 -21 -29 -38 -56 -38 -61 0 -6 -13 -20 -30 -33 -16 -13 -36 -40 -45 -59 -9 -19 -34 -48 -56 -63 -21 -16 -39 -33 -39 -38 0 -5 -13 -9 -28 -9 -37 0 -62 -43 -62 -104 0 -25 -4 -46 -10 -46 -5 0 -10 -13 -10 -28 0 -15 -5 -33 -12 -40 -7 -7 -9 -12 -5 -12 3 0 3 -10 -2 -22 -5 -14 -4 -33 2 -48 13 -32 11 -52 -12 -120 -44 -130 -50 -164 -50 -302 0 -76 6 -164 12 -198 l13 -60 44 24 c43 23 47 23 85 8 22 -8 44 -18 49 -23 4 -4 88 -5 186 -2 97 3 188 3 202 0 44 -11 64 -107 23 -107 -7 0 -15 -4 -17 -9 -1 -6 -16 -12 -33 -15 -16 -2 -30 -5 -30 -6 0 -1 -11 -3 -25 -6 -14 -2 -37 -6 -52 -8 -18 -4 -28 0 -32 11 -5 13 -9 13 -23 2 -10 -9 -14 -9 -10 -2 9 14 -20 23 -171 53 -124 24 -118 24 -126 4 -3 -8 -2 -12 4 -9 13 8 13 -8 -1 -22 -7 -7 -6 -21 5 -48 21 -48 12 -79 -27 -96 -34 -16 -77 -14 -77 2 0 6 -5 7 -10 4 -5 -3 -10 -24 -10 -45 0 -22 -5 -62 -11 -90 -14 -67 10 -161 52 -204 16 -17 29 -38 29 -47 0 -10 5 -21 11 -24 5 -4 9 -17 8 -28 -1 -12 0 -29 3 -37 3 -8 13 -41 22 -72 9 -32 21 -60 26 -63 6 -4 10 -15 10 -27 0 -11 8 -22 19 -25 10 -2 23 -15 29 -27 6 -13 27 -31 49 -41 21 -10 46 -24 55 -33 20 -17 80 -23 121 -11 18 5 42 3 70 -7 23 -9 71 -16 107 -16 36 -1 71 -5 77 -11 7 -5 22 -7 33 -4 11 3 44 -4 73 -15 28 -11 66 -23 83 -28 18 -4 37 -11 44 -15 7 -5 32 -9 54 -11 70 -5 208 -22 266 -33 95 -18 104 -19 127 -20 29 -1 56 -49 41 -74 -15 -27 -19 -65 -8 -72 19 -12 10 -22 -37 -40 -27 -10 -52 -21 -58 -25 -5 -3 -42 -17 -81 -30 l-71 -24 -97 19 c-85 15 -96 20 -91 36 5 13 -4 25 -32 43 -35 22 -57 43 -112 104 -24 25 -27 42 -8 42 24 0 -43 29 -75 32 -22 2 -36 10 -42 24 -5 12 -26 27 -45 34 l-36 13 30 13 c29 12 28 12 -30 16 -62 4 -105 -4 -105 -21 0 -5 10 -13 23 -17 44 -13 78 -45 72 -65 -4 -11 -1 -27 6 -35 9 -11 9 -18 1 -26 -17 -17 -14 -50 7 -76 23 -27 45 -28 92 -3 28 15 38 17 52 6 24 -18 21 -34 -8 -41 -24 -6 -24 -7 -8 -19 16 -12 15 -15 -16 -32 -19 -10 -50 -33 -70 -50 -19 -18 -40 -33 -46 -33 -32 1 -97 29 -119 53 -14 15 -32 27 -40 27 -20 0 -63 20 -105 47 -42 28 -71 30 -71 4 0 -33 -11 -51 -34 -52 -21 0 -21 0 2 -9 12 -5 22 -16 22 -23 0 -9 14 -17 35 -20 19 -3 47 -15 62 -26 14 -12 32 -21 39 -21 8 0 23 -9 34 -20 11 -11 27 -20 35 -20 8 0 15 -4 15 -10 0 -5 11 -10 25 -10 13 0 30 -7 37 -15 37 -45 52 -53 103 -57 32 -3 63 -12 74 -22 10 -9 34 -19 53 -23 37 -5 83 11 73 27 -3 5 6 12 20 16 27 7 32 23 13 42 -21 21 0 24 41 6 23 -11 41 -26 41 -35 0 -9 7 -19 15 -23 11 -4 14 -13 9 -31 -3 -14 -2 -25 3 -25 15 0 33 23 33 41 0 22 71 33 83 12 10 -16 31 -17 57 -1 15 10 27 10 49 1 16 -6 40 -8 54 -6 15 3 50 -7 90 -27 64 -31 69 -31 156 -25 87 7 90 9 127 46 35 36 59 83 70 139 2 14 14 33 26 43 19 16 22 28 20 74 -1 31 -5 60 -8 64 -12 20 -24 7 -24 -24 0 -31 -2 -33 -35 -33 -19 0 -35 5 -35 10 0 6 -4 5 -9 -3 -6 -10 -10 -10 -16 -1 -4 6 8 26 29 47 20 20 36 40 36 44 0 13 33 20 41 8 11 -19 55 14 64 48 3 15 12 35 20 43 7 8 15 23 16 33 2 10 7 18 12 18 4 -1 16 8 28 20 24 24 44 21 44 -7 0 -28 29 -28 55 -1 19 20 27 23 41 14 14 -9 22 -7 38 7 12 11 21 27 21 37 0 12 6 16 20 12 15 -4 20 0 20 16 0 11 3 21 8 21 4 0 13 10 21 21 10 17 10 23 1 29 -14 9 9 57 48 101 21 24 22 30 13 67 -7 23 -8 50 -3 64 11 30 4 58 -13 58 -18 0 -48 -93 -43 -131 3 -16 1 -32 -3 -35 -4 -2 -19 -29 -34 -59 -17 -38 -33 -57 -49 -61 -27 -7 -66 -47 -66 -69 0 -11 -12 -15 -49 -15 -68 0 -136 -31 -145 -64 -4 -15 -17 -31 -31 -36 -14 -5 -25 -16 -25 -25 0 -8 -6 -15 -13 -15 -7 0 -17 -10 -22 -22 -12 -27 -35 -35 -35 -13 0 14 -8 16 -40 13 l-40 -4 0 43 c0 36 3 43 20 43 15 0 20 7 20 25 0 21 5 25 29 25 22 0 30 6 35 25 4 14 11 25 16 25 6 0 10 5 10 11 0 6 16 34 35 63 19 29 35 60 35 70 0 9 5 16 10 16 6 0 10 8 10 18 0 10 4 22 9 28 6 5 13 39 17 77 l7 67 -41 0 c-33 0 -45 -6 -66 -31 -14 -17 -26 -37 -26 -46 0 -8 -16 -41 -34 -73 -19 -33 -38 -75 -42 -95 -3 -19 -10 -38 -15 -41 -5 -3 -9 -25 -9 -50 0 -42 -1 -44 -30 -44 -25 0 -30 -4 -30 -25 0 -14 -4 -25 -10 -25 -5 0 -10 5 -10 10 0 6 -16 10 -35 10 -33 0 -35 -2 -35 -35 0 -31 3 -35 25 -35 14 0 25 -5 25 -11 0 -7 -9 -9 -22 -5 -13 3 -28 6 -35 6 -6 0 -13 10 -15 22 -2 16 -16 26 -53 39 -27 9 -51 22 -53 28 -2 6 -13 11 -25 11 -12 0 -31 7 -41 15 -24 18 -87 20 -104 3 -9 -9 -26 -9 -75 0 -36 7 -79 12 -97 12 -23 0 -33 5 -37 19 -4 14 -20 21 -71 29 -37 6 -94 15 -126 21 -33 5 -72 19 -87 30 -25 19 -46 22 -191 26 l-163 4 -35 39 c-55 61 -66 76 -78 111 -6 17 -20 44 -31 60 -11 15 -25 49 -32 76 -8 30 -26 65 -49 90 -32 35 -60 98 -60 134 0 6 17 11 40 11 37 0 40 2 40 29 0 33 34 61 75 61 19 0 25 5 25 21 0 15 4 19 16 15 9 -3 22 -6 30 -6 8 0 14 -7 14 -16 0 -15 14 -16 125 -12 69 3 125 1 125 -4 0 -13 64 -10 78 4 10 10 16 7 28 -10 16 -24 61 -30 93 -12 25 13 49 178 33 224 -6 17 -14 54 -17 81 -9 69 -37 158 -52 168 -7 4 -13 19 -13 32 0 23 -4 25 -43 25 -48 0 -67 -13 -67 -47 0 -24 -26 -32 -45 -14 -25 22 -120 42 -192 39 -73 -2 -77 -1 -99 28 -20 24 -24 40 -23 94 1 72 20 118 57 135 12 5 22 18 22 27 0 23 26 13 33 -13 3 -10 12 -19 21 -19 8 0 22 -13 31 -30 12 -23 22 -30 45 -30 23 0 30 -4 30 -20 0 -11 7 -20 15 -20 8 0 15 -9 15 -19 0 -32 57 -81 94 -81 44 0 56 16 56 72 0 41 -3 50 -22 57 -37 14 -97 99 -81 114 3 3 36 3 74 0 41 -4 74 -2 81 4 7 6 28 14 46 18 35 7 102 59 102 79 0 6 13 17 30 24 31 14 67 78 77 139 4 21 12 33 27 37 54 14 208 -2 279 -29 38 -15 113 -20 141 -9 11 4 16 19 16 45 0 46 -18 59 -82 59 -24 0 -53 7 -64 15 -11 9 -43 15 -79 15 -33 0 -125 14 -205 31 -80 17 -168 33 -197 36 -38 4 -59 11 -78 30 -30 31 -31 37 -6 62 10 10 24 27 30 37 9 17 10 15 11 -13 0 -31 2 -33 35 -33 33 0 35 2 35 35 0 32 -2 35 -30 35 -27 0 -30 3 -30 34 0 28 -5 37 -29 47 -23 10 -27 16 -19 26 6 8 8 31 5 57 -7 50 0 62 57 100 30 20 52 26 95 26 31 0 74 5 96 11 22 5 78 13 125 18 71 7 93 6 140 -10 30 -10 63 -19 74 -19 26 0 114 -50 146 -82 15 -15 40 -30 56 -34 16 -4 40 -15 53 -26 23 -18 74 -24 105 -12 26 10 21 71 -8 97 -44 42 -79 68 -116 89 -30 18 -40 31 -50 70 -8 34 -17 48 -29 48 -9 0 -25 14 -35 30 -18 31 -108 90 -137 90 -9 0 -24 9 -34 20 -10 11 -22 20 -27 20 -5 0 -18 9 -30 20 -16 15 -36 20 -75 20 -50 0 -53 1 -53 25 0 18 -5 25 -18 25 -20 0 -52 29 -52 48 0 6 12 24 26 39 25 27 26 31 19 108 -4 44 -9 84 -12 88 -3 5 -44 7 -91 6 -60 -2 -87 1 -90 9 -2 7 -22 12 -48 12 -40 0 -44 2 -44 24 0 26 -16 36 -61 36 -19 0 -29 -5 -29 -15z m20 -1250 c47 -4 86 -8 88 -10 2 -1 -12 -11 -30 -22 -21 -13 -41 -17 -53 -13 -11 4 -23 6 -26 4 -3 -2 -30 -6 -59 -9 -30 -4 -62 -11 -73 -16 -10 -6 -21 -8 -25 -5 -3 3 1 6 8 6 11 0 12 2 1 13 -10 10 -15 8 -26 -7 -8 -10 -16 -24 -18 -30 -3 -7 -12 -4 -25 7 -15 14 -21 15 -25 5 -3 -7 -6 -3 -6 10 -1 12 -5 22 -11 22 -24 0 -6 21 33 38 44 20 76 21 247 7z m35 -238 c4 5 5 2 1 -4 -4 -7 -2 -13 3 -13 26 0 7 -28 -41 -58 -45 -30 -53 -33 -74 -21 -38 20 -30 50 24 85 40 26 49 29 63 17 9 -7 19 -10 24 -6z m-205 -813 c39 7 41 0 9 -35 -23 -25 -37 -31 -93 -36 -52 -5 -70 -2 -92 11 -14 10 -45 18 -70 18 -42 0 -64 16 -26 20 26 2 46 6 52 8 8 4 61 9 95 10 17 1 37 5 45 10 8 5 22 5 33 -2 11 -5 32 -8 47 -4z m1040 -1119 c0 -16 -6 -25 -15 -25 -9 0 -15 9 -15 25 0 16 6 25 15 25 9 0 15 -9 15 -25z m-660 -109 c0 -21 53 -55 88 -57 13 0 11 -3 -5 -9 -13 -6 -23 -18 -23 -30 0 -17 -6 -20 -40 -20 -27 0 -43 -5 -46 -15 -4 -11 -20 -15 -53 -14 -25 1 -38 3 -29 6 13 3 19 21 24 74 4 38 11 72 15 75 5 3 9 19 9 36 l0 32 30 -29 c17 -16 30 -38 30 -49z m665 14 c18 0 36 6 38 13 3 6 6 2 6 -10 1 -19 -4 -23 -30 -23 -22 0 -32 -5 -36 -20 -4 -14 -14 -20 -33 -20 -44 0 -58 -9 -70 -46 -8 -24 -19 -36 -38 -40 -15 -4 -38 -12 -52 -19 l-25 -13 4 46 c2 35 -1 49 -15 59 -16 12 -15 13 12 13 17 0 35 5 42 12 9 9 12 9 12 0 0 -21 68 -15 80 8 6 11 22 31 35 46 14 15 26 32 26 38 1 6 4 -1 6 -16 4 -24 9 -28 38 -28z m-815 -60 c0 -5 -4 -10 -9 -10 -5 0 -18 -3 -28 -7 -16 -6 -16 -5 -4 10 15 19 41 23 41 7z m-251 -37 c10 -23 10 -26 0 -15 -7 6 -26 12 -41 12 -18 0 -28 5 -28 15 0 10 10 15 28 15 22 0 32 -7 41 -27z m261 -13 c-19 -13 -30 -13 -30 0 0 6 10 10 23 10 18 0 19 -2 7 -10z m776 -11 c16 -17 16 -22 4 -29 -19 -12 -41 -12 -59 -1 -10 7 -11 13 -2 30 15 27 33 27 57 0z m130 -1 c-3 -13 -6 -33 -6 -45 0 -16 -7 -22 -27 -25 -24 -3 -28 -8 -31 -40 -3 -30 -7 -38 -23 -38 -11 0 -19 7 -19 18 0 9 -3 27 -6 38 -4 16 0 23 15 27 16 4 21 13 21 36 0 26 4 31 25 31 14 0 25 5 25 10 0 6 7 10 16 10 12 0 15 -6 10 -22z m-576 -9 c0 -5 -11 -9 -25 -9 -26 0 -34 15 -12 23 16 5 37 -3 37 -14z m198 -69 c-8 -13 -25 -21 -45 -21 -18 -1 -38 -2 -45 -3 -6 -1 -13 5 -15 12 -3 8 8 12 36 12 22 0 43 5 46 10 3 6 13 10 21 10 12 0 12 -3 2 -20z m177 -18 c24 -4 41 -13 43 -22 2 -12 -8 -15 -50 -14 -30 0 -53 5 -56 12 -2 7 -16 12 -30 12 -26 1 -26 1 -7 16 12 9 28 12 40 9 11 -4 38 -10 60 -13z"></path><path id="phiGBrx3D" d="M2626 3268 c-3 -13 -6 -47 -6 -75 0 -46 3 -53 20 -53 17 0 20 7 20 44 0 24 3 58 6 75 6 26 4 31 -14 31 -12 0 -22 -9 -26 -22z"></path><path id="pNZZkLAR3" d="M2692 3260 c0 -19 2 -27 5 -17 2 9 2 25 0 35 -3 9 -5 1 -5 -18z"></path><path id="p0BpaRmRM" d="M2630 3045 c0 -38 3 -45 20 -45 21 0 26 23 14 68 -11 41 -34 26 -34 -23z"></path><path id="pjumu6bqD" d="M2640 2930 c0 -43 3 -50 20 -50 15 0 20 7 20 28 0 42 -11 72 -26 72 -10 0 -14 -14 -14 -50z"></path><path id="p1GfDNycAx" d="M2650 2831 c0 -44 32 -211 49 -253 10 -26 15 -28 63 -28 66 0 74 -6 83 -53 5 -27 12 -37 26 -37 24 0 25 27 4 77 -25 59 -43 73 -91 73 -33 0 -46 5 -54 20 -9 17 -29 106 -45 203 -8 52 -35 51 -35 -2z"></path><path id="p12f5mE6xf" d="M2129 2712 c-15 -15 -45 -40 -68 -57 -23 -16 -60 -48 -81 -70 -33 -32 -40 -46 -40 -77 0 -37 1 -38 35 -38 24 0 51 11 85 35 27 19 54 35 60 35 5 0 10 4 10 9 0 5 11 12 24 15 13 3 26 14 30 23 3 10 13 29 21 43 8 14 15 44 15 68 0 41 -1 42 -32 42 -22 -1 -42 -10 -59 -28z"></path><path id="pXNr6ZiQy" d="M1598 2613 c-13 -3 -18 -15 -18 -43 0 -21 4 -41 9 -44 17 -11 99 -19 125 -12 23 6 26 12 26 46 0 34 -4 42 -26 50 -26 10 -84 12 -116 3z"></path><path id="p17BcrepMA" d="M2860 2402 c0 -16 11 -62 25 -103 35 -102 65 -221 65 -258 0 -28 -3 -31 -30 -31 -28 0 -30 -3 -30 -35 0 -25 4 -35 16 -35 13 0 15 -10 9 -67 -11 -127 -12 -130 -47 -137 l-31 -6 5 -110 c2 -61 1 -110 -3 -110 -4 0 -9 12 -11 28 -3 23 -8 27 -40 30 -36 3 -38 2 -38 -27 0 -24 -5 -32 -25 -37 -22 -5 -25 -12 -25 -50 0 -32 4 -44 15 -44 11 0 15 -12 15 -51 l0 -50 38 3 c31 3 37 7 40 28 3 23 7 25 37 22 19 -2 35 -8 35 -13 0 -5 14 -9 30 -9 28 0 30 2 19 21 -6 12 -8 35 -5 52 4 21 1 33 -9 41 -9 7 -20 38 -25 73 -4 34 -11 66 -14 72 -10 16 6 101 20 101 29 0 51 48 57 127 4 43 14 100 22 127 28 92 20 146 -52 363 -36 110 -63 146 -63 85z"></path><path id="pxC3yxvob" d="M2755 2146 c-11 -16 -15 -41 -13 -73 3 -48 3 -48 41 -51 28 -2 37 0 37 12 0 9 5 16 10 16 6 0 10 9 10 20 0 11 5 20 11 20 6 0 9 16 7 38 -3 36 -4 37 -45 40 -35 3 -44 -1 -58 -22z"></path><path id="p1HPwAt2ri" d="M1873 2120 c-39 -17 -43 -22 -43 -55 l0 -35 -52 0 c-79 0 -91 -6 -115 -58 -14 -30 -37 -58 -65 -78 -52 -37 -73 -86 -63 -150 7 -50 28 -67 78 -62 22 2 38 -4 54 -19 20 -21 32 -23 116 -23 60 0 97 4 105 12 16 16 125 29 220 28 l72 -1 0 46 c0 43 -2 46 -30 51 -16 4 -32 15 -35 25 -4 13 -16 19 -38 20 -25 1 -21 3 18 10 118 22 150 31 182 50 31 19 34 25 31 63 l-3 41 -65 0 c-50 0 -73 5 -100 23 -23 14 -51 22 -80 22 -25 0 -56 3 -69 7 -23 6 -22 7 10 17 30 10 34 16 37 49 l3 37 -63 0 c-40 0 -78 -7 -105 -20z m38 -156 c11 -14 13 -14 21 0 7 12 25 16 69 16 48 0 68 -5 97 -25 20 -14 48 -25 62 -25 14 0 31 -4 39 -9 15 -10 -25 -26 -89 -36 -19 -3 -43 -8 -52 -11 -22 -7 -157 -7 -185 -1 -32 8 -63 26 -63 37 0 6 -9 10 -20 10 -14 0 -20 7 -20 23 0 34 7 37 70 37 40 0 62 -5 71 -16z"></path><path id="pLr6d2nXg" d="M2901 1076 c-8 -9 -11 -19 -7 -23 9 -9 29 13 24 27 -2 8 -8 7 -17 -4z"></path><path id="p183s4JQs7" d="M940 939 c0 -5 14 -15 31 -21 19 -7 28 -15 25 -24 -7 -19 1 -17 26 6 21 20 21 20 2 35 -22 17 -84 20 -84 4z"></path><path id="p1F2qA7RL7" d="M2563 763 c-7 -2 -13 -9 -13 -15 0 -5 -7 -16 -15 -24 -20 -21 -19 -31 5 -37 11 -3 17 -1 14 4 -3 6 4 18 15 28 12 10 21 26 21 35 0 16 -5 18 -27 9z"></path><path id="pZBvWrAH0" d="M1871 747 c-6 -8 -8 -17 -4 -20 7 -8 33 11 33 24 0 13 -16 11 -29 -4z"></path><path id="p171mQBEvt" d="M963 726 c-27 -13 -29 -24 -8 -32 17 -7 65 21 65 36 0 13 -28 11 -57 -4z"></path><path id="pi5Eku340" d="M1339 653 c-12 -15 -12 -16 4 -10 10 4 28 7 39 7 25 0 16 13 -11 17 -11 1 -25 -5 -32 -14z"></path></g></g><g id="l6TUAtKc9yWYqG2r6PPU8bT" fill="rgb(105,104,108)" style="transform: none;"><g style="transform: none;"><path id="pjUxJ8akN" d="M1209 4468 c6 -25 12 -32 27 -30 10 2 21 8 22 13 2 5 9 9 16 9 7 0 21 9 31 20 18 20 17 20 -42 20 l-60 0 6 -32z"></path><path id="pv1zUOS97" d="M1565 4484 c-43 -22 -75 -55 -75 -76 0 -11 -13 -30 -28 -43 -16 -14 -56 -79 -90 -147 -34 -68 -73 -136 -86 -152 -24 -29 -25 -29 -67 -16 -24 8 -58 30 -77 49 -33 33 -34 35 -28 95 6 59 -4 99 -21 82 -11 -10 -12 -165 -2 -172 15 -9 10 -42 -7 -48 -12 -5 -15 -14 -10 -38 3 -17 1 -37 -5 -44 -8 -10 -7 -21 4 -44 9 -18 12 -32 6 -36 -6 -4 -6 -11 2 -20 6 -7 9 -24 5 -37 -4 -16 2 -34 18 -55 l23 -32 11 26 c7 14 12 33 12 42 0 9 9 23 19 29 11 7 21 23 23 35 2 18 10 24 35 26 20 2 39 12 48 25 21 30 19 37 -10 37 -14 0 -25 -5 -25 -11 0 -6 -10 -9 -22 -7 -16 2 -24 11 -26 30 -3 27 -3 27 51 21 52 -5 55 -5 77 28 13 19 27 36 31 39 3 3 32 57 62 120 31 64 66 125 77 137 11 12 20 27 20 33 0 19 53 71 60 59 7 -10 70 56 70 73 0 13 -43 9 -75 -8z"></path><path id="p139oh6mPW" d="M1850 4493 c-1 -5 -5 -28 -10 -53 -8 -40 -6 -47 13 -63 21 -16 21 -18 5 -31 -22 -16 -23 -30 -2 -22 10 4 21 -4 32 -24 12 -21 32 -36 66 -48 32 -11 78 -43 134 -94 83 -74 87 -76 103 -57 9 10 27 19 40 19 27 0 87 56 112 105 l15 30 35 -76 c81 -172 153 -370 203 -559 35 -131 38 -156 38 -267 -1 -93 2 -123 12 -123 20 0 37 106 30 188 -16 194 -144 599 -264 837 -25 50 -58 124 -72 165 -21 59 -31 76 -48 78 -12 2 -22 2 -22 -1 0 -2 12 -37 26 -78 39 -111 22 -182 -57 -247 -31 -25 -33 -25 -104 44 -18 18 -62 46 -99 63 l-66 31 15 37 c11 26 14 52 10 82 -9 63 -14 71 -41 71 -19 0 -24 -5 -24 -25 0 -13 5 -36 12 -50 15 -33 6 -41 -31 -25 -29 12 -30 14 -24 56 5 40 4 44 -16 44 -11 0 -21 -3 -21 -7z m120 -221 c0 -9 -9 -7 -30 8 -16 12 -30 30 -30 42 0 18 3 17 30 -9 17 -15 30 -34 30 -41z"></path><path id="plBKU6Rcv" d="M2422 4468 c3 -36 23 -36 22 0 0 12 5 21 10 19 16 -5 20 -87 5 -87 -6 0 -9 -8 -6 -20 3 -11 0 -20 -6 -20 -7 0 -4 -5 5 -10 9 -6 19 -23 23 -40 4 -16 20 -41 37 -55 29 -24 29 -25 6 -26 -20 -1 -19 -2 10 -15 l33 -14 -21 -29 c-18 -27 -19 -61 -1 -61 4 0 13 -12 19 -26 9 -17 9 -23 1 -18 -7 4 -10 -1 -7 -12 2 -11 10 -19 18 -19 26 -1 38 -14 33 -35 -3 -12 0 -20 7 -20 10 0 10 -3 1 -14 -8 -9 -8 -16 -2 -20 6 -4 8 -13 5 -21 -3 -8 4 -20 15 -27 23 -14 27 -38 10 -55 -9 -9 -8 -19 5 -38 10 -16 15 -36 12 -49 -3 -12 1 -46 9 -76 23 -84 30 -172 28 -319 l-3 -134 23 21 c13 12 28 22 33 22 15 0 168 160 196 205 14 22 42 78 63 125 61 139 68 152 112 233 53 95 54 115 7 147 -36 24 -36 24 -51 5 -14 -18 -15 -18 -9 -2 7 22 -9 57 -27 57 -7 0 -18 9 -25 20 -7 11 -16 20 -21 20 -5 0 -20 10 -33 21 l-24 21 27 29 c14 16 64 52 110 80 90 55 139 96 139 115 0 23 -63 154 -74 154 -17 -1 -48 -49 -39 -62 16 -27 12 -96 -8 -121 -10 -14 -19 -30 -19 -35 0 -6 -13 -16 -30 -23 -16 -8 -37 -28 -47 -46 -13 -25 -22 -31 -39 -27 -14 4 -27 -1 -35 -11 -8 -9 -33 -38 -56 -64 -24 -27 -43 -55 -43 -64 0 -28 -26 -8 -38 28 -5 19 -10 68 -11 107 -1 112 -8 165 -27 192 -16 25 -15 26 4 26 10 0 31 9 45 20 14 11 29 20 35 20 5 0 17 9 26 19 17 18 17 19 -1 23 -10 3 -33 -7 -52 -20 -27 -20 -37 -23 -51 -14 -22 13 -34 4 -19 -15 7 -8 8 -13 1 -13 -5 0 -12 7 -16 15 -3 8 -16 15 -28 15 l-23 1 23 18 c12 11 22 22 22 25 0 11 -28 6 -33 -6 -4 -10 -6 -10 -6 0 -1 8 -23 12 -76 12 -41 0 -75 -2 -75 -5 0 -3 7 -16 15 -29 13 -20 13 -23 0 -23 -8 0 -17 9 -21 19 -3 10 -10 16 -15 13 -5 -3 -6 1 -3 9 5 13 -2 16 -36 16 -41 0 -41 -1 -38 -32z m172 -59 c-3 -5 2 -9 11 -9 9 0 13 -4 10 -10 -3 -5 2 -10 12 -10 11 0 24 -5 31 -12 15 -15 16 -58 2 -58 -5 0 -10 -7 -10 -15 0 -8 -6 -13 -12 -11 -7 1 -10 1 -5 -1 4 -3 7 -13 7 -23 0 -23 -26 -34 -34 -14 -4 10 -13 13 -26 9 -24 -8 -27 10 -4 23 9 5 14 15 10 21 -4 6 -12 9 -17 6 -5 -4 -9 0 -9 7 0 7 -3 24 -6 38 l-6 25 26 -27 c30 -32 41 -34 61 -14 12 12 12 16 1 26 -11 9 -15 7 -19 -7 -3 -14 -8 -9 -18 17 -7 19 -12 38 -11 43 1 4 -2 7 -8 7 -5 0 -10 5 -10 11 0 8 5 8 15 -1 8 -7 12 -16 9 -21z m-74 -17 c0 -13 -12 -22 -22 -16 -10 6 -1 24 13 24 5 0 9 -4 9 -8z m19 -84 c10 -27 2 -46 -10 -27 -10 15 -12 49 -4 49 3 0 9 -10 14 -22z m361 -239 c0 -5 -4 -7 -10 -4 -5 3 -10 1 -10 -4 0 -6 -5 -11 -11 -11 -8 0 -8 5 1 15 14 17 30 20 30 4z m118 -238 c3 -8 -1 -12 -9 -9 -7 2 -15 10 -17 17 -3 8 1 12 9 9 7 -2 15 -10 17 -17z"></path><path id="pho5kIDuq" d="M2905 4370 c-29 -5 -30 -7 -26 -50 1 -25 7 -49 11 -55 5 -5 10 -23 12 -40 2 -18 9 -30 18 -30 12 0 15 13 15 60 0 33 3 65 6 70 3 6 3 19 0 30 -5 17 -12 19 -36 15z"></path><path id="p5MjauhxQ" d="M2787 4363 c-10 -9 -9 -23 2 -23 5 0 11 7 15 15 5 15 -5 20 -17 8z"></path><path id="p9elOh7ky" d="M3480 3929 c0 -17 -5 -20 -22 -16 -19 5 -26 -1 -40 -31 -14 -28 -15 -38 -5 -44 8 -5 5 -8 -9 -8 -11 0 -29 -9 -38 -19 -15 -17 -16 -24 -5 -62 12 -39 11 -43 -6 -53 -31 -18 -59 -50 -48 -53 12 -4 101 55 157 105 36 31 36 31 36 117 0 50 -4 85 -10 85 -5 0 -10 -9 -10 -21z"></path><path id="p1CF5yopzf" d="M1093 3733 c-17 -6 -17 -23 0 -23 8 0 14 7 14 15 0 8 -1 15 -1 14 -1 0 -7 -3 -13 -6z"></path><path id="pQaDZPuaV" d="M1010 3498 c0 -74 11 -111 25 -88 9 15 -4 148 -16 156 -5 3 -9 -27 -9 -68z"></path><path id="p9n48ggwN" d="M305 3340 c3 -5 12 -10 19 -10 7 0 30 -11 50 -25 43 -29 54 -32 35 -9 -8 9 -33 25 -57 35 -50 22 -56 23 -47 9z"></path><path id="p13cckkik5" d="M2890 1371 c0 -39 9 -61 25 -61 19 0 25 38 8 55 -8 8 -11 19 -8 25 3 5 -1 10 -9 10 -11 0 -16 -9 -16 -29z"></path><path id="pZTZS2wV0" d="M2820 975 c0 -14 5 -25 10 -25 6 0 10 11 10 25 0 14 -4 25 -10 25 -5 0 -10 -11 -10 -25z"></path><path id="p2vg7S8pj" d="M946 941 c-8 -12 11 -24 24 -16 6 3 10 1 10 -4 0 -6 11 -11 25 -11 14 0 25 4 25 9 0 9 -8 12 -62 27 -9 3 -19 0 -22 -5z"></path><path id="p77kG1qaN" d="M2413 763 c-35 -5 -45 -28 -15 -36 16 -4 16 -5 0 -6 -10 0 -18 -8 -18 -17 0 -14 2 -15 17 -3 49 41 76 69 63 67 -8 0 -30 -3 -47 -5z"></path><path id="pBx8YamQl" d="M2482 758 c-19 -19 -14 -30 8 -18 11 6 20 15 20 20 0 14 -14 12 -28 -2z"></path><path id="p154uzXzTt" d="M1870 734 c0 -14 3 -14 15 -4 8 7 15 14 15 16 0 2 -7 4 -15 4 -8 0 -15 -7 -15 -16z"></path><path id="pSTyXvG44" d="M950 718 c-23 -9 -24 -10 -7 -20 13 -7 22 -7 29 0 18 18 5 30 -22 20z"></path><path id="pzGbhKnYy" d="M2440 565 c0 -27 1 -28 24 -19 24 9 20 44 -4 44 -15 0 -20 -7 -20 -25z"></path><path id="paWWMy19D" d="M1472 373 c-20 -8 17 -32 51 -33 31 0 36 15 8 30 -21 11 -38 12 -59 3z"></path></g></g><g id="l4LJ0nY8G4Lu9dgwYTH3XZe" fill="rgb(159,106,80)" style="transform: none;"><g style="transform: none;"><path id="p18JxfOxue" d="M1550 4455 c-7 -8 -19 -15 -27 -15 -8 0 -21 -16 -29 -35 -8 -19 -18 -35 -22 -35 -4 0 -13 -9 -20 -20 -11 -18 -10 -20 18 -20 20 0 30 5 30 15 0 8 5 15 12 15 14 0 68 -50 68 -62 0 -5 -27 -6 -60 -2 -42 5 -60 3 -60 -5 0 -6 -6 -11 -14 -11 -15 0 -62 -64 -97 -132 -12 -23 -29 -50 -39 -60 -10 -11 -24 -33 -30 -49 -9 -20 -19 -29 -36 -29 -17 0 -25 -7 -30 -25 -3 -14 -8 -25 -11 -25 -10 0 -33 29 -33 42 0 8 -8 4 -21 -9 -15 -14 -19 -27 -14 -43 4 -12 9 -19 12 -16 4 3 12 1 18 -4 7 -6 31 -11 55 -13 l42 -2 43 75 c23 41 54 87 69 102 14 15 26 31 26 37 0 6 7 8 15 5 8 -4 15 -17 15 -30 0 -25 36 -42 66 -30 8 3 22 -1 31 -9 12 -12 34 -15 97 -13 l81 3 6 -54 c8 -57 -9 -101 -37 -101 -21 0 -14 -92 9 -108 11 -8 16 -21 12 -31 -10 -31 22 -46 89 -43 50 3 65 -1 83 -17 12 -12 26 -21 31 -21 5 0 17 -9 27 -20 10 -11 25 -20 34 -20 31 0 119 -59 140 -94 13 -21 28 -33 35 -30 10 4 18 -10 26 -43 11 -40 20 -53 50 -71 38 -21 72 -48 118 -91 20 -18 22 -25 11 -32 -20 -13 -24 -12 -57 16 -16 13 -32 22 -35 19 -8 -8 -63 23 -79 43 -16 23 -109 73 -134 73 -11 0 -52 11 -92 25 -57 19 -79 22 -105 14 -17 -5 -44 -7 -58 -4 -15 4 -53 -2 -85 -11 -33 -9 -91 -18 -130 -19 -69 -2 -104 -14 -153 -53 -24 -19 -46 -100 -32 -115 8 -8 -19 -76 -31 -77 -3 0 -9 8 -11 18 -4 15 -5 15 -6 0 0 -9 5 -20 12 -25 12 -8 17 -9 40 -12 6 -1 20 -8 31 -16 17 -13 17 -15 2 -30 -9 -9 -16 -21 -16 -26 0 -6 -4 -8 -9 -5 -8 6 -36 -43 -32 -57 1 -5 -8 -11 -19 -14 -20 -5 -28 -23 -11 -23 5 0 28 -18 50 -39 36 -35 47 -40 89 -39 26 0 101 -12 167 -27 162 -36 162 -36 229 -36 35 0 68 -6 80 -15 11 -7 41 -14 66 -14 54 0 95 -23 70 -40 -21 -14 -45 -12 -84 4 -75 31 -290 49 -346 28 -18 -7 -25 -18 -26 -38 -3 -51 -42 -121 -74 -136 -17 -7 -30 -18 -30 -24 0 -20 -67 -72 -102 -79 -18 -4 -38 -12 -45 -17 -7 -5 -37 -6 -77 0 -72 9 -86 4 -86 -37 -1 -30 -31 -71 -54 -71 -8 0 -22 13 -30 29 -9 16 -25 31 -37 34 -19 5 -20 8 -9 21 10 14 10 16 -5 16 -10 0 -23 7 -30 16 -10 15 -15 15 -41 3 -16 -8 -29 -21 -29 -29 0 -8 -9 -19 -19 -25 -11 -5 -28 -26 -39 -45 -26 -47 -29 -193 -4 -231 9 -14 15 -28 12 -31 -7 -7 18 -10 110 -12 44 -1 94 -5 110 -10 49 -14 115 -46 115 -56 0 -5 16 -8 35 -7 35 2 45 11 23 20 -9 4 -9 6 -1 6 6 1 9 10 6 21 -6 23 12 50 34 50 10 0 12 -6 8 -19 -4 -12 1 -24 13 -33 21 -15 51 -112 56 -178 1 -25 8 -55 14 -67 9 -16 9 -36 1 -80 -6 -32 -12 -64 -13 -72 -2 -7 -10 -17 -19 -23 -14 -7 -21 -3 -35 21 -20 36 -39 39 -76 10 -14 -11 -26 -16 -26 -10 0 7 -43 9 -125 8 -97 -2 -125 0 -125 10 0 7 -8 13 -18 13 -10 0 -22 3 -26 8 -4 4 -23 7 -42 7 -27 0 -34 -4 -34 -20 0 -14 -7 -20 -24 -21 -40 -3 -76 -33 -76 -65 0 -38 -11 -36 -31 3 -25 51 -35 44 -45 -29 -12 -87 6 -154 57 -210 22 -24 41 -58 48 -88 7 -27 21 -61 32 -76 11 -16 25 -43 31 -60 14 -39 29 -60 90 -121 49 -49 84 -60 118 -38 9 5 19 5 27 -1 8 -7 19 -7 33 1 13 7 26 8 33 3 7 -5 41 -9 77 -8 50 1 71 -3 91 -17 14 -11 52 -24 85 -29 32 -6 75 -13 94 -16 19 -3 40 -10 47 -15 7 -5 21 -7 33 -3 11 4 20 2 20 -4 0 -6 -6 -11 -12 -11 -38 -2 57 -28 99 -28 27 0 59 -4 69 -10 23 -11 103 -5 121 10 9 7 20 6 38 -6 13 -9 33 -16 44 -16 11 0 21 -5 23 -11 2 -6 26 -19 53 -28 28 -10 51 -24 51 -32 1 -8 2 -19 3 -26 0 -6 10 -9 21 -6 11 3 20 1 20 -5 0 -5 -9 -12 -20 -15 -12 -3 -20 -14 -20 -25 0 -26 18 -38 26 -18 8 21 34 20 34 0 0 -19 -38 -84 -49 -84 -4 0 -13 -12 -20 -26 -6 -15 -15 -24 -18 -20 -4 3 -1 12 5 18 34 34 -21 31 -70 -3 -14 -11 -35 -19 -46 -19 -11 0 -42 -9 -68 -21 -55 -23 -114 -31 -114 -15 0 6 -4 5 -9 -3 -8 -12 -11 -12 -25 1 -8 9 -32 19 -53 23 -54 10 -77 24 -64 39 8 9 -1 21 -36 47 -25 19 -55 38 -65 44 -10 5 -18 15 -18 21 0 12 -42 34 -65 34 -19 0 -19 14 0 30 21 18 7 30 -42 34 -22 2 -46 7 -54 11 -8 4 -1 -4 16 -18 28 -23 28 -25 8 -31 -11 -4 -26 -4 -34 -1 -8 2 -25 -4 -38 -14 -17 -13 -22 -23 -16 -39 3 -12 13 -22 21 -22 8 0 14 -7 14 -15 0 -21 44 -19 66 2 23 23 45 25 66 6 23 -21 23 -35 -1 -74 -15 -24 -17 -37 -10 -51 7 -12 6 -18 -1 -18 -8 0 -9 -11 -5 -30 5 -22 3 -30 -7 -30 -8 0 -27 -13 -43 -30 -33 -35 -40 -36 -63 -13 -16 16 -16 16 1 10 20 -7 57 24 57 48 0 22 -28 18 -35 -5 -4 -11 -10 -18 -15 -15 -5 3 -6 13 -3 21 5 14 3 15 -15 5 -16 -8 -28 -9 -41 -1 -11 5 -31 10 -44 10 -15 0 -31 10 -41 25 -10 16 -26 25 -42 25 -22 0 -100 36 -131 62 -20 16 -53 -9 -53 -41 0 -23 7 -32 37 -46 20 -10 46 -26 57 -36 11 -11 26 -19 34 -19 8 0 25 -9 39 -20 15 -11 34 -18 44 -15 9 3 20 1 24 -5 3 -5 17 -10 29 -10 18 0 25 -7 29 -28 7 -33 48 -57 66 -39 10 10 36 3 81 -24 41 -25 84 -40 99 -34 14 6 14 8 -3 21 -11 8 -16 14 -10 15 21 1 46 8 51 13 9 9 -8 26 -26 26 -10 0 -32 7 -47 16 -29 16 -29 16 24 10 44 -4 55 -2 72 16 11 12 21 20 22 17 2 -2 8 -13 14 -24 6 -11 21 -21 33 -23 13 -2 26 -14 32 -29 9 -23 13 -25 51 -19 23 4 48 12 55 18 9 7 20 6 39 -7 19 -12 39 -16 70 -12 24 2 44 1 46 -3 6 -16 58 2 56 18 -3 18 44 45 110 63 23 6 41 14 38 16 -8 9 15 61 30 67 9 3 25 -5 39 -20 26 -28 25 -44 -2 -44 -19 0 -74 -45 -66 -54 4 -3 17 -6 30 -6 14 0 23 -6 23 -15 0 -8 1 -18 3 -22 1 -5 -24 -11 -56 -14 -32 -4 -61 -9 -64 -13 -15 -15 19 -28 74 -28 152 1 151 1 190 39 31 32 35 41 30 73 -3 27 0 43 11 54 11 10 12 16 4 16 -7 0 -12 5 -12 10 0 6 8 10 18 10 29 0 62 29 62 56 0 20 -5 24 -31 24 -22 0 -32 -5 -36 -20 -11 -40 -65 -18 -68 27 -1 20 8 39 34 66 23 24 30 37 20 37 -8 0 -20 -5 -27 -12 -6 -6 -14 -9 -17 -7 -6 6 26 22 70 35 17 5 34 19 40 32 5 12 15 22 22 22 17 0 16 -10 -4 -32 -15 -17 -15 -18 1 -18 19 0 44 52 27 58 -19 6 -12 22 14 32 14 5 27 21 31 36 5 18 19 31 51 45 58 25 63 24 63 -6 0 -32 13 -32 35 1 16 24 17 25 36 8 15 -14 21 -15 34 -4 18 15 16 44 -3 46 -6 1 -14 2 -17 3 -12 3 41 50 60 53 11 2 24 8 28 13 5 6 7 3 3 -7 -3 -10 -1 -18 5 -18 7 0 9 10 5 23 -6 26 21 87 55 124 13 12 18 23 11 23 -17 0 -19 41 -5 84 15 46 17 98 3 112 -6 6 -6 21 -1 41 7 25 5 33 -11 48 -26 21 -39 5 -31 -37 7 -35 -21 -40 -31 -5 -9 32 -8 35 14 57 23 23 24 33 14 146 l-7 81 31 11 c34 12 38 20 46 119 3 35 15 97 26 139 19 73 19 80 4 153 -9 42 -31 124 -50 182 -19 58 -34 120 -34 138 0 56 -21 121 -47 141 -20 15 -29 17 -54 8 -16 -5 -35 -8 -43 -5 -13 5 -36 80 -56 190 -8 40 -16 57 -27 57 -13 0 -15 -10 -9 -62 8 -78 40 -204 57 -224 9 -11 27 -15 63 -12 45 3 52 0 63 -22 7 -14 13 -46 13 -71 0 -25 13 -84 29 -132 29 -84 29 -87 8 -72 -12 8 -38 15 -58 15 -32 0 -38 -4 -48 -30 -5 -17 -19 -44 -31 -59 -20 -29 -27 -99 -14 -148 9 -33 75 -32 118 1 l31 23 -5 -66 c-6 -66 -22 -111 -40 -111 -6 0 -10 -8 -10 -18 0 -14 -7 -17 -45 -14 -40 4 -45 2 -45 -17 0 -12 -4 -21 -10 -21 -5 0 -10 -7 -10 -15 0 -8 -7 -15 -15 -15 -10 0 -15 -11 -15 -35 0 -34 1 -35 40 -35 29 0 40 -4 40 -15 0 -8 -4 -15 -10 -15 -5 0 -10 5 -10 10 0 6 -16 10 -35 10 -24 0 -39 -6 -47 -20 -9 -14 -23 -20 -48 -19 -30 2 -31 3 -7 6 23 4 27 9 27 39 0 32 -2 34 -35 34 -31 0 -35 -3 -35 -25 0 -21 -5 -25 -29 -25 -23 0 -34 -8 -50 -36 -27 -45 -43 -106 -45 -164 -1 -39 2 -45 22 -48 53 -8 7 -87 -75 -128 -33 -16 -68 -65 -79 -109 -3 -14 -10 -25 -15 -25 -5 0 -9 -13 -9 -30 0 -20 -13 -45 -42 -79 -38 -44 -47 -50 -85 -50 -32 -1 -46 -7 -61 -26 -25 -32 -36 -31 -82 5 -24 19 -50 30 -69 30 -17 0 -31 4 -31 10 0 5 -11 12 -25 16 -14 3 -25 10 -25 14 0 4 -43 10 -96 14 -80 6 -99 5 -113 -8 -24 -22 -31 -20 -31 9 0 22 -4 25 -35 25 -28 0 -35 4 -35 19 0 11 -5 21 -12 23 -8 3 -8 12 3 36 10 23 21 32 37 32 13 0 30 6 38 14 16 16 19 76 4 76 -5 0 -10 6 -10 14 0 17 -54 28 -141 27 -35 0 -94 2 -130 5 -72 6 -60 13 -130 -78 -11 -16 -30 -28 -42 -28 -35 0 -45 -12 -49 -55 -3 -34 -7 -40 -36 -47 -20 -5 -40 -5 -52 2 -39 21 -141 190 -165 274 -10 34 -28 65 -50 86 -19 19 -35 38 -35 42 0 4 16 8 35 8 40 0 46 9 65 93 l14 59 90 -7 c88 -6 156 -26 156 -45 0 -19 42 -30 137 -36 140 -8 189 1 210 37 19 31 33 23 33 -20 l0 -24 120 8 c106 6 120 5 120 -9 0 -12 10 -16 40 -16 30 0 46 7 70 30 34 34 50 38 50 14 0 -18 19 -17 140 7 30 6 76 13 102 16 34 3 49 10 53 23 3 10 16 20 28 22 19 3 22 10 25 51 3 41 1 47 -17 47 -11 0 -23 5 -26 10 -3 6 0 10 7 10 7 0 29 13 48 28 19 16 43 31 53 35 9 3 17 17 17 29 0 13 3 47 6 76 l7 52 -33 0 c-18 0 -53 -7 -79 -16 -45 -16 -47 -16 -101 9 -48 22 -51 25 -27 26 27 1 28 3 25 44 -3 38 -6 43 -38 54 -89 30 -244 5 -357 -58 -29 -16 -58 -29 -65 -29 -7 0 -24 -25 -37 -54 -16 -34 -41 -67 -69 -90 -51 -41 -62 -44 -62 -17 0 11 -4 22 -9 25 -4 3 -11 28 -14 55 -3 27 -19 73 -36 103 -16 29 -36 76 -44 104 -8 28 -22 65 -30 81 -9 16 -18 46 -22 66 -5 26 -15 42 -34 51 -29 16 -65 53 -73 76 -5 13 8 15 81 15 80 0 89 2 133 32 l47 32 55 -20 c58 -20 93 -23 145 -13 29 6 31 9 31 51 0 41 -3 45 -35 59 -19 7 -44 14 -55 14 -23 0 -27 18 -5 26 8 4 15 12 15 19 0 8 6 20 14 28 8 8 16 27 18 43 l3 29 105 -3 c98 -3 106 -5 125 -27 19 -22 28 -25 95 -25 86 0 86 -17 0 -31 -60 -9 -80 -23 -80 -54 0 -13 -28 -56 -67 -103 -66 -81 -93 -133 -93 -184 0 -27 2 -28 48 -28 34 0 58 7 84 25 20 14 42 25 47 25 6 0 11 3 11 8 0 7 54 34 93 46 9 3 17 12 17 21 0 8 7 15 15 15 8 0 15 7 15 15 0 8 4 15 9 15 19 0 72 54 92 92 11 21 31 43 44 48 20 8 25 16 25 45 0 21 -6 38 -14 41 -8 3 -17 20 -20 39 -4 18 -18 49 -31 69 -14 20 -25 50 -25 66 0 17 -4 30 -10 30 -5 0 -10 5 -10 10 0 6 17 10 39 10 23 0 48 8 64 20 16 13 40 20 67 20 55 0 79 28 80 91 0 33 6 51 20 64 15 13 20 31 20 65 0 32 -6 55 -20 73 -11 14 -20 29 -20 34 0 4 -15 23 -34 41 -35 33 -46 69 -46 148 0 37 -4 44 -32 59 -18 9 -46 23 -63 32 -52 28 -64 33 -80 33 -8 0 -15 6 -16 13 0 18 -50 53 -90 65 -56 15 -79 40 -79 87 -1 59 -25 84 -88 92 -56 6 -70 26 -27 37 22 6 25 12 25 51 0 24 -4 47 -10 50 -5 3 -10 22 -10 41 0 26 -4 34 -17 34 -10 0 -25 5 -33 10 -12 8 -9 10 11 10 27 0 104 -47 199 -123 30 -23 62 -46 70 -49 8 -3 43 -29 78 -57 34 -28 64 -51 67 -51 3 0 21 -18 41 -40 20 -22 43 -40 50 -40 8 0 14 -7 14 -15 0 -8 7 -15 15 -15 8 0 15 -8 15 -18 0 -10 24 -41 54 -69 29 -28 60 -65 67 -82 12 -26 19 -31 48 -31 l34 0 -6 47 c-3 26 -12 52 -21 58 -9 7 -16 19 -16 28 0 9 -4 18 -9 21 -5 3 -23 31 -40 61 -35 62 -108 145 -128 145 -7 0 -13 8 -13 18 0 20 -39 62 -58 62 -7 0 -12 7 -12 15 0 8 -4 15 -10 15 -5 0 -10 4 -10 9 0 14 -60 101 -70 101 -4 0 -11 11 -14 25 -4 14 -18 31 -31 37 -14 6 -25 19 -25 28 0 17 -38 40 -65 40 -8 0 -15 -7 -15 -16 0 -8 5 -12 11 -8 7 4 9 -1 7 -14 -3 -21 27 -62 47 -62 11 0 32 -25 81 -98 25 -37 115 -142 187 -217 36 -37 97 -130 97 -147 0 -4 -19 14 -42 40 -86 96 -184 185 -282 257 -56 41 -123 91 -151 113 -27 22 -108 74 -180 118 -126 76 -265 179 -265 197 0 4 12 24 26 43 l26 34 -30 0 c-16 0 -35 -7 -42 -15z m435 -1085 c83 -23 156 -70 182 -118 18 -33 18 -33 -4 -50 -18 -14 -25 -34 -35 -102 -6 -48 -17 -88 -24 -93 -8 -4 -16 -29 -20 -55 -5 -38 -11 -50 -32 -60 -34 -16 -62 -15 -86 3 -13 10 -44 15 -95 15 -42 0 -99 6 -128 12 -45 11 -53 16 -53 35 0 19 -5 23 -29 23 -29 0 -30 0 -15 28 7 15 14 49 14 75 0 40 -3 50 -20 54 -11 3 -20 8 -20 12 0 9 -53 28 -102 36 -31 6 -37 11 -41 38 -3 18 -8 41 -12 53 -5 15 1 29 22 51 25 27 37 32 98 37 86 7 183 20 189 26 8 9 160 -6 211 -20z m-365 -409 c0 -17 -3 -18 -35 -8 -19 6 -35 14 -35 19 0 4 16 8 35 8 28 0 35 -4 35 -19z m556 -298 c-9 -15 -18 -36 -22 -46 -3 -9 -17 -20 -30 -23 -13 -3 -24 -10 -24 -15 0 -5 -5 -9 -12 -9 -6 0 -19 -6 -27 -14 -9 -8 -23 -16 -31 -18 -8 -2 -21 -11 -28 -20 -14 -19 -32 -24 -32 -10 0 12 73 83 121 117 23 17 53 42 68 56 30 31 39 22 17 -18z m-492 -83 c51 -19 17 -47 -38 -32 -47 13 -44 32 6 41 4 0 18 -3 32 -9z m-459 -151 c10 -30 46 -70 73 -80 25 -10 29 -41 8 -58 -11 -9 -20 -5 -45 19 -17 18 -31 40 -31 51 0 10 -7 19 -15 19 -10 0 -14 10 -13 35 1 39 13 46 23 14z m1600 -299 c3 -5 -1 -10 -11 -10 -11 0 -15 -6 -11 -20 3 -11 1 -20 -4 -20 -5 0 -9 -7 -9 -16 0 -8 -4 -12 -10 -9 -15 9 -12 37 6 63 16 24 29 28 39 12z m-820 -29 c-6 -5 -37 -18 -70 -30 -73 -24 -99 -11 -34 18 45 21 121 29 104 12z m59 -107 c17 -1 43 -13 59 -24 24 -18 40 -21 90 -18 49 2 62 0 62 -11 0 -26 -86 -60 -187 -75 -55 -8 -106 -21 -120 -31 -12 -9 -16 -15 -8 -12 8 2 28 -5 43 -16 16 -11 39 -19 52 -19 15 0 27 -9 34 -26 7 -13 10 -26 8 -28 -8 -9 -106 -26 -152 -28 -27 -1 -61 -8 -75 -15 -13 -8 -51 -15 -85 -17 -65 -2 -99 11 -110 46 -3 11 -11 20 -16 20 -6 0 -7 -4 -4 -10 3 -5 2 -10 -4 -10 -5 0 -14 7 -19 16 -11 20 -36 9 -28 -12 4 -12 2 -12 -15 -3 -11 6 -18 16 -16 24 3 7 2 16 -2 21 -15 16 19 73 59 100 24 16 48 44 61 73 12 25 24 48 25 50 2 2 45 6 96 8 51 3 95 7 98 10 4 4 40 1 154 -13z m86 -270 c0 -8 -9 -14 -20 -14 -19 0 -27 19 -14 33 10 9 34 -4 34 -19z m514 -170 c13 -34 7 -44 -29 -44 -32 0 -35 2 -35 30 0 26 3 30 29 30 17 0 31 -6 35 -16z m118 -170 c-6 -48 -22 -52 -22 -5 0 30 4 41 13 38 7 -2 11 -16 9 -33z m-172 -74 c0 -11 -4 -20 -10 -20 -5 0 -10 9 -10 20 0 11 5 20 10 20 6 0 10 -9 10 -20z m-77 -47 c-3 -21 -10 -42 -14 -47 -5 -6 -9 -18 -9 -27 0 -10 -5 -19 -10 -21 -6 -2 -12 -12 -14 -24 -2 -11 -18 -41 -35 -66 -17 -25 -31 -51 -31 -57 0 -6 -4 -11 -10 -11 -5 0 -12 -11 -16 -25 -3 -14 -10 -25 -15 -25 -12 0 -12 47 0 54 5 3 12 22 15 41 4 20 23 62 42 95 18 32 34 65 34 73 0 17 47 77 60 77 5 0 6 -17 3 -37z m298 -33 c18 0 19 -5 13 -52 -8 -63 -27 -98 -54 -98 -11 0 -20 -7 -20 -15 0 -9 -11 -20 -25 -25 -14 -5 -28 -17 -31 -25 -8 -19 -24 -19 -24 0 0 10 -10 15 -34 15 -18 0 -39 -7 -46 -15 -7 -8 -18 -15 -25 -15 -8 0 -28 -25 -46 -57 -29 -51 -33 -54 -40 -35 -6 16 -17 22 -39 22 -16 0 -30 3 -30 8 1 11 61 105 93 145 16 20 34 57 40 84 10 41 16 48 40 51 25 3 27 1 27 -33 l0 -37 40 4 c36 3 40 1 40 -19 0 -19 5 -23 34 -23 38 0 46 12 46 68 0 47 13 95 18 70 2 -10 12 -18 23 -18z m-501 -479 c0 -14 -18 -23 -30 -16 -6 4 -8 11 -5 16 8 12 35 12 35 0z m-104 -137 c-3 -9 -6 -18 -6 -20 0 -2 -12 -4 -27 -4 l-28 0 25 20 c30 24 44 25 36 4z m-626 -24 c10 -6 11 -10 3 -10 -7 0 -13 -7 -13 -16 0 -23 -24 -11 -28 14 -4 24 13 28 38 12z m720 -4 c0 -2 -3 -11 -6 -20 -5 -12 -9 -13 -24 -4 -10 7 -16 16 -14 20 5 8 44 11 44 4z m-181 -38 c-12 -24 -28 -38 -42 -38 -5 0 4 14 20 30 34 36 38 37 22 8z m-218 -30 c13 -24 36 -23 50 3 7 15 14 18 21 11 16 -16 1 -42 -25 -42 -13 0 -28 -5 -35 -12 -9 -9 -21 -7 -53 11 -42 24 -56 23 -46 -3 4 -10 13 -13 24 -10 15 5 16 4 3 -5 -21 -15 -66 -14 -82 2 -7 7 -31 20 -53 29 -37 15 -38 17 -18 25 12 4 63 8 113 8 77 0 93 -3 101 -17z m-205 -60 c10 -13 12 -17 4 -10 -8 6 -24 12 -37 12 -13 0 -23 5 -23 10 0 18 37 10 56 -12z"></path><path id="p2z0KkCDo" d="M1843 4435 c-10 -33 -9 -37 13 -52 32 -21 37 -14 29 41 -9 55 -27 60 -42 11z"></path><path id="pZqIhBzHg" d="M2067 3470 c-3 -13 0 -20 9 -20 15 0 19 26 5 34 -5 3 -11 -3 -14 -14z"></path><path id="pxOuAAuWU" d="M2626 3283 c-8 -49 -8 -147 1 -250 5 -72 8 -83 25 -83 18 0 18 6 11 108 -10 133 -10 166 1 220 7 38 6 42 -12 42 -15 0 -21 -9 -26 -37z"></path><path id="p9VLvAgz8" d="M2640 2895 c0 -38 3 -45 20 -45 21 0 26 23 14 68 -11 41 -34 26 -34 -23z"></path><path id="plUAzmQ6j" d="M1440 2833 c-44 -16 -67 -67 -35 -79 23 -9 87 56 73 73 -11 14 -15 14 -38 6z"></path><path id="pzgTx9YJ8" d="M998 2106 c-20 -5 -39 -16 -40 -25 -3 -13 12 -18 76 -27 90 -12 126 -8 126 12 0 37 -89 59 -162 40z"></path><path id="pLeskUHSW" d="M2821 980 c0 -33 1 -34 11 -12 8 17 8 26 0 34 -9 9 -12 4 -11 -22z"></path><path id="p1FBlwJqGE" d="M945 940 c-3 -6 3 -10 14 -10 12 0 21 -4 21 -10 0 -13 37 -13 45 -1 5 9 -3 12 -57 27 -9 3 -19 0 -23 -6z"></path><path id="pYSrzOoKP" d="M1245 930 c3 -5 17 -10 30 -10 13 0 27 5 30 10 4 6 -8 10 -30 10 -22 0 -34 -4 -30 -10z"></path><path id="pidzRex4D" d="M1305 910 c-8 -12 17 -28 58 -35 29 -6 37 -4 37 7 0 16 -87 41 -95 28z"></path><path id="pMUsQPtqm" d="M1327 845 c-8 -19 8 -28 34 -20 16 5 18 10 8 21 -15 18 -35 18 -42 -1z"></path><path id="pJaDiMtul" d="M966 724 c-18 -10 -25 -19 -19 -25 13 -13 63 9 63 28 0 17 -8 16 -44 -3z"></path><path id="pkEsL1ZVl" d="M2035 390 c-3 -6 6 -15 20 -20 35 -13 35 -13 35 10 0 15 -7 20 -24 20 -14 0 -28 -5 -31 -10z"></path></g></g><g id="l2AsDbvdIxRzYnMGMnuXAo0" fill="rgb(196,136,109)" style="transform: none;"><g style="transform: none;"><path id="pV29gRWaE" d="M1575 4483 c-41 -21 -66 -44 -59 -54 3 -5 0 -9 -5 -9 -6 0 -11 -6 -11 -13 0 -7 -14 -26 -30 -42 -17 -16 -57 -83 -90 -150 -32 -66 -72 -135 -87 -152 -26 -30 -31 -32 -65 -24 -22 5 -38 5 -38 0 0 -5 -6 -9 -12 -9 -12 0 -38 -43 -38 -63 0 -24 45 -48 84 -44 39 4 42 6 88 88 113 202 137 233 180 236 36 3 82 4 112 3 10 -1 26 7 36 18 17 18 16 20 -31 67 -27 27 -49 54 -49 60 0 7 9 20 21 31 12 10 30 31 41 47 18 26 18 27 1 27 -10 -1 -31 -8 -48 -17z"></path><path id="pd94As8fu" d="M1851 4456 c-6 -25 -11 -49 -11 -53 0 -8 52 -43 64 -43 12 0 6 51 -7 56 -8 3 -11 18 -9 44 6 58 -22 54 -37 -4z"></path><path id="p14vEUYth" d="M1930 4465 c0 -31 3 -35 26 -35 21 0 25 3 19 18 -4 9 -10 25 -12 35 -10 32 -33 19 -33 -18z"></path><path id="pOZTKpJve" d="M2314 4258 c-20 -41 -84 -108 -101 -108 -14 0 -29 10 -66 45 -12 11 -46 33 -74 48 -43 23 -53 25 -53 13 0 -9 9 -16 20 -16 14 0 20 -7 20 -21 0 -12 4 -17 11 -14 6 4 13 -2 16 -14 3 -11 9 -18 14 -15 5 3 9 -4 9 -15 0 -11 9 -22 19 -26 11 -3 29 -20 40 -38 46 -74 89 -128 181 -228 54 -58 110 -128 125 -155 16 -27 35 -57 43 -67 8 -9 13 -19 10 -22 -3 -3 -49 42 -103 100 -89 96 -238 228 -275 243 -8 3 -40 26 -70 49 -117 93 -230 159 -230 135 0 -5 -11 -7 -24 -5 -17 4 -25 0 -29 -16 -3 -14 -13 -21 -29 -21 -12 -1 -34 -7 -48 -15 l-25 -14 35 -2 c38 -2 37 -2 93 -14 34 -7 38 -11 34 -31 -2 -13 2 -32 9 -41 20 -27 17 -42 -11 -49 -14 -3 -25 -11 -25 -18 0 -7 -20 -17 -45 -24 -83 -22 -43 -53 73 -57 66 -2 78 -6 93 -26 18 -24 18 -24 -8 -27 l-26 -4 29 -23 c16 -14 23 -24 17 -25 -23 0 -13 -28 12 -34 14 -4 25 -11 25 -16 0 -5 19 -14 42 -21 46 -12 97 -47 97 -66 1 -7 10 -13 21 -13 11 0 25 -9 32 -19 8 -14 16 -17 24 -10 7 6 19 3 35 -9 13 -10 36 -23 50 -31 24 -12 26 -18 25 -67 0 -30 3 -54 8 -54 4 0 6 -9 3 -19 -3 -14 7 -32 34 -58 21 -21 39 -42 39 -46 0 -5 9 -20 20 -34 27 -35 25 -47 -12 -94 -28 -35 -30 -41 -19 -63 12 -21 11 -28 -5 -49 -15 -19 -28 -25 -63 -25 -25 -1 -51 -8 -61 -17 -24 -21 -70 -27 -70 -9 0 8 -6 14 -14 14 -26 0 -33 43 -20 110 3 14 6 31 6 38 1 8 12 19 25 25 29 13 30 46 3 101 -18 38 -59 73 -120 103 -38 19 -214 61 -225 54 -5 -3 -35 -7 -65 -7 -88 -3 -92 -4 -152 -21 -34 -9 -75 -13 -98 -10 -35 4 -45 1 -68 -21 -63 -62 -64 -65 -45 -108 9 -21 17 -52 17 -68 1 -25 6 -31 36 -38 60 -14 105 -30 112 -42 4 -6 13 -11 20 -11 7 0 14 -10 16 -22 2 -13 -2 -23 -8 -23 -7 0 -10 -6 -7 -14 9 -23 -21 -42 -44 -28 -28 18 -38 15 -50 -15 -7 -20 -12 -24 -18 -14 -5 8 -14 10 -21 6 -10 -6 -9 -10 4 -17 22 -12 21 -29 -2 -21 -9 3 -13 2 -9 -2 11 -13 117 -45 147 -45 14 0 53 -7 85 -16 33 -9 96 -17 140 -18 57 -2 88 -7 106 -19 28 -19 100 -15 128 6 10 8 16 7 26 -6 18 -25 35 -21 35 8 0 18 5 25 20 25 15 0 20 -7 20 -30 0 -16 11 -46 25 -66 13 -20 27 -51 31 -69 3 -19 13 -36 21 -39 17 -7 7 -29 -11 -23 -11 4 -48 -28 -40 -36 8 -8 -43 -73 -73 -92 -18 -11 -32 -26 -33 -32 0 -7 -6 -13 -14 -13 -7 0 -16 -10 -19 -21 -4 -13 -11 -19 -20 -16 -7 3 -24 -4 -38 -14 -13 -10 -30 -19 -36 -19 -7 0 -13 -4 -13 -10 0 -5 -5 -10 -11 -10 -6 0 -23 -9 -39 -20 -15 -11 -30 -17 -34 -13 -3 3 -6 1 -6 -5 0 -7 -9 -12 -19 -12 -17 0 -18 3 -8 33 10 29 83 128 135 182 10 12 19 32 18 45 -1 28 33 50 77 50 16 0 37 5 47 10 25 13 44 79 28 97 -8 10 -13 11 -18 3 -4 -7 -35 -14 -70 -17 -59 -6 -63 -4 -84 21 -20 26 -26 28 -139 33 -150 7 -165 3 -159 -37 2 -17 0 -30 -6 -30 -6 0 -14 -10 -18 -22 -3 -12 -16 -30 -28 -40 -11 -9 -17 -17 -13 -18 4 0 -1 -10 -12 -22 -27 -29 -10 -52 32 -44 34 7 97 -17 97 -37 0 -26 -57 -28 -118 -5 -77 29 -98 27 -157 -13 -49 -33 -52 -34 -139 -31 l-89 2 6 -46 c5 -48 32 -85 78 -110 19 -9 29 -25 34 -51 4 -20 13 -50 21 -65 8 -16 24 -57 34 -91 11 -34 29 -77 41 -96 22 -36 28 -55 33 -109 2 -18 9 -39 15 -46 6 -7 8 -16 5 -19 -9 -9 4 -54 21 -71 12 -12 13 -17 2 -28 -17 -17 -30 -51 -17 -43 21 13 9 -12 -22 -45 -17 -19 -30 -37 -27 -40 2 -2 -14 -8 -35 -12 -22 -5 -42 -5 -45 0 -3 5 -14 8 -23 6 -10 -1 -20 2 -24 7 -9 15 -24 10 -24 -8 0 -13 -3 -14 -11 -6 -6 6 -26 9 -45 6 -27 -4 -37 0 -60 23 -14 16 -30 28 -35 26 -5 -1 -12 4 -15 11 -4 10 -19 13 -54 9 -30 -3 -55 0 -64 7 -9 8 -35 10 -80 5 -56 -6 -66 -10 -66 -26 0 -11 -4 -17 -8 -14 -4 2 -9 -13 -9 -34 -1 -22 -7 -49 -14 -62 l-12 -22 -27 32 c-32 39 -47 40 -56 6 -10 -38 15 -104 53 -144 18 -20 39 -58 48 -87 30 -99 126 -250 180 -282 43 -25 58 -26 75 -6 7 8 20 15 30 15 33 0 59 52 39 76 -10 13 9 24 41 24 10 0 28 12 39 27 12 16 31 40 42 56 35 45 99 35 99 -17 0 -21 10 -42 30 -64 22 -24 29 -40 26 -62 -2 -22 2 -31 15 -35 10 -3 20 -16 22 -28 l4 -22 8 23 c4 12 14 22 21 22 17 0 18 -16 3 -26 -8 -5 -6 -10 5 -16 13 -7 14 -13 6 -23 -8 -10 -2 -14 32 -19 24 -4 60 -7 81 -7 22 0 35 -3 32 -9 -3 -6 -1 -10 5 -10 7 0 10 6 7 14 -10 26 19 39 55 27 17 -6 47 -8 65 -5 21 4 33 2 33 -5 0 -6 6 -11 14 -11 8 0 21 -6 28 -13 25 -25 60 -40 67 -28 4 6 24 -5 51 -28 51 -43 90 -58 90 -34 0 8 6 13 12 11 7 -3 17 4 23 15 14 28 46 46 52 30 10 -27 40 -11 91 48 37 43 52 69 52 90 0 16 4 29 9 29 5 0 12 11 15 25 11 45 47 93 80 109 18 9 39 22 46 31 7 8 18 15 25 15 6 0 12 6 13 13 2 31 24 101 38 121 18 28 84 40 121 23 20 -9 24 -16 19 -40 -4 -20 -2 -27 7 -25 14 5 28 108 16 123 -15 21 -18 103 -3 116 11 9 14 7 14 -10 0 -24 28 -29 49 -8 11 10 13 8 9 -9 -10 -39 7 -49 40 -25 25 18 30 27 29 61 -2 33 -6 40 -22 40 -22 0 -47 43 -38 66 3 8 0 14 -6 14 -6 0 -11 7 -11 15 0 22 16 18 38 -10 11 -14 25 -24 30 -23 5 2 18 -7 28 -19 15 -17 24 -20 42 -13 23 10 31 50 10 50 -30 1 -77 60 -48 60 18 0 40 58 40 105 0 58 30 170 42 153 4 -7 8 -35 8 -63 0 -36 3 -46 10 -35 13 20 12 79 -1 137 -30 125 -93 313 -106 313 -8 0 -13 -12 -13 -30 0 -23 -4 -30 -20 -30 -16 0 -20 7 -20 35 0 33 -2 35 -35 35 l-36 0 2 -52 c2 -33 -2 -53 -9 -56 -19 -6 -16 -151 3 -158 12 -5 11 -11 -7 -34 -17 -23 -20 -39 -16 -88 l4 -60 -56 5 -57 6 -6 -39 c-14 -82 -13 -84 47 -84 60 0 68 -5 59 -38 -5 -20 -12 -22 -72 -22 l-67 0 -27 -42 c-15 -23 -27 -48 -27 -55 0 -15 -3 -22 -53 -120 -26 -51 -37 -85 -37 -117 0 -49 -28 -91 -122 -179 -54 -49 -68 -56 -68 -33 0 7 -12 16 -27 19 -41 8 -115 28 -138 38 -16 6 -14 8 13 8 30 1 32 3 32 35 0 34 -1 35 -47 38 -43 3 -48 6 -51 28 -2 17 8 36 28 57 16 18 30 38 30 45 0 14 11 20 125 63 39 15 74 31 80 36 5 5 23 9 40 9 20 0 40 9 54 24 21 22 23 33 19 85 -4 63 0 71 42 71 27 0 40 30 40 89 0 47 -2 51 -24 51 -20 0 -25 6 -30 45 l-7 45 -45 0 c-43 0 -44 1 -44 31 0 30 -1 30 -42 29 -65 -3 -65 -3 -72 39 -3 21 -13 44 -21 51 -16 14 -12 43 10 70 7 8 15 30 18 48 4 18 12 39 19 45 24 22 93 41 146 39 39 -2 52 1 52 12 0 8 14 18 32 22 35 7 57 29 58 55 0 9 7 22 15 29 8 7 15 21 15 32 0 10 7 30 16 44 14 20 16 40 10 110 -5 66 -3 88 8 99 18 18 30 213 17 280 -8 42 -74 186 -101 220 -4 6 -10 36 -12 67 -3 34 -11 65 -21 76 -9 10 -17 26 -17 36 0 9 -9 34 -20 56 -11 22 -20 48 -20 60 0 11 -7 20 -15 20 -9 0 -15 9 -15 25 0 18 5 25 20 25 12 0 20 -7 20 -17 0 -10 21 -40 46 -68 25 -27 56 -74 69 -102 22 -50 26 -53 59 -53 29 0 36 -4 36 -20 0 -14 7 -20 21 -20 19 0 20 4 14 53 -9 75 -13 84 -38 92 -19 6 -19 8 -4 12 9 2 17 10 17 17 0 20 -68 264 -80 286 -16 31 -30 24 -30 -15 0 -19 5 -35 10 -35 6 0 10 -13 10 -29 0 -16 4 -31 9 -33 4 -1 10 -23 14 -48 l5 -45 -21 45 c-20 40 -43 69 -72 88 -5 4 -28 33 -49 66 -22 32 -46 60 -53 63 -7 3 -13 10 -13 17 -1 15 -36 56 -49 56 -6 0 -11 7 -11 15 0 8 -9 15 -20 15 -10 0 -24 9 -30 20 -6 11 -17 20 -25 20 -8 0 -15 9 -15 20 0 11 7 20 15 20 8 0 15 5 15 10 0 6 6 10 13 10 19 0 47 33 47 53 0 9 6 17 14 17 17 0 26 22 26 61 0 38 -16 37 -36 -3z m-9 -478 l40 -40 -42 0 c-36 0 -43 -3 -43 -20 0 -11 -2 -20 -5 -20 -9 0 -59 34 -67 44 -7 10 28 46 44 46 4 0 8 7 8 15 0 25 23 16 65 -25z m-317 -482 c5 -7 11 -27 14 -45 l4 -32 -60 -5 c-34 -3 -74 -7 -91 -8 -23 -2 -31 -9 -33 -26 -3 -20 -7 -22 -40 -16 -51 9 -82 22 -82 33 0 5 -7 17 -16 26 -21 21 -11 45 20 45 13 0 26 6 28 13 3 8 39 14 109 18 57 3 111 6 120 7 9 1 21 -4 27 -10z m166 -344 c4 -15 3 -31 -3 -37 -14 -14 -42 -1 -36 18 3 8 7 22 10 30 7 23 22 18 29 -11z m-400 -494 c13 -13 10 -58 -5 -76 -8 -9 -33 -25 -56 -35 -26 -11 -56 -36 -80 -67 -21 -27 -50 -54 -65 -61 -24 -11 -28 -18 -28 -56 0 -24 5 -47 11 -50 10 -7 -16 -45 -31 -45 -11 0 -42 71 -85 195 -31 91 -46 123 -64 131 -12 7 -28 17 -34 24 -7 7 3 5 22 -5 25 -13 52 -16 107 -13 63 3 77 7 102 31 15 15 33 27 40 27 7 0 12 5 12 11 0 13 139 3 154 -11z m1112 -265 c27 -27 26 -39 -2 -102 -14 -31 -61 -73 -83 -73 -20 0 -25 71 -7 99 10 14 24 43 33 64 19 44 26 45 59 12z m-777 -78 c56 -20 48 -34 -21 -39 -57 -5 -148 -35 -148 -48 0 -4 34 -7 75 -8 53 -2 90 -10 130 -27 64 -29 120 -32 172 -10 20 8 39 13 42 10 3 -3 -5 -8 -17 -12 -25 -6 -29 -18 -7 -27 21 -8 19 -45 -2 -53 -10 -4 -33 -18 -50 -32 -18 -14 -36 -25 -40 -24 -5 0 -15 -3 -24 -8 -20 -10 -32 -49 -15 -49 6 0 17 -9 24 -20 7 -12 18 -17 28 -13 12 4 15 1 12 -13 -2 -10 -13 -20 -25 -22 -12 -2 -25 -11 -28 -21 -4 -14 -15 -18 -43 -17 -20 1 -43 -3 -50 -8 -8 -5 -30 -11 -50 -13 -47 -3 -64 -7 -80 -17 -10 -6 -12 -3 -10 10 2 11 -3 19 -9 18 -7 -1 -27 -2 -43 -3 -19 0 -40 -11 -56 -28 -14 -15 -24 -21 -22 -13 2 12 -12 15 -82 14 -47 -1 -108 -5 -136 -9 l-51 -7 -8 34 c-4 18 -8 64 -8 102 0 57 4 72 19 82 46 31 104 80 104 87 0 4 11 25 24 46 14 21 22 42 18 46 -4 4 3 4 16 1 12 -4 22 -3 22 1 0 15 78 54 154 79 79 26 134 29 185 11z m473 -544 c5 -50 4 -52 -38 -87 -42 -35 -64 -34 -46 1 5 10 12 32 15 49 8 40 47 108 57 97 4 -4 10 -31 12 -60z m-1477 -50 c15 -15 27 -15 113 -5 91 11 97 10 126 -11 l31 -22 -32 -3 c-18 -2 -33 -7 -33 -13 0 -16 -34 -49 -50 -49 -9 0 -22 15 -30 34 l-13 35 -109 7 c-59 3 -108 10 -108 15 0 5 16 9 35 9 19 0 35 5 35 10 0 15 17 12 35 -7z m490 -232 c6 -1 11 -14 10 -30 0 -19 -4 -26 -10 -21 -15 12 -52 1 -59 -17 -3 -8 -1 -11 4 -8 16 10 11 -11 -6 -26 -13 -10 -17 -10 -25 2 -12 19 -11 25 6 43 20 19 19 26 -2 26 -10 0 -25 5 -33 10 -25 17 8 31 60 26 25 -3 50 -5 55 -5z"></path><path id="p9YL0sl9f" d="M2150 1850 c0 -13 11 -13 30 0 12 8 11 10 -7 10 -13 0 -23 -4 -23 -10z"></path><path id="phEpRXqA7" d="M2622 3279 c-7 -28 -12 -70 -12 -95 0 -36 3 -44 19 -44 15 0 19 11 25 68 3 37 9 79 12 95 5 22 3 27 -13 27 -15 0 -22 -11 -31 -51z"></path><path id="p3XJxayCr" d="M2620 3070 c0 -43 3 -50 20 -50 15 0 20 7 20 28 0 42 -11 72 -26 72 -10 0 -14 -14 -14 -50z"></path><path id="pk3sxfToZ" d="M2630 2951 c0 -116 46 -373 77 -435 14 -27 17 -28 68 -22 48 5 54 4 60 -14 4 -11 15 -20 27 -20 18 0 20 4 15 41 -9 68 -49 95 -99 68 -16 -8 -24 -8 -35 3 -21 22 -51 148 -63 268 -15 152 -19 170 -35 170 -12 0 -15 -14 -15 -59z"></path><path id="pIiwa3zb0" d="M1060 2085 c-10 -12 -10 -15 1 -15 8 0 24 -3 37 -6 16 -5 22 -2 22 10 0 9 -4 16 -9 16 -5 0 -16 2 -24 5 -7 3 -20 -1 -27 -10z"></path><path id="payta7URR" d="M2824 1526 c-3 -8 -4 -27 -2 -43 l3 -28 17 34 c17 33 16 51 -3 51 -5 0 -12 -6 -15 -14z"></path><path id="pBoaoYXmX" d="M2565 1440 c-14 -15 -16 -23 -7 -32 7 -7 7 -19 1 -35 -5 -13 -8 -43 -7 -66 2 -61 -27 -156 -62 -197 -16 -19 -48 -68 -70 -107 -23 -40 -45 -73 -50 -73 -6 0 -19 -18 -30 -40 -20 -39 -20 -39 0 -50 11 -6 20 -17 20 -25 0 -22 47 -67 66 -63 9 1 22 12 28 22 6 11 28 35 48 54 21 19 52 58 69 88 17 30 35 54 41 54 6 0 20 7 30 17 10 9 18 11 18 5 0 -6 -8 -15 -17 -21 -10 -5 -15 -13 -11 -17 4 -4 14 -2 21 5 11 9 17 8 27 -4 19 -23 38 -18 55 16 9 17 29 35 45 41 20 7 27 14 23 26 -5 11 -2 14 9 9 9 -3 22 2 31 11 24 28 46 81 36 88 -5 3 -5 13 1 25 6 11 9 23 6 28 -3 5 1 23 10 40 17 34 12 53 -8 33 -7 -7 -20 -12 -30 -12 -15 0 -17 3 -8 19 18 35 11 43 -21 24 -29 -17 -31 -17 -43 0 -18 23 -29 22 -21 -3 10 -33 -4 -59 -42 -75 -20 -8 -42 -23 -49 -33 -12 -15 -13 -14 -14 15 0 21 7 37 21 47 28 19 18 46 -16 46 -14 0 -25 6 -25 13 0 8 6 14 13 14 29 0 87 36 87 54 0 27 -14 23 -43 -11 -30 -36 -52 -38 -61 -7 -5 17 -8 19 -15 8 -14 -22 -32 21 -25 58 7 36 -5 40 -31 11z m45 -280 c0 -20 -5 -30 -15 -30 -10 0 -15 -11 -15 -35 0 -33 2 -35 33 -35 26 -1 29 -2 14 -11 -32 -19 -66 -55 -90 -98 -21 -36 -25 -39 -30 -22 -4 16 -13 21 -36 21 l-30 0 22 36 c12 21 37 53 55 72 48 51 72 88 72 111 0 12 5 21 10 21 6 0 10 -13 10 -30z m75 -80 c3 -5 19 -10 36 -10 16 0 29 -4 29 -9 0 -13 -34 -24 -38 -12 -2 6 -17 11 -33 11 -19 0 -29 5 -29 15 0 17 25 20 35 5z m-218 -195 c8 -23 -4 -30 -22 -12 -19 20 -19 27 0 27 9 0 18 -7 22 -15z"></path><path id="pMMV8yr5d" d="M2295 791 c-9 -16 13 -23 35 -11 11 6 20 13 20 15 0 9 -49 5 -55 -4z"></path><path id="p43JfplJj" d="M1347 783 c-4 -3 -7 -15 -7 -25 0 -26 24 -17 28 10 3 21 -8 29 -21 15z"></path><path id="ppEFByyMO" d="M1379 724 c-11 -14 -10 -15 11 -12 13 1 25 9 28 16 5 17 -23 15 -39 -4z"></path><path id="pzg2KxeV3" d="M965 713 c-18 -14 -18 -15 -2 -9 10 3 23 6 28 6 5 0 9 5 9 10 0 14 -12 12 -35 -7z"></path><path id="p2P1HFF6x" d="M2200 677 c0 -8 -11 -19 -24 -27 -46 -24 -119 -109 -122 -143 -2 -17 -7 -40 -10 -51 -3 -10 -2 -16 2 -14 5 2 32 15 60 28 37 16 56 32 68 57 8 18 21 33 28 33 8 0 32 -19 55 -43 32 -33 39 -46 32 -58 -8 -11 -12 -11 -16 -1 -6 15 -45 16 -61 0 -18 -18 -14 -31 7 -25 21 5 48 -33 37 -52 -5 -7 1 -11 14 -11 16 0 20 4 16 16 -12 31 12 54 55 54 39 0 41 2 35 24 -4 15 -1 26 7 29 19 7 -23 48 -47 46 -12 -2 -36 5 -55 15 -33 17 -34 19 -16 32 10 8 29 14 41 14 13 0 26 5 29 10 4 6 -6 10 -22 10 -25 1 -26 2 -10 14 9 7 17 18 17 25 0 14 -5 14 -31 -1 -17 -11 -23 -10 -39 10 -20 24 -50 30 -50 9z"></path><path id="p4ByL8apm" d="M1521 651 c-9 -6 -10 -10 -2 -16 9 -5 9 -11 0 -22 -10 -12 -10 -16 2 -23 11 -7 11 -12 1 -22 -6 -6 -12 -15 -12 -19 0 -13 71 -49 96 -49 21 0 24 3 18 25 -7 27 -2 30 25 15 19 -10 101 15 101 30 0 10 -140 62 -167 62 -12 0 -24 6 -27 14 -6 16 -15 17 -35 5z"></path><path id="pUmS7JgWG" d="M1010 629 c0 -13 11 -25 35 -35 19 -8 35 -21 35 -29 0 -18 23 -30 75 -40 22 -4 42 -10 45 -14 6 -10 60 -24 60 -16 0 3 -9 23 -20 44 -15 30 -26 40 -52 44 -18 2 -38 1 -44 -4 -7 -6 -27 6 -55 31 -49 44 -79 52 -79 19z"></path><path id="posoiB82H" d="M2046 603 c-4 -5 -35 -12 -69 -18 -35 -6 -62 -16 -65 -24 -4 -10 6 -12 49 -6 59 7 119 30 119 45 0 12 -24 13 -34 3z"></path><path id="pVZZPlqD5" d="M2418 567 c-50 -20 -26 -36 30 -21 13 4 21 11 19 17 -5 15 -18 16 -49 4z"></path><path id="p1Fn99VL91" d="M1281 506 c-9 -10 -8 -16 4 -26 8 -7 15 -18 15 -25 0 -6 9 -20 20 -30 19 -17 20 -17 26 0 4 10 2 26 -4 36 -7 10 -12 28 -12 39 0 23 -31 28 -49 6z"></path><path id="p1GyIo0FMx" d="M1441 486 c-14 -16 5 -26 50 -26 25 0 28 3 20 18 -11 21 -55 27 -70 8z"></path><path id="p1G88r7RLS" d="M1870 460 c0 -5 -9 -12 -21 -15 -54 -17 19 -49 89 -39 44 7 80 31 65 44 -12 11 -133 20 -133 10z"></path><path id="pV3Vv1eLD" d="M1415 420 c-3 -5 1 -10 9 -10 8 0 18 5 21 10 3 6 -1 10 -9 10 -8 0 -18 -4 -21 -10z"></path><path id="paD3fRQmM" d="M1740 412 c0 -14 11 -21 26 -15 21 8 17 23 -6 23 -11 0 -20 -4 -20 -8z"></path></g></g><g id="ls1IsvCQtGsPR9ZS3R83Gs" fill="rgb(221,173,144)" style="transform: none;"><g style="transform: none;"><path id="p1YLkIgoZ" d="M1860 4485 c0 -8 7 -15 15 -15 8 0 15 7 15 15 0 8 -7 15 -15 15 -8 0 -15 -7 -15 -15z"></path><path id="p8DQEGSd5" d="M1573 4483 c-7 -2 -13 -11 -13 -19 0 -8 -7 -14 -16 -14 -22 0 -44 -25 -44 -49 0 -11 -8 -25 -19 -30 -23 -13 -85 -116 -108 -182 -10 -28 -35 -71 -55 -96 -21 -25 -38 -49 -38 -54 0 -5 -11 -9 -24 -9 -14 0 -32 -10 -41 -22 -12 -16 -19 -19 -22 -10 -6 17 -33 15 -33 -2 0 -8 -6 -16 -12 -19 -16 -5 36 -57 56 -57 8 0 26 19 40 43 25 41 39 29 16 -14 -6 -10 -7 -19 -2 -19 4 0 16 17 26 38 38 80 161 279 216 349 10 13 29 23 44 23 26 0 35 13 16 25 -18 11 -10 44 14 60 14 9 32 27 41 41 15 23 15 24 -7 23 -13 0 -29 -3 -35 -6z"></path><path id="p4fMQVVYG" d="M1850 4441 c0 -5 -3 -16 -6 -24 -3 -10 3 -20 15 -27 19 -10 21 -8 21 25 0 24 -4 35 -15 35 -8 0 -15 -4 -15 -9z"></path><path id="pF3JtMVS9" d="M2060 4225 c0 -8 5 -15 10 -15 6 0 13 -1 18 -2 12 -2 31 -32 32 -50 0 -17 5 -20 40 -22 8 -1 15 -11 15 -23 0 -22 140 -213 156 -213 18 0 24 -2 37 -12 7 -6 11 -17 8 -25 -3 -8 -1 -11 4 -8 5 3 22 -14 37 -37 15 -24 32 -46 38 -50 44 -29 62 -61 121 -211 31 -80 24 -103 -8 -30 -38 83 -242 307 -305 334 -17 7 -29 17 -26 22 3 5 -5 4 -17 -3 -13 -7 -20 -8 -16 -2 3 6 2 13 -4 17 -5 3 -10 -1 -10 -10 0 -9 -4 -14 -8 -11 -4 2 -9 -4 -9 -15 -2 -17 8 -24 30 -20 4 0 7 -4 7 -9 0 -5 -4 -10 -8 -10 -5 0 -19 -9 -32 -20 -13 -11 -29 -20 -37 -20 -32 0 4 -57 60 -93 35 -23 103 -20 100 3 -4 24 35 22 48 -2 6 -11 8 -35 4 -55 -6 -32 -5 -34 16 -28 14 5 19 3 15 -4 -4 -5 5 -33 19 -60 14 -28 25 -58 25 -67 0 -10 7 -25 15 -34 8 -9 18 -43 21 -76 3 -32 9 -63 14 -69 5 -7 30 -52 55 -101 34 -68 45 -103 48 -147 2 -31 1 -57 -1 -57 -3 0 -11 8 -19 18 -13 16 -13 16 -11 -3 1 -11 -1 -26 -6 -33 -5 -9 -1 -19 13 -28 31 -22 26 -94 -7 -94 -8 0 -12 -3 -9 -7 4 -3 -1 -15 -10 -25 -13 -15 -14 -19 -3 -16 20 4 26 -40 6 -48 -22 -8 -20 -26 6 -54 21 -22 21 -24 5 -52 -9 -16 -17 -38 -17 -48 0 -9 -7 -23 -15 -30 -8 -7 -15 -20 -15 -29 -1 -31 -26 -52 -54 -45 -17 4 -26 2 -26 -5 0 -9 -6 -9 -22 0 -13 7 -24 12 -26 11 -12 -7 -29 -28 -26 -33 1 -3 -25 -14 -59 -24 -34 -10 -67 -24 -73 -30 -13 -13 -29 -56 -26 -69 2 -5 -4 -16 -11 -25 -8 -9 -20 -33 -27 -55 -11 -34 -10 -41 9 -67 12 -16 19 -34 16 -39 -3 -6 -1 -10 4 -10 6 0 11 -11 11 -25 0 -29 32 -41 83 -31 l32 6 -30 -20 c-16 -11 -36 -20 -44 -20 -21 0 -91 -22 -91 -29 0 -3 14 -14 31 -23 31 -18 119 -25 119 -10 0 10 65 42 84 42 17 0 28 -51 14 -68 -15 -17 -4 -25 32 -25 23 0 30 -5 30 -19 0 -29 -19 -58 -38 -58 -9 0 -36 -6 -60 -13 l-43 -13 31 -32 c16 -17 30 -42 30 -55 0 -30 -39 -67 -71 -67 -14 0 -47 -11 -75 -24 -27 -13 -67 -29 -89 -36 -22 -7 -46 -17 -52 -23 -7 -5 -13 -6 -13 -2 0 4 -7 2 -15 -5 -9 -7 -14 -19 -11 -26 3 -7 2 -14 -2 -16 -20 -9 -63 -74 -61 -92 2 -34 -1 -42 -11 -26 -5 8 -10 10 -10 4 0 -13 37 -54 49 -54 5 0 12 -16 16 -36 8 -47 23 -62 58 -57 19 3 27 -1 27 -12 0 -8 5 -15 10 -15 6 0 10 5 10 10 0 7 6 7 19 0 11 -5 29 -10 40 -10 11 0 21 -7 23 -16 2 -12 17 -18 51 -21 32 -2 46 0 42 6 -3 6 26 43 66 82 75 76 104 126 93 162 -4 14 5 44 29 92 19 38 40 81 45 95 25 67 43 101 57 106 8 4 12 10 9 15 -3 5 2 9 10 9 8 0 18 -5 21 -10 4 -7 12 -7 25 0 26 14 30 13 30 -10 0 -19 -32 -85 -51 -104 -14 -15 -11 -26 7 -26 32 0 77 81 100 179 13 59 13 65 -3 83 -10 11 -25 17 -36 14 -10 -2 -21 2 -24 10 -3 8 -12 13 -21 12 -9 -2 -18 5 -20 15 -3 16 1 17 35 11 21 -4 41 -11 44 -16 3 -5 14 -6 24 -2 12 5 16 4 11 -4 -9 -16 24 -31 55 -25 28 5 39 -13 39 -65 0 -14 5 -22 13 -20 18 7 37 49 37 85 0 38 14 102 42 191 17 53 18 68 7 100 -7 20 -18 42 -24 47 -7 6 -16 35 -19 65 -15 126 -29 198 -40 200 -33 9 -80 9 -91 0 -41 -34 -86 182 -114 556 -8 97 -7 132 4 175 19 69 19 102 0 184 -19 81 -79 244 -111 299 -12 23 -32 58 -44 79 -11 21 -31 42 -43 46 -13 5 -51 44 -85 87 -92 117 -107 134 -119 134 -6 0 -16 7 -23 15 -11 13 -8 15 14 15 22 0 26 4 26 31 l0 30 -30 -21 -30 -21 -40 32 c-22 18 -40 35 -40 38 0 7 -49 31 -62 31 -4 0 -8 -7 -8 -15z m263 -280 c23 -32 17 -32 -13 0 -13 14 -19 25 -14 25 5 0 17 -12 27 -25z m514 -1627 c-3 -18 -8 -43 -12 -56 -6 -19 -3 -23 23 -28 65 -13 80 -66 48 -162 -24 -70 -36 -80 -98 -81 -35 -1 -38 2 -47 37 -16 55 -14 66 19 107 37 47 41 88 8 83 -21 -3 -23 2 -26 45 -2 33 0 47 7 42 6 -3 11 1 11 10 0 15 30 33 59 34 9 1 12 -8 8 -31z"></path><path id="p2gPOl9OQ" d="M2540 3825 c0 -28 4 -35 20 -35 22 0 26 20 10 51 -16 30 -30 23 -30 -16z"></path><path id="p13yj5EKB6" d="M1984 3351 c9 -14 -124 -24 -140 -10 -9 8 -18 8 -26 1 -7 -5 -24 -9 -38 -7 -30 2 -80 -14 -80 -26 0 -5 -11 -9 -24 -9 -44 0 -77 -82 -38 -95 11 -3 24 -17 30 -30 6 -14 18 -25 27 -25 8 0 15 -5 15 -11 0 -7 10 -9 25 -7 14 3 25 2 25 -2 0 -4 17 -6 38 -4 l37 3 -32 -10 c-31 -9 -40 -19 -27 -31 8 -9 74 14 68 24 -3 4 2 9 10 9 30 3 34 4 43 13 4 5 3 6 -4 2 -7 -3 -14 2 -18 14 -4 12 -11 17 -18 14 -7 -4 -8 -3 -4 2 5 5 30 10 55 11 93 4 172 16 172 26 0 5 -11 20 -25 33 -15 14 -25 34 -25 51 -1 15 -9 38 -19 51 -18 21 -38 31 -27 13z"></path><path id="pwALAob2" d="M1593 2513 c-13 -2 -23 -9 -23 -14 0 -5 -5 -9 -12 -9 -7 0 -24 -12 -39 -26 -36 -35 -97 -42 -149 -19 -22 10 -40 22 -40 27 0 11 -47 10 -70 -2 -35 -19 -2 -71 64 -105 14 -7 33 -49 61 -130 23 -66 51 -140 64 -164 21 -40 25 -43 54 -37 17 3 39 14 49 23 19 17 25 78 8 88 -5 3 -10 13 -10 21 0 8 4 13 9 10 5 -3 11 1 15 9 3 8 11 15 18 16 7 0 30 23 51 50 23 30 54 57 75 66 20 8 45 22 54 30 24 22 33 77 19 123 -11 36 -13 37 -54 36 -23 0 -60 2 -82 5 -22 4 -50 5 -62 2z m27 -123 c0 -11 -4 -20 -10 -20 -5 0 -10 9 -10 20 0 11 5 20 10 20 6 0 10 -9 10 -20z"></path><path id="pB0aigV6n" d="M936 1651 c-3 -5 -4 -27 -1 -50 4 -30 1 -42 -11 -49 -14 -8 -15 -14 -3 -48 17 -50 34 -70 70 -83 30 -10 37 -3 17 17 -23 23 6 32 84 26 75 -7 75 -7 89 -42 15 -38 14 -63 -4 -74 -9 -5 -9 -10 -1 -18 14 -14 40 -16 78 -6 27 7 28 8 11 26 -10 11 -28 20 -39 21 -12 0 0 6 26 13 52 14 81 34 75 50 -3 8 7 10 29 8 32 -4 39 2 35 30 -1 10 96 28 116 22 14 -5 14 -2 -4 13 -11 10 -23 27 -25 38 -5 29 -36 32 -40 3 -2 -15 -11 -24 -26 -26 -15 -2 -22 -9 -18 -17 3 -8 -14 4 -36 26 -37 36 -47 40 -82 37 -23 -2 -44 -7 -48 -13 -5 -6 -11 -6 -16 2 -10 16 -50 13 -56 -4 -3 -7 -13 -13 -21 -13 -9 0 -13 5 -10 10 3 6 1 10 -6 10 -7 0 -20 6 -28 14 -20 18 -57 25 -54 11 1 -6 -9 -12 -23 -13 -18 -1 -24 3 -24 18 0 11 -6 20 -12 20 -7 0 -20 5 -28 10 -12 8 -13 11 -1 19 8 5 9 11 3 15 -6 3 -13 2 -16 -3z"></path><path id="pAREWgk7h" d="M2671 1603 c0 -13 -14 -29 -31 -40 -38 -22 -39 -37 -2 -21 40 17 44 23 39 54 -3 21 -4 23 -6 7z"></path><path id="pEeW031l2" d="M882 1465 c3 -14 1 -25 -3 -25 -17 0 1 -111 26 -157 28 -54 53 -89 59 -82 2 2 7 24 11 48 6 34 4 42 -6 39 -11 -4 -59 45 -59 59 0 4 54 -20 65 -29 13 -11 25 -10 25 3 0 12 -60 69 -72 69 -5 0 -8 11 -8 24 0 13 -6 26 -12 29 -10 4 -10 7 0 18 18 19 15 29 -9 29 -17 0 -20 -5 -17 -25z"></path><path id="pnYs0Xosn" d="M2483 1377 c-25 -41 -28 -57 -13 -57 16 0 42 48 38 72 -3 21 -5 20 -25 -15z"></path><path id="pUIsbJMgm" d="M2566 1361 c-3 -4 -5 -32 -5 -62 0 -80 -1 -88 -13 -95 -7 -4 -6 -9 2 -14 15 -9 -7 -44 -62 -102 -48 -51 -83 -115 -83 -154 0 -33 8 -43 19 -25 3 4 16 8 28 7 35 -2 37 -54 3 -86 -26 -24 -32 -40 -16 -40 17 0 108 93 125 127 18 36 62 84 91 101 15 8 22 7 30 -5 9 -12 18 -13 53 -4 34 10 42 16 42 35 0 13 9 31 20 41 18 16 20 16 26 1 9 -24 21 -19 33 15 10 29 9 31 -9 26 -29 -7 -35 11 -12 36 24 27 55 87 45 87 -14 -1 -77 -64 -91 -90 -11 -23 -12 -23 -6 -2 8 33 -3 27 -31 -18 -34 -53 -51 -42 -23 15 24 50 21 60 -16 51 -28 -7 -56 -52 -48 -76 3 -12 2 -12 -8 -3 -7 6 -15 32 -18 58 l-5 47 -36 -7 c-35 -7 -35 -6 -18 12 9 11 17 23 17 28 0 5 7 17 17 27 19 22 10 36 -12 18 -16 -13 -18 -10 -15 33 1 26 -13 37 -24 18z"></path><path id="p1DsIxmBAh" d="M2067 1263 c-10 -9 -9 -23 2 -23 5 0 11 7 15 15 5 15 -5 20 -17 8z"></path><path id="pW5Zn0PFI" d="M2784 1244 c-4 -14 -2 -30 5 -37 11 -11 16 2 12 27 -1 4 4 14 10 22 9 11 8 14 -5 14 -8 0 -18 -11 -22 -26z"></path><path id="pc5GeKJpB" d="M2237 1192 c-10 -10 -14 -22 -10 -25 3 -4 13 2 21 14 18 26 10 35 -11 11z"></path><path id="p12xnLmN66" d="M2273 1168 c-39 -58 -44 -74 -33 -104 15 -38 31 -25 56 46 13 35 28 68 34 74 16 16 12 26 -9 26 -12 0 -31 -17 -48 -42z"></path><path id="pbMvc4E1D" d="M980 1192 c0 -5 9 -19 20 -32 21 -24 27 -12 10 21 -11 19 -30 26 -30 11z"></path><path id="poIPiMX40" d="M2187 1043 c-3 -3 1 -12 9 -20 8 -9 18 -13 21 -10 3 3 -1 13 -10 21 -8 8 -17 12 -20 9z"></path><path id="pjKrUg0xv" d="M2350 891 c0 -5 -3 -16 -6 -24 -7 -19 33 -44 48 -29 12 12 -11 62 -29 62 -7 0 -13 -4 -13 -9z"></path><path id="ph9JZ7R4M" d="M1020 635 c0 -9 5 -15 11 -13 6 2 11 8 11 13 0 5 -5 11 -11 13 -6 2 -11 -4 -11 -13z"></path><path id="p11kdPDCgW" d="M2175 638 c-11 -6 -39 -29 -62 -51 -36 -35 -43 -47 -43 -80 0 -21 3 -37 8 -35 4 2 23 9 43 17 19 7 43 27 52 43 10 18 35 37 67 50 27 11 50 23 50 27 -1 32 -75 50 -115 29z"></path><path id="pask6XgLp" d="M1643 580 c10 -28 37 -42 37 -21 0 5 10 11 23 13 19 3 17 6 -17 21 -52 23 -56 22 -43 -13z"></path><path id="p15XlvbKDI" d="M1080 576 c0 -3 7 -12 16 -20 19 -20 40 -11 23 10 -10 13 -39 20 -39 10z"></path><path id="pYaNIQV7V" d="M1153 563 c-6 -16 5 -33 23 -33 8 0 23 -5 34 -12 26 -16 32 -7 20 29 -9 25 -16 30 -42 29 -17 -1 -33 -6 -35 -13z"></path><path id="pCad2v8IB" d="M2420 560 c0 -5 9 -10 19 -10 11 0 23 5 26 10 4 6 -5 10 -19 10 -14 0 -26 -4 -26 -10z"></path><path id="p13g6GRdjH" d="M2256 525 c9 -14 30 -26 52 -30 l36 -7 -22 -17 c-26 -19 -20 -31 14 -31 25 0 45 21 26 28 -17 5 -15 22 3 22 8 0 15 4 15 8 0 16 -25 32 -51 32 -15 0 -30 4 -33 9 -3 5 -17 9 -30 9 -24 0 -24 -2 -10 -23z"></path><path id="pzJH93isi" d="M1570 520 c0 -5 10 -10 23 -10 18 0 19 2 7 10 -19 13 -30 13 -30 0z"></path><path id="pw1wYYneX" d="M1300 496 c0 -14 5 -26 10 -26 6 0 10 9 10 19 0 11 -4 23 -10 26 -6 4 -10 -5 -10 -19z"></path><path id="phivfmmub" d="M1470 481 c0 -10 30 -24 37 -17 3 2 -5 9 -16 16 -12 6 -21 7 -21 1z"></path><path id="p3m6bNIdy" d="M1880 452 c0 -5 -10 -13 -22 -17 -23 -6 -22 -7 5 -19 27 -12 53 -10 126 11 26 7 -3 22 -56 29 -34 4 -53 3 -53 -4z"></path></g></g><g id="l4pJgQllP0wfE2deut2IdzG" fill="rgb(224,210,197)" style="transform: none;"><g style="transform: none;"><path id="p1FfNubjiy" d="M1590 4489 c-47 -19 -90 -59 -90 -85 0 -13 3 -24 8 -24 15 0 122 98 122 113 0 9 -9 8 -40 -4z"></path><path id="pgpnOW90e" d="M1860 4474 c-23 -61 -11 -86 58 -120 26 -13 35 -14 47 -4 17 14 21 95 5 105 -5 3 -10 15 -10 26 0 16 -7 19 -45 19 -40 0 -47 -3 -55 -26z"></path><path id="pcjb9QA5c" d="M2328 4328 c-3 -55 -9 -75 -35 -110 -17 -24 -42 -51 -55 -61 -24 -18 -25 -18 -61 5 -20 13 -39 30 -42 38 -5 17 -63 46 -72 36 -9 -9 18 -37 29 -30 12 8 37 -26 31 -42 -2 -7 5 -17 16 -24 15 -8 21 -8 21 0 0 6 5 8 11 5 6 -4 8 -13 5 -21 -6 -16 40 -75 57 -71 7 1 11 -8 9 -23 -1 -17 1 -21 6 -12 10 15 34 -10 117 -120 28 -37 56 -66 64 -65 42 6 163 -267 202 -453 11 -52 22 -96 24 -98 9 -10 16 96 10 155 -9 90 -10 95 -50 241 -58 217 -133 416 -233 617 l-49 100 -5 -67z"></path><path id="pw6mSQuzZ" d="M1425 4293 c-75 -129 -53 -156 25 -31 60 96 64 108 40 108 -14 0 -33 -23 -65 -77z"></path><path id="puAPmBNSk" d="M1297 4063 c-12 -25 -32 -112 -23 -102 2 2 18 32 35 67 24 47 28 62 16 62 -8 0 -21 -12 -28 -27z"></path><path id="pJ8qmah4P" d="M1160 4006 c0 -77 44 -100 79 -40 29 49 27 57 -19 72 -58 18 -60 16 -60 -32z"></path><path id="pAPtKFPAL" d="M1603 2452 c-31 -15 -38 -26 -35 -62 0 -8 -6 -38 -14 -67 -11 -39 -12 -57 -4 -73 21 -40 59 -11 74 58 4 17 12 32 17 32 5 0 9 17 9 38 0 21 5 43 11 49 14 14 5 43 -13 42 -7 -1 -28 -9 -45 -17z"></path><path id="pmpVpGbTw" d="M1734 2436 c-10 -27 5 -68 24 -64 24 5 24 71 -1 76 -9 2 -20 -4 -23 -12z"></path><path id="p17N5GtWTJ" d="M2290 2285 c0 -17 10 -24 26 -18 21 8 17 32 -6 30 -11 -1 -20 -6 -20 -12z"></path><path id="pWTszUG8R" d="M1442 2231 c-10 -6 -10 -17 -2 -52 6 -24 12 -49 13 -56 5 -23 15 -25 26 -4 8 14 8 34 0 70 -11 52 -15 57 -37 42z"></path><path id="p15ZySKO2y" d="M2570 1115 c0 -9 6 -12 15 -9 8 4 15 10 15 15 0 5 -7 9 -15 9 -8 0 -15 -7 -15 -15z"></path><path id="pEHhqBusY" d="M2532 962 c-21 -17 -22 -20 -7 -32 13 -11 18 -10 30 6 16 21 20 44 8 44 -5 0 -18 -9 -31 -18z"></path><path id="p1CvS8mORp" d="M2137 552 c-22 -24 -21 -32 2 -32 10 0 22 7 25 16 14 37 0 46 -27 16z"></path><path id="pe0exSS4y" d="M1886 431 c-3 -5 0 -11 8 -14 15 -6 26 1 26 15 0 11 -27 10 -34 -1z"></path></g></g></svg>