<?xml version="1.0" encoding="UTF-8" standalone="no"?>
<svg
   xmlns:dc="http://purl.org/dc/elements/1.1/"
   xmlns:cc="http://creativecommons.org/ns#"
   xmlns:rdf="http://www.w3.org/1999/02/22-rdf-syntax-ns#"
   xmlns:svg="http://www.w3.org/2000/svg"
   xmlns="http://www.w3.org/2000/svg"
   class="img-fluid"
   id="outputsvg"
   width="350"
   height="450"
   viewBox="0 0 3500 4500"
   version="1.1">
  <metadata
     id="metadata188">
    <rdf:RDF>
      <cc:Work
         rdf:about="">
        <dc:format>image/svg+xml</dc:format>
        <dc:type
           rdf:resource="http://purl.org/dc/dcmitype/StillImage" />
        <dc:title></dc:title>
      </cc:Work>
    </rdf:RDF>
  </metadata>
  <defs
     id="defs186" />
  <g
     id="l2JvEES4SpxC6kCwFgP2eE1"
     fill="#e7e9f0"
     transform="matrix(0.44987147,0,0,0.44987147,0,1.2853069)" />
  <g
     id="l2gz9y6xohGvT8GEv6gOy9i"
     fill="#b9bdcb"
     transform="matrix(0.44987147,0,0,0.44987147,0,1.2853069)">
    <g
       id="g108">
      <path
         id="ph1dbLv4p"
         d="m 2533,9943 c 24,-32 60,-83 80,-114 90,-137 399,-378 577,-450 273,-111 447,-151 496,-114 19,14 19,14 0,15 -11,0 -16,3 -13,7 4,3 0,14 -9,24 -9,10 -18,35 -21,55 -3,21 -11,44 -19,51 -16,16 -13,57 5,91 7,13 11,25 9,27 -20,18 -112,67 -130,69 -13,1 -40,10 -62,19 -21,9 -41,17 -45,17 -4,0 -26,17 -48,39 -26,24 -56,41 -80,46 -44,8 -104,37 -122,59 -8,9 -22,16 -32,16 -10,0 -24,9 -32,21 -22,31 -145,108 -186,115 -20,4 -60,20 -89,36 -50,27 -58,28 -188,28 h -135 z" />
      <path
         id="p11gWdcAUa"
         d="m 3897,9965 c 4,-23 2,-35 -6,-35 -16,0 -13,-30 4,-36 8,-4 15,-13 15,-21 0,-8 7,-27 15,-43 14,-27 14,-30 0,-30 -9,0 -13,-5 -10,-11 4,-6 13,-8 21,-5 7,3 16,1 20,-5 3,-6 10,-4 18,6 10,14 26,0 115,-95 57,-60 107,-110 111,-110 13,0 182,-98 204,-119 12,-12 26,-21 30,-21 4,0 26,-13 49,-29 100,-68 112,-72 231,-74 114,-1 282,18 302,34 7,5 28,10 47,11 20,1 34,5 31,10 -3,4 2,8 10,8 8,0 17,-4 21,-10 6,-10 36,-2 47,14 4,6 8,-11 8,-37 0,-27 4,-46 9,-43 11,7 44,-41 38,-57 -2,-7 2,-28 10,-47 31,-73 31,-429 0,-485 -9,-16 -16,-23 -17,-15 0,9 -3,11 -8,5 -17,-24 -55,-36 -93,-30 -28,5 -39,3 -39,-6 0,-7 -6,-5 -15,7 -14,18 -14,17 -15,-13 0,-34 25,-69 231,-323 112,-138 193,-250 240,-335 18,-33 38,-64 44,-70 25,-22 64,-95 90,-165 29,-81 36,-201 15,-270 -12,-42 -13,-110 -2,-110 5,0 23,20 41,45 18,25 30,45 26,45 -3,0 4,18 15,40 11,22 18,40 14,40 -4,0 -2,6 4,13 6,6 15,37 20,67 6,30 18,69 26,85 9,17 16,39 16,51 0,21 41,89 65,109 28,22 66,213 77,384 11,176 5,466 -12,591 -6,41 -15,135 -20,208 -6,73 -24,197 -41,275 -16,78 -37,203 -45,277 -15,137 -36,282 -49,333 l -7,27 h -953 -954 z" />
      <path
         id="pSsbzvlfi"
         d="m 1855,2060 c 1,-16 11,-41 24,-54 21,-22 21,-24 4,-30 -15,-6 -13,-10 15,-21 17,-8 32,-19 32,-25 0,-6 -10,-4 -24,5 -15,10 -26,12 -30,6 -4,-5 3,-15 15,-22 15,-8 18,-13 10,-19 -10,-5 -9,-11 2,-22 8,-7 18,-24 21,-36 4,-12 12,-22 17,-22 6,0 5,-9 -2,-21 -10,-20 -9,-21 10,-16 15,3 21,1 18,-6 -2,-7 -14,-13 -26,-13 -36,-2 -37,-14 0,-14 40,0 80,-34 52,-44 -8,-3 -19,-4 -23,-1 -5,3 -11,1 -14,-4 -3,-5 8,-14 25,-21 22,-10 27,-15 17,-21 -10,-7 -8,-9 5,-9 11,0 15,-5 11,-11 -4,-8 0,-9 15,-4 13,4 21,2 21,-5 0,-7 -10,-15 -22,-18 -21,-6 -21,-7 7,-13 l 30,-6 -30,-13 -30,-13 28,-6 c 25,-5 26,-8 15,-24 -7,-9 -24,-19 -37,-22 -29,-5 -40,-15 -17,-15 10,0 14,-5 10,-12 -5,-8 2,-9 23,-5 42,8 46,0 15,-30 -25,-25 -25,-27 -7,-33 11,-4 23,-2 27,4 5,7 8,4 8,-7 0,-17 1,-17 16,-3 8,9 27,16 42,16 21,0 24,-2 12,-10 -13,-9 -12,-11 5,-16 23,-6 33,-64 11,-64 -12,0 -56,-52 -56,-66 0,-4 9,1 20,11 18,16 25,14 21,-8 0,-4 10,-7 22,-7 25,0 57,28 57,49 0,6 9,22 21,34 15,16 19,33 17,61 -1,25 2,41 10,44 6,2 12,19 12,38 0,27 -4,34 -19,34 -10,0 -21,7 -25,15 -3,9 -18,15 -36,15 -29,0 -30,2 -30,44 0,36 -5,49 -25,64 -14,11 -25,27 -25,36 0,9 -8,16 -20,16 -15,0 -20,7 -20,25 0,14 -7,28 -15,31 -8,4 -15,12 -15,20 0,7 -13,37 -28,66 -16,29 -32,66 -36,82 -4,17 -20,46 -35,65 -16,20 -33,46 -40,59 -7,13 -21,22 -35,22 -19,0 -22,-5 -21,-30 z" />
    </g>
  </g>
  <g
     id="l2QodGbGqwmJ9f22XoisnrA"
     fill="#dfaf9c"
     transform="matrix(0.44987147,0,0,0.44987147,0,1.2853069)">
    <g
       id="g112">
      <path
         id="p5unhcfZY"
         d="m 3780,9030 c -25,-5 -83,-20 -130,-35 -47,-14 -96,-29 -110,-32 -43,-11 -150,-104 -219,-190 -18,-23 -42,-45 -53,-49 -11,-3 -28,-13 -38,-22 -11,-10 -38,-33 -61,-52 -23,-19 -97,-90 -165,-157 -67,-68 -127,-123 -133,-123 -6,0 -11,-7 -11,-15 0,-8 -8,-15 -19,-15 -11,0 -33,-20 -52,-46 -19,-25 -53,-69 -77,-97 -40,-48 -81,-108 -167,-242 -77,-121 -74,-110 -77,-257 -2,-88 1,-140 8,-149 18,-23 25,-99 9,-105 -22,-9 -36,-63 -23,-87 7,-14 8,-53 3,-126 -5,-59 -9,-159 -11,-223 l -2,-118 h 34 c 36,0 68,17 118,63 40,36 57,35 23,-1 -15,-15 -27,-32 -27,-38 -1,-19 -90,-104 -109,-104 -13,0 -26,-11 -36,-29 -12,-24 -23,-30 -52,-33 -27,-2 -39,-8 -41,-21 -2,-11 -12,-27 -21,-36 -22,-22 -76,-151 -96,-228 -8,-32 -17,-87 -20,-123 -3,-35 -9,-78 -15,-95 -11,-35 -26,-154 -36,-275 -4,-47 -11,-90 -15,-96 -6,-7 -27,-10 -54,-6 -40,4 -53,0 -108,-34 -34,-20 -64,-40 -67,-44 -3,-3 -25,-21 -50,-40 -100,-77 -167,-168 -240,-324 -50,-107 -110,-276 -116,-329 -4,-37 -55,-222 -79,-287 -29,-77 -31,-200 -5,-315 12,-55 26,-119 31,-142 12,-60 34,-98 74,-128 53,-41 99,-43 169,-6 38,21 63,28 69,22 6,-6 33,15 75,60 36,38 72,69 79,69 7,0 13,8 14,18 1,9 7,-3 15,-28 11,-34 14,-90 12,-230 -1,-102 -1,-256 0,-343 l 2,-158 29,-16 29,-17 -19,-68 c -11,-37 -19,-83 -19,-101 0,-34 20,-87 33,-87 4,0 7,-7 7,-15 0,-9 16,-33 36,-53 20,-20 42,-49 50,-64 7,-14 27,-36 42,-47 26,-18 30,-27 35,-93 6,-87 14,-108 36,-108 9,0 22,-9 29,-20 7,-12 8,-20 2,-20 -17,0 -13,-165 5,-180 8,-7 15,-20 15,-30 0,-9 12,-29 26,-44 15,-14 22,-26 15,-26 -6,0 -11,-15 -11,-34 0,-27 10,-45 46,-82 25,-27 50,-56 55,-66 13,-24 71,-52 139,-68 30,-7 65,-16 78,-21 13,-5 32,-9 42,-9 11,0 20,-7 20,-16 0,-12 13,-15 68,-14 37,0 89,-3 116,-6 39,-6 50,-4 58,10 5,9 16,16 24,16 9,0 30,6 47,14 18,8 68,27 112,42 44,15 84,33 88,41 4,7 20,13 35,13 15,0 35,8 43,18 9,11 44,25 80,32 35,8 70,20 77,27 7,7 35,13 62,13 40,0 50,-4 55,-20 3,-11 17,-23 31,-26 37,-9 110,5 137,27 14,10 40,22 58,26 18,3 43,19 56,34 15,17 38,30 62,34 27,4 41,13 44,26 4,14 14,19 40,19 20,0 39,4 42,10 3,5 21,10 38,10 41,0 54,9 58,40 3,19 11,26 32,28 19,2 27,9 27,23 0,12 7,19 20,19 11,0 23,7 26,15 4,8 14,15 24,15 13,0 19,12 24,53 3,28 6,69 6,89 0,27 5,38 19,43 24,7 41,54 41,110 0,34 -6,46 -34,71 -25,22 -35,41 -40,75 -6,44 -5,48 29,78 20,17 44,31 55,31 10,0 21,8 24,18 4,11 18,25 31,32 31,16 35,71 8,92 -25,19 -42,53 -38,74 2,11 6,31 9,45 4,18 14,29 31,33 18,5 25,13 25,30 0,14 6,31 13,38 13,14 47,140 47,176 0,23 -49,82 -69,82 -6,0 -11,5 -11,10 0,6 7,10 15,10 11,0 15,11 15,40 0,33 -3,40 -20,40 -15,0 -20,7 -20,25 0,20 -5,25 -25,25 -20,0 -25,5 -25,25 0,18 -5,25 -20,25 -11,0 -20,5 -20,10 0,6 -5,10 -11,10 -22,0 -128,71 -134,90 -9,29 -75,29 -75,0 0,-11 -4,-20 -10,-20 -5,0 -10,20 -10,44 0,27 -5,46 -13,49 -15,5 -11,87 4,87 5,0 9,9 9,20 0,13 7,20 20,20 13,0 20,7 20,20 0,11 7,20 15,20 8,0 17,14 21,36 8,45 -4,166 -17,175 -25,15 -37,202 -20,319 15,105 14,118 -8,125 -23,7 -31,46 -34,169 -2,65 1,90 10,93 16,6 18,86 3,114 -6,10 -21,19 -33,19 -12,0 -36,9 -53,19 -27,17 -32,26 -38,77 -4,33 -13,68 -21,78 -8,11 -15,27 -15,37 0,18 -19,29 -51,29 -10,0 -19,7 -19,15 0,10 -11,15 -35,15 -28,0 -35,-4 -35,-20 0,-15 -9,-22 -30,-27 -16,-3 -30,-9 -30,-14 0,-10 -60,-12 -84,-3 -20,8 -21,30 -1,38 9,3 15,18 15,40 0,20 9,51 20,71 22,39 26,95 9,112 -18,18 -1,53 27,53 17,0 27,8 34,26 13,33 13,84 0,84 -5,0 -10,14 -10,30 0,20 -5,30 -15,30 -8,0 -23,4 -33,9 -51,27 -152,45 -254,44 l -107,-2 56,60 c 31,32 62,59 68,59 7,0 20,9 30,20 10,11 27,20 37,20 10,0 21,7 24,15 4,8 11,15 16,15 6,0 33,14 60,30 43,27 54,29 102,24 35,-4 56,-3 60,5 4,6 17,11 29,11 32,1 57,23 57,51 0,14 10,32 25,43 19,14 25,28 25,58 0,36 39,123 63,139 5,3 11,25 14,49 4,30 11,44 24,47 10,3 21,14 24,24 4,10 11,19 16,19 27,0 40,31 37,87 -3,55 -4,57 -35,65 -18,5 -33,14 -33,20 0,7 -17,9 -53,5 l -53,-5 -13,36 c -7,21 -15,49 -18,65 -3,15 -9,27 -13,27 -4,0 -10,9 -13,20 -3,11 -12,20 -21,20 -9,0 -16,8 -16,18 0,10 -8,25 -18,33 -11,9 -25,25 -33,35 -13,18 -64,38 -131,51 -16,3 -28,9 -28,14 0,5 -12,15 -27,22 l -26,14 54,21 c 30,11 80,23 112,27 31,4 57,10 57,14 0,3 18,26 40,51 22,24 40,47 40,51 0,4 33,24 74,43 41,20 76,39 78,43 1,5 20,16 41,25 21,10 40,26 44,35 4,10 17,31 31,48 23,28 24,34 18,117 -3,48 -14,105 -23,128 -19,43 -39,54 -128,66 -69,9 -83,19 -91,61 -4,21 -13,44 -21,51 -7,7 -13,24 -13,38 0,13 -5,24 -10,24 -6,0 -18,16 -27,35 -10,21 -24,35 -35,35 -18,0 -23,26 -18,90 2,31 0,30 46,37 22,3 47,14 57,24 10,11 32,19 51,19 h 33 l 6,68 c 4,37 4,84 0,105 -5,33 -3,37 16,37 12,0 21,6 21,15 0,8 7,15 16,15 14,0 15,10 9,73 -4,39 -9,75 -12,80 -5,9 -205,7 -263,-3 z M 3169,6330 c 6,-18 17,-30 28,-30 13,-1 11,-5 -9,-16 -21,-11 -28,-22 -28,-44 0,-17 -4,-30 -10,-30 -5,0 -9,-35 -9,-81 0,-62 5,-89 20,-113 10,-17 19,-40 19,-52 0,-11 7,-35 15,-52 9,-17 18,-53 22,-81 3,-28 10,-51 14,-51 5,0 9,-9 9,-21 0,-11 16,-41 35,-66 19,-25 35,-52 35,-59 0,-7 12,-25 26,-39 14,-14 23,-29 20,-32 -3,-3 -27,-6 -53,-5 -27,1 -54,-2 -61,-7 -7,-4 -39,-4 -70,1 -60,9 -68,15 -147,114 -16,21 -49,57 -72,81 -39,39 -43,47 -43,93 0,27 -4,50 -10,50 -17,0 -11,74 10,113 11,20 20,50 20,65 0,16 9,47 20,70 20,41 22,42 70,42 50,0 50,0 50,33 0,18 -11,48 -25,69 -38,56 -34,66 28,71 28,2 59,4 69,5 10,1 20,-9 27,-28 z M 1832,5151 c -4,-89 -2,-104 19,-143 13,-23 30,-51 38,-61 13,-16 11,-24 -20,-82 -37,-69 -49,-71 -69,-9 -7,21 -18,34 -29,34 -31,0 -49,35 -56,112 -5,62 -3,79 15,113 15,29 97,135 105,135 0,0 -1,-45 -3,-99 z m 1448,-222 c 30,-6 75,-15 98,-20 47,-9 115,-43 144,-71 26,-26 23,-56 -7,-64 -20,-5 -25,-12 -25,-39 0,-23 7,-39 23,-52 12,-10 28,-31 35,-47 12,-26 15,-28 55,-22 90,13 101,9 166,-52 45,-43 61,-65 61,-85 0,-15 -4,-27 -9,-27 -5,0 -14,-13 -20,-30 -5,-16 -17,-30 -25,-30 -9,0 -16,-7 -16,-15 0,-8 -7,-15 -15,-15 -8,0 -15,-9 -15,-20 0,-13 -7,-20 -19,-20 -10,0 -32,-7 -47,-15 -16,-8 -37,-15 -46,-15 -9,0 -19,-4 -23,-9 -3,-6 -28,-7 -55,-4 -38,4 -52,2 -66,-12 -14,-13 -27,-16 -69,-10 -28,3 -71,1 -96,-5 -44,-11 -216,-26 -404,-37 -169,-9 -174,-9 -188,11 -12,16 -22,18 -75,12 -55,-6 -62,-5 -88,19 -15,14 -31,25 -35,25 -5,0 -9,18 -9,40 0,38 -2,40 -30,40 -29,0 -40,13 -21,24 5,3 12,27 16,53 4,27 12,54 18,62 7,8 12,44 11,82 0,61 2,69 23,78 13,6 23,17 23,26 0,21 26,19 50,-5 18,-18 33,-20 163,-20 106,0 149,4 171,15 15,8 36,15 45,15 9,0 21,10 26,22 6,12 27,30 48,41 25,13 37,26 37,41 0,11 9,27 20,34 25,15 29,82 5,82 -8,0 -15,7 -15,14 0,11 14,16 48,19 26,1 54,2 62,0 8,-1 40,-8 70,-14 z M 1560,4750 c 7,-25 21,-65 30,-90 12,-29 19,-76 21,-128 2,-80 1,-83 -32,-122 -56,-66 -62,-58 -73,103 -4,42 -9,110 -12,151 -5,57 -3,80 9,102 8,16 19,38 22,49 l 7,20 8,-20 c 4,-11 13,-40 20,-65 z" />
    </g>
  </g>
  <g
     id="l7aWLW016oqr2yk4ZdgUuAP"
     fill="#be897a"
     transform="matrix(0.44987147,0,0,0.44987147,0,1.2853069)">
    <g
       id="g127">
      <path
         id="p19k2wbSDx"
         d="m 4302,9410 c -7,-11 -12,-33 -12,-49 0,-30 -14,-41 -56,-41 -17,0 -24,-6 -24,-20 0,-27 -25,-38 -74,-33 -33,4 -49,-1 -81,-23 -23,-16 -61,-31 -90,-35 -87,-12 -233,-61 -263,-89 -10,-10 -45,-30 -77,-46 -84,-39 -346,-242 -378,-291 -4,-7 -15,-13 -24,-13 -25,0 -224,-209 -349,-367 -63,-78 -114,-146 -114,-149 0,-3 19,8 42,25 23,17 52,31 65,31 14,0 23,6 23,15 0,8 5,15 11,15 6,0 66,55 133,123 68,67 142,138 165,157 23,19 51,43 61,52 10,9 21,14 24,11 2,-3 26,18 53,47 110,120 198,198 216,192 4,-1 21,5 37,13 16,9 33,16 37,16 5,1 19,5 32,10 13,5 35,11 50,13 14,2 40,9 56,16 17,6 79,13 140,13 l 110,2 2,-28 c 1,-15 -2,-25 -7,-22 -4,3 -11,-2 -14,-11 -9,-23 -8,-24 17,-25 16,-1 18,-2 5,-6 -10,-2 -18,-11 -18,-20 0,-9 -6,-13 -15,-9 -9,3 -18,-1 -20,-9 -3,-8 -8,-23 -12,-32 -12,-33 -11,-58 6,-70 15,-12 13,-14 -19,-17 -8,0 -14,-7 -12,-15 1,-7 -5,-19 -15,-27 -17,-13 -17,-13 2,-15 11,-1 26,-2 33,-2 6,1 12,-6 12,-14 0,-13 -8,-14 -41,-9 -26,4 -38,3 -34,-4 3,-5 -1,-10 -9,-10 -9,0 -15,-6 -13,-12 1,-9 -9,-12 -30,-10 -18,1 -33,-2 -33,-7 0,-5 -8,-8 -17,-7 -14,1 -18,-6 -16,-26 1,-16 -3,-28 -9,-28 -5,0 -8,-7 -4,-15 3,-8 1,-15 -3,-15 -5,0 -7,-9 -4,-20 3,-11 10,-20 15,-20 5,0 8,-12 6,-27 -2,-22 2,-29 18,-31 12,-2 27,-17 37,-37 9,-19 22,-35 27,-35 6,0 9,-4 5,-9 -7,-12 15,-61 27,-61 6,0 8,-6 5,-12 -2,-7 0,-21 5,-30 6,-13 5,-18 -4,-18 -7,0 3,-11 22,-24 24,-16 50,-24 84,-24 26,-1 54,-6 60,-12 7,-5 16,-7 19,-3 4,3 7,0 7,-7 0,-7 3,-10 7,-6 4,3 15,-11 24,-32 20,-44 33,-162 18,-162 -6,0 -8,-4 -5,-9 3,-5 -1,-15 -10,-22 -9,-7 -20,-24 -25,-36 -5,-13 -26,-31 -46,-41 -21,-9 -42,-22 -48,-29 -8,-10 -55,-33 -75,-37 -12,-3 -70,-41 -70,-46 0,-3 -18,-26 -40,-50 -22,-25 -40,-49 -40,-53 0,-5 -4,-5 -10,-2 -5,3 -10,-1 -10,-9 0,-24 295,-23 371,1 75,24 127,58 135,89 6,23 9,167 6,284 0,25 3,47 9,48 12,5 12,102 -1,102 -5,0 -10,9 -10,20 0,11 -7,20 -15,20 -8,0 -15,4 -15,8 0,4 -20,13 -45,20 -35,9 -48,19 -56,40 -6,15 -15,35 -20,44 -16,31 -10,48 15,48 14,0 28,5 31,10 3,6 17,7 31,4 59,-15 134,24 134,69 0,11 7,25 15,31 10,7 18,34 22,70 5,46 10,60 25,64 10,2 18,11 18,20 0,8 6,23 13,31 43,49 88,282 58,293 -5,2 -13,16 -17,31 -6,28 -6,28 17,15 58,-32 74,-52 71,-87 -4,-43 11,-73 50,-95 16,-10 37,-34 45,-53 l 14,-36 62,6 c 34,3 76,12 92,21 17,9 38,16 48,16 9,0 17,5 17,10 0,6 5,10 11,10 12,0 49,38 49,49 0,11 -109,144 -168,205 -69,72 -260,226 -281,226 -8,0 -12,2 -9,5 6,6 -82,96 -127,131 -30,23 -31,23 -43,4 z" />
      <path
         id="pY8t2LOTX"
         d="m 3576,7599 c -64,-38 -79,-79 -30,-79 13,0 24,-5 24,-11 0,-5 4,-8 9,-4 6,3 15,-4 21,-15 6,-12 18,-19 25,-16 15,5 75,-14 75,-25 0,-3 10,-5 22,-4 22,2 58,-32 58,-54 0,-6 5,-10 12,-8 7,1 13,-4 14,-10 1,-7 2,-17 3,-22 0,-5 10,-11 21,-14 11,-3 20,-12 20,-21 0,-9 5,-16 12,-16 6,0 9,-3 5,-6 -3,-4 1,-23 10,-43 8,-20 16,-45 18,-56 1,-13 13,-23 36,-30 19,-5 40,-14 48,-19 11,-7 13,-5 8,7 -8,22 10,32 27,14 11,-11 12,-17 3,-26 -8,-8 -8,-11 0,-11 7,0 14,4 17,9 4,5 14,8 24,7 31,-5 19,-86 -13,-86 -13,0 -34,-28 -27,-35 4,-5 -1,-5 -10,-2 -10,4 -18,2 -18,-4 0,-6 -4,-8 -9,-5 -14,9 -22,-23 -11,-44 7,-13 7,-21 0,-25 -6,-4 -8,-11 -5,-16 4,-5 3,-9 -2,-9 -4,0 -19,-20 -32,-45 -13,-25 -27,-45 -30,-45 -3,0 -6,-20 -5,-45 1,-45 -6,-54 -55,-85 -12,-7 -13,-11 -1,-25 11,-13 10,-18 -6,-30 -23,-17 -58,-20 -48,-4 4,7 1,10 -7,7 -8,-3 -14,-11 -14,-18 0,-10 -14,-13 -57,-11 -47,2 -63,-2 -99,-24 -23,-15 -49,-28 -57,-29 -8,-2 -18,-10 -24,-19 -5,-9 -17,-17 -27,-17 -10,0 -26,-9 -36,-20 -10,-11 -21,-17 -25,-15 -4,2 -43,-33 -87,-79 -43,-46 -85,-85 -93,-86 -37,-5 -52,2 -61,29 -9,25 -16,30 -56,33 -24,2 -47,0 -49,-4 -9,-13 -42,-9 -58,8 -9,8 -16,11 -16,5 0,-6 -7,-11 -15,-11 -10,0 -15,-10 -15,-30 0,-16 -5,-30 -11,-30 -10,0 5,-30 46,-93 l 17,-27 -29,3 c -16,2 -33,6 -39,9 -5,4 -15,4 -20,0 -10,-6 -37,-50 -39,-62 0,-3 -5,-14 -11,-25 -6,-11 -10,-32 -9,-47 0,-16 -3,-28 -8,-28 -4,0 -5,-5 -2,-10 3,-6 -1,-13 -9,-16 -9,-3 -14,-10 -11,-14 6,-10 -15,-62 -28,-71 -5,-3 -1,-9 8,-13 14,-5 15,-9 6,-20 -8,-10 -9,-16 -1,-21 6,-3 8,-10 5,-15 -3,-5 3,-14 12,-20 13,-8 14,-13 6,-16 -15,-7 -17,-34 -3,-34 14,0 12,-38 -2,-42 -8,-3 -3,-10 12,-18 44,-22 82,-63 68,-72 -10,-6 -9,-8 2,-8 8,0 29,-17 45,-36 61,-73 105,-115 114,-110 5,3 12,-1 15,-9 5,-13 10,-14 27,-5 11,6 26,10 32,7 7,-2 14,-4 17,-4 3,0 15,-5 28,-12 18,-10 23,-9 28,4 3,8 10,12 15,9 5,-3 9,-1 9,3 0,17 69,2 73,-16 3,-11 5,-10 6,5 1,17 6,20 25,17 17,-4 25,0 29,16 3,11 -1,25 -9,32 -8,6 -14,16 -14,22 0,5 -9,18 -21,28 -11,10 -22,24 -23,32 -3,23 -50,87 -63,87 -9,0 -13,-16 -13,-45 0,-44 -1,-45 -27,-39 -38,10 -91,51 -99,77 -9,31 -51,93 -101,151 -40,45 -43,52 -43,107 v 60 l 27,-26 c 15,-14 35,-25 43,-25 9,0 25,-7 36,-15 10,-8 26,-15 35,-15 9,0 19,-7 23,-15 3,-9 18,-15 36,-15 22,0 29,4 24,12 -4,7 -9,23 -10,36 -2,13 -12,39 -24,59 -16,28 -17,34 -5,30 10,-5 15,0 15,13 0,11 -4,20 -10,20 -5,0 -9,3 -8,8 1,4 -2,18 -6,31 -6,16 -4,26 5,32 8,5 14,21 14,36 0,22 6,30 30,38 17,5 47,20 67,32 27,16 39,18 47,10 9,-9 14,-9 19,0 4,6 27,10 55,8 26,-2 50,1 53,6 3,5 9,7 13,4 5,-2 27,-7 50,-10 59,-7 91,-16 91,-25 0,-4 11,-5 24,-3 13,3 27,0 30,-6 4,-6 16,-11 26,-11 17,0 18,-4 10,-26 -12,-30 -12,-34 -2,-33 4,1 12,1 19,0 20,-2 -2,-46 -23,-46 -27,0 -67,-37 -51,-47 9,-5 9,-10 0,-19 -9,-9 -8,-19 8,-41 20,-28 20,-30 4,-49 -10,-10 -15,-19 -11,-19 3,0 -1,-11 -10,-25 -10,-15 -14,-34 -10,-49 4,-16 1,-28 -7,-33 -8,-4 -22,-21 -32,-37 -18,-28 -18,-29 0,-42 10,-8 23,-14 28,-14 4,0 6,-4 3,-9 -8,-12 34,-22 53,-12 9,6 20,4 29,-5 18,-18 42,-18 42,1 0,8 7,15 16,15 8,0 13,4 10,9 -3,5 8,11 24,15 22,4 30,11 31,28 1,17 2,19 6,6 2,-10 11,-19 19,-19 8,-1 19,-3 24,-4 6,-1 15,-3 20,-4 6,0 10,-9 10,-19 0,-10 8,-28 17,-42 12,-17 13,-25 5,-28 -16,-5 -15,-33 1,-30 7,2 13,-11 15,-35 2,-28 10,-42 30,-54 15,-10 30,-21 33,-26 3,-5 17,-7 30,-5 18,2 26,-3 33,-25 9,-23 7,-30 -13,-43 -19,-14 -22,-23 -18,-50 4,-23 2,-34 -6,-34 -7,0 -4,-5 5,-11 9,-5 15,-16 12,-23 -10,-27 -11,-111 0,-118 6,-4 11,-19 12,-35 1,-15 3,-31 3,-35 1,-4 10,-10 21,-13 13,-4 17,-11 13,-18 -5,-7 -9,-30 -9,-52 -2,-44 -7,-72 -16,-80 -3,-3 -2,-22 1,-43 4,-20 4,-51 1,-68 -4,-19 -2,-38 6,-49 7,-10 11,-21 9,-26 -8,-11 15,-109 25,-109 5,0 7,-10 5,-22 -3,-12 -1,-26 4,-32 7,-10 8,-38 3,-83 -1,-7 -9,-13 -17,-13 -8,0 -15,-8 -15,-19 0,-12 -7,-18 -17,-17 -11,0 -19,-7 -21,-21 -2,-16 -8,-20 -20,-16 -9,3 -14,3 -10,-2 4,-4 3,-14 -3,-22 -6,-7 -7,-13 -2,-13 5,0 9,-9 10,-20 1,-11 -4,-20 -11,-20 -19,0 -27,-38 -9,-44 8,-3 12,-10 8,-15 -3,-5 4,-13 16,-16 17,-6 19,-9 8,-16 -10,-6 -11,-9 -1,-9 18,0 15,-24 -8,-52 -15,-20 -16,-28 -7,-38 10,-10 8,-12 -10,-7 -13,3 -24,-1 -27,-9 -4,-10 4,-14 29,-14 19,0 35,-4 35,-10 0,-5 9,-10 19,-10 13,0 24,11 32,35 7,19 17,35 21,35 4,0 8,10 9,23 v 22 l 11,-23 c 11,-22 125,-99 141,-94 4,1 7,-3 7,-8 0,-6 10,-10 21,-10 15,0 19,-4 13,-12 -8,-11 -9,-24 -5,-50 0,-4 15,-3 32,2 27,8 30,7 27,-13 -2,-16 3,-23 20,-25 12,-2 22,-7 22,-12 0,-4 -9,-6 -21,-3 -16,5 -20,1 -19,-13 1,-10 1,-21 0,-24 -7,-19 -7,-40 1,-40 5,0 9,-7 9,-15 0,-8 5,-15 10,-15 6,0 10,4 10,10 0,5 11,0 25,-12 13,-11 22,-25 19,-30 -3,-4 -1,-8 4,-8 11,0 -7,-71 -20,-80 -4,-3 -6,-16 -3,-28 2,-14 -1,-22 -11,-22 -8,0 -13,-3 -13,-7 6,-38 -3,-63 -24,-68 -26,-7 -63,-60 -48,-69 6,-4 6,-18 0,-38 -6,-24 -5,-38 7,-55 8,-13 12,-28 9,-33 -3,-6 0,-10 8,-10 8,0 20,-6 26,-13 8,-11 5,-17 -14,-27 -14,-7 -27,-21 -31,-32 -3,-10 -14,-18 -24,-18 -10,0 -39,-17 -64,-37 -44,-37 -57,-65 -35,-78 6,-4 8,-13 5,-21 -3,-7 -1,-16 3,-18 5,-3 9,-17 9,-30 0,-16 13,-37 38,-60 37,-34 37,-35 26,-75 -8,-24 -20,-42 -32,-46 -20,-6 -24,-25 -22,-84 1,-14 -3,-31 -9,-38 -6,-7 -8,-25 -5,-39 6,-21 4,-25 -8,-21 -10,4 -20,-1 -26,-13 -6,-11 -18,-17 -30,-15 -18,4 -24,-8 -18,-32 1,-5 -11,-10 -28,-13 -23,-4 -30,-11 -32,-34 -3,-22 -6,-26 -13,-15 -7,12 -9,11 -9,-2 0,-13 -8,-16 -32,-14 -21,1 -37,-4 -45,-14 -12,-15 -14,-15 -26,1 -13,16 -15,16 -35,-5 -12,-13 -22,-29 -22,-35 0,-16 -20,-15 -20,1 -1,7 -6,5 -14,-6 -14,-18 -14,-18 -19,0 -4,16 -5,16 -6,-2 -1,-17 -3,-18 -11,-5 -7,12 -10,12 -10,1 0,-19 -46,-71 -55,-63 -4,4 -6,0 -3,-8 4,-12 22,-14 99,-12 52,2 98,8 103,13 6,5 27,9 47,9 21,0 41,5 44,10 3,6 19,10 36,10 16,0 29,5 29,10 0,6 9,10 20,10 12,0 34,13 50,30 20,20 39,30 59,30 21,0 40,11 68,39 29,30 42,37 53,30 17,-11 169,-1 185,12 6,4 31,11 55,15 63,9 100,26 100,46 0,9 5,18 11,20 6,2 14,27 17,56 2,29 9,55 13,58 5,3 9,13 9,23 0,23 38,57 73,65 15,3 27,11 27,16 0,6 18,10 40,10 30,0 42,5 47,18 9,26 34,52 50,52 30,0 45,30 47,93 1,67 7,77 48,77 35,0 53,39 60,134 3,38 11,72 17,75 6,4 14,35 17,69 6,55 5,62 -11,62 -14,0 -16,6 -10,37 4,20 15,54 26,75 27,53 25,92 -7,113 -28,18 -27,9 -8,134 4,23 2,41 -5,45 -6,4 -11,16 -11,27 0,16 -7,19 -49,19 -47,0 -50,-2 -56,-29 -6,-27 -13,-31 -61,-42 -58,-13 -116,-2 -139,26 -5,7 -27,18 -47,25 -21,6 -38,16 -38,21 0,5 -7,9 -15,9 -8,0 -15,9 -15,20 0,16 -7,20 -30,20 -16,0 -30,5 -30,10 0,6 -18,10 -40,10 -22,0 -40,5 -40,10 0,6 -8,10 -19,10 -10,0 -21,9 -24,20 -4,15 -14,20 -41,20 -32,0 -36,-3 -36,-25 0,-28 -17,-34 -27,-9 -3,10 -19,29 -35,44 -15,15 -28,32 -28,39 0,6 -6,11 -12,11 -7,0 -29,14 -48,30 -19,16 -38,30 -42,30 -5,0 -8,14 -8,30 0,17 -3,30 -8,30 -4,0 -13,14 -20,30 -8,17 -21,30 -29,30 -13,0 -14,9 -9,53 3,28 1,88 -4,132 -5,44 -10,114 -9,155 0,41 -7,97 -15,124 -8,27 -18,81 -21,120 -3,39 -13,114 -22,167 -21,127 -12,197 28,241 16,18 29,43 29,56 0,13 7,36 16,52 15,24 16,41 8,121 -8,84 -12,95 -32,104 -12,5 -24,17 -27,25 -7,21 -81,100 -94,100 -5,0 -22,12 -36,26 -22,22 -33,26 -65,21 l -39,-5 6,52 c 3,28 8,53 10,55 2,3 17,-3 32,-12 16,-9 41,-17 56,-17 28,0 150,53 160,70 3,6 14,10 23,10 33,1 64,38 69,84 6,50 -3,59 -71,69 -21,3 -43,12 -50,20 -6,8 -44,22 -85,31 -41,10 -84,24 -95,32 -29,20 -72,18 -104,-5 -25,-18 -31,-19 -77,-6 -27,7 -41,14 -30,14 41,1 145,45 151,63 3,10 14,18 25,18 16,0 19,7 19,51 0,59 -16,78 -65,79 -29,1 -29,1 -11,15 11,8 37,15 57,15 46,0 87,17 94,39 5,18 12,19 263,23 94,2 172,0 172,-4 0,-5 6,-8 14,-8 8,0 19,-13 25,-30 8,-25 15,-30 41,-30 17,0 38,-7 46,-15 19,-18 70,-19 124,-3 34,11 41,18 46,45 3,18 12,33 19,33 15,0 30,99 20,130 -4,11 -20,35 -36,53 -17,17 -33,44 -36,59 -7,36 -59,68 -110,68 h -41 l 5,43 c 4,36 0,46 -26,75 -17,18 -31,41 -31,50 0,9 -7,35 -16,57 l -15,41 -91,17 c -105,20 -108,21 -108,49 0,20 -34,58 -52,58 -4,0 -8,9 -8,19 0,11 -11,33 -25,49 -14,17 -25,35 -25,40 0,10 -75,18 -232,26 -57,3 -71,7 -87,27 -11,13 -20,27 -21,30 0,8 -55,18 -155,29 -44,5 -91,12 -105,15 -14,3 -34,0 -44,-6 z" />
      <path
         id="p1G6qRTEmQ"
         d="m 2823,7163 c -5,-13 -55,-52 -118,-92 -61,-38 -122,-80 -136,-93 -13,-13 -38,-31 -53,-42 -23,-15 -30,-16 -37,-5 -5,8 -9,17 -9,22 0,4 -4,7 -9,7 -5,0 -9,-20 -9,-45 1,-39 -6,-56 -49,-118 -52,-74 -118,-196 -110,-203 7,-8 57,48 57,65 0,13 2,13 9,2 13,-21 39,7 33,36 -4,20 -1,22 31,16 26,-4 41,-1 52,11 9,9 14,16 10,16 -3,0 -1,9 5,20 13,24 36,26 44,4 3,-8 11,-12 17,-9 6,4 8,14 4,22 -3,10 11,32 40,60 24,25 43,48 42,52 -3,9 49,71 60,71 5,0 30,20 56,43 26,24 47,42 47,40 0,-3 8,3 17,13 12,11 14,19 6,21 -18,6 -3,42 31,69 19,16 24,24 12,20 -11,-4 -23,-1 -27,6 -6,9 -10,6 -16,-9 z" />
      <path
         id="p1HfHbu0fy"
         d="m 5712,6290 c -6,-11 -12,-29 -12,-40 0,-12 -10,-25 -25,-32 -18,-8 -25,-19 -25,-38 0,-28 -37,-80 -58,-80 -8,0 -12,-16 -12,-45 0,-25 5,-45 10,-45 6,0 10,-11 10,-24 0,-14 4,-27 9,-30 5,-3 14,-73 21,-156 10,-113 16,-150 27,-150 8,0 13,-13 13,-37 1,-21 4,-57 9,-79 7,-35 5,-44 -11,-55 -10,-7 -18,-19 -18,-26 0,-7 -9,-17 -20,-23 -18,-10 -20,-21 -20,-110 0,-60 4,-100 10,-100 6,0 10,-27 10,-60 0,-33 4,-60 10,-60 6,0 10,-9 10,-20 0,-11 6,-20 14,-20 7,0 19,-13 26,-30 7,-16 19,-30 26,-30 28,0 9,-89 -30,-143 -18,-25 -21,-45 -23,-170 -2,-100 1,-146 10,-157 16,-20 71,-50 91,-50 12,0 16,-10 16,-37 0,-20 5,-65 11,-100 10,-56 14,-63 34,-63 16,0 26,-8 31,-22 4,-13 11,-26 17,-29 5,-4 11,-52 12,-107 4,-122 14,-142 71,-142 43,0 74,22 74,53 0,9 9,32 20,52 11,20 20,47 20,60 0,28 -31,105 -42,105 -10,0 -10,149 1,270 9,105 -2,410 -17,480 -5,25 -15,76 -21,115 -7,38 -16,75 -22,81 -5,7 -12,35 -16,63 -5,44 -4,51 12,51 16,0 17,7 11,56 -8,67 -11,74 -37,74 -10,0 -19,3 -19,8 0,4 -11,20 -25,36 -14,16 -25,39 -26,50 0,12 -4,59 -8,106 -5,50 -5,93 1,105 9,21 -4,200 -16,212 -3,3 -12,1 -19,-6 -20,-16 -37,28 -42,110 -2,35 -7,72 -10,81 -4,10 -5,38 -3,63 2,25 0,45 -3,45 -4,0 -9,14 -12,30 -7,35 -27,39 -45,10 z" />
      <path
         id="pGXUfsKFQ"
         d="m 5080,5966 c 0,-8 -13,-17 -30,-21 -16,-4 -30,-11 -30,-16 0,-5 -13,-9 -29,-9 -17,0 -33,-4 -36,-10 -3,-5 -14,-10 -24,-10 -10,0 -24,-7 -31,-15 -7,-8 -18,-15 -26,-15 -17,0 -64,-44 -64,-59 0,-7 -12,-22 -26,-35 -21,-17 -28,-34 -32,-75 -4,-44 -9,-54 -28,-62 -13,-4 -24,-14 -24,-21 0,-7 -9,-19 -20,-26 -11,-7 -20,-19 -20,-28 0,-18 -18,-37 -42,-47 -10,-3 -18,-11 -18,-17 0,-5 -11,-10 -25,-10 -13,0 -28,-7 -32,-15 -5,-8 -26,-18 -48,-23 -39,-8 -40,-9 -43,-54 l -3,-47 37,-3 38,-3 12,-75 c 7,-40 17,-83 22,-95 6,-11 13,-28 16,-37 3,-11 15,-18 29,-18 13,0 29,-6 35,-12 17,-17 164,-17 184,0 13,10 26,10 63,1 63,-16 155,-67 155,-86 0,-9 8,-23 18,-32 10,-9 22,-27 28,-40 11,-26 60,-48 149,-65 33,-6 66,-15 73,-19 7,-5 42,-5 77,-2 56,6 69,12 90,37 14,16 25,38 25,48 0,10 5,20 11,22 6,2 15,37 19,78 4,41 13,91 20,111 17,48 -3,154 -31,170 -11,5 -19,21 -19,34 0,13 -8,28 -17,33 -12,7 -19,30 -24,86 -5,48 -13,82 -23,92 -9,8 -16,22 -16,30 0,8 -9,14 -21,14 -13,0 -23,10 -30,30 -6,16 -19,32 -30,35 -10,4 -19,13 -19,21 0,8 -9,14 -20,14 -12,0 -25,10 -32,25 -6,14 -15,25 -20,25 -4,0 -8,27 -8,60 0,33 -4,60 -10,60 -5,0 -10,4 -10,10 0,5 -17,25 -37,45 -41,37 -103,50 -103,21 z" />
      <path
         id="pfOIDGJmz"
         d="m 1828,5288 c -16,-5 -28,-15 -28,-20 0,-6 -3,-8 -6,-5 -8,8 -71,-73 -97,-123 -22,-43 -32,-147 -16,-166 7,-8 9,-28 5,-49 -5,-27 -4,-35 7,-35 8,0 17,-7 21,-15 3,-8 15,-15 26,-15 11,0 21,-4 21,-10 5,-38 26,-68 60,-85 29,-16 30,-15 47,16 9,17 31,54 49,81 36,54 36,56 -27,163 -22,37 -29,63 -30,100 0,52 27,145 43,145 5,0 4,7 -3,15 -14,17 -33,18 -72,3 z" />
      <path
         id="pEuycjCm6"
         d="m 3085,4975 c -5,-2 -29,-9 -52,-15 -52,-13 -58,-36 -9,-34 34,2 53,-16 40,-37 -3,-5 5,-9 17,-9 18,0 19,-2 9,-15 -7,-8 -15,-13 -19,-11 -12,7 -46,-11 -46,-25 0,-8 9,-17 20,-20 19,-6 19,-7 -5,-17 -45,-19 -77,-47 -72,-61 2,-8 1,-11 -4,-8 -5,3 -27,-3 -49,-13 -22,-11 -51,-19 -65,-19 -18,0 -21,2 -9,7 14,6 15,9 3,20 -8,7 -14,9 -14,5 0,-5 -9,-14 -20,-21 -17,-10 -24,-10 -42,2 -20,14 -24,14 -40,-1 -15,-13 -23,-15 -37,-6 -10,6 -24,8 -31,3 -9,-5 -18,-3 -25,7 -12,16 -90,34 -112,26 -8,-3 -12,-12 -9,-20 4,-10 -4,-19 -24,-26 -23,-9 -28,-16 -24,-33 4,-14 0,-23 -10,-27 -23,-9 -20,-34 5,-42 19,-6 20,-8 3,-26 -12,-14 -13,-19 -4,-19 9,0 5,-9 -9,-24 -16,-17 -19,-25 -9,-28 11,-4 11,-8 -1,-21 -7,-10 -10,-17 -5,-17 5,0 2,-5 -6,-10 -12,-8 -13,-10 -1,-10 10,0 7,-7 -9,-25 -17,-18 -20,-28 -12,-37 6,-7 10,-17 9,-23 -1,-5 14,-11 33,-13 35,-4 35,-4 11,-16 -22,-12 -20,-13 33,-15 40,-1 56,3 56,12 0,7 16,28 35,47 19,19 35,29 35,22 0,-20 65,-14 90,8 13,11 35,23 48,27 22,5 24,9 20,54 -6,56 -21,79 -54,79 -23,0 -54,33 -54,57 0,7 11,13 25,13 14,0 25,4 25,10 0,5 16,1 35,-10 20,-11 47,-20 60,-20 14,0 33,-9 42,-20 14,-16 30,-20 74,-20 56,0 56,0 85,45 25,40 36,48 92,65 35,11 70,20 77,20 16,0 105,-97 105,-115 0,-16 22,-25 59,-25 19,0 32,8 44,29 21,36 23,109 3,117 -8,3 -17,19 -20,36 -3,17 -15,37 -26,45 -15,10 -20,26 -20,56 0,23 -4,47 -8,53 -23,34 -202,101 -237,89 z" />
      <path
         id="pgmleMRYl"
         d="m 1517,4887 c -16,-34 -37,-78 -47,-97 -17,-32 -18,-46 -10,-130 6,-52 13,-138 16,-190 8,-122 15,-140 54,-140 41,0 131,91 123,124 -3,12 -7,59 -9,105 -3,49 -12,103 -23,130 -10,25 -24,66 -31,91 -7,25 -16,55 -21,68 -5,13 -9,38 -9,57 0,54 -13,48 -43,-18 z" />
      <path
         id="ppnUixguF"
         d="m 3470,4679 c 0,-32 -4,-42 -20,-46 -15,-4 -20,-14 -20,-40 0,-19 6,-41 14,-49 19,-19 71,-18 101,2 15,9 25,12 25,6 0,-6 18,-16 40,-22 22,-6 40,-15 40,-20 0,-6 8,-10 19,-10 24,0 35,-58 15,-81 -8,-8 -14,-27 -14,-42 0,-14 -7,-32 -15,-41 -8,-8 -15,-28 -15,-45 0,-31 14,-49 25,-31 4,6 10,8 15,5 4,-3 13,2 20,10 15,18 46,20 53,3 3,-7 6,2 6,20 1,21 6,32 16,32 8,0 15,7 15,16 0,8 5,12 10,9 13,-8 43,22 35,35 -3,5 -1,10 5,10 6,0 8,5 5,10 -3,6 -2,10 4,10 5,0 12,9 16,19 12,39 14,61 4,61 -5,0 -9,4 -9,10 0,5 8,7 18,4 12,-4 11,0 -6,13 -12,10 -49,44 -82,75 -37,35 -66,55 -74,52 -8,-3 -29,2 -45,12 -30,18 -31,18 -52,-5 -21,-23 -23,-23 -36,-5 -7,10 -13,22 -13,27 0,18 -35,36 -67,37 -32,0 -33,-1 -33,-41 z" />
      <path
         id="p1HrVtNrIx"
         d="m 1982,3635 c -12,-14 -22,-34 -22,-45 0,-14 -7,-20 -24,-20 -24,0 -36,-21 -36,-63 0,-10 -9,-37 -20,-60 -11,-23 -20,-58 -19,-77 2,-42 -22,-163 -34,-171 -11,-8 2,-139 15,-139 13,0 44,-32 51,-53 4,-11 16,-21 27,-24 12,-3 20,-14 20,-27 0,-22 26,-50 65,-72 12,-6 57,-12 100,-12 53,0 90,-6 110,-16 32,-17 63,-20 89,-10 20,8 21,24 1,24 -8,0 -15,5 -15,10 0,6 9,10 21,10 16,0 19,4 14,22 -6,17 -4,20 9,15 9,-4 16,-2 16,3 0,6 -6,10 -14,10 -8,0 -23,11 -34,25 -11,14 -27,25 -35,25 -8,0 -17,7 -21,15 -3,9 0,15 9,15 21,0 19,9 -7,31 -13,10 -18,18 -11,19 8,0 9,9 3,31 -5,18 -7,36 -4,41 4,6 -15,30 -42,54 -36,34 -45,47 -35,53 9,6 10,11 2,15 -6,4 -11,4 -11,0 0,-4 -9,1 -20,11 -11,10 -18,21 -15,25 2,4 -7,12 -21,19 -14,6 -23,15 -19,20 3,5 -1,15 -8,23 -29,29 -44,93 -21,84 17,-7 18,6 2,22 -9,9 -7,13 6,18 13,5 14,9 6,14 -21,13 -1,31 21,20 15,-9 19,-7 19,6 0,9 -9,18 -20,21 -11,3 -17,9 -14,14 3,5 7,22 9,37 3,24 -2,30 -28,42 -18,7 -34,15 -38,17 -3,2 -15,-8 -27,-22 z" />
      <path
         id="pNDsiKmaw"
         d="m 2168,1319 c -15,-16 -25,-29 -23,-29 3,0 -7,-21 -20,-47 -14,-25 -24,-47 -23,-49 5,-4 45,32 51,46 4,8 4,-4 1,-27 -5,-34 -3,-43 9,-43 9,0 17,5 19,12 2,6 10,8 17,4 9,-6 9,-11 1,-21 -23,-28 12,-27 41,1 16,15 29,23 29,16 0,-6 -4,-14 -10,-17 -5,-3 -10,-11 -10,-17 0,-6 7,-5 16,3 15,12 16,11 10,-9 -3,-12 -9,-32 -12,-43 -4,-14 -2,-19 5,-15 6,4 11,13 11,20 0,6 5,17 11,23 9,9 17,6 30,-12 11,-13 19,-28 19,-34 0,-15 20,-14 21,2 1,6 1,15 0,20 0,4 4,7 9,7 6,0 10,-11 10,-25 0,-14 -4,-25 -10,-25 -5,0 -10,-7 -10,-15 0,-8 9,-15 20,-15 11,0 19,-3 19,-7 -4,-25 3,-43 17,-43 13,0 15,-6 9,-32 -10,-50 -13,-118 -3,-118 4,0 9,12 9,28 2,25 2,26 6,3 4,-19 7,-21 15,-10 6,10 7,4 3,-18 -5,-25 -3,-33 8,-33 9,0 17,-14 21,-34 7,-34 49,-90 60,-79 3,4 6,-5 7,-18 0,-22 1,-22 8,-4 8,19 8,19 15,-3 4,-12 9,-34 10,-50 2,-21 9,-28 29,-30 14,-2 31,-9 37,-17 6,-8 18,-11 26,-8 8,3 14,-1 14,-8 0,-9 3,-10 8,-4 4,6 14,10 22,10 12,0 15,12 14,51 -1,41 -7,56 -28,77 -15,15 -38,27 -51,27 -18,0 -25,7 -30,29 -3,17 -2,39 4,50 26,47 -2,141 -42,141 -29,0 -87,63 -87,94 0,39 -21,116 -31,116 -5,0 -9,7 -9,15 0,8 -5,15 -11,15 -7,0 -22,11 -35,25 -13,14 -29,25 -36,25 -15,0 -68,53 -68,69 0,6 -7,11 -15,11 -8,0 -17,11 -21,25 -9,37 -69,33 -106,-6 z" />
      <path
         id="pC1lVabTl"
         d="m 2900,645 c 0,-15 -6,-25 -14,-25 -17,0 -26,-22 -26,-66 0,-33 2,-35 28,-32 15,1 53,-6 86,-16 49,-16 61,-17 79,-6 15,9 22,10 25,1 2,-6 8,-9 12,-6 12,7 143,18 200,17 30,-1 39,2 26,7 -13,5 -16,10 -8,15 6,4 21,2 33,-4 12,-7 42,-12 68,-12 36,0 59,-8 107,-39 66,-43 76,-46 68,-24 -8,19 5,19 30,0 11,-8 35,-15 53,-15 26,0 33,4 33,19 0,19 -48,51 -77,51 -8,0 -55,23 -105,50 -88,49 -93,50 -190,55 -54,3 -107,9 -117,15 -10,5 -56,9 -102,8 -61,-1 -93,3 -116,15 -18,9 -46,17 -63,17 -25,0 -30,-4 -30,-25 z" />
    </g>
  </g>
  <g
     id="l4MDsJFOVjXtVJaiZj2S0wV"
     fill="#9c6e61"
     transform="matrix(0.44987147,0,0,0.44987147,0,1.2853069)">
    <g
       id="g143">
      <path
         id="pUS2rDcq3"
         d="m 4191,9428 c -75,-82 -116,-103 -261,-133 -69,-15 -137,-34 -152,-43 -122,-75 -296,-216 -457,-370 -182,-174 -411,-417 -411,-435 0,-5 50,38 110,97 61,59 114,104 119,102 4,-3 22,12 39,33 17,21 46,45 65,55 20,9 37,20 39,24 6,13 152,138 234,199 44,33 107,72 139,87 32,16 67,37 78,47 12,10 26,20 31,20 26,3 33,5 62,21 40,22 106,39 159,41 27,2 58,14 90,35 l 49,32 21,-20 c 12,-11 24,-20 26,-20 14,0 74,63 71,76 -3,17 12,18 39,4 13,-8 19,-7 19,0 0,17 26,40 44,40 23,0 19,27 -5,33 -20,5 -20,7 -4,31 10,14 13,26 8,26 -6,0 -21,10 -34,23 -65,60 -58,60 -118,-5 z" />
      <path
         id="pVdBz8F6D"
         d="m 4400,9055 c 0,-8 6,-25 13,-36 10,-17 9,-23 -1,-26 -9,-4 -8,-12 5,-36 10,-18 22,-35 26,-38 12,-9 -2,-98 -21,-134 -9,-16 -17,-41 -18,-55 -2,-14 -14,-35 -28,-47 -16,-14 -22,-24 -15,-29 7,-4 2,-11 -12,-18 -34,-17 -46,-42 -31,-66 8,-14 9,-20 1,-20 -6,0 -9,-9 -6,-20 3,-13 -1,-24 -13,-30 -10,-6 -16,-17 -14,-27 4,-20 -18,-54 -38,-57 -7,-1 -19,-5 -25,-9 -7,-5 -13,-5 -13,0 0,13 -66,9 -83,-6 -11,-9 -17,-10 -17,-2 0,18 -34,46 -58,48 -12,1 -22,-1 -22,-3 0,-9 28,-34 38,-34 6,0 7,-14 2,-36 -10,-41 -6,-70 11,-90 6,-8 9,-14 5,-14 -4,0 0,-14 9,-30 12,-23 27,-33 60,-42 25,-7 45,-16 45,-20 0,-4 8,-8 18,-9 11,-1 9,-4 -8,-9 -25,-8 -25,-8 -2,-9 13,-1 20,-5 17,-11 -3,-5 1,-10 9,-10 23,0 20,-33 -4,-48 -17,-10 -19,-16 -9,-33 7,-13 7,-29 1,-47 -6,-17 -6,-36 1,-52 12,-30 16,-110 6,-110 -4,0 -6,-8 -5,-17 2,-10 -2,-26 -8,-37 -8,-14 -8,-20 1,-23 19,-7 -1,-37 -39,-60 -68,-39 -136,-52 -275,-49 -73,1 -133,-1 -133,-4 0,-3 -8,-6 -17,-7 -44,-3 -90,-12 -118,-23 -16,-6 -32,-12 -35,-12 -3,0 -15,-5 -27,-11 -25,-11 -32,-30 -8,-21 8,4 23,3 32,-1 31,-13 46,-16 122,-20 55,-3 76,-9 86,-22 11,-15 15,-15 29,-4 9,7 16,9 16,4 0,-5 14,-23 31,-41 30,-31 65,-38 96,-19 15,10 53,0 74,-19 11,-10 25,-14 36,-9 27,11 105,16 99,6 -3,-4 6,-18 19,-31 13,-13 22,-27 19,-31 -3,-5 0,-9 5,-9 6,0 11,-9 11,-20 0,-11 4,-20 8,-20 5,0 19,-9 32,-20 19,-16 20,-20 6,-20 -27,0 -1,-38 32,-46 15,-4 32,-11 38,-16 7,-5 16,-8 20,-7 5,1 14,0 19,-1 11,-3 35,-6 76,-8 21,-2 30,-11 43,-47 10,-24 15,-48 12,-53 -3,-5 10,-26 29,-47 28,-32 32,-42 23,-58 -7,-14 -13,-16 -21,-8 -19,19 -31,12 -14,-7 25,-28 21,-31 -23,-20 -44,11 -64,3 -40,-15 8,-7 15,-19 15,-27 0,-11 10,-14 42,-13 24,1 51,7 62,12 44,24 125,-10 134,-57 3,-15 20,-42 37,-60 16,-19 28,-38 25,-43 -4,-5 0,-9 7,-9 8,0 6,-5 -5,-11 -13,-8 -15,-14 -7,-29 13,-25 13,-30 -4,-30 -8,0 -17,-15 -20,-34 -5,-24 -13,-35 -29,-39 -12,-3 -31,-8 -42,-12 -15,-4 -30,2 -50,21 -17,16 -31,22 -33,15 -7,-22 -33,-11 -43,19 -6,17 -17,30 -24,30 -7,0 -15,6 -18,14 -6,15 -55,27 -62,15 -12,-19 -220,-16 -253,5 -6,4 -12,2 -12,-3 0,-6 -12,-11 -27,-11 -16,0 -34,-4 -42,-9 -7,-5 -29,-5 -48,-1 -30,7 -36,5 -45,-15 -13,-29 -30,-37 -87,-41 -23,-2 -54,-10 -67,-19 -13,-8 -24,-12 -24,-8 0,5 -4,3 -8,-3 -4,-7 -29,-18 -56,-26 -28,-8 -52,-21 -54,-28 -3,-8 0,-10 8,-5 10,6 12,4 7,-8 -3,-10 -2,-17 3,-17 6,0 10,4 10,9 0,5 9,7 20,4 11,-3 20,-10 20,-17 0,-7 3,-6 9,2 11,18 81,26 81,10 0,-10 2,-10 9,0 13,22 51,-7 50,-38 0,-23 -1,-23 -9,-5 -7,17 -9,17 -9,3 -1,-10 -5,-18 -10,-18 -5,0 -12,-8 -15,-18 -4,-11 -31,-27 -69,-41 -63,-23 -102,-27 -357,-34 -75,-2 -124,-8 -140,-17 l -25,-15 23,-3 c 12,-2 20,-8 16,-13 -4,-7 6,-9 25,-6 17,3 31,1 31,-4 0,-10 184,-5 212,6 9,4 19,1 23,-5 4,-6 16,-8 26,-5 11,4 26,1 34,-5 12,-10 18,-10 30,0 10,9 15,9 15,1 0,-15 27,-14 33,2 4,9 6,9 6,-1 1,-7 6,-10 11,-7 6,4 17,2 24,-4 17,-14 65,-5 97,19 22,16 29,17 45,6 16,-12 115,-42 163,-50 8,-2 17,-8 19,-14 2,-7 9,-12 15,-12 7,0 24,-7 40,-14 15,-8 27,-10 27,-5 0,6 9,5 22,-2 14,-8 18,-14 10,-17 -6,-2 -9,-8 -6,-14 6,-10 -31,-41 -54,-44 -7,-2 -20,-8 -29,-16 -9,-7 -41,-25 -71,-40 -42,-20 -61,-24 -74,-17 -10,5 -18,15 -18,20 0,7 -10,9 -26,5 -20,-5 -33,-1 -49,14 -21,19 -24,20 -39,5 -15,-15 -14,-19 4,-55 23,-45 18,-64 -22,-98 -41,-35 -37,-83 6,-60 11,7 41,15 66,18 38,4 49,1 68,-17 13,-13 29,-23 37,-23 8,0 19,-8 24,-17 9,-15 10,-12 11,16 0,21 -9,44 -26,64 -34,41 -20,53 74,61 64,5 73,4 79,-11 9,-23 29,-43 42,-43 6,0 11,-13 11,-30 0,-16 4,-30 9,-30 5,0 13,-10 17,-22 3,-13 15,-35 25,-50 l 19,-26 -29,-10 c -16,-6 -33,-7 -37,-2 -28,25 -110,60 -141,60 h -37 l 21,-20 c 12,-10 24,-27 27,-37 3,-10 16,-23 28,-28 18,-8 23,-19 24,-47 1,-28 -3,-38 -14,-38 -8,0 -12,-3 -9,-7 4,-3 2,-12 -4,-20 -15,-17 12,-18 29,-1 9,9 12,7 12,-12 -1,-32 -22,-60 -46,-61 -11,0 -14,-3 -6,-6 6,-2 10,-9 6,-14 -3,-5 0,-9 5,-9 19,0 12,-27 -15,-53 -14,-15 -31,-43 -36,-64 -16,-59 -13,-211 5,-240 4,-7 5,-24 1,-38 -4,-16 -2,-25 5,-25 7,0 9,-9 5,-25 -3,-13 -1,-46 5,-72 6,-27 11,-61 13,-78 1,-16 6,-36 11,-42 5,-7 11,-59 13,-115 4,-138 8,-189 18,-215 6,-18 4,-23 -11,-23 -14,0 -15,-2 -4,-9 11,-7 10,-10 -5,-14 -15,-4 -15,-5 -3,-6 18,-1 21,-44 6,-68 -5,-8 -4,-13 2,-13 6,0 7,-8 4,-17 -6,-16 -5,-16 10,-4 15,12 19,12 32,-5 8,-10 15,-27 15,-37 0,-10 5,-15 10,-12 7,4 9,-2 5,-18 -5,-20 -2,-28 15,-37 15,-8 20,-18 17,-31 -3,-10 -1,-19 3,-19 5,0 11,8 13,18 3,11 5,9 6,-8 1,-20 3,-22 11,-10 8,12 10,12 15,-2 4,-9 13,-14 21,-11 10,4 12,0 8,-11 -4,-10 -1,-16 9,-16 8,0 21,-13 28,-29 8,-18 16,-25 20,-19 4,6 10,-4 14,-22 5,-24 10,-29 16,-19 7,12 12,12 30,1 26,-17 42,-4 42,32 0,34 13,24 21,-16 7,-31 8,-32 21,-14 15,19 15,19 15,-1 0,-20 3,-21 32,-12 43,12 48,11 45,-3 -1,-9 10,-12 33,-11 19,1 29,-1 23,-3 -10,-4 -10,-9 1,-20 8,-8 19,-14 25,-14 6,0 11,-4 11,-10 0,-5 19,-15 41,-22 25,-7 44,-19 47,-30 2,-10 9,-18 16,-17 25,3 36,-2 36,-15 0,-11 7,-13 30,-6 19,5 30,5 30,-1 0,-6 7,-6 19,1 14,7 21,6 25,-3 3,-9 8,-8 15,4 6,9 27,20 46,23 21,4 35,13 35,21 0,8 4,15 10,15 5,0 7,7 4,15 -4,10 0,15 14,15 15,0 20,-5 17,-19 -2,-11 3,-22 11,-25 17,-6 7,-36 -12,-36 -8,0 -14,-4 -14,-10 0,-5 4,-10 8,-10 4,0 8,-23 8,-52 0,-44 4,-55 27,-71 l 26,-20 -25,-49 c -13,-26 -22,-48 -19,-48 3,0 -2,-11 -11,-25 -10,-15 -12,-25 -5,-25 7,0 8,-8 1,-25 -8,-22 -6,-26 15,-31 24,-6 35,-24 15,-24 -6,0 -8,-11 -4,-25 4,-15 2,-25 -5,-25 -6,0 -11,-9 -11,-21 0,-12 -8,-23 -20,-26 -18,-5 -24,-15 -21,-36 1,-4 -3,-17 -9,-27 -7,-14 -7,-20 0,-20 5,0 10,5 10,10 0,6 7,10 15,10 19,0 19,-18 -1,-66 -17,-39 -17,-39 -27,-14 -9,22 -11,23 -15,6 -3,-15 -6,-16 -13,-5 -7,11 -10,9 -15,-8 -3,-12 -17,-24 -32,-28 -20,-5 -23,-8 -11,-16 7,-5 11,-9 6,-9 -4,0 -1,-12 6,-27 15,-29 12,-53 -7,-65 -7,-5 -7,-8 2,-8 10,0 10,-3 -2,-15 -8,-8 -21,-15 -29,-15 -16,0 -41,-26 -50,-52 -5,-13 -17,-18 -46,-18 -22,0 -41,-5 -43,-10 -2,-6 -14,-12 -28,-15 -26,-5 -70,-43 -74,-66 -2,-8 -6,-21 -9,-29 -4,-8 -9,-34 -11,-58 -3,-23 -12,-49 -21,-58 -8,-9 -12,-21 -8,-27 4,-6 0,-8 -10,-4 -9,3 -18,0 -21,-9 -4,-10 -11,-11 -30,-4 -19,7 -29,5 -40,-5 -8,-8 -21,-15 -30,-15 -8,0 -18,-5 -21,-10 -5,-8 -11,-7 -21,1 -8,6 -14,7 -14,2 0,-5 -14,-10 -31,-11 -16,-1 -33,-3 -37,-4 -14,-4 -52,14 -52,23 0,15 -41,-10 -81,-50 -24,-24 -46,-37 -67,-38 -51,-3 -125,-93 -77,-93 8,0 15,-7 15,-15 0,-17 28,-22 173,-30 l 107,-6 v 25 c 0,21 6,26 35,32 41,7 67,7 118,-2 31,-5 45,-2 68,15 16,12 43,21 64,21 24,0 35,4 35,15 0,11 12,15 49,15 28,0 53,-5 56,-10 3,-5 24,-10 47,-10 29,0 41,-5 45,-17 13,-50 79,-64 308,-67 59,-1 60,0 63,27 l 4,29 79,-7 c 69,-6 79,-5 79,9 0,9 8,16 20,16 12,0 25,10 32,25 6,14 19,25 30,25 10,0 18,6 18,14 0,8 13,17 29,21 20,4 33,16 42,38 7,18 28,46 46,63 23,22 33,41 33,61 0,16 7,38 15,49 8,10 15,31 15,47 0,34 45,107 65,107 8,0 15,5 15,10 0,6 11,10 25,10 13,0 28,6 32,13 16,26 58,47 95,47 31,0 40,5 47,23 11,26 46,57 65,57 8,0 16,6 19,13 3,9 9,7 24,-6 20,-17 69,-23 89,-9 27,17 44,253 21,289 -4,6 -4,14 1,17 11,6 5,92 -8,117 -6,10 -8,24 -5,30 4,5 2,16 -4,23 -7,8 -14,27 -16,42 -3,16 -10,50 -16,77 -10,46 -11,47 -50,47 -27,0 -39,-4 -39,-14 0,-8 -7,-22 -16,-30 -9,-9 -19,-29 -23,-44 -10,-37 -41,-43 -41,-8 0,16 -6,26 -14,26 -23,0 -42,41 -50,104 -8,70 -10,73 -32,55 -22,-18 -21,-18 -38,7 -17,23 -23,99 -12,159 5,33 3,45 -14,63 -17,18 -25,39 -29,73 -1,9 -35,6 -42,-4 -4,-5 -9,3 -11,17 -3,15 -1,26 6,26 6,0 5,4 -3,9 -12,8 -12,12 -2,25 11,14 11,16 -4,16 -25,0 -14,9 16,13 15,3 25,11 27,25 4,23 -13,31 -21,10 -3,-9 -9,-7 -20,7 -8,11 -13,23 -11,27 5,8 -14,21 -36,25 -55,10 -65,8 -78,-19 -7,-16 -20,-28 -28,-28 -8,0 -14,-10 -14,-25 0,-16 -6,-25 -15,-25 -8,0 -15,-4 -15,-9 0,-5 -9,-11 -20,-14 -13,-3 -20,-14 -20,-29 -1,-30 -31,-64 -104,-113 -82,-56 -98,-65 -123,-65 -17,0 -23,-6 -23,-21 0,-20 -3,-20 -137,-13 -76,3 -139,11 -141,15 -2,5 -10,9 -18,9 -8,0 -14,5 -14,10 0,6 -21,10 -47,10 -27,0 -57,7 -67,15 -13,10 -43,15 -83,15 -35,0 -63,4 -63,10 0,6 -17,10 -39,10 -21,0 -44,6 -50,14 -7,8 -30,17 -52,21 -23,4 -45,15 -52,26 -6,10 -19,19 -29,19 -9,0 -20,5 -23,10 -3,6 -14,10 -25,10 -10,0 -20,7 -24,15 -3,8 -15,15 -26,15 -14,0 -20,7 -20,24 0,17 -7,26 -25,30 -14,4 -25,13 -25,21 0,15 -5,28 -30,75 -42,78 -42,78 -29,134 8,39 9,73 2,122 -12,81 -6,134 16,151 10,7 40,9 86,6 65,-5 75,-3 129,26 71,37 156,42 219,12 44,-21 33,-31 -33,-31 -20,0 -43,-6 -49,-14 -7,-8 -27,-17 -45,-20 -24,-5 -36,-13 -40,-29 -9,-34 -7,-147 3,-147 4,0 11,-25 14,-55 3,-30 8,-59 12,-65 9,-14 105,-13 105,2 0,27 47,79 86,94 61,23 116,6 172,-54 23,-26 42,-53 42,-61 0,-11 13,-13 61,-8 50,4 66,10 84,31 12,14 26,26 30,26 11,0 55,49 55,62 0,11 176,5 188,-6 3,-3 6,-32 6,-63 l 1,-58 34,-3 c 22,-2 35,-10 38,-22 7,-27 56,-43 113,-38 60,6 68,12 52,38 -13,22 -16,73 -5,84 10,10 12,106 2,106 -4,0 -6,8 -4,18 2,9 4,17 5,17 1,0 3,8 5,18 2,10 10,26 18,35 16,19 31,53 29,65 -1,4 2,7 6,7 5,0 9,25 9,56 0,47 -3,57 -18,61 -10,3 -16,9 -13,14 3,5 1,9 -5,9 -5,0 -13,9 -16,20 -3,11 -14,20 -23,20 -12,0 -13,3 -4,12 7,7 12,21 12,31 0,16 -2,17 -15,7 -22,-19 -31,-4 -18,30 7,18 8,32 2,36 -5,3 -6,10 -3,16 4,6 -1,17 -12,25 -15,11 -17,17 -6,33 14,23 16,50 3,50 -18,0 -9,61 11,71 10,5 18,16 18,24 0,8 7,15 16,15 8,0 12,5 9,10 -3,6 -2,10 3,10 13,0 21,59 10,66 -5,3 -6,14 -3,25 4,10 3,24 -1,31 -5,7 -8,30 -7,52 1,29 -3,39 -17,43 -15,4 -17,13 -14,54 2,27 0,49 -5,49 -5,0 -8,11 -7,25 0,14 4,25 9,25 10,0 -4,53 -16,62 -8,4 -7,15 1,33 15,33 16,31 -9,54 -13,12 -19,26 -15,36 3,9 0,18 -9,21 -19,8 -20,34 0,34 7,0 19,8 24,18 6,9 11,13 11,7 0,-5 7,3 16,20 8,16 13,37 11,46 -3,11 4,21 19,28 15,6 24,19 24,33 0,13 7,32 15,42 8,10 13,22 11,25 -2,3 -6,29 -10,56 -13,111 -19,140 -27,143 -5,2 -9,16 -9,32 0,15 -7,44 -15,64 -9,20 -13,41 -10,46 4,6 2,10 -3,10 -8,0 -52,79 -52,93 0,3 -13,28 -28,54 -38,66 -49,126 -51,279 -1,72 -4,147 -6,166 -3,33 4,43 69,113 86,92 98,129 98,290 0,95 -3,120 -27,185 -28,77 -63,138 -102,179 l -23,24 -1,-39 c 0,-36 -1,-37 -10,-14 -6,13 -14,27 -18,30 -5,3 -21,30 -36,60 -15,30 -55,82 -89,115 -33,33 -75,78 -92,100 -38,50 -97,152 -106,185 -27,102 -45,128 -222,323 l -80,87 -22,-25 c -12,-14 -26,-25 -32,-25 -6,0 -12,-4 -14,-9 -1,-6 -15,-11 -29,-13 -15,-2 -33,-9 -40,-15 -8,-6 -31,-14 -51,-18 -35,-7 -38,-5 -51,28 -8,19 -28,42 -44,52 -38,23 -58,53 -44,69 15,18 1,58 -28,81 -33,26 -122,74 -138,75 -7,0 -13,-7 -13,-15 z M 5630,7753 c 11,-42 20,-95 20,-117 0,-47 -30,-138 -47,-143 -17,-6 -27,77 -20,184 5,83 -1,156 -18,233 -12,56 46,-86 65,-157 z M 4467,7550 c 12,-10 33,-22 48,-26 15,-4 29,-12 31,-19 3,-7 14,-15 25,-18 25,-7 25,-41 -2,-68 -26,-26 -54,-20 -100,21 -19,16 -40,30 -46,30 -7,0 -13,7 -13,15 0,8 -6,15 -14,15 -21,0 -29,17 -22,46 5,19 13,24 39,24 19,0 42,-8 54,-20 z m 789,-457 c 27,-9 62,-26 77,-37 36,-26 97,-105 97,-125 0,-11 -4,-9 -16,7 -8,12 -20,22 -26,22 -18,0 -88,33 -88,42 0,4 -5,8 -12,8 -6,0 -31,9 -55,21 -32,15 -43,27 -43,43 0,19 7,36 15,36 1,0 24,-8 51,-17 z m -804,-504 c 29,-6 60,-17 68,-23 8,-7 26,-17 40,-24 14,-7 33,-26 42,-42 9,-17 24,-30 32,-30 8,0 18,-9 21,-21 8,-24 47,-41 90,-38 84,4 125,-53 64,-90 -28,-17 -69,-18 -69,-1 0,19 -60,30 -163,30 -62,0 -141,5 -177,11 -139,22 -164,27 -147,28 9,0 17,5 17,10 0,5 14,11 32,15 48,9 68,33 68,78 0,49 -13,73 -48,92 -27,15 -27,15 25,16 29,0 76,-5 105,-11 z m 376,-651 c -6,-18 -15,-41 -19,-50 -9,-18 -13,-138 -5,-138 17,0 36,15 36,27 0,19 46,63 64,63 8,0 19,7 26,15 7,8 20,15 30,15 9,0 20,3 23,7 4,3 19,8 34,9 14,2 29,8 33,14 4,6 15,8 25,4 13,-5 16,-4 11,4 -4,7 -1,12 8,12 9,0 16,7 16,16 0,12 10,7 39,-17 22,-19 40,-40 40,-46 1,-7 7,-13 14,-13 7,0 8,-3 2,-8 -13,-9 -16,-42 -3,-42 5,0 6,-5 2,-12 -4,-7 -8,-22 -9,-35 0,-17 5,-23 20,-23 20,-1 20,-1 0,-17 -20,-15 -20,-15 2,-10 13,3 24,-1 27,-9 3,-8 14,-14 25,-14 14,0 19,-5 15,-15 -4,-10 0,-15 11,-15 9,0 14,-4 10,-9 -3,-5 -1,-12 5,-16 5,-3 10,0 10,7 0,8 5,6 11,-5 5,-9 7,-22 4,-27 -3,-6 -1,-10 4,-10 6,0 11,-7 11,-15 0,-18 12,-19 28,-3 8,8 13,1 18,-33 6,-33 9,-39 14,-24 6,16 9,10 14,-22 4,-23 5,-47 1,-53 -10,-15 14,-77 32,-84 9,-4 13,-13 9,-22 -3,-9 4,-24 19,-38 16,-15 23,-30 19,-40 -3,-9 -1,-16 6,-16 7,0 9,-8 5,-20 -4,-11 -2,-20 4,-20 18,0 0,-28 -22,-34 -22,-5 -22,-5 -2,-20 11,-9 15,-16 9,-16 -6,0 -9,-18 -7,-42 4,-68 -5,-96 -35,-107 -17,-6 -21,-10 -9,-10 18,-1 25,-21 6,-21 -5,0 -8,-4 -5,-9 18,-28 -88,-68 -124,-46 -8,5 -35,10 -61,11 -26,1 -61,10 -77,18 -17,9 -38,16 -46,16 -8,0 -20,9 -26,20 -6,11 -7,20 -3,20 4,0 -3,10 -17,23 -14,12 -24,29 -23,37 4,17 -101,75 -154,86 -18,4 -37,12 -44,20 -11,13 -13,13 -64,-7 -16,-7 -37,-14 -45,-17 -25,-7 -92,-3 -104,7 -6,5 -21,11 -34,13 -12,1 -23,8 -23,13 0,6 -6,19 -13,30 -18,29 -26,64 -14,71 5,3 2,14 -8,25 -9,10 -14,19 -11,19 16,0 23,4 34,19 14,20 8,30 -15,24 -12,-3 -22,4 -31,19 -13,26 -50,34 -64,15 -5,-8 -7,-5 -5,8 2,12 11,20 24,21 12,1 27,5 34,9 7,4 16,2 21,-6 9,-14 9,-14 13,24 0,6 12,14 26,15 14,2 28,10 32,17 5,7 17,11 28,8 16,-4 19,-2 13,12 -4,13 -3,16 5,11 8,-5 12,1 12,18 0,14 8,31 18,38 10,7 21,21 25,31 5,13 13,16 27,12 11,-4 19,-3 18,2 -1,4 3,18 10,31 9,16 10,22 1,22 -7,0 -9,10 -5,30 5,28 3,30 -23,30 -19,0 -32,-7 -41,-25 -7,-13 -21,-27 -32,-31 -10,-3 -18,-12 -18,-19 0,-8 -8,-20 -18,-27 -10,-7 -25,-23 -33,-35 -32,-46 -90,-83 -130,-83 -28,0 -39,4 -39,15 0,8 4,15 8,15 18,0 51,98 57,166 6,68 8,71 38,80 21,6 33,16 35,30 4,29 57,84 81,84 12,0 21,5 21,11 0,20 33,38 68,39 20,0 35,6 38,15 4,8 14,15 24,15 16,0 17,-4 8,-32 z" />
      <path
         id="pZ8yvj0fm"
         d="m 2503,7888 c -17,-29 -48,-91 -69,-138 -35,-78 -38,-92 -39,-175 0,-86 2,-94 41,-173 l 41,-84 7,37 c 4,20 16,44 27,53 10,9 19,22 19,29 0,6 7,16 15,20 13,8 12,12 -6,32 -11,12 -19,30 -16,40 2,10 0,27 -6,37 -16,28 -18,39 -17,157 1,82 6,122 20,160 11,28 18,52 16,54 -2,2 -17,-20 -33,-49 z" />
      <path
         id="pvYlvyTJu"
         d="m 2972,6083 c -14,-28 -9,-167 7,-186 7,-10 10,-17 6,-17 -3,0 7,-12 24,-26 34,-28 95,-116 105,-151 8,-25 75,-79 95,-75 7,2 10,-1 7,-6 -3,-5 13,-8 36,-8 30,1 44,7 56,24 8,12 10,22 5,22 -5,0 -8,13 -7,30 1,17 -6,40 -18,55 -10,14 -17,29 -14,34 4,5 1,15 -6,23 -7,7 -14,22 -16,33 -10,71 -27,114 -57,149 -19,21 -35,33 -35,27 0,-8 -8,-7 -22,3 -12,9 -29,16 -38,16 -8,0 -27,11 -41,24 -24,22 -62,46 -73,46 -3,0 -9,-8 -14,-17 z" />
      <path
         id="pd3XW8Z2s"
         d="m 5820,5939 c -8,-14 -8,-24 -1,-32 5,-7 9,-28 9,-47 -1,-19 -1,-46 -1,-60 0,-14 0,-56 0,-95 0,-138 13,-221 39,-252 13,-15 24,-31 24,-35 0,-4 10,-8 22,-10 30,-4 44,-64 17,-71 -14,-4 -17,-14 -15,-53 4,-55 15,-104 27,-119 4,-6 13,-42 20,-80 6,-39 16,-90 21,-115 5,-25 10,-111 11,-192 1,-86 6,-144 11,-140 5,3 6,-3 2,-14 -21,-55 -29,-430 -8,-410 3,3 11,-6 19,-21 11,-21 11,-28 1,-35 -9,-5 -8,-8 6,-8 18,0 18,-1 1,-20 -18,-19 -17,-20 13,-26 18,-4 32,-10 32,-15 0,-15 88,-10 104,6 8,8 19,15 25,15 13,0 10,38 -5,44 -7,3 -10,21 -8,45 1,22 -1,43 -6,46 -5,3 -7,12 -3,20 3,8 1,15 -4,15 -11,0 -11,120 1,138 4,7 14,11 22,8 10,-4 14,2 14,18 0,17 -9,27 -32,37 -39,16 -71,46 -65,62 2,7 9,2 16,-11 7,-13 21,-22 36,-22 16,0 25,-6 25,-15 0,-10 11,-15 35,-15 19,0 35,-3 35,-7 0,-17 64,-43 104,-43 23,0 47,-5 53,-11 9,-9 18,-8 37,5 19,12 26,13 27,4 0,-7 9,5 19,27 32,69 21,303 -20,452 -14,51 -16,70 -7,75 9,6 8,8 -2,8 -8,0 -11,6 -7,17 5,11 0,23 -15,33 -13,11 -22,29 -23,49 -1,18 -6,35 -12,39 -13,9 -78,201 -71,209 4,3 -1,12 -9,20 -8,8 -12,19 -9,24 4,5 2,9 -3,9 -6,0 -13,12 -17,27 -9,36 -66,168 -118,272 -43,87 -90,155 -100,145 -3,-3 -10,4 -17,15 -6,12 -16,21 -21,21 -6,0 -38,20 -71,45 -50,37 -67,45 -104,45 -34,0 -46,-5 -54,-21 z m 275,-565 c 65,-31 115,-148 115,-270 0,-61 -41,-164 -65,-164 -7,0 -20,-3 -28,-6 -10,-3 -25,10 -46,41 -27,40 -31,54 -31,114 0,42 6,80 15,97 17,33 20,139 5,178 -11,30 -9,31 35,10 z m 294,-429 c 12,-33 28,-118 36,-190 8,-71 18,-149 21,-171 8,-51 -3,-59 -37,-30 -61,53 -62,58 -54,267 4,104 9,189 10,187 2,-2 13,-30 24,-63 z" />
      <path
         id="pB6vllirh"
         d="m 3207,4989 c -9,-5 -21,-8 -26,-4 -5,3 -13,1 -16,-5 -5,-8 -11,-7 -21,1 -11,9 -14,9 -14,0 0,-7 -4,-10 -10,-6 -11,7 -60,-4 -60,-14 0,-9 70,-34 77,-27 6,6 145,-63 155,-78 11,-16 10,-38 -1,-32 -5,3 -14,-8 -20,-24 -5,-17 -7,-31 -3,-32 4,0 12,-2 17,-2 18,-2 51,-30 58,-49 5,-13 2,-17 -10,-15 -30,6 -24,-20 7,-27 40,-9 46,-26 24,-64 -17,-29 -44,-32 -44,-5 0,8 -5,14 -11,14 -6,0 -9,-17 -7,-42 3,-40 5,-43 36,-46 20,-2 45,5 66,17 18,12 44,21 57,22 13,0 18,3 12,6 -18,7 -16,23 1,23 21,0 30,19 28,57 -3,31 -2,32 33,26 42,-7 44,0 8,33 -16,14 -21,24 -13,21 28,-8 75,68 51,83 -7,4 -11,11 -9,16 3,10 -42,59 -54,59 -4,0 -16,8 -27,17 -11,9 -22,14 -25,11 -3,-4 -6,-1 -6,6 0,7 -6,11 -14,8 -8,-3 -23,3 -35,14 -19,18 -22,18 -27,4 -6,-14 -8,-14 -20,2 -11,15 -14,15 -14,3 -1,-9 -5,-6 -10,8 -5,12 -14,22 -20,22 -6,0 -9,-4 -5,-9 7,-12 -22,-18 -53,-13 -15,3 -21,10 -18,18 6,16 -12,18 -37,3 z" />
      <path
         id="p15s8zDo0w"
         d="m 2690,4666 c 0,-13 -62,-19 -70,-6 -3,5 -11,5 -20,0 -10,-7 -11,-10 -2,-10 6,0 12,-4 12,-10 0,-5 -10,-10 -21,-10 -17,0 -19,-3 -10,-14 7,-8 23,-17 38,-21 14,-3 23,-9 19,-12 -11,-12 35,-63 58,-63 26,0 40,-13 50,-46 6,-19 3,-21 -21,-17 -20,3 -24,2 -14,-5 11,-8 9,-11 -8,-17 -11,-3 -21,-10 -21,-15 0,-4 -7,-11 -16,-14 -12,-4 -15,-2 -10,9 4,12 -1,14 -31,11 -37,-5 -103,-58 -103,-82 0,-10 -7,-10 -31,-2 -22,8 -34,7 -42,-1 -8,-8 -5,-11 14,-11 l 24,-1 -25,-14 c -17,-10 -20,-14 -9,-15 9,0 20,-11 23,-24 3,-14 15,-28 26,-31 11,-4 18,-10 15,-14 -2,-5 8,-14 23,-21 33,-16 135,-23 127,-10 -4,6 -1,10 5,10 6,0 13,-6 16,-14 7,-19 96,-40 126,-30 13,4 35,6 51,5 15,-1 27,2 27,7 0,6 15,6 42,0 29,-6 50,-5 70,3 15,6 42,9 58,5 18,-3 30,-1 30,5 0,7 30,9 85,6 47,-2 86,0 87,5 2,5 25,10 51,11 26,1 47,6 47,11 0,4 11,1 24,-7 16,-11 27,-12 34,-5 6,6 12,6 16,-1 11,-17 29,-13 59,15 16,15 32,22 40,17 6,-4 19,-8 27,-10 8,-1 16,-6 18,-12 2,-5 15,0 28,12 14,12 31,22 37,22 19,1 38,16 32,26 -4,5 1,16 9,25 9,8 16,24 16,35 0,29 1,32 21,58 20,25 26,81 8,81 -5,0 -7,5 -4,10 11,17 -5,49 -21,43 -8,-3 -22,3 -32,14 -9,10 -25,17 -34,15 -10,-2 -18,2 -18,8 0,6 -4,9 -8,6 -4,-2 -14,9 -21,25 l -13,29 -40,-34 c -22,-19 -50,-36 -62,-38 -17,-2 -22,-11 -24,-45 -3,-42 -2,-43 28,-43 30,0 31,-1 16,-22 -9,-12 -16,-33 -16,-46 0,-34 -18,-62 -40,-62 -13,0 -20,7 -20,20 0,16 -7,20 -34,20 -29,0 -34,-4 -39,-30 -4,-18 -13,-30 -22,-30 -9,0 -18,-7 -21,-15 -8,-20 -24,-19 -24,1 0,17 -3,17 -150,-6 -53,-8 -75,-9 -78,-1 -5,15 -122,15 -122,-1 0,-6 -8,-1 -19,10 -10,12 -23,22 -30,22 -6,0 -11,3 -11,8 0,4 30,7 68,7 37,0 104,9 150,19 l 83,20 -3,35 c -3,34 -7,37 -63,59 -33,12 -68,27 -77,32 -10,6 -27,10 -37,10 -11,0 -23,5 -26,10 -3,6 1,10 9,10 12,0 16,10 16,40 0,39 -13,54 -23,27 -8,-21 -59,-19 -79,3 -10,11 -23,21 -28,21 -6,1 -18,2 -27,3 -10,1 -34,9 -53,18 -46,21 -90,28 -90,14 z" />
      <path
         id="pe9lnlFan"
         d="m 1955,4457 c -4,-15 -13,-27 -21,-27 -8,0 -14,-7 -14,-16 0,-8 -4,-13 -9,-10 -4,3 -16,-3 -26,-14 -14,-16 -16,-23 -7,-32 7,-7 12,-22 12,-35 0,-13 6,-23 14,-23 28,0 37,-130 11,-156 -8,-9 -15,-33 -15,-54 0,-21 -4,-42 -10,-45 -5,-3 -10,-15 -10,-26 0,-10 -5,-19 -11,-19 -7,0 -10,-34 -7,-104 3,-91 1,-106 -14,-115 -15,-9 -18,-26 -18,-86 0,-43 4,-75 10,-75 14,0 13,-116 -2,-139 -8,-14 -9,-33 -2,-68 8,-45 11,-48 42,-51 18,-2 32,1 32,7 0,6 -6,11 -12,11 -8,1 -6,6 5,14 10,8 17,18 16,22 -5,27 1,36 16,24 15,-12 22,0 8,14 -14,14 -10,56 5,56 12,0 12,3 2,15 -14,17 -7,19 19,6 13,-7 22,-5 34,9 15,17 15,21 1,35 -14,13 -14,15 1,15 9,0 13,4 10,10 -3,5 3,15 14,21 19,12 18,13 -3,30 l -21,18 25,1 25,1 -23,10 c -20,8 -22,14 -17,45 3,20 8,40 11,45 3,5 2,9 -3,9 -4,0 -9,27 -10,61 -2,51 0,60 12,55 8,-3 15,-1 15,3 0,5 -5,11 -10,13 -12,4 -23,44 -20,73 1,11 2,34 1,50 -1,41 -1,37 3,165 3,112 -13,215 -42,267 -9,16 -11,15 -17,-10 z" />
      <path
         id="p1BAeL8iG2"
         d="m 2160,2932 c 0,-4 5,-13 12,-20 17,-17 -1,-15 -45,3 -39,16 -68,19 -66,8 3,-20 -2,-24 -16,-13 -13,11 -15,8 -15,-17 0,-25 8,-33 55,-58 30,-17 55,-36 55,-42 0,-7 5,-13 10,-13 6,0 10,-9 10,-20 0,-13 -7,-20 -20,-20 -16,0 -20,-7 -20,-34 0,-18 7,-39 15,-46 17,-14 21,-70 5,-70 -5,0 -10,-19 -10,-43 0,-33 6,-50 30,-75 17,-18 30,-39 30,-46 0,-21 35,-46 64,-46 15,0 40,9 55,19 26,19 27,19 76,-2 47,-21 50,-24 47,-56 -2,-23 2,-37 12,-43 10,-6 16,-22 16,-43 0,-24 6,-39 20,-47 11,-7 20,-21 20,-30 0,-25 67,-40 140,-32 55,6 60,9 60,30 0,13 4,24 8,24 5,0 19,9 32,20 13,11 33,20 46,20 13,0 25,4 29,9 3,6 26,13 51,17 25,3 52,14 61,22 9,9 39,28 67,42 44,21 51,30 54,57 3,34 3,34 -48,16 -8,-3 -26,-5 -40,-4 -20,2 -22,0 -10,-8 12,-9 11,-11 -7,-11 -12,0 -26,-7 -31,-15 -6,-12 -14,-14 -33,-6 -13,5 -19,10 -14,11 6,1 1,5 -10,9 -12,5 -30,3 -47,-5 -15,-8 -40,-14 -55,-14 -27,1 -27,1 -9,15 19,14 18,15 -14,15 -18,0 -47,4 -64,9 -48,15 -110,30 -116,29 -13,-3 -91,44 -100,61 -5,11 -27,37 -49,59 -22,22 -37,43 -34,46 4,3 0,6 -8,6 -9,0 -10,3 -3,8 6,4 15,21 18,39 6,25 4,32 -11,37 -25,8 -48,46 -33,56 7,5 3,12 -13,23 -24,15 -35,67 -15,67 5,0 6,5 3,10 -3,6 1,10 10,10 30,0 6,17 -33,24 -21,3 -47,15 -57,26 -10,11 -24,20 -32,20 -7,0 -13,5 -13,10 0,6 -4,10 -10,10 -5,0 -10,-4 -10,-8 z" />
      <path
         id="pOnzDZVDI"
         d="m 3548,2589 c -15,-4 -46,-6 -70,-5 -31,2 -47,-2 -58,-15 -9,-10 -29,-19 -45,-22 -48,-6 -124,-29 -123,-36 2,-17 -3,-25 -10,-14 -6,9 -15,8 -40,-4 -17,-8 -29,-19 -27,-23 3,-5 -8,-11 -25,-15 -48,-10 -33,-54 19,-56 19,-1 21,-3 8,-6 -15,-4 -18,-12 -15,-44 3,-34 1,-39 -17,-39 -33,0 -65,-28 -65,-58 0,-55 10,-72 42,-72 42,0 121,21 136,37 7,7 24,13 38,13 14,0 27,7 30,15 4,8 15,15 25,15 10,0 19,5 19,10 0,6 11,10 25,10 16,0 25,6 25,15 0,9 8,18 18,21 38,12 62,28 62,40 0,7 19,16 45,20 25,3 45,10 45,15 0,5 9,9 20,9 13,0 20,7 20,19 0,11 5,23 10,26 6,3 9,32 9,63 -1,31 -3,49 -6,40 -8,-30 -31,-19 -54,23 -12,22 -18,25 -41,18 z" />
      <path
         id="pqBOyaXbX"
         d="m 6255,2503 c -9,-24 -16,-253 -7,-253 4,0 8,-54 9,-119 3,-98 0,-120 -12,-125 -8,-3 -15,-12 -15,-19 0,-8 -7,-20 -15,-27 -8,-7 -15,-28 -15,-46 0,-32 2,-34 34,-34 60,0 66,-6 45,-48 -10,-20 -38,-59 -63,-86 -25,-27 -46,-57 -46,-67 0,-9 -7,-20 -16,-23 -11,-4 -14,-17 -12,-43 2,-31 7,-39 26,-41 15,-2 22,-9 18,-17 -3,-8 -8,-41 -12,-75 l -7,-62 59,40 c 32,21 68,44 79,50 19,11 19,11 -4,12 h -25 l 23,22 23,21 -22,17 -23,18 23,7 c 15,5 19,10 11,15 -9,5 -3,15 18,33 34,29 40,40 14,30 -11,-4 -14,-3 -9,5 4,7 2,12 -4,12 -7,0 -6,7 3,21 8,11 13,28 10,38 -3,12 9,29 37,51 36,28 39,35 25,42 -10,6 -13,14 -7,21 5,7 8,28 6,47 -1,19 2,40 7,47 7,7 6,13 -1,18 -7,4 -7,12 0,26 13,23 -6,48 -30,42 -8,-2 -1,7 15,21 21,18 25,26 14,26 -9,0 -22,-7 -29,-15 -7,-8 -17,-15 -23,-15 -8,0 -8,3 0,11 6,6 9,17 7,24 -3,7 7,20 22,30 l 27,18 -22,12 c -21,11 -22,13 -6,28 15,15 13,17 -27,23 -37,6 -40,8 -21,17 24,11 37,44 19,51 -6,2 -1,8 12,11 31,10 28,23 -4,17 -19,-3 -25,-1 -20,7 4,7 3,18 -4,26 -18,21 -20,69 -5,99 14,26 10,31 -22,27 -16,-2 -17,15 -2,25 8,4 7,9 -2,15 -22,14 -46,10 -54,-8 z" />
      <path
         id="pjjNwtrSM"
         d="m 2410,1633 c 0,-60 4,-113 9,-118 16,-16 28,-118 19,-150 -11,-39 0,-132 19,-162 8,-13 23,-23 32,-23 17,0 61,-60 61,-84 0,-7 9,-16 19,-19 11,-2 21,-15 23,-28 2,-18 10,-25 31,-27 22,-3 31,-12 44,-44 l 16,-40 51,6 c 28,3 59,6 69,6 13,0 17,8 17,38 0,29 -8,47 -40,82 -22,25 -40,52 -41,60 -5,78 -2,220 4,220 12,0 8,73 -8,115 -8,22 -14,63 -15,91 0,59 -12,74 -57,74 -27,0 -33,-4 -34,-22 v -23 l -9,23 c -5,12 -16,22 -25,22 -8,0 -15,5 -15,10 0,6 -11,10 -24,10 -13,0 -26,7 -30,15 -3,8 -12,15 -20,15 -9,0 -16,11 -18,28 -3,23 -8,27 -40,30 l -38,3 z" />
      <path
         id="p2H6Wbf1v"
         d="m 5843,1141 c -3,-14 -15,-21 -37,-23 l -31,-3 -2,-75 c -3,-82 -17,-120 -45,-120 -10,0 -18,-5 -18,-11 0,-5 -15,-16 -34,-24 -19,-8 -37,-23 -41,-34 -3,-10 -16,-22 -29,-25 -26,-6 -36,-31 -36,-87 0,-30 4,-38 23,-43 13,-3 39,-1 58,4 23,7 35,7 37,0 2,-6 8,-8 12,-5 5,3 11,1 15,-5 3,-5 2,-10 -4,-10 -5,0 -8,-14 -6,-30 8,-58 26,-66 45,-20 11,27 11,32 -5,44 -25,18 -12,46 21,46 15,0 24,3 21,7 -4,3 -20,6 -36,5 -37,-1 -35,21 5,53 l 29,24 -35,1 -35,1 50,24 c 28,13 57,25 65,25 12,0 13,2 1,9 -10,6 -5,11 20,17 l 34,8 -30,6 -30,7 29,8 c 33,9 97,68 100,91 1,9 7,19 14,23 7,4 8,12 2,21 -7,11 -11,12 -24,0 -9,-7 -19,-10 -22,-7 -3,3 2,11 11,18 44,38 45,40 32,53 -6,8 -19,11 -27,8 -12,-5 -13,-3 -2,10 10,13 9,17 -10,22 -46,12 -80,7 -85,-13 z" />
    </g>
  </g>
  <g
     id="l7VPYOK5rwwP2DqHsh4txuo"
     fill="#78564a"
     transform="matrix(0.44987147,0,0,0.44987147,0,1.2853069)">
    <g
       id="g160">
      <path
         id="pXey9lphq"
         d="m 5126,8566 c 3,-15 17,-50 30,-77 13,-27 24,-55 24,-63 0,-18 63,-127 104,-181 17,-22 59,-67 92,-100 34,-33 73,-84 88,-113 28,-55 55,-92 68,-92 14,0 9,90 -6,113 -8,12 -21,44 -30,70 -18,54 -60,114 -186,267 -47,58 -102,127 -120,153 -19,27 -36,43 -38,37 -3,-8 -8,-7 -19,1 -12,11 -13,8 -7,-15 z" />
      <path
         id="ppbzYwFjV"
         d="m 4380,7622 c 0,-7 -7,-12 -15,-12 -8,0 -17,-14 -21,-37 -4,-21 -11,-44 -17,-51 -11,-14 17,-52 38,-52 7,0 15,-9 18,-20 3,-11 9,-19 14,-18 9,3 56,-30 89,-60 8,-7 14,-22 14,-33 0,-18 2,-19 15,-5 8,8 15,20 15,26 0,6 10,10 23,8 22,-2 67,32 67,52 0,6 7,10 15,10 8,0 15,6 15,14 0,7 -7,19 -15,26 -8,7 -15,19 -15,27 0,7 -8,17 -17,20 -10,4 -23,13 -29,22 -6,8 -21,16 -33,18 -13,2 -29,10 -38,18 -23,23 -47,34 -69,31 -10,-2 -27,3 -36,12 -12,9 -18,11 -18,4 z" />
      <path
         id="pSkhHZWAD"
         d="m 5169,7175 c 0,-5 -3,-21 -6,-35 -2,-14 -5,-45 -6,-69 -1,-43 0,-46 42,-68 24,-13 50,-23 58,-23 7,0 13,-4 13,-8 0,-9 69,-42 87,-42 6,0 21,-13 34,-30 29,-36 51,-38 69,-5 7,14 20,25 29,26 11,0 12,2 3,6 -6,2 -10,9 -6,14 3,5 1,9 -5,9 -6,0 -17,13 -26,30 -27,52 -108,125 -156,139 -56,17 -112,42 -121,55 -5,7 -8,7 -9,1 z" />
      <path
         id="pXXpNcd5y"
         d="m 4287,6633 c -2,-2 -24,-6 -48,-9 -24,-3 -46,-8 -48,-9 -6,-7 10,-25 23,-25 26,0 108,-53 118,-76 14,-31 -11,-61 -58,-70 -19,-3 -34,-10 -34,-15 0,-5 -7,-9 -15,-9 -8,0 -15,-4 -15,-9 0,-13 124,-25 157,-15 34,9 253,14 253,5 0,-3 24,-17 53,-31 42,-20 48,-26 30,-28 -29,-4 -29,-21 0,-48 17,-16 33,-21 67,-20 60,2 72,7 91,34 9,13 20,22 24,20 4,-2 11,7 16,19 6,18 3,26 -14,38 -12,8 -20,17 -17,20 7,6 -67,43 -93,47 -12,1 -28,-1 -34,-5 -7,-5 -13,-4 -13,2 0,6 -7,8 -15,5 -9,-4 -19,3 -26,20 -7,14 -18,26 -26,26 -8,0 -22,13 -31,30 -9,16 -28,35 -42,42 -14,7 -32,18 -40,25 -27,21 -248,52 -263,36 z m 509,-299 c -10,-7 -25,-10 -34,-6 -14,6 -13,7 6,10 12,2 22,8 22,13 0,6 5,7 12,3 8,-5 6,-11 -6,-20 z" />
      <path
         id="p1CpNHUZx3"
         d="m 4157,6074 c -3,-3 -28,-8 -56,-10 -74,-6 -148,-54 -108,-70 8,-3 39,-35 70,-72 30,-37 73,-76 94,-87 21,-10 57,-31 79,-46 37,-24 94,-36 94,-20 0,8 61,34 76,32 6,-1 17,5 23,13 10,12 6,18 -27,35 -28,14 -46,33 -58,61 -10,22 -21,40 -26,40 -4,0 -8,5 -8,10 0,6 5,9 11,8 6,-2 14,3 17,11 2,8 0,11 -6,7 -5,-3 -12,1 -16,9 -3,8 -10,15 -16,15 -16,0 -40,26 -32,35 4,3 -2,11 -13,17 -21,12 -90,20 -98,12 z" />
      <path
         id="p5dkhkrqs"
         d="m 4880,6029 c -16,-15 -40,-25 -65,-26 -21,-2 -42,-9 -47,-16 -4,-8 -21,-13 -39,-12 -32,1 -69,-23 -69,-45 0,-5 -9,-10 -21,-10 -24,0 -79,-57 -79,-82 0,-22 -27,-35 -63,-32 -25,3 -27,0 -20,-19 13,-38 4,-130 -19,-179 -12,-27 -25,-48 -30,-48 -4,0 -8,-5 -8,-12 0,-6 -7,-19 -15,-28 -14,-15 -13,-18 3,-33 10,-9 40,-19 67,-22 27,-4 51,-8 54,-10 6,-7 102,73 120,98 8,12 23,28 33,35 10,7 18,19 18,27 0,7 9,17 20,20 11,3 20,10 20,15 0,4 11,18 25,31 13,13 25,29 25,36 0,6 10,20 23,30 19,15 23,25 19,56 -2,20 1,43 7,50 6,8 12,22 14,33 1,10 15,45 31,77 34,73 32,100 -4,66 z" />
      <path
         id="plEv7sOS0"
         d="m 4660,5038 c -14,-5 -37,-7 -52,-4 -15,3 -30,1 -33,-4 -10,-17 -105,-60 -105,-48 0,9 -3,9 -12,0 -18,-18 -35,-15 -58,10 -11,12 -20,17 -20,10 0,-6 -9,-9 -20,-7 -11,2 -20,1 -20,-3 0,-4 -13,-15 -29,-25 -21,-12 -28,-22 -24,-37 3,-12 -2,-29 -11,-39 -11,-12 -13,-21 -7,-25 10,-7 12,-16 14,-83 0,-24 4,-43 8,-43 8,0 6,-27 -3,-36 -4,-3 -4,-12 -2,-19 3,-7 0,-16 -5,-20 -6,-3 -9,-10 -7,-14 3,-4 6,-29 7,-54 2,-26 9,-53 16,-58 7,-6 11,-15 8,-19 -3,-4 2,-11 11,-14 12,-4 14,-13 10,-31 -4,-17 -2,-24 6,-23 6,2 15,-10 19,-27 4,-16 7,-26 8,-21 0,5 7,3 14,-3 8,-6 17,-8 20,-4 4,3 7,1 7,-6 0,-7 -9,-15 -20,-18 -11,-3 -17,-9 -14,-14 3,-5 10,-7 15,-4 5,4 9,-5 9,-19 0,-36 15,-40 29,-8 12,26 13,26 27,7 8,-10 14,-24 14,-29 0,-6 4,-5 9,3 12,18 31,5 31,-22 1,-20 2,-20 11,-4 14,24 22,22 43,-13 11,-19 22,-28 29,-23 17,11 49,4 72,-16 11,-10 34,-17 50,-17 17,1 32,-2 35,-6 3,-4 36,-9 73,-12 37,-2 74,-9 82,-16 8,-6 35,-12 60,-12 25,-1 45,-5 45,-10 0,-4 7,-8 16,-8 8,0 12,-4 9,-10 -7,-12 -13,-11 105,-17 165,-8 226,-6 246,5 10,6 13,12 7,12 -23,0 -14,20 10,20 25,0 42,9 119,63 31,20 60,37 67,37 7,0 10,4 6,9 -3,5 5,18 18,28 12,10 23,29 23,43 0,14 6,24 12,22 7,-1 15,5 18,13 4,8 14,15 24,15 21,0 33,23 18,38 -6,6 -1,12 17,16 14,4 23,11 20,17 -8,12 14,41 26,33 5,-3 9,1 9,9 0,7 -12,20 -27,28 -16,8 -33,20 -38,27 -8,10 -17,11 -38,3 -20,-8 -27,-7 -27,1 0,9 -3,9 -11,1 -15,-15 -56,3 -62,28 -4,13 -14,19 -35,19 -31,0 -47,11 -35,24 10,10 11,60 1,73 -6,7 -7,16 -4,21 3,5 -40,14 -97,19 -141,15 -169,14 -163,-3 8,-20 -37,-64 -65,-64 -19,0 -21,-2 -9,-10 10,-6 11,-10 3,-10 -7,0 -13,-4 -13,-10 0,-5 19,-10 43,-11 23,0 50,-4 61,-8 15,-6 11,-10 -25,-23 -82,-30 -184,-57 -252,-68 -38,-6 -76,-14 -85,-19 -9,-5 -29,-14 -44,-20 -23,-8 -28,-17 -28,-43 0,-39 16,-48 130,-74 107,-24 181,-29 191,-13 6,10 31,13 93,11 54,-2 86,1 86,8 0,5 11,10 25,10 14,0 30,9 37,19 8,14 17,17 27,11 9,-4 37,-11 64,-15 31,-5 53,-14 62,-28 21,-30 19,-37 -10,-37 -18,0 -25,-5 -25,-20 0,-17 -7,-20 -39,-20 -28,0 -44,-6 -53,-19 -14,-20 -6,-20 -246,-20 -35,0 -69,-5 -77,-11 -9,-8 -31,-8 -77,-1 -34,6 -83,10 -108,10 -25,-1 -70,2 -100,6 -46,7 -61,14 -91,46 -29,32 -43,39 -73,39 -45,0 -62,15 -72,65 -6,35 -6,37 14,26 11,-6 37,-11 56,-11 35,0 36,1 36,38 -1,40 -17,58 -80,82 -19,7 -51,29 -71,48 -32,30 -38,41 -43,95 -3,34 -9,81 -12,103 -4,26 -2,44 5,48 6,4 11,15 11,25 0,43 64,69 129,51 30,-8 41,-16 41,-31 0,-16 5,-18 28,-13 15,4 35,13 44,21 11,10 31,14 58,11 22,-2 40,0 40,4 0,5 11,8 24,8 13,0 29,6 35,14 6,7 25,12 41,11 17,-1 30,2 30,7 0,11 -14,16 -61,21 -19,2 -51,11 -70,20 -81,37 -109,46 -115,35 -4,-6 -9,-7 -13,0 -4,6 -15,6 -31,0 z" />
      <path
         id="pWHZqikvr"
         d="m 6035,4610 c -4,-12 -2,-27 4,-33 8,-8 11,-7 11,4 1,29 29,-37 30,-68 0,-18 3,-32 8,-32 19,3 25,-2 12,-11 -12,-8 -11,-10 8,-10 29,0 73,-23 139,-71 66,-49 123,-63 172,-43 20,8 31,18 26,22 -16,12 -11,43 9,54 17,9 16,11 -9,28 -19,12 -39,17 -60,13 -32,-5 -71,12 -105,47 -18,18 -55,27 -45,11 3,-6 2,-11 -3,-11 -5,0 -12,10 -15,21 -4,16 -11,20 -27,16 -22,-6 -41,18 -33,41 3,7 -4,12 -16,12 -12,0 -21,-6 -21,-12 0,-9 -3,-8 -9,2 -6,8 -7,18 -5,22 3,4 -4,8 -15,8 -10,0 -26,3 -34,6 -10,3 -18,-2 -22,-16 z" />
      <path
         id="p1177qxON8"
         d="m 2880,4548 c 0,-17 64,-58 89,-58 10,0 24,-7 31,-15 6,-8 15,-14 18,-13 4,0 9,0 12,-2 3,-1 15,-3 28,-6 13,-2 37,-12 55,-21 l 32,-17 -25,-6 c -31,-7 -40,-48 -14,-67 10,-7 41,-13 68,-13 108,0 185,-12 189,-29 2,-10 8,-2 14,19 8,24 11,28 12,14 1,-12 8,-25 17,-28 9,-4 14,-13 10,-21 -9,-24 21,-18 38,7 9,12 16,17 16,9 0,-7 5,-11 12,-9 11,4 16,17 25,76 3,17 9,32 15,32 5,0 7,3 5,8 -3,4 5,20 17,35 18,22 33,29 64,31 23,2 42,-1 42,-6 0,-4 4,-8 9,-8 5,0 7,9 4,20 -3,11 -9,17 -14,14 -5,-3 -12,2 -15,10 -7,18 -34,22 -34,6 0,-5 -5,-10 -11,-10 -5,0 -8,4 -5,9 7,10 -46,8 -81,-3 -13,-4 -23,-3 -23,2 0,5 10,17 23,25 22,16 22,16 -13,16 -19,1 -60,-8 -90,-20 -50,-19 -167,-28 -188,-15 -13,8 -260,46 -297,46 -21,0 -35,-5 -35,-12 z" />
      <path
         id="pGPtix4Ar"
         d="m 6422,4484 c 9,-9 21,-13 27,-9 16,10 3,25 -22,25 -20,0 -20,-1 -5,-16 z" />
      <path
         id="p1jjSLzve"
         d="m 1826,4329 -67,-71 33,-24 c 17,-13 26,-24 20,-24 -8,0 -11,-10 -7,-27 3,-16 2,-22 -1,-15 -3,6 -10,12 -15,12 -6,0 -7,-32 -3,-80 3,-44 2,-80 -3,-80 -4,0 -8,-46 -9,-102 -1,-80 -4,-103 -17,-113 -12,-9 -14,-19 -7,-50 6,-27 5,-41 -5,-51 -7,-7 -16,-10 -20,-6 -5,4 -5,-3 -2,-15 3,-13 0,-23 -5,-23 -6,0 -4,-7 3,-17 11,-12 11,-17 2,-20 -9,-3 -9,-12 -2,-29 7,-19 5,-29 -6,-40 -11,-11 -12,-20 -5,-34 13,-24 13,-43 0,-35 -5,3 -10,2 -10,-4 0,-5 5,-13 10,-16 6,-3 10,-11 10,-16 0,-6 -5,-7 -12,-3 -8,5 -9,2 -3,-12 11,-28 13,-58 4,-64 -5,-3 -2,-18 6,-33 14,-27 13,-28 -6,-22 -19,6 -20,5 -9,-15 6,-12 9,-29 6,-37 -4,-9 -1,-22 5,-29 8,-10 7,-17 -4,-28 -8,-8 -17,-12 -21,-9 -3,4 -6,2 -6,-4 0,-6 6,-16 14,-22 16,-13 13,-51 -5,-61 -7,-5 -3,-13 12,-24 13,-9 18,-16 12,-16 -17,0 -24,-29 -12,-52 10,-18 8,-19 -12,-13 l -22,7 22,-28 c 15,-19 18,-30 10,-34 -8,-5 -6,-16 5,-39 9,-17 13,-31 9,-31 -4,0 -2,-5 5,-12 13,-13 16,-29 5,-27 -20,3 -26,-2 -13,-11 11,-7 11,-10 2,-10 -10,0 -10,-5 -2,-20 6,-11 17,-20 25,-20 10,0 15,-10 15,-30 0,-16 5,-30 10,-30 6,0 10,-12 10,-27 0,-38 23,-133 32,-133 5,0 8,-4 8,-10 0,-5 11,-20 25,-34 16,-16 25,-36 25,-55 0,-16 4,-32 8,-35 5,-3 7,-19 4,-36 -2,-18 0,-41 6,-53 6,-12 13,-30 16,-40 3,-11 14,-21 24,-24 18,-4 62,-61 62,-79 0,-12 86,-44 118,-44 13,0 32,5 43,10 13,8 19,7 19,0 0,-6 16,-18 35,-27 19,-9 35,-20 35,-25 0,-4 6,-8 13,-8 8,0 22,-18 33,-40 13,-26 26,-40 39,-40 18,-1 19,-1 3,-11 -10,-5 -18,-19 -18,-29 0,-11 -6,-20 -14,-20 -14,0 -26,-42 -26,-91 0,-26 3,-28 48,-31 l 47,-3 3,-47 c 2,-27 7,-48 13,-48 5,0 9,-22 9,-50 0,-47 2,-50 25,-50 16,0 25,-6 25,-15 0,-8 5,-15 10,-15 7,0 8,18 4,52 -5,37 -4,49 5,44 6,-4 11,-20 11,-36 0,-22 4,-28 15,-24 9,4 19,-5 29,-28 11,-25 15,-28 16,-13 l 1,20 9,-20 9,-20 1,20 c 1,17 3,17 11,-5 8,-20 12,-22 19,-10 11,17 13,9 10,-32 -1,-16 3,-28 9,-28 5,0 12,-8 14,-18 4,-13 5,-13 6,4 1,27 27,51 34,32 3,-7 8,2 12,20 11,50 36,22 34,-37 -1,-25 6,-66 15,-91 17,-49 21,-73 7,-51 -5,7 -13,11 -19,7 -9,-6 -6,-29 14,-95 5,-16 4,-22 -3,-18 -6,4 -13,-2 -16,-12 -3,-12 1,-22 9,-25 8,-3 14,-16 13,-28 0,-22 -1,-22 -9,-3 -6,14 -9,16 -11,5 -4,-30 4,-83 17,-115 11,-27 54,-90 54,-79 0,9 29,-28 30,-38 0,-8 -34,-3 -50,7 -6,3 -13,-2 -17,-11 -5,-14 -11,-8 -27,27 -17,34 -27,44 -46,44 -19,0 -26,6 -28,24 -2,13 -12,26 -23,28 -10,3 -19,12 -19,20 0,8 -8,27 -19,41 -10,15 -22,42 -26,60 -7,35 -25,34 -26,-1 0,-22 0,-22 -17,2 -9,14 -18,36 -18,50 -1,14 -3,28 -4,31 -1,3 -1,20 0,38 1,30 0,32 -33,32 -34,0 -35,-1 -41,-53 -9,-67 -18,-84 -36,-62 -16,19 -80,20 -80,1 0,-23 11,-46 20,-41 4,3 15,-10 24,-28 8,-17 16,-27 16,-21 0,18 29,12 36,-8 3,-10 9,-16 14,-13 5,3 13,-7 16,-22 7,-25 8,-25 15,-8 7,18 8,18 8,-3 1,-13 5,-21 10,-18 10,7 31,-71 30,-111 -1,-21 -3,-23 -6,-8 -3,11 -10,25 -15,30 -8,7 -9,4 -4,-8 3,-10 6,-30 6,-43 0,-13 5,-24 11,-24 5,0 7,4 4,10 -3,5 -1,10 4,10 6,0 11,-5 11,-11 0,-5 4,-7 10,-4 5,3 12,-6 16,-21 5,-19 9,-22 15,-12 9,13 9,13 13,-24 0,-6 7,-13 15,-16 10,-3 12,0 8,12 -11,28 18,18 36,-13 16,-27 15,-61 -2,-61 -11,0 5,-111 21,-142 16,-33 24,-35 31,-8 5,21 6,21 29,-2 20,-20 21,-25 9,-34 -12,-10 -11,-13 8,-19 17,-5 20,-10 12,-18 -6,-6 -11,-20 -11,-32 0,-16 2,-17 10,-5 7,11 11,9 19,-12 8,-21 15,-25 36,-21 14,3 34,16 44,29 l 18,23 28,-29 c 22,-23 32,-27 46,-20 10,6 26,7 36,4 17,-5 17,-5 -1,10 -10,8 -23,17 -28,18 -19,7 3,36 24,30 18,-4 20,-2 13,27 l -7,33 29,-16 c 16,-8 35,-21 42,-29 10,-13 16,-13 38,-2 15,8 30,12 35,9 19,-12 73,-13 80,-1 5,8 11,8 16,2 4,-5 18,-11 32,-13 14,-2 38,-12 53,-23 16,-12 31,-18 34,-15 4,3 2,6 -2,6 -5,0 0,6 10,14 14,10 25,11 38,4 11,-5 30,-8 44,-5 15,3 45,-7 79,-25 l 54,-30 v 35 c 0,36 -20,64 -75,104 l -30,22 53,1 h 52 v 39 c 0,55 -15,63 -113,59 -69,-2 -87,0 -102,14 -10,10 -34,21 -52,24 -19,4 -37,12 -40,20 -2,7 -32,22 -66,34 -70,23 -90,37 -137,98 -33,43 -33,44 -24,110 l 9,67 42,3 41,3 7,60 c 6,47 4,64 -8,77 -8,9 -18,42 -21,72 -11,91 -27,150 -41,150 -11,0 -24,28 -25,53 0,4 11,7 25,7 22,0 25,4 25,35 0,30 -4,36 -27,41 -35,8 -86,35 -96,51 -4,6 -21,25 -37,42 -17,16 -30,37 -30,45 0,10 -11,19 -28,22 -27,6 -36,17 -61,87 -7,17 -18,27 -31,27 -29,0 -25,17 9,35 24,12 30,23 33,52 3,43 14,48 110,58 50,6 58,9 67,33 l 9,27 1,-26 c 1,-36 52,-89 85,-89 14,0 26,-4 26,-10 0,-5 17,-12 38,-15 20,-3 45,-11 55,-16 11,-6 49,-7 93,-3 72,7 75,8 81,35 3,16 12,29 19,29 8,0 14,5 14,10 0,6 9,10 19,10 14,0 21,8 23,28 3,27 4,27 67,25 37,-1 82,-9 104,-19 35,-16 37,-19 18,-26 -14,-5 -21,-16 -21,-33 0,-27 -4,-28 -77,-25 -37,1 -43,-1 -43,-18 0,-14 -9,-21 -30,-25 -29,-6 -60,-48 -60,-80 0,-11 -10,-13 -46,-9 -33,3 -49,1 -55,-9 -14,-23 -10,-95 6,-109 8,-7 15,-25 15,-40 0,-39 9,-60 26,-60 8,0 14,-9 14,-20 0,-12 10,-25 25,-32 41,-19 31,-38 -20,-38 -25,0 -45,-5 -45,-11 0,-14 -25,-39 -39,-39 -7,0 -11,-26 -11,-67 0,-52 6,-78 28,-122 22,-46 27,-68 26,-123 -1,-47 -7,-72 -18,-83 -9,-9 -16,-31 -16,-48 1,-29 8,-37 77,-81 72,-46 78,-48 127,-42 79,9 116,24 116,48 0,17 3,18 14,9 8,-7 30,-11 48,-9 31,3 33,6 36,45 2,31 -1,44 -16,55 -10,7 -22,27 -25,43 -3,17 -8,41 -13,54 -6,21 -5,22 14,12 26,-14 82,-14 82,-1 0,6 7,10 15,10 8,0 15,9 15,20 0,19 14,26 70,32 21,3 25,9 28,38 l 2,35 -96,45 -96,45 38,5 c 66,9 68,12 61,114 -8,113 -3,136 29,136 21,0 24,5 24,35 0,28 4,35 20,35 17,0 20,7 20,39 0,22 -4,41 -9,43 -4,2 -12,13 -15,26 -7,20 -4,22 33,22 23,0 41,4 41,8 0,5 27,6 60,4 48,-4 60,-1 60,10 0,18 70,42 84,28 6,-6 29,-10 53,-10 42,0 43,1 43,34 0,26 -6,38 -27,52 -41,26 -52,45 -53,85 0,34 -3,37 -35,42 -19,3 -54,19 -77,35 -74,50 -142,82 -175,82 -18,0 -33,-5 -33,-10 0,-6 -15,-4 -36,5 -41,17 -104,20 -104,5 0,-26 -20,-6 -30,29 -12,45 -5,71 19,71 9,0 22,14 30,30 16,38 62,58 118,52 37,-4 46,0 67,26 20,23 36,30 78,35 29,3 68,9 86,13 26,5 32,3 32,-10 0,-9 1,-16 3,-17 1,0 43,-4 93,-8 90,-7 143,-29 144,-58 0,-7 12,-15 28,-19 54,-12 62,-16 62,-29 0,-19 25,-26 117,-32 59,-4 87,-2 98,7 21,18 20,76 -2,86 -32,13 45,20 131,10 68,-7 80,-6 88,8 5,9 18,16 30,16 23,0 47,26 48,53 0,13 8,17 35,17 20,0 35,-5 35,-12 0,-8 26,-9 94,-5 74,5 95,3 99,-7 7,-17 127,-38 227,-41 41,-1 98,-5 126,-10 35,-5 53,-4 58,4 4,6 16,11 27,11 10,0 19,5 19,10 0,6 6,10 13,10 7,0 22,9 34,19 11,10 29,21 39,23 11,2 20,13 22,27 2,13 10,31 18,38 8,8 14,21 14,28 0,8 9,19 20,25 11,6 20,19 20,30 0,10 5,22 11,25 5,4 14,18 19,31 10,25 23,28 102,24 33,-1 37,1 43,32 11,49 33,88 51,88 25,0 44,-26 44,-60 0,-17 7,-45 16,-62 l 16,-30 76,7 c 42,4 84,13 93,21 8,8 23,14 32,14 23,0 41,40 51,112 1,10 5,21 9,24 4,4 7,14 7,23 0,14 -1,14 -10,1 -7,-11 -9,-7 -7,17 1,18 9,35 17,38 13,5 13,7 0,15 -12,7 -12,14 -4,27 12,20 7,46 -7,37 -9,-5 -7,16 7,68 3,9 1,19 -4,22 -10,6 -8,48 3,65 3,6 1,11 -6,11 -7,0 -10,3 -6,6 3,4 0,13 -8,21 -9,9 -12,24 -8,43 4,20 2,30 -7,30 -7,0 -10,8 -7,20 3,11 0,20 -6,20 -8,0 -7,4 1,12 16,16 15,39 0,35 -7,-1 -12,6 -10,15 1,9 -2,19 -7,22 -12,8 -24,-11 -26,-38 -3,-34 -9,-50 -25,-63 -12,-10 -13,-14 -2,-21 11,-8 11,-10 -1,-15 -18,-7 -42,17 -32,33 3,5 1,10 -4,10 -6,0 -11,7 -11,15 0,12 -7,9 -26,-10 -14,-14 -30,-23 -35,-20 -5,4 -9,-1 -9,-10 0,-9 -6,-15 -12,-13 -17,4 -58,-32 -69,-59 -6,-17 -17,-23 -39,-23 -16,0 -30,5 -30,10 0,5 -8,2 -18,-8 -41,-38 -68,-57 -87,-59 -10,-2 -22,-8 -26,-14 -5,-8 -8,-8 -11,1 -6,19 -80,-102 -74,-123 2,-10 -4,-33 -15,-51 -11,-18 -17,-41 -13,-50 4,-11 -5,-27 -28,-49 -18,-17 -40,-46 -47,-64 -13,-31 -51,-51 -73,-37 -7,4 -8,-1 -3,-16 6,-19 4,-22 -9,-17 -11,4 -21,-3 -31,-24 -12,-23 -21,-29 -36,-24 -15,5 -19,2 -19,-14 0,-12 -4,-21 -10,-21 -5,0 -7,7 -4,15 5,13 2,14 -22,5 -15,-6 -30,-7 -33,-2 -8,12 -41,11 -41,-1 0,-5 -11,-6 -25,-3 -35,9 -47,-1 -33,-24 10,-15 10,-22 0,-32 -10,-10 -14,-10 -21,1 -5,8 -11,9 -15,3 -8,-14 -56,-2 -56,15 0,8 -4,12 -9,9 -5,-4 -12,0 -14,6 -3,8 -6,6 -6,-4 -1,-19 -20,-23 -95,-19 -38,2 -92,32 -79,44 13,14 -24,34 -55,29 -18,-2 -38,1 -45,7 -8,6 -30,12 -50,13 -22,2 -37,8 -37,16 0,16 -8,15 -26,-3 -9,-8 -24,-15 -35,-15 -10,0 -19,-7 -19,-15 0,-8 -8,-15 -17,-14 -11,0 -13,3 -5,6 6,2 12,9 12,14 0,6 -7,6 -19,0 -10,-6 -21,-7 -25,-4 -3,3 -6,0 -6,-8 0,-11 -2,-11 -10,1 -8,13 -10,13 -10,-2 0,-9 -9,-23 -20,-31 -17,-12 -27,-12 -57,-2 -25,9 -45,10 -62,4 -13,-6 -31,-7 -38,-5 -26,10 -77,-28 -68,-51 5,-15 -11,-18 -19,-4 -3,4 -18,6 -32,3 -19,-3 -25,-1 -20,7 5,7 -1,11 -14,11 -12,0 -18,-4 -15,-10 4,-6 -11,-10 -39,-10 -25,0 -48,5 -51,10 -4,6 -11,8 -16,5 -5,-4 -9,4 -9,15 0,16 -5,20 -15,16 -8,-3 -15,-2 -15,3 0,4 -16,3 -35,-3 -19,-6 -35,-14 -35,-18 0,-17 -19,-7 -25,13 -7,20 -8,19 -26,-10 -16,-26 -23,-30 -53,-27 -22,2 -40,-2 -47,-10 -13,-16 -39,-19 -39,-4 0,14 -34,12 -48,-2 -10,-10 -15,-10 -21,0 -7,11 -9,11 -14,-2 -4,-9 -13,-13 -22,-10 -8,3 -15,1 -15,-5 0,-6 -7,-8 -15,-5 -8,4 -22,1 -29,-5 -11,-9 -16,-9 -22,0 -5,9 -10,6 -15,-9 -12,-31 -57,-51 -70,-31 -7,12 -9,11 -9,-3 0,-9 -9,-20 -20,-23 -16,-5 -18,-10 -10,-25 6,-11 6,-21 1,-24 -5,-4 -12,0 -15,6 -3,7 -3,-3 0,-22 6,-31 5,-33 -10,-21 -11,10 -16,10 -16,2 0,-7 -5,-9 -12,-5 -8,5 -9,2 -5,-9 7,-18 -8,-24 -18,-7 -9,15 -25,12 -25,-5 0,-8 -4,-15 -10,-15 -5,0 -10,5 -10,11 0,8 -4,8 -14,-1 -8,-6 -12,-19 -9,-28 6,-15 5,-16 -12,-2 -17,14 -18,13 -13,-2 9,-22 -1,-29 -23,-17 -15,7 -19,6 -19,-6 0,-8 -5,-15 -11,-15 -6,0 -9,-7 -5,-15 3,-8 1,-15 -4,-15 -6,0 -10,4 -10,9 0,4 -11,6 -25,3 -15,-2 -25,0 -25,7 0,6 -5,11 -11,11 -5,0 -7,-4 -4,-10 3,-5 0,-10 -7,-11 -7,0 1,-7 17,-14 25,-12 27,-14 9,-15 -12,0 -25,-7 -28,-16 -4,-10 -14,-14 -25,-11 -11,3 -28,-3 -39,-14 -11,-10 -22,-15 -26,-12 -3,3 -11,1 -18,-4 -7,-6 -26,-13 -42,-17 -23,-6 -27,-4 -23,8 4,9 1,16 -5,16 -7,0 -5,7 5,17 15,15 28,19 87,22 8,1 20,13 27,27 11,23 10,25 -10,22 -13,-2 -21,2 -19,10 1,6 -4,12 -10,12 -7,0 10,11 37,25 41,20 45,24 25,25 -20,0 -22,2 -10,10 12,8 11,10 -7,10 -12,0 -24,4 -28,10 -3,5 -12,7 -20,3 -9,-3 -22,0 -30,7 -20,16 -120,-13 -144,-42 -9,-11 -36,-29 -61,-41 -25,-11 -53,-29 -63,-39 -12,-12 -26,-16 -42,-12 -15,4 -25,2 -25,-5 0,-6 -6,-8 -13,-5 -8,3 -19,-2 -26,-10 -6,-7 -19,-12 -29,-9 -9,2 -27,-5 -40,-17 -12,-11 -22,-18 -22,-14 0,4 -12,-6 -26,-21 -19,-21 -23,-30 -13,-36 9,-5 3,-8 -16,-8 -17,-1 -37,-1 -45,-2 -8,0 -24,2 -35,5 -11,2 -23,5 -27,5 -12,1 -9,31 2,31 6,0 10,7 10,15 0,12 -4,13 -19,6 -14,-8 -22,-7 -31,4 -9,11 -10,15 -1,15 7,0 9,5 6,10 -3,6 -1,10 5,10 6,0 -3,13 -20,30 -17,16 -26,30 -20,30 6,0 8,5 4,11 -3,6 -1,14 5,18 17,11 2,41 -20,41 -10,0 -19,4 -19,8 0,5 -6,9 -12,9 -7,0 -29,7 -48,16 -45,21 -84,26 -85,10 0,-7 -10,-19 -21,-27 -19,-14 -23,-13 -39,4 -10,11 -13,20 -7,20 5,0 8,9 5,20 -3,11 -11,19 -19,18 -7,-2 -13,1 -13,5 0,5 -7,15 -17,22 -17,12 -28,45 -16,45 4,0 33,-18 66,-40 59,-40 92,-46 55,-9 -11,11 -17,24 -14,29 7,11 -32,33 -45,25 -6,-3 -14,5 -20,19 -5,14 -14,26 -20,26 -5,0 -10,4 -10,9 0,5 10,7 23,3 19,-5 17,0 -16,41 -39,48 -40,55 -6,36 17,-9 19,-7 15,15 -4,21 -1,26 15,26 27,0 24,18 -11,51 -19,19 -25,29 -15,29 8,0 15,5 15,10 0,10 -2,11 -36,15 -11,1 -42,15 -68,31 -26,16 -57,34 -70,41 -29,16 -63,53 -48,53 22,0 7,25 -23,40 -16,8 -30,21 -30,27 0,14 -40,53 -55,53 -12,0 -13,10 0,30 6,10 4,20 -7,32 -15,17 -15,18 1,18 14,0 16,6 11,30 -4,18 -2,30 3,30 6,0 8,9 5,20 -4,14 0,20 12,20 14,0 15,3 5,15 -6,8 -8,20 -4,27 16,26 13,62 -7,75 -15,11 -17,18 -9,34 9,15 7,19 -5,19 -9,0 -13,5 -10,11 4,6 13,8 21,5 15,-6 19,6 7,18 -12,12 -14,55 -3,75 6,12 6,22 1,26 -6,3 -8,24 -5,47 4,34 2,40 -10,35 -20,-8 -20,0 -1,19 8,9 15,23 15,32 0,14 -2,15 -10,2 -7,-12 -10,-12 -16,4 -5,14 0,25 22,43 28,22 31,38 17,73 -4,8 -7,43 -7,77 -1,47 2,63 13,63 8,0 11,7 8,20 -3,11 -1,23 4,26 5,3 9,23 9,44 0,27 7,45 20,58 14,13 18,25 14,37 -6,14 -4,16 6,10 10,-6 12,-2 8,16 -3,13 -9,33 -13,43 -6,13 -5,17 2,13 7,-4 10,5 7,26 -1,17 -3,39 -4,47 0,12 -2,12 -9,2 -6,-10 -10,-6 -15,14 -6,22 -9,25 -17,13 -6,-10 -9,-8 -9,12 0,15 -6,31 -13,38 -11,8 -29,-5 -81,-60 z" />
      <path
         id="paVsDzv4B"
         d="m 6150,4135 c 0,-17 -40,-31 -49,-17 -12,19 -67,24 -81,7 -7,-8 -9,-15 -5,-15 5,0 0,-9 -9,-19 -10,-11 -15,-25 -11,-31 8,-13 -24,-52 -36,-44 -5,3 -9,0 -9,-5 0,-6 5,-11 11,-11 5,0 7,-4 4,-10 -3,-5 -1,-18 4,-28 6,-11 7,-22 4,-26 -14,-14 -11,-42 7,-61 13,-14 16,-25 10,-35 -14,-22 -11,-38 3,-19 8,11 18,14 32,8 11,-4 14,-8 6,-8 -7,-1 -11,-7 -8,-14 3,-8 1,-20 -4,-28 -7,-11 -9,-10 -9,4 0,10 -4,15 -10,12 -17,-10 -11,-35 8,-35 10,0 23,-5 29,-11 8,-8 16,-6 29,9 13,16 22,19 35,11 14,-7 21,-4 30,13 7,13 13,30 14,39 1,10 9,24 18,34 9,9 17,23 17,31 0,8 9,14 20,14 11,0 20,-7 20,-15 0,-8 4,-15 8,-15 4,0 8,25 8,55 1,33 -3,52 -8,48 -9,-5 -6,12 10,57 5,13 3,13 -11,1 -15,-12 -17,-11 -17,13 0,16 -4,25 -10,21 -13,-8 -8,38 5,47 13,10 -5,27 -33,33 -14,2 -22,-1 -22,-10 z" />
      <path
         id="pPZGQHTyP"
         d="m 6215,1990 c -3,-5 -17,-10 -29,-10 -13,0 -29,-7 -36,-15 -7,-8 -21,-15 -31,-15 -14,0 -21,-9 -25,-30 -5,-21 -12,-30 -25,-30 -15,0 -19,-7 -19,-35 0,-28 5,-38 25,-47 14,-6 25,-20 25,-30 0,-21 26,-52 53,-61 9,-4 22,-18 27,-33 l 10,-27 33,35 c 64,68 97,108 95,115 0,5 4,21 10,36 7,16 12,34 12,42 0,8 5,17 10,20 6,3 10,11 10,17 0,6 -8,4 -19,-6 -14,-13 -24,-14 -44,-7 -13,5 -35,7 -48,4 l -24,-6 23,25 c 12,13 19,27 16,31 -4,4 1,9 10,13 9,3 16,10 16,15 0,12 -67,11 -75,-1 z" />
      <path
         id="p17IeLBIck"
         d="m 5360,667 c -74,-12 -90,-23 -90,-64 v -29 l 80,2 c 58,2 82,-2 91,-12 6,-7 15,-11 20,-8 13,7 11,-10 -2,-23 -7,-7 -6,-12 6,-17 9,-3 18,0 21,8 3,8 13,12 24,9 10,-3 21,0 24,6 4,6 3,11 -3,11 -7,0 -7,8 0,27 7,20 6,28 -3,35 -10,6 -10,8 2,8 12,0 12,2 2,9 -10,6 -10,10 2,21 9,7 13,16 10,21 -7,11 -100,9 -184,-4 z" />
    </g>
  </g>
  <g
     id="l4kzDHGBcQsNF6Zky2bymfJ"
     fill="#5a3a30"
     transform="matrix(0.44987147,0,0,0.44987147,0,1.2853069)">
    <g
       id="g172">
      <path
         id="pYuij5zbh"
         d="m 5438,8185 c -3,-14 -1,-28 4,-31 4,-3 6,-10 3,-15 -4,-5 -1,-9 5,-9 6,0 9,-4 6,-9 -3,-4 7,-35 23,-67 52,-109 71,-218 73,-417 0,-128 4,-182 13,-191 9,-9 10,-18 3,-30 -15,-27 2,-34 21,-7 9,13 26,33 38,45 101,102 50,401 -112,661 -57,92 -71,104 -77,70 z" />
      <path
         id="pj7tpd5zc"
         d="m 4529,6444 c -8,-10 -15,-11 -24,-4 -14,11 -98,5 -147,-10 -18,-6 -28,-5 -28,1 0,6 -5,7 -11,3 -15,-9 -45,-11 -299,-18 -118,-3 -235,-8 -260,-11 -25,-2 -115,-5 -201,-6 -86,0 -161,-4 -168,-9 -7,-4 116,-7 274,-6 157,1 289,-2 291,-6 3,-5 13,-8 22,-7 17,2 62,-7 92,-18 28,-11 44,-12 55,-4 13,10 158,1 202,-13 33,-11 117,-18 233,-20 122,-3 167,-9 182,-24 15,-15 113,12 102,29 -3,5 2,12 11,15 14,6 11,11 -15,35 -31,29 -65,33 -79,11 -5,-8 -17,-5 -41,10 -19,12 -40,23 -47,24 -6,1 -22,11 -34,23 -15,14 -25,17 -30,10 -7,-11 -12,-11 -46,2 -15,5 -25,3 -34,-7 z" />
      <path
         id="pVoJ97Q4z"
         d="m 6006,5413 -29,-15 21,-17 c 41,-31 54,-107 28,-164 -8,-18 -17,-72 -19,-122 -5,-89 -5,-91 28,-141 49,-73 57,-79 94,-60 16,9 37,16 45,16 8,0 27,27 44,63 25,53 29,72 27,133 -4,93 -30,200 -62,246 -24,36 -95,78 -130,78 -10,-1 -31,-8 -47,-17 z" />
      <path
         id="pcoMulCbk"
         d="m 6300,5205 c 0,-17 7,-64 16,-105 12,-58 14,-102 9,-195 -4,-66 -6,-162 -5,-214 1,-107 8,-124 78,-186 l 44,-40 20,25 c 21,26 21,42 2,240 -3,30 -5,62 -5,70 -1,75 -93,338 -145,415 -13,18 -14,18 -14,-10 z" />
      <path
         id="pi7ixBhjU"
         d="m 4523,4971 c -46,-18 -84,-49 -81,-65 1,-6 -3,-21 -10,-33 -14,-25 -14,-102 1,-120 5,-7 6,-13 2,-13 -4,0 -2,-7 5,-15 8,-9 10,-31 7,-59 -5,-37 -2,-47 18,-66 22,-20 25,-21 31,-6 3,9 12,16 20,16 10,0 14,12 14,40 0,45 16,53 30,15 12,-32 59,-85 85,-96 15,-6 7,-8 -27,-8 -41,-1 -48,-4 -48,-21 0,-11 6,-20 13,-20 15,-1 62,-39 55,-45 -3,-3 -21,2 -42,10 -26,11 -42,13 -55,6 -20,-11 -33,-55 -20,-68 4,-4 10,-20 13,-35 2,-15 9,-33 15,-40 6,-7 20,-24 31,-37 19,-23 20,-23 20,-4 0,32 49,21 82,-18 28,-33 100,-66 106,-49 2,6 18,4 37,-4 18,-8 35,-13 37,-11 6,6 92,6 128,0 50,-9 112,-7 123,4 5,5 15,7 22,4 8,-2 22,0 33,6 14,7 25,6 41,-6 17,-12 31,-13 59,-6 25,7 46,6 62,-1 17,-8 24,-8 28,2 2,7 21,12 43,12 22,0 38,4 35,9 -5,8 23,39 31,34 1,-2 23,-3 48,-3 45,0 58,16 25,33 -9,4 -2,5 16,3 30,-5 31,-4 28,30 -1,18 2,34 7,34 5,0 9,5 9,10 0,6 -5,10 -11,10 -6,0 -18,9 -27,20 -10,11 -33,22 -52,26 -43,7 -44,8 -99,23 -31,9 -47,9 -54,2 -6,-6 -7,-11 -3,-11 5,0 3,-7 -4,-15 -7,-8 -23,-15 -36,-15 -13,0 -24,-4 -24,-9 0,-8 -152,-7 -167,2 -4,2 -17,1 -28,-4 -17,-6 -17,-8 -2,-8 9,-1 17,-6 17,-12 0,-12 -9,-11 -134,16 -43,10 -89,23 -103,30 -25,13 -25,13 -4,24 12,7 21,9 21,5 0,-3 11,1 24,10 13,8 55,20 93,26 123,19 318,85 344,116 10,12 8,18 -7,29 -10,8 -28,13 -39,10 -34,-7 -64,5 -58,23 6,15 4,15 -14,0 -11,-10 -29,-18 -41,-18 -12,0 -30,-9 -39,-20 -10,-11 -25,-20 -33,-20 -9,0 -20,-4 -26,-9 -35,-32 -252,-61 -336,-44 -25,5 -28,9 -28,49 0,24 -4,44 -10,44 -5,0 -10,-7 -10,-16 0,-10 -7,-14 -22,-12 -30,4 -45,58 -21,76 10,7 12,12 4,12 -7,0 -10,4 -6,9 3,5 -4,16 -15,24 -19,13 -20,16 -5,30 14,14 14,17 0,25 -19,10 -11,62 9,62 6,0 23,13 38,30 l 26,30 -42,10 c -22,6 -48,14 -56,17 -8,3 -19,5 -24,4 -4,-1 -13,2 -20,8 -7,5 -26,3 -53,-8 z" />
      <path
         id="pkAjPdrpJ"
         d="m 3106,4710 c -16,-5 -33,-7 -38,-4 -4,3 -8,0 -8,-5 0,-6 -7,-11 -15,-11 -20,0 -63,-49 -77,-88 -8,-21 -17,-31 -26,-27 -7,3 -22,5 -32,5 -10,0 -26,8 -36,18 -10,9 -19,16 -21,15 -2,-2 -4,-3 -5,-2 -26,7 -58,5 -58,-3 0,-6 -6,-6 -15,2 -8,7 -15,8 -15,3 0,-6 -12,-10 -27,-11 -56,0 -60,-1 -43,-12 23,-15 172,-60 205,-61 17,-1 84,-10 150,-21 226,-36 250,-39 290,-33 99,15 199,63 189,90 -5,12 -10,13 -20,4 -10,-8 -18,-7 -30,6 -15,14 -15,18 -3,26 36,22 -48,7 -88,-17 l -44,-25 -15,36 c -8,20 -33,56 -56,81 -37,40 -44,44 -87,43 -25,0 -59,-5 -75,-9 z" />
      <path
         id="puBko6q7t"
         d="m 3070,4399 c -19,-5 -48,-11 -65,-13 -16,-2 -40,-7 -52,-11 -18,-6 -23,-3 -24,11 0,11 -3,14 -5,7 -4,-8 -13,-9 -30,-3 -13,5 -24,6 -24,1 0,-5 -13,-8 -30,-7 -16,1 -30,-3 -30,-8 0,-6 -4,-5 -8,2 -12,17 -63,5 -95,-22 -15,-13 -24,-26 -20,-30 3,-3 -7,-6 -23,-7 l -29,-1 28,-8 c 30,-9 57,-4 57,11 0,5 7,9 16,9 8,0 12,-4 9,-10 -3,-5 -2,-10 4,-10 5,0 12,4 15,8 7,12 70,6 74,-7 2,-6 8,-11 14,-11 13,0 38,-26 38,-41 0,-7 3,-9 7,-6 3,4 12,2 20,-4 9,-8 13,-8 13,-1 0,6 7,9 15,6 9,-4 15,0 15,10 0,11 9,16 33,16 24,0 28,-3 17,-10 -17,-11 -15,-12 55,-15 28,-2 56,1 63,7 8,8 12,7 12,-3 0,-11 3,-11 11,1 8,12 12,12 16,2 3,-9 9,-10 17,-3 6,5 24,15 39,20 l 28,11 -7,-37 -7,-37 28,22 c 15,12 36,22 45,22 10,0 21,7 24,16 3,8 10,13 15,9 14,-8 31,28 31,62 0,20 -3,24 -9,14 -7,-11 -9,-11 -13,0 -4,11 -9,12 -27,2 -27,-17 -31,-16 -31,4 0,13 -3,14 -12,5 -17,-17 -28,-15 -22,6 5,15 4,15 -8,2 -9,-11 -30,-16 -63,-15 -55,1 -75,9 -75,31 0,16 -1,16 -50,3 z" />
      <path
         id="pbAuBnubu"
         d="m 5969,2924 c -1,-5 -1,-12 0,-16 0,-5 -4,-8 -11,-8 -6,0 -9,-3 -5,-6 3,-4 0,-19 -9,-35 -8,-16 -14,-31 -14,-34 1,-33 -1,-35 -24,-10 l -25,26 -17,-26 c -12,-19 -19,-23 -25,-13 -6,9 -12,8 -28,-6 -12,-11 -21,-25 -21,-31 0,-7 -7,-18 -15,-25 -8,-7 -15,-21 -15,-31 0,-10 -9,-23 -20,-29 -11,-6 -20,-17 -20,-25 0,-7 -7,-20 -15,-29 -8,-8 -16,-25 -18,-37 -2,-12 -11,-23 -20,-25 -9,-1 -26,-11 -38,-23 -13,-12 -29,-21 -36,-21 -7,0 -13,-4 -13,-10 0,-5 -9,-10 -19,-10 -11,0 -22,-4 -25,-9 -7,-11 -48,-2 -57,12 -4,6 -30,6 -72,0 -36,-5 -75,-5 -88,-1 -12,5 -45,11 -73,14 -56,6 -69,11 -61,24 8,13 -40,18 -92,9 -72,-12 -103,-11 -100,4 1,7 -11,12 -33,13 -66,2 -72,3 -66,19 3,9 0,15 -8,15 -9,0 -17,-15 -21,-37 -7,-44 -29,-78 -44,-69 -6,4 -19,-2 -30,-13 -11,-11 -22,-17 -25,-13 -3,3 -57,6 -120,7 -62,1 -119,5 -125,9 -6,4 -11,2 -11,-4 0,-8 -6,-8 -20,0 -12,6 -20,7 -20,1 0,-5 6,-12 13,-14 9,-4 8,-6 -2,-6 -8,-1 -20,7 -27,17 -11,14 -13,14 -14,2 0,-20 35,-50 58,-50 10,0 33,-11 50,-24 28,-20 30,-25 17,-36 -14,-12 -51,-11 -124,4 -43,9 -37,19 7,12 29,-4 41,-3 37,4 -3,5 -15,10 -25,10 -22,0 -131,27 -138,35 -3,3 3,5 14,5 31,1 -83,60 -115,60 -10,0 -24,7 -31,15 -7,8 -27,14 -44,14 -17,-1 -23,-3 -13,-6 22,-6 22,-23 0,-22 -23,1 -63,17 -45,18 7,1 10,6 6,12 -4,8 -29,9 -73,5 -158,-14 -170,-17 -196,-48 -20,-24 -28,-27 -44,-18 -28,14 -60,13 -77,-5 -8,-8 -20,-12 -27,-9 -8,3 -21,-11 -33,-35 -14,-29 -22,-37 -31,-29 -9,7 -15,5 -20,-8 -4,-11 -14,-24 -22,-30 -12,-9 -13,-15 -3,-26 6,-8 13,-32 14,-53 3,-45 55,-105 90,-105 16,0 18,3 9,14 -9,11 -6,46 4,46 11,0 75,-32 80,-40 11,-17 41,-11 51,10 9,20 10,20 59,-6 28,-15 69,-40 93,-56 23,-16 59,-32 80,-36 37,-6 37,-6 8,-12 l -29,-5 39,-46 c 21,-26 52,-55 69,-65 16,-9 24,-19 17,-22 -6,-2 -32,11 -58,28 -40,28 -45,30 -40,12 5,-16 0,-22 -24,-30 -17,-6 -38,-8 -46,-5 -13,5 -15,2 -9,-17 7,-21 5,-22 -21,-16 -16,4 -47,9 -68,12 -33,5 -38,4 -33,-10 4,-9 2,-16 -3,-16 -6,0 -10,5 -10,10 0,6 -10,10 -22,10 -19,0 -20,-2 -8,-11 11,-8 8,-9 -14,-4 -23,5 -27,3 -22,-10 3,-9 -1,-18 -9,-22 -12,-4 -13,-9 -4,-19 6,-7 8,-18 4,-24 -3,-5 1,-10 9,-10 9,0 16,-7 16,-15 0,-8 5,-15 10,-15 6,0 10,-4 10,-10 0,-5 -11,-10 -24,-10 -24,0 -43,-34 -25,-46 13,-8 11,-25 -3,-23 -28,3 -38,-2 -39,-18 0,-12 -2,-13 -6,-5 -4,10 -8,9 -19,-5 -18,-25 -17,-43 4,-60 16,-14 16,-14 0,-9 -10,3 -18,1 -18,-4 0,-6 5,-10 10,-10 6,0 10,-7 10,-15 0,-8 6,-24 12,-35 10,-16 10,-24 1,-39 -10,-15 -10,-20 0,-24 7,-2 3,-9 -11,-16 -16,-9 -27,-9 -43,-1 -28,15 -49,6 -44,-20 3,-18 1,-20 -18,-14 l -22,7 20,-23 c 11,-12 64,-44 117,-70 54,-26 95,-50 92,-53 -3,-3 -17,-2 -31,4 -30,11 -36,11 -29,0 8,-13 -18,-21 -35,-10 -28,17 -40,9 -19,-13 24,-26 26,-38 5,-38 -8,0 -15,-5 -15,-11 0,-7 -11,-4 -27,7 -41,27 -104,56 -110,51 -2,-3 5,-14 17,-25 19,-17 21,-25 13,-49 -7,-21 -6,-34 4,-50 8,-12 17,-36 20,-54 2,-18 14,-40 25,-49 13,-10 18,-22 14,-29 -6,-9 -12,-8 -26,4 -23,20 -86,26 -82,7 1,-6 -3,-12 -10,-12 -6,0 -3,-7 8,-15 20,-15 12,-20 -30,-15 -11,1 -16,-3 -11,-9 4,-8 -3,-10 -25,-6 -20,4 -29,2 -25,-5 12,-19 -6,-10 -79,38 -42,27 -71,53 -68,60 3,10 7,10 18,1 12,-9 18,-9 27,0 9,9 9,14 -2,20 -7,5 -11,13 -7,19 3,6 1,14 -4,17 -8,5 -6,13 5,25 9,10 12,21 7,24 -10,6 -8,53 2,64 3,3 0,12 -8,21 -7,9 -21,38 -31,64 -10,26 -22,50 -26,53 -5,3 -9,9 -9,14 0,10 46,7 57,-3 3,-4 13,-7 20,-7 18,0 -26,59 -43,59 -16,1 -40,31 -25,31 15,0 51,32 46,41 -10,15 52,5 78,-13 22,-16 29,-17 40,-6 15,16 16,33 0,49 -6,6 -9,18 -6,25 3,9 -1,14 -12,14 -9,0 -14,4 -10,10 3,5 -8,16 -25,25 -37,19 -39,29 -3,21 27,-6 27,-6 8,9 -11,9 -19,23 -17,31 4,17 -35,19 -40,2 -3,-7 -7,-5 -11,6 -5,13 -2,19 12,23 18,5 17,8 -13,39 -31,32 -43,64 -24,64 5,0 6,5 3,10 -9,14 -3,13 50,-10 26,-11 49,-20 51,-20 3,0 3,16 0,35 -5,29 -3,35 12,36 10,0 12,3 5,6 -9,3 -10,10 -3,23 11,21 41,34 49,22 3,-5 26,-13 51,-17 l 45,-7 -25,24 c -14,13 -31,22 -37,20 -7,-2 -13,3 -13,13 0,12 6,15 20,11 11,-3 29,-8 39,-11 11,-3 22,-1 26,5 9,15 31,12 49,-6 15,-14 16,-14 16,5 0,12 6,21 13,21 6,1 -1,8 -16,16 -34,18 -27,37 9,24 14,-6 27,-10 30,-10 7,0 4,54 -4,66 -19,29 -150,78 -171,64 -7,-4 -31,-4 -53,0 -31,6 -48,4 -69,-9 -27,-16 -27,-18 -12,-34 16,-16 16,-17 -5,-17 -12,0 -22,-4 -22,-10 0,-5 -10,-10 -21,-10 -16,0 -20,-5 -16,-19 2,-10 1,-25 -4,-32 -8,-11 -11,-11 -20,4 -13,22 -32,22 -54,-3 -17,-19 -18,-19 -43,1 -15,11 -28,16 -32,10 -3,-6 -16,-8 -29,-4 -17,4 -19,8 -9,14 13,9 5,11 -49,13 -21,1 -62,37 -56,49 2,4 -1,7 -7,7 -7,0 -9,12 -5,34 8,38 -6,54 -25,31 -9,-11 -16,-12 -26,-4 -9,8 -16,5 -25,-13 -7,-13 -12,-24 -11,-25 6,-9 0,-23 -9,-23 -6,0 -9,7 -5,15 8,22 -11,18 -27,-6 -20,-28 -58,-11 -50,23 4,18 -1,14 -22,-14 -16,-21 -41,-43 -56,-50 -29,-13 -47,-38 -28,-38 6,0 8,-4 4,-9 -3,-5 3,-11 12,-13 14,-3 11,-8 -13,-21 -23,-12 -33,-26 -38,-51 -6,-33 -26,-60 -26,-36 0,6 -4,8 -10,5 -5,-3 -10,-19 -10,-34 0,-24 4,-28 25,-28 14,0 26,3 26,8 1,5 2,15 3,21 2,26 36,20 46,-9 6,-15 14,-37 19,-48 5,-11 13,-33 17,-50 7,-28 8,-28 12,-7 2,16 8,22 19,18 8,-3 17,-6 19,-6 2,0 4,-12 4,-26 0,-14 4,-23 9,-19 5,3 13,-4 16,-16 4,-11 9,-18 13,-15 3,4 14,-6 24,-21 10,-16 21,-28 25,-29 8,0 34,-11 83,-33 l 25,-11 -27,5 c -17,3 -28,1 -28,-6 0,-6 -7,-9 -15,-5 -19,7 -19,-3 -1,-18 8,-6 17,-27 19,-46 2,-19 9,-46 15,-60 9,-22 11,-23 12,-5 2,38 20,-25 32,-110 5,-44 17,-88 26,-97 11,-13 12,-18 2,-18 -9,0 -11,-10 -6,-32 l 6,-33 -20,24 c -11,13 -20,19 -20,15 0,-5 -5,-2 -10,6 -9,13 -10,13 -10,0 0,-13 -1,-13 -11,0 -8,12 -9,9 -5,-11 4,-17 1,-31 -9,-39 -9,-7 -13,-21 -9,-35 4,-15 0,-24 -10,-28 -12,-5 -14,-12 -6,-32 12,-30 4,-55 -18,-55 -11,0 -4,-12 22,-39 26,-27 34,-40 24,-44 -10,-4 -10,-6 1,-6 8,-1 29,-16 47,-35 21,-22 56,-42 98,-56 35,-11 67,-27 69,-34 3,-8 21,-16 39,-20 19,-3 45,-16 57,-27 18,-17 31,-20 61,-16 22,3 40,1 42,-4 2,-5 18,-4 36,3 23,9 37,10 49,2 30,-19 24,-29 -20,-32 -54,-3 -79,-11 -72,-23 4,-5 -2,-9 -11,-9 -11,0 6,-18 41,-46 60,-46 88,-77 79,-87 -7,-7 100,-67 119,-67 9,0 33,-9 54,-21 35,-20 63,-25 180,-34 28,-2 60,-8 70,-14 37,-19 113,-42 122,-37 5,4 34,-4 63,-17 29,-13 64,-23 78,-22 28,2 82,23 62,24 -7,1 -11,5 -7,10 3,5 -3,12 -12,14 -17,4 -17,5 0,6 9,0 17,5 17,11 0,5 14,3 32,-4 23,-10 38,-11 54,-4 17,8 33,6 68,-11 51,-25 121,-38 111,-21 -4,7 2,9 20,4 42,-10 199,-11 213,0 9,6 25,2 52,-13 37,-20 41,-21 56,-6 13,13 19,13 32,3 13,-11 14,-10 7,11 l -7,24 27,-21 c 35,-27 43,-21 20,14 l -17,26 34,-7 c 22,-4 28,-3 19,3 -15,11 -8,16 32,26 15,3 27,12 27,20 0,16 54,41 69,31 6,-3 22,5 35,18 14,14 27,23 30,20 8,-8 46,7 46,19 0,5 -9,12 -20,15 -20,5 -20,6 -4,25 10,10 24,16 32,13 9,-3 12,2 10,18 -2,14 -11,23 -27,25 -34,5 -51,26 -58,69 -7,43 -17,53 -53,53 -30,0 -15,17 20,22 24,3 25,7 28,77 3,63 0,76 -17,93 -12,10 -24,30 -27,44 -6,25 -9,25 -68,21 -33,-3 -70,-6 -81,-8 -17,-4 -19,1 -16,39 1,25 -2,42 -8,42 -6,0 -11,11 -11,24 0,14 -4,28 -10,31 -15,9 -12,35 4,35 23,0 37,92 16,105 -5,3 -10,16 -10,28 0,12 -9,33 -20,47 -11,14 -20,30 -20,36 0,6 -9,19 -20,29 -16,15 -17,19 -5,31 7,8 18,14 24,14 6,0 11,5 11,10 0,6 7,10 15,10 17,0 55,35 55,50 0,6 7,10 15,10 8,0 15,-4 15,-10 0,-6 27,-10 60,-10 57,0 60,1 60,24 0,17 9,28 30,38 28,12 31,17 30,58 0,25 2,66 6,93 5,37 11,47 25,47 11,0 19,5 19,10 0,6 14,10 30,10 17,0 30,4 30,9 0,5 9,11 21,14 14,4 29,-4 49,-25 20,-20 45,-33 75,-39 55,-10 75,-28 75,-66 0,-16 5,-34 11,-40 18,-18 2,-43 -26,-43 -14,0 -25,-4 -25,-10 0,-5 -22,-10 -49,-10 h -48 l -8,-91 c -4,-62 -13,-101 -26,-124 -11,-18 -20,-50 -20,-72 0,-21 -2,-69 -5,-106 -5,-61 -3,-71 15,-88 12,-11 21,-31 21,-44 0,-16 6,-25 15,-25 8,0 15,-6 15,-12 0,-14 45,-38 71,-38 9,0 22,-7 29,-15 7,-8 23,-15 36,-15 19,0 24,-5 24,-24 0,-31 36,-76 61,-76 12,0 19,-7 19,-20 0,-13 7,-20 19,-20 11,0 23,-5 26,-10 11,-17 43,-11 50,10 4,11 22,27 41,35 19,8 34,19 34,25 0,6 4,9 9,6 10,-7 61,38 61,54 0,5 7,10 16,10 8,0 13,4 9,10 -3,5 -12,7 -20,3 -32,-12 -14,35 25,66 49,39 51,51 5,41 -19,-4 -37,-4 -40,0 -7,11 12,23 24,16 16,-10 39,4 45,27 4,14 9,18 13,11 9,-13 22,-8 76,25 25,15 34,26 27,31 -8,5 -2,10 14,14 15,4 24,10 21,15 -2,5 2,12 11,15 9,4 14,13 10,22 -7,19 21,64 41,64 8,0 11,4 8,10 -3,5 -1,10 5,10 6,0 9,4 6,8 -3,5 6,15 19,22 14,7 27,21 31,32 3,10 9,18 13,18 14,0 45,66 47,98 0,23 9,41 29,58 15,13 23,24 17,24 -6,0 -9,6 -6,14 7,17 -33,19 -54,3 -8,-7 -16,-7 -23,0 -8,8 -5,15 10,23 16,8 20,17 16,31 -4,11 -2,19 5,19 7,0 10,7 6,15 -3,8 -1,15 4,15 21,0 9,16 -22,29 -42,18 -68,45 -68,71 0,11 -4,20 -8,20 -5,0 -17,7 -28,16 -19,15 -19,15 2,9 22,-6 40,17 28,36 -3,5 3,9 13,9 15,0 16,2 3,11 -11,8 -8,9 15,4 16,-4 27,-3 23,1 -11,11 12,34 33,34 10,0 33,9 51,20 18,10 35,16 38,12 3,-5 13,0 23,10 16,17 16,18 -3,18 -24,0 -38,44 -20,65 10,12 10,15 -1,15 -11,0 -11,2 1,10 8,5 11,10 5,10 -5,0 -2,5 8,11 24,14 22,32 -3,24 -11,-3 -20,-3 -21,2 0,4 -2,16 -4,25 -2,9 4,19 13,23 14,5 14,7 2,15 -13,8 -12,11 4,23 19,14 19,14 0,25 -14,9 -15,12 -4,13 8,0 4,4 -10,8 l -24,7 22,22 c 19,19 20,22 5,23 -11,0 -13,3 -5,6 6,2 12,11 12,18 0,7 -6,16 -12,19 -10,5 -10,7 0,12 6,3 12,10 12,15 0,5 -6,8 -12,7 -7,-2 -12,2 -11,8 1,6 4,24 7,39 3,15 13,33 23,41 12,9 13,13 5,14 -8,0 -10,5 -5,13 4,6 8,21 8,32 0,11 4,25 8,32 4,7 10,46 12,87 4,64 2,77 -13,85 -9,6 -12,11 -7,11 6,0 11,8 12,18 1,9 4,32 7,51 5,27 3,32 -10,27 -9,-3 -18,-6 -20,-6 -2,0 -4,-11 -4,-24 0,-24 -33,-46 -47,-32 -4,3 -13,-3 -21,-15 -11,-16 -17,-17 -28,-8 -11,9 -17,9 -29,-1 -8,-6 -19,-9 -25,-5 -5,3 -10,1 -10,-4 0,-6 -4,-11 -10,-11 -17,0 -39,57 -36,94 1,23 -2,36 -10,36 -7,0 -14,5 -16,12 -2,6 -13,12 -24,12 -11,1 -25,5 -32,10 -7,4 -12,2 -12,-5 0,-8 -4,-8 -15,1 -8,7 -16,9 -16,4 z M 4185,1190 c 18,0 28,-10 41,-40 16,-36 21,-40 55,-40 34,0 39,3 50,35 14,39 24,41 128,36 31,-2 56,2 60,8 10,16 51,-16 51,-39 0,-23 34,-47 78,-56 29,-6 47,-34 22,-34 -17,0 -12,-80 5,-86 24,-9 40,-45 25,-54 -15,-9 -25,-89 -16,-125 4,-17 17,-30 36,-36 15,-6 31,-17 34,-25 3,-8 18,-14 33,-15 l 28,-1 -32,-10 c -18,-6 -33,-16 -33,-23 0,-7 -16,-16 -35,-19 -21,-4 -35,-13 -35,-21 0,-8 -8,-15 -18,-15 -10,0 -22,-3 -25,-7 -4,-3 -34,-5 -66,-4 -52,2 -60,0 -66,-18 -3,-12 -15,-26 -26,-31 -14,-8 -19,-21 -19,-50 0,-38 -13,-60 -25,-40 -3,5 -26,18 -50,29 -25,11 -45,24 -45,30 0,5 -13,12 -30,16 -16,4 -32,11 -35,16 -4,5 -22,9 -41,9 -23,0 -38,6 -46,20 -7,11 -22,20 -33,20 -11,0 -35,9 -53,20 -18,11 -38,20 -44,20 -21,0 -35,33 -31,74 5,39 2,44 -61,111 -60,63 -66,74 -66,113 0,35 3,42 20,42 11,0 29,-9 40,-20 11,-11 25,-20 30,-20 6,0 25,-15 44,-34 25,-26 44,-36 82,-41 70,-10 84,-15 84,-31 0,-20 79,-19 86,1 4,8 15,15 25,15 16,0 19,8 19,45 0,24 -6,48 -13,52 -6,4 -18,22 -26,38 -7,17 -17,38 -22,47 -5,10 -9,24 -9,32 0,7 -16,21 -36,31 -19,9 -40,27 -46,41 -6,13 -17,24 -24,24 -7,0 -16,5 -20,12 -5,8 -2,9 10,5 10,-4 28,-7 41,-7 z" />
      <path
         id="pLoNCorer"
         d="m 1707,2842 c -4,-5 -1,-13 5,-15 10,-4 10,-6 0,-6 -9,-1 -10,-7 -4,-18 10,-22 10,-73 -1,-90 -4,-7 -3,-22 3,-33 6,-11 9,-24 6,-28 -2,-4 4,-25 15,-46 23,-48 23,-47 2,-39 -16,6 -16,5 -5,-10 8,-9 11,-25 8,-35 -4,-11 0,-24 8,-31 8,-7 13,-23 10,-37 -2,-13 0,-24 6,-24 5,0 10,-7 10,-15 0,-8 -5,-15 -11,-15 -5,0 -8,-4 -5,-9 3,-4 7,-24 10,-44 6,-50 16,-77 27,-77 6,0 7,-5 4,-10 -3,-6 1,-13 9,-16 9,-3 13,-10 10,-16 -3,-5 -11,-4 -20,3 -9,7 -14,8 -14,1 0,-6 5,-14 10,-17 6,-4 8,-11 5,-16 -4,-5 -1,-9 5,-9 7,0 10,-6 7,-14 -3,-8 -1,-16 5,-18 6,-2 12,-14 13,-26 1,-12 10,-30 20,-42 10,-11 15,-20 12,-20 -4,0 1,-8 11,-19 23,-25 77,-105 75,-111 -1,-3 3,-11 9,-17 6,-7 8,-13 4,-13 -4,0 1,-15 11,-32 9,-18 16,-36 15,-40 -1,-5 3,-8 9,-8 6,0 9,-6 6,-12 -2,-7 3,-18 12,-25 10,-8 11,-12 4,-13 -20,0 -4,-27 20,-34 20,-5 20,-6 3,-25 -18,-19 -17,-20 21,-27 21,-4 32,-9 25,-11 -7,-3 2,-18 25,-38 34,-30 37,-36 25,-55 -7,-11 -8,-20 -4,-20 5,0 6,-15 4,-32 -4,-27 -3,-31 9,-22 15,12 54,12 65,1 4,-4 -1,-7 -12,-7 -16,0 -16,-2 -4,-10 8,-5 25,-7 38,-3 l 23,6 -24,-27 c -13,-14 -34,-26 -46,-26 -11,0 -21,-4 -21,-10 0,-5 7,-7 14,-4 8,3 24,-3 35,-13 21,-19 21,-19 1,-41 -11,-12 -20,-28 -20,-35 0,-8 -7,-20 -15,-27 -11,-9 -12,-15 -2,-25 10,-10 14,-9 25,6 23,34 50,19 43,-23 0,-5 8,-8 20,-8 11,0 18,-3 15,-8 -2,-4 2,-16 10,-26 12,-18 14,-18 20,-2 6,15 9,15 33,-7 23,-22 53,-28 67,-14 3,2 11,35 18,73 8,38 15,61 16,52 2,-10 3,-22 4,-28 1,-12 21,-14 22,-2 0,4 4,25 8,47 7,38 -8,166 -21,188 -3,6 -7,38 -8,72 -2,70 -14,101 -26,69 -5,-13 -8,-2 -8,33 -1,28 -5,53 -10,55 -6,2 -11,31 -13,66 -3,56 -11,78 -20,52 -4,-13 -78,-21 -78,-9 0,5 9,9 20,9 14,0 18,5 13,16 -5,13 -7,13 -14,2 -7,-10 -9,-9 -9,5 0,10 8,17 19,17 15,0 19,6 16,20 -3,15 3,24 23,32 15,6 22,12 15,15 -7,3 -13,9 -13,14 0,6 4,8 9,4 6,-3 15,3 20,14 18,32 13,42 -15,35 -17,-4 -29,-2 -35,7 -7,11 -9,9 -9,-6 0,-18 -2,-17 -14,5 -8,15 -9,30 -4,37 5,7 5,14 -2,18 -5,3 -10,0 -10,-7 0,-8 -5,-6 -11,5 -6,9 -14,15 -20,12 -5,-4 -9,-2 -9,3 0,4 -16,16 -35,25 -19,9 -35,21 -35,27 0,5 -6,10 -14,10 -7,0 -16,10 -20,23 l -6,22 -17,-25 c -24,-36 -35,-41 -50,-22 -7,9 -13,12 -13,5 0,-19 -58,8 -64,31 -7,25 -34,57 -61,72 -11,6 -20,18 -20,26 0,9 -6,23 -14,32 -11,13 -11,17 2,22 12,4 14,11 7,25 -6,10 -14,28 -20,39 -6,11 -10,31 -10,45 0,14 -11,37 -25,50 -13,14 -19,25 -12,26 7,0 3,5 -8,10 -22,11 -50,101 -33,107 5,2 4,10 -3,18 -9,11 -8,18 5,33 11,12 13,21 7,25 -5,4 -12,2 -16,-4 -9,-15 -22,-12 -22,5 0,8 5,15 10,15 5,0 4,7 -3,15 -7,8 -19,15 -27,15 -8,0 -23,10 -32,22 -11,13 -20,17 -24,10 z" />
    </g>
  </g>
  <g
     id="l3qYZEUM5hxlwiwdiAZxXXy"
     fill="#2a2322"
     transform="matrix(0.44987147,0,0,0.44987147,0,1.2853069)">
    <g
       id="g180">
      <path
         id="pQeEjG0TU"
         d="m 0,9726 v -274 l 198,-105 c 194,-103 691,-352 907,-454 61,-29 151,-81 200,-117 112,-80 356,-305 535,-491 205,-213 280,-287 334,-324 l 49,-35 -6,30 c -4,16 -24,108 -46,204 -69,304 -72,385 -30,670 5,36 21,142 34,235 14,94 37,226 50,295 28,144 61,386 70,510 3,47 8,95 11,108 l 4,22 H 1155 0 Z" />
      <path
         id="p86rbDQXf"
         d="m 5775,9953 c 9,-60 11,-72 25,-158 16,-94 17,-108 25,-195 3,-41 21,-152 40,-245 20,-94 40,-229 45,-300 10,-131 18,-206 26,-260 10,-59 12,-392 4,-520 -7,-99 -17,-161 -45,-259 -19,-71 -33,-131 -31,-134 9,-8 172,152 243,240 21,27 46,48 56,48 10,0 15,5 12,11 -8,12 23,49 42,49 7,0 13,4 13,10 0,5 59,58 132,117 72,60 168,140 212,178 120,103 133,113 343,249 40,26 79,56 87,67 7,11 88,49 187,89 96,39 197,81 224,94 28,12 121,54 207,92 l 158,69 v 403 402 H 6774 5767 Z" />
      <path
         id="po7XWVHFp"
         d="m 4790,4745 c -41,-18 -79,-69 -87,-118 -4,-27 -9,-34 -23,-30 -25,7 -79,68 -92,103 -11,33 -27,36 -77,19 -33,-12 -34,-17 -16,-61 5,-13 3,-18 -8,-18 -29,0 -29,-32 0,-62 34,-36 88,-60 118,-52 12,3 40,1 61,-5 33,-10 41,-9 54,7 12,14 24,16 70,10 30,-3 59,-4 64,-1 5,3 45,7 90,9 90,3 102,5 132,22 12,6 24,9 27,5 4,-3 9,2 13,11 3,9 12,16 19,16 7,0 18,7 25,15 10,12 10,15 -1,16 -20,2 -21,2 -56,-6 -24,-5 -33,-3 -33,7 0,17 -90,112 -110,117 -50,12 -138,10 -170,-4 z" />
      <path
         id="pSZLZM2Ii"
         d="m 5224,1888 c 22,-31 20,-39 -9,-32 -25,6 -36,-10 -12,-19 6,-3 -5,-6 -26,-6 -23,-1 -36,-5 -32,-11 3,-5 -2,-10 -12,-10 -10,0 -24,-4 -32,-9 -12,-8 -12,-12 -2,-25 11,-13 11,-16 0,-16 -11,0 -11,-2 1,-10 9,-6 11,-10 3,-10 -7,0 -10,-7 -6,-17 4,-11 3,-14 -5,-9 -21,13 -35,-4 -19,-22 8,-10 17,-29 21,-43 5,-22 2,-28 -17,-34 -12,-4 -27,-7 -34,-6 -16,2 -26,-16 -13,-24 5,-3 10,-12 10,-20 0,-18 -58,-16 -64,2 -7,16 -78,11 -84,-6 -7,-21 -40,-51 -57,-51 -8,0 -15,-4 -15,-10 0,-5 -7,-10 -15,-10 -8,0 -15,-4 -15,-10 0,-5 -13,-10 -30,-10 -20,0 -30,-5 -30,-15 0,-8 5,-15 10,-15 6,0 10,-5 10,-11 0,-6 14,-22 30,-36 17,-13 30,-29 30,-35 0,-5 9,-23 20,-38 11,-16 18,-35 15,-42 -3,-8 1,-20 9,-27 17,-15 10,-52 -10,-44 -9,3 -14,-2 -14,-16 0,-12 -7,-33 -16,-46 -15,-24 -15,-25 10,-35 19,-7 26,-17 26,-35 0,-14 5,-25 11,-25 5,0 7,-4 4,-10 -3,-5 -15,-10 -26,-10 -23,0 -24,-17 -3,-45 12,-16 25,-20 67,-19 29,1 68,5 88,9 33,6 37,5 43,-19 3,-14 15,-33 25,-43 13,-13 18,-30 17,-62 -1,-39 -5,-45 -26,-48 -14,-2 -31,-12 -39,-23 -8,-12 -25,-20 -41,-20 -36,0 -56,-23 -36,-40 9,-6 20,-9 25,-6 5,4 12,2 16,-4 3,-5 17,-10 30,-10 13,0 27,-4 30,-10 11,-18 23,-11 18,10 -4,16 -2,19 11,14 9,-3 14,-10 11,-14 -14,-23 43,-119 63,-106 6,3 22,2 37,-4 20,-8 26,-15 22,-30 -3,-11 -1,-23 4,-26 5,-3 9,6 9,21 0,22 3,24 19,15 25,-13 71,-13 71,0 0,6 12,10 28,10 15,0 34,5 42,10 11,7 3,10 -28,10 -39,0 -42,2 -28,15 17,17 30,20 21,5 -10,-16 27,-11 46,6 11,10 41,17 81,18 64,3 151,36 175,66 13,17 -1,32 -23,23 -8,-3 -11,2 -9,14 2,10 4,23 4,30 1,6 11,15 24,19 12,4 25,11 29,17 8,13 -20,36 -45,37 -13,0 -17,6 -15,22 2,18 -1,22 -18,20 -14,-2 -29,7 -43,24 -23,29 -28,64 -9,64 6,0 3,6 -8,14 -13,10 -23,11 -32,4 -9,-8 -17,-6 -30,6 -10,9 -25,16 -33,16 -27,0 -69,25 -64,38 3,7 -4,12 -18,13 -12,0 -16,3 -10,6 14,5 -10,51 -34,66 -14,9 -18,38 -5,36 19,-3 22,2 8,16 -17,18 -11,46 9,39 19,-8 29,16 12,29 -18,15 -29,57 -14,57 6,0 8,3 4,6 -3,3 5,27 18,52 16,32 21,50 14,59 -7,8 -7,18 0,32 6,11 9,36 6,56 l -4,37 39,-6 c 27,-4 44,-1 52,8 11,12 16,12 31,-2 17,-15 18,-14 23,5 4,15 11,20 22,16 12,-5 14,-2 7,13 -4,10 -7,33 -6,50 1,20 -4,34 -14,38 -18,7 -20,46 -2,46 8,0 14,7 14,15 0,13 -10,17 -33,14 -4,0 -10,3 -13,8 -11,15 -60,33 -75,27 -8,-3 -30,10 -51,30 -20,20 -43,36 -50,36 -8,0 -18,6 -22,13 -8,12 -47,37 -58,37 -4,0 1,-10 9,-22 z" />
      <path
         id="p11Hg5Eu9u"
         d="m 3821,1370 c -9,-5 -2,-16 25,-36 22,-16 43,-35 47,-41 4,-7 12,-13 18,-13 5,0 32,-15 60,-34 27,-19 58,-38 69,-41 11,-4 20,-11 20,-16 0,-6 4,-8 9,-5 4,3 16,-3 26,-14 10,-11 23,-20 30,-20 6,0 17,-11 23,-24 6,-14 27,-32 46,-41 20,-10 36,-25 36,-34 0,-9 5,-22 12,-29 7,-7 9,-12 4,-12 -10,0 26,-63 42,-73 19,-13 15,-36 -7,-30 -12,3 -20,-2 -24,-16 -6,-23 -27,-29 -27,-7 0,17 -20,25 -83,32 -40,5 -57,13 -83,40 -19,19 -40,34 -49,34 -8,0 -15,4 -15,10 0,17 -42,32 -91,32 -27,-1 -49,3 -49,8 0,5 -18,14 -40,20 -21,6 -46,18 -55,27 -15,14 -18,14 -32,1 -13,-14 -11,-16 23,-23 21,-3 33,-10 26,-14 -7,-4 6,-18 34,-35 24,-15 44,-31 45,-34 0,-4 2,-26 2,-49 2,-29 10,-50 27,-68 14,-15 44,-48 67,-72 36,-39 40,-48 30,-64 -6,-10 -17,-19 -24,-19 -7,0 -13,-3 -13,-7 1,-14 27,-43 33,-37 3,3 12,-3 19,-15 7,-12 18,-21 25,-21 7,0 35,-13 63,-30 30,-18 50,-25 50,-17 0,6 8,0 17,-15 18,-28 53,-44 63,-27 4,6 17,4 36,-6 16,-8 35,-15 42,-15 6,0 12,-5 12,-11 0,-5 19,-19 43,-29 23,-10 52,-28 64,-39 25,-23 46,-19 79,14 19,19 19,23 7,42 -15,22 -9,48 8,38 5,-4 9,-1 9,5 0,6 5,8 11,5 6,-4 10,-1 8,6 -3,29 2,37 26,37 13,0 32,-9 41,-19 15,-17 17,-17 41,5 15,14 33,22 44,19 14,-4 19,0 19,16 0,13 7,21 18,22 9,1 22,2 27,4 6,1 16,3 24,3 7,1 11,8 7,17 -3,8 0,15 7,16 7,0 20,2 31,4 10,2 29,-1 42,-7 28,-13 36,-8 39,27 3,20 -2,26 -23,31 -15,4 -33,11 -40,17 -7,5 -22,10 -35,11 -12,0 -22,7 -22,15 0,8 -11,16 -25,18 -35,5 -52,32 -45,68 3,17 10,32 15,33 6,2 10,12 10,23 0,10 7,19 15,19 22,0 18,17 -5,30 -11,6 -18,15 -16,19 3,4 -6,13 -19,19 -25,11 -34,32 -15,32 6,0 10,7 10,15 0,9 9,15 23,14 20,0 20,-1 3,-8 -16,-6 -17,-9 -5,-16 30,-20 49,-16 49,10 0,33 -33,61 -88,75 -61,15 -91,35 -86,57 2,12 -11,29 -43,52 -40,29 -47,31 -55,17 -5,-9 -14,-13 -20,-10 -8,5 -9,1 -5,-9 5,-14 2,-16 -18,-11 -14,3 -36,7 -50,8 -14,0 -25,6 -25,11 0,6 -5,2 -11,-7 -9,-16 -12,-16 -33,-3 -25,16 -36,11 -36,-16 0,-21 -20,-69 -30,-69 -11,0 -42,80 -36,95 3,8 0,16 -7,16 -7,1 -22,3 -35,4 -19,2 -21,-1 -16,-19 6,-20 6,-20 -12,-5 -27,23 -64,31 -64,13 0,-21 -38,-17 -52,6 -7,11 -18,20 -25,20 -6,0 -13,4 -15,8 -1,4 -22,23 -45,41 -23,19 -41,38 -40,44 2,12 -94,18 -112,7 z" />
    </g>
  </g>
</svg>
