<?xml version="1.0" encoding="UTF-8" standalone="no"?>
<svg
   xmlns:dc="http://purl.org/dc/elements/1.1/"
   xmlns:cc="http://creativecommons.org/ns#"
   xmlns:rdf="http://www.w3.org/1999/02/22-rdf-syntax-ns#"
   xmlns:svg="http://www.w3.org/2000/svg"
   xmlns="http://www.w3.org/2000/svg"
   class="img-fluid"
   id="outputsvg"
   width="350"
   height="449.99997"
   viewBox="0 0 3500 4499.9997"
   version="1.1">
  <metadata
     id="metadata912">
    <rdf:RDF>
      <cc:Work
         rdf:about="">
        <dc:format>image/svg+xml</dc:format>
        <dc:type
           rdf:resource="http://purl.org/dc/dcmitype/StillImage" />
        <dc:title></dc:title>
      </cc:Work>
    </rdf:RDF>
  </metadata>
  <defs
     id="defs910" />
  <g
     id="l5wMxkFV1G6HbKwh9bnpKxR"
     fill="#f6eae2"
     transform="matrix(1.7582589,0,0,1.7582589,0.00125032,401.61142)">
    <g
       id="g824">
      <path
         id="p1DgP8Uc3K"
         d="m 0,2232 c 0,-97 0,-98 30,-120 16,-12 38,-22 50,-22 14,0 20,-7 20,-23 0,-41 27,-67 70,-67 54,0 70,8 70,36 0,20 5,24 29,24 19,0 35,-8 45,-22 15,-21 14,-24 -9,-48 -14,-14 -25,-35 -25,-47 0,-14 -8,-22 -28,-26 -39,-8 -110,3 -123,19 -7,9 -33,14 -70,14 H 0 v -48 c 0,-43 3,-50 25,-60 14,-7 32,-12 40,-12 8,0 23,-21 35,-46 25,-57 25,-54 -5,-54 -20,0 -25,-5 -25,-24 0,-14 -4,-28 -10,-31 -6,-3 -10,-25 -10,-49 0,-44 10,-55 68,-71 12,-4 35,-17 51,-31 25,-21 29,-30 24,-59 -6,-40 13,-122 34,-147 11,-12 13,-30 8,-72 -7,-57 3,-120 43,-259 l 17,-57 h 46 47 l 6,54 c 5,34 14,60 27,71 22,21 39,75 39,128 0,30 -4,37 -20,37 -11,0 -20,7 -20,15 0,8 5,15 11,15 8,0 10,31 9,98 -2,53 -2,118 -1,145 1,45 2,47 31,47 25,0 30,4 30,25 0,34 21,75 38,75 12,0 14,11 9,56 -3,31 -3,78 0,105 5,41 9,49 27,49 66,1 88,28 138,174 17,50 39,108 50,130 24,47 48,123 48,154 v 22 H 405 0 Z m 609,-58 c 2,-2 -4,-19 -13,-38 -9,-19 -16,-37 -16,-41 0,-4 -10,-20 -21,-37 -17,-23 -20,-39 -16,-74 5,-47 1,-48 -40,-11 -28,25 -29,43 -5,49 19,5 42,82 42,140 0,28 2,29 33,23 17,-4 34,-9 36,-11 z" />
      <path
         id="pdQvvFNoV"
         d="m 1215,2298 c 4,-18 9,-70 12,-114 4,-75 6,-82 29,-93 29,-13 140,-15 148,-3 3,5 30,7 61,4 77,-6 89,5 82,83 -7,77 -15,95 -38,95 -14,0 -19,7 -19,30 v 30 h -141 -141 z" />
      <path
         id="poRBaYCr4"
         d="m 1304,1856 c -9,-22 14,-247 28,-286 7,-19 18,-41 25,-48 19,-20 26,-78 18,-155 -3,-40 -11,-175 -16,-302 -10,-284 -17,-345 -35,-352 -8,-3 -14,-12 -14,-19 0,-8 -11,-37 -25,-64 -14,-28 -25,-66 -25,-90 0,-39 1,-40 33,-40 24,0 41,8 62,30 16,16 35,30 42,30 16,0 53,58 53,82 0,10 10,34 22,55 43,77 48,89 48,124 0,20 12,115 27,210 14,96 27,210 28,254 1,45 5,87 10,95 13,21 11,209 -3,270 -19,82 -41,120 -68,120 -16,0 -29,10 -39,30 -9,17 -23,30 -31,30 -9,0 -27,9 -41,20 -30,23 -91,27 -99,6 z" />
      <path
         id="pst0VR6u9"
         d="m 888,1704 c -5,-4 -8,-18 -8,-30 0,-13 -4,-26 -10,-29 -5,-3 -10,-26 -10,-51 v -44 h 40 c 24,0 62,11 90,25 47,24 50,28 50,63 0,57 -11,65 -82,70 -35,2 -66,0 -70,-4 z" />
      <path
         id="pzDI2DpmI"
         d="m 968,1449 c -26,-15 -26,-119 0,-119 15,0 17,-8 14,-59 -5,-82 8,-103 61,-99 l 42,3 -1,70 c -1,39 -2,98 -3,132 -1,51 -4,64 -20,73 -25,13 -71,13 -93,-1 z" />
      <path
         id="pp2Y4jLjd"
         d="m 745,1303 c -63,-6 -89,-41 -93,-126 -6,-90 8,-117 57,-117 20,0 47,9 61,20 20,16 41,20 103,20 h 77 v 49 c 0,32 -6,56 -19,72 -10,14 -21,36 -23,49 -5,35 -48,44 -163,33 z" />
      <path
         id="p7m9MM4SF"
         d="m 1007,1113 c -4,-3 -7,-23 -7,-43 0,-28 -8,-43 -33,-68 -18,-18 -41,-32 -50,-32 -10,0 -34,-11 -55,-24 -20,-14 -50,-28 -67,-32 -50,-11 -54,-20 -54,-108 0,-119 3,-126 50,-126 35,0 40,-3 45,-27 3,-16 16,-40 28,-54 20,-23 33,-27 112,-33 90,-7 90,-7 128,23 21,17 49,31 61,31 12,0 29,8 37,18 22,25 78,127 78,142 0,6 9,23 20,37 12,15 20,41 20,62 0,69 -5,74 -103,106 -51,16 -95,34 -99,40 -4,5 -8,24 -8,41 0,16 -5,35 -12,42 -13,13 -80,17 -91,5 z" />
    </g>
  </g>
  <g
     id="l5BhzBDFNqmRtscXwSigctA"
     fill="#efd1c5"
     transform="matrix(1.7582589,0,0,1.7582589,0.00125032,401.61142)">
    <g
       id="g839">
      <path
         id="pvHNvNSos"
         d="m 70,2322 c 0,-4 16,-16 35,-26 19,-10 37,-27 40,-37 9,-27 22,-23 29,7 13,49 0,64 -55,64 -27,0 -49,-3 -49,-8 z" />
      <path
         id="pTNJXOtv8"
         d="m 504,2244 c 5,-80 -6,-166 -24,-187 -4,-4 -13,18 -20,50 -18,81 -27,84 -35,14 -4,-33 -12,-65 -19,-70 -18,-15 -52,-3 -66,23 -8,17 -18,22 -36,18 -13,-2 -31,1 -38,8 -21,17 -56,-4 -56,-35 0,-35 -38,-44 -62,-15 -10,12 -18,33 -18,46 0,18 -6,24 -21,24 -12,0 -38,14 -59,30 -21,17 -41,30 -44,30 -3,0 -6,-131 -6,-291 v -290 l 43,-50 c 31,-36 49,-49 69,-49 42,0 56,-9 68,-46 12,-36 45,-48 47,-16 1,9 5,29 8,43 8,32 -30,81 -77,99 -81,30 -94,44 -63,70 9,7 13,21 10,31 -8,24 2,24 60,-2 25,-11 49,-18 52,-16 2,3 -16,36 -41,72 -45,66 -50,77 -47,102 1,7 -16,17 -36,22 -49,13 -78,35 -69,49 11,19 61,14 81,-8 11,-13 29,-19 51,-18 23,1 42,-6 57,-20 29,-27 41,-28 34,-2 -5,20 5,25 46,21 13,-2 17,5 17,27 0,67 118,124 140,68 4,-13 21,-33 36,-45 21,-16 28,-32 31,-67 3,-26 -1,-51 -7,-59 -6,-8 -9,-22 -6,-32 3,-10 -1,-31 -9,-47 -20,-38 -19,-49 5,-41 11,4 20,2 20,-4 0,-6 -6,-11 -13,-11 -17,0 -37,-42 -37,-75 0,-29 -7,-30 -34,-10 -33,25 -38,18 -35,-42 2,-32 -1,-75 -5,-95 -5,-21 -5,-46 0,-55 8,-20 12,-113 4,-113 -3,0 -11,-9 -17,-19 -15,-25 4,-71 30,-71 9,0 17,-7 17,-15 0,-25 34,-16 59,16 29,37 42,119 19,119 -10,0 -18,13 -21,36 -7,39 0,64 15,64 17,0 37,33 38,59 0,14 7,32 15,42 13,14 15,32 8,112 -10,111 -6,134 36,184 23,28 31,48 31,77 0,34 -2,37 -12,24 -16,-19 -46,-30 -53,-18 -3,5 -1,11 4,14 15,10 24,78 10,86 -9,6 -6,16 10,38 11,17 21,33 21,37 0,3 11,31 25,60 13,30 22,61 19,69 -3,8 -26,17 -51,21 l -45,7 4,54 5,54 h -35 -34 z" />
      <path
         id="pRll8ndAj"
         d="m 770,2283 c -7,-27 -23,-68 -36,-93 -17,-36 -74,-194 -74,-207 0,-9 119,-1 122,8 5,16 48,1 48,-16 0,-18 -65,-55 -96,-55 -14,0 -38,-7 -54,-15 -37,-19 -44,-53 -38,-182 3,-82 7,-98 25,-113 l 21,-17 -31,-18 c -65,-39 -74,-62 -61,-172 6,-49 8,-52 38,-56 l 31,-4 -32,-1 c -38,-2 -39,-6 -48,-138 -5,-84 -4,-103 9,-113 12,-10 13,-18 5,-32 -5,-11 -9,-39 -7,-62 3,-41 4,-42 41,-45 24,-2 37,-8 37,-18 0,-8 -5,-14 -11,-14 -12,0 -8,-48 10,-115 5,-22 7,-66 4,-98 -8,-79 7,-107 59,-107 29,0 38,-4 38,-17 0,-10 16,-29 35,-43 19,-14 39,-37 44,-53 6,-17 17,-27 29,-27 11,0 25,-7 32,-15 14,-17 75,-20 85,-5 3,6 24,10 46,10 31,0 39,4 39,18 0,10 12,23 28,30 54,24 89,57 98,92 5,19 18,39 30,45 41,20 54,37 54,70 0,18 7,38 15,45 14,11 15,6 9,-44 -6,-48 -4,-56 10,-56 9,0 16,5 16,11 0,7 7,17 16,23 17,13 20,39 30,234 6,119 5,122 -15,122 -18,0 -21,-6 -21,-46 0,-36 -3,-44 -12,-36 -7,5 -40,24 -73,41 -33,17 -54,31 -47,31 18,0 51,40 52,62 0,18 49,63 80,73 17,5 20,15 20,65 0,49 3,58 20,63 18,5 20,14 20,105 0,95 -13,162 -30,162 -5,0 -10,10 -12,23 -2,16 -11,23 -32,25 -28,3 -28,3 -23,-40 8,-65 30,-148 39,-148 4,0 8,-4 8,-8 0,-5 -13,-7 -30,-4 -27,4 -30,8 -30,39 0,58 -14,73 -69,73 -58,0 -75,-16 -69,-65 2,-20 -1,-36 -8,-39 -18,-7 -26,-114 -14,-196 7,-51 7,-76 0,-78 -5,-2 -10,-17 -10,-33 0,-21 -4,-27 -15,-23 -11,5 -14,23 -12,82 4,162 -2,270 -18,286 -8,8 -15,28 -15,45 0,17 -4,31 -10,31 -5,0 -10,5 -10,10 0,6 18,10 41,10 h 40 l -3,41 c -2,28 -9,45 -20,50 -10,5 -26,13 -35,18 -10,4 -19,22 -21,39 -3,26 -8,31 -35,35 l -32,4 33,1 c 72,4 103,87 62,167 -23,45 -19,85 8,85 10,0 23,5 30,12 23,23 10,148 -24,225 -8,17 -14,47 -14,67 v 36 H 931 783 Z m 232,-625 c 4,-7 8,-16 8,-20 0,-9 -94,-58 -110,-58 -15,0 -12,26 5,40 9,7 15,20 14,29 -1,9 -1,20 0,25 2,13 73,-1 83,-16 z m 48,-258 c 0,-26 -15,-40 -41,-40 -24,0 -29,4 -29,25 0,29 27,47 52,34 10,-5 18,-14 18,-19 z m 4,-128 c 9,-43 4,-72 -14,-72 -19,0 -33,47 -26,85 9,47 28,41 40,-13 z m -181,-9 c 4,-2 7,-13 7,-25 0,-11 9,-31 20,-45 11,-14 20,-34 20,-45 0,-17 -7,-19 -73,-16 -62,2 -77,0 -105,-21 -32,-22 -34,-23 -48,-5 -23,30 -13,105 19,140 24,26 29,27 48,16 18,-12 24,-11 37,2 14,14 49,14 75,-1 z m 195,-185 c 7,-7 12,-26 12,-42 0,-17 4,-36 8,-41 4,-6 48,-24 99,-40 77,-25 93,-34 98,-54 4,-17 0,-33 -14,-52 -12,-16 -21,-33 -21,-40 0,-14 -57,-116 -78,-141 -8,-10 -25,-18 -37,-18 -12,0 -39,-14 -60,-30 -25,-20 -44,-28 -54,-24 -9,4 -35,6 -59,5 -35,-1 -46,3 -67,26 -13,15 -27,45 -30,66 -6,35 -26,49 -40,27 -3,-5 -14,-10 -24,-10 -28,0 -33,39 -11,71 20,27 20,27 -3,42 -31,21 -14,45 48,65 47,16 50,19 53,53 l 3,36 -53,6 c -29,4 -68,7 -85,7 -39,0 -40,3 -12,42 15,21 25,26 32,19 15,-15 60,-14 93,4 30,15 54,6 54,-21 0,-7 7,-17 17,-22 14,-9 14,-11 -5,-21 -13,-7 -22,-21 -22,-35 0,-20 4,-23 28,-18 15,2 42,18 60,35 25,24 32,39 32,67 0,49 13,63 38,38 z" />
      <path
         id="pvvoQRYKg"
         d="m 1214,2228 c 4,-57 11,-121 16,-143 12,-54 14,-129 5,-193 -7,-48 -6,-55 14,-68 14,-10 21,-26 21,-47 0,-53 29,-117 54,-117 19,0 21,5 19,51 0,28 -4,66 -7,84 -8,42 4,50 37,25 14,-11 32,-20 41,-20 8,0 22,-13 31,-30 17,-33 55,-59 55,-38 0,7 10,-2 21,-19 12,-18 25,-33 30,-33 27,0 -13,172 -54,230 -9,13 -17,34 -17,45 0,11 -7,29 -15,39 -27,36 -19,46 35,46 44,0 50,3 56,23 10,44 0,102 -18,105 -11,2 -18,-3 -18,-11 0,-33 -28,-41 -82,-23 -51,16 -63,15 -63,-7 0,-16 -54,-19 -87,-6 -26,11 -27,14 -26,78 2,73 -15,131 -40,131 -13,0 -14,-14 -8,-102 z" />
      <path
         id="pLUgN4qDS"
         d="m 1451,2304 c 11,-13 8,-19 -16,-38 -25,-20 -26,-23 -11,-29 10,-4 29,-4 42,-1 18,5 29,1 39,-12 13,-17 14,-15 15,24 0,50 -17,72 -56,72 -23,0 -25,-2 -13,-16 z" />
      <path
         id="p1CN5BgbkG"
         d="m 1673,2203 c -16,-6 -17,-96 -3,-124 8,-15 21,-19 59,-19 56,0 61,8 61,98 v 52 l -52,-1 c -29,0 -59,-3 -65,-6 z" />
      <path
         id="p1Fk9Y3BSF"
         d="m 1628,2017 c -16,-13 -28,-32 -28,-44 0,-11 -7,-23 -15,-27 -11,-4 -15,-21 -15,-63 0,-91 6,-103 50,-103 46,0 65,21 74,79 4,27 16,54 31,69 30,29 33,79 8,98 -27,20 -75,16 -105,-9 z" />
      <path
         id="ps3UEBskg"
         d="m 1550,1406 c -9,-17 -11,-43 -6,-83 3,-32 2,-75 -3,-95 -8,-35 -7,-38 13,-38 38,0 46,19 46,105 0,72 -14,135 -31,135 -3,0 -11,-11 -19,-24 z" />
      <path
         id="pFOvxSzli"
         d="m 177,1393 c -10,-10 -8,-81 2,-87 5,-4 17,-31 26,-61 13,-38 23,-55 35,-55 37,0 48,132 14,161 -8,6 -14,20 -14,30 0,14 -7,19 -28,19 -16,0 -32,-3 -35,-7 z" />
      <path
         id="pv0ZXvwmi"
         d="m 398,1096 c -18,-22 -29,-52 -34,-86 -6,-48 -8,-51 -20,-35 -14,18 -14,18 -15,-1 0,-11 -5,-5 -12,16 l -12,35 -3,-50 c -5,-66 7,-101 85,-263 36,-75 67,-151 70,-169 3,-18 10,-33 14,-33 5,0 9,-7 9,-15 0,-9 7,-18 15,-21 8,-4 15,-12 15,-20 0,-8 13,-28 29,-44 36,-38 85,-42 95,-7 8,30 8,92 -1,100 -3,4 -5,33 -4,65 2,57 -31,164 -62,201 -8,9 -19,31 -27,49 -7,17 -16,32 -19,32 -4,0 -15,15 -25,33 -9,17 -27,49 -40,70 -20,33 -23,48 -18,108 2,38 1,69 -4,69 -5,0 -21,-15 -36,-34 z" />
      <path
         id="pW8AIImfq"
         d="m 1511,1033 c -7,-43 -15,-111 -18,-150 -6,-68 -5,-73 14,-73 17,0 25,15 47,93 30,106 30,113 14,167 -8,25 -19,40 -29,40 -13,0 -19,-17 -28,-77 z" />
      <path
         id="pgBTcwHYa"
         d="m 1391,607 c -7,-9 -18,-17 -24,-17 -6,0 -26,-14 -44,-32 -36,-35 -42,-25 -17,25 17,32 16,32 -3,15 -11,-10 -26,-18 -34,-18 -8,0 -35,-27 -61,-60 -37,-45 -48,-68 -48,-95 0,-33 2,-35 35,-35 27,0 45,9 78,39 23,21 61,50 84,65 44,27 57,53 51,101 -3,26 -4,27 -17,12 z" />
    </g>
  </g>
  <g
     id="l7hxZu6AgF9WYSIHIsiCQ9M"
     fill="#e1beac"
     transform="matrix(1.7582589,0,0,1.7582589,0.00125032,401.61142)">
    <g
       id="g849">
      <path
         id="pqpnseQWg"
         d="m 1044,2314 c 4,-9 0,-27 -8,-39 -14,-21 -14,-25 0,-35 36,-31 76,-178 55,-204 -7,-8 -19,-12 -26,-10 -7,3 -18,-3 -23,-13 -14,-28 -21,-102 -10,-109 6,-4 16,-22 24,-41 14,-32 13,-36 -8,-63 -20,-25 -30,-29 -73,-30 -33,0 -60,-7 -80,-21 -57,-39 -124,-69 -130,-59 -12,19 -25,10 -25,-19 0,-34 -26,-49 -48,-27 -17,16 -28,128 -18,180 8,39 44,66 90,66 30,0 82,29 102,58 17,25 2,68 -28,77 -31,11 -82,9 -86,-3 -2,-6 -17,-8 -37,-5 -27,4 -36,1 -49,-20 -9,-13 -16,-29 -14,-33 1,-5 -13,-40 -30,-78 -35,-75 -42,-147 -18,-181 17,-26 10,-215 -9,-215 -27,0 -47,-74 -54,-200 -7,-130 -12,-150 -37,-150 -13,0 -12,6 6,35 17,28 21,49 20,107 0,40 2,106 6,146 5,57 3,72 -7,72 -8,0 -20,-13 -27,-30 -8,-16 -18,-30 -23,-30 -6,0 -21,-12 -35,-27 -22,-24 -23,-28 -9,-43 9,-10 19,-34 22,-54 3,-20 11,-36 19,-36 17,0 8,-26 -22,-62 -12,-15 -28,-54 -34,-85 -6,-32 -16,-75 -22,-95 -8,-28 -8,-45 1,-67 14,-34 70,-124 101,-161 l 20,-25 v 35 l 1,35 14,-25 c 8,-14 14,-35 15,-46 0,-12 9,-33 20,-47 11,-14 20,-37 20,-52 0,-14 5,-35 10,-46 6,-10 7,-19 2,-19 -4,0 -6,-16 -4,-35 3,-25 0,-36 -11,-41 -13,-5 -14,-10 -5,-27 6,-12 15,-30 20,-40 4,-9 5,-29 2,-42 l -6,-26 -30,31 c -16,17 -26,35 -23,40 3,5 -4,14 -15,20 -11,6 -20,17 -20,25 0,8 -4,15 -9,15 -4,0 -11,15 -14,33 -3,18 -35,95 -71,170 -36,76 -66,142 -66,147 0,6 -7,10 -15,10 -20,0 -20,-75 0,-110 8,-14 14,-43 15,-65 0,-23 9,-53 20,-70 11,-16 20,-45 20,-62 0,-29 3,-33 26,-33 17,0 28,-6 31,-20 3,-11 9,-20 13,-20 4,0 11,-21 15,-46 9,-63 25,-94 47,-94 10,0 18,-6 18,-14 0,-25 42,-46 92,-46 h 48 l -3,110 c -1,61 -1,110 0,110 0,0 11,-19 22,-43 18,-37 27,-45 66,-55 25,-7 65,-12 89,-12 33,0 47,-5 57,-21 13,-19 20,-20 86,-14 58,6 72,11 76,26 3,11 14,19 24,19 12,0 23,11 30,30 6,17 17,30 25,30 8,0 31,9 53,20 22,11 47,20 57,20 23,0 74,105 89,182 16,86 39,316 39,408 1,47 5,106 9,132 11,70 3,107 -25,114 -13,3 -24,14 -24,23 0,9 -9,22 -20,29 -11,7 -20,19 -20,27 0,8 -7,15 -15,15 -11,0 -15,11 -14,48 1,26 3,39 6,30 3,-13 15,-18 39,-18 31,0 34,2 24,19 -14,28 -12,36 5,21 12,-10 15,-10 15,1 0,17 -18,72 -46,142 -13,32 -24,74 -24,92 0,22 -7,39 -20,48 -16,11 -18,19 -11,45 5,17 12,36 15,41 10,15 66,-11 93,-43 13,-16 27,-26 30,-22 4,3 2,11 -4,17 -6,6 -8,38 -6,76 5,87 -8,95 -62,37 l -42,-44 -11,26 c -7,14 -12,31 -12,39 0,7 -6,15 -12,18 -10,3 -10,7 -1,18 8,10 9,27 3,54 -4,22 -12,79 -15,128 l -7,87 h -100 c -89,0 -99,-2 -94,-16 z m 169,-282 c -22,-3 -23,-8 -23,-80 1,-52 5,-83 15,-96 8,-11 15,-32 15,-46 0,-15 11,-62 24,-106 12,-43 26,-91 30,-107 6,-27 6,-27 -16,-10 -33,27 -60,56 -92,98 -29,37 -30,43 -27,129 2,53 9,102 17,118 8,15 14,47 14,71 v 44 l 33,-6 c 26,-4 28,-6 10,-9 z m -212,-332 c 13,0 19,-9 21,-31 3,-30 10,-37 57,-59 28,-13 23,-30 -8,-30 -24,0 -31,-4 -31,-19 0,-12 -8,-21 -22,-23 -31,-4 -33,-25 -2,-32 21,-6 25,-11 20,-30 -4,-15 1,-31 14,-46 21,-24 27,-108 21,-285 -2,-66 0,-72 28,-102 16,-18 39,-33 50,-33 11,0 23,-4 26,-10 3,-5 17,-10 31,-10 23,0 25,3 22,38 -3,34 -5,37 -31,34 -25,-3 -28,-1 -22,17 4,13 2,21 -5,21 -7,0 -6,6 4,15 20,20 66,20 66,-1 0,-13 9,-15 50,-12 48,3 50,2 50,-24 0,-49 -9,-58 -56,-58 -41,0 -44,-2 -44,-28 0,-22 8,-31 43,-50 40,-21 43,-25 45,-69 2,-43 -2,-50 -33,-76 -27,-22 -35,-36 -35,-62 0,-33 -13,-50 -54,-70 -12,-6 -25,-26 -30,-45 -9,-35 -44,-68 -98,-92 -16,-7 -28,-20 -28,-29 0,-13 -9,-17 -35,-17 -20,0 -42,-5 -49,-11 -10,-8 -16,-7 -26,4 -7,8 -21,15 -32,15 -12,0 -23,10 -29,28 -5,15 -25,38 -44,52 -19,14 -35,32 -35,41 0,9 -7,22 -16,30 -13,10 -19,10 -36,0 -17,-10 -22,-9 -34,6 -16,22 -18,45 -3,60 11,11 -5,132 -23,166 -11,21 12,24 41,5 39,-24 191,31 191,70 0,13 2,14 8,4 7,-9 15,-7 35,12 30,28 37,76 12,76 -9,0 -20,11 -25,24 -5,14 -18,30 -29,35 -23,13 -61,15 -61,4 0,-19 -45,-29 -70,-16 -14,7 -30,13 -37,13 -15,0 -58,-55 -72,-93 -8,-21 -17,-28 -33,-25 -30,4 -34,29 -9,57 21,25 18,44 -16,83 -12,13 -12,24 -3,58 6,24 9,54 5,67 -10,40 3,63 34,63 15,0 41,11 59,24 30,22 31,24 14,39 -13,12 -31,15 -60,13 -41,-5 -41,-4 -36,24 4,15 1,31 -5,34 -16,10 -13,38 7,61 23,27 89,68 100,61 5,-3 14,11 21,30 8,21 24,40 44,50 18,9 41,24 52,34 23,21 58,30 99,24 16,-2 37,-4 47,-4 z m 259,-229 c 15,-28 13,-31 -19,-31 -35,0 -56,21 -39,38 18,18 46,14 58,-7 z m -36,-88 c 4,-4 25,-6 47,-4 60,4 69,-9 69,-100 0,-69 -2,-78 -20,-84 -11,-4 -33,-17 -49,-31 l -29,-24 -20,25 c -11,14 -25,25 -30,25 -6,0 -14,9 -17,21 -9,26 -9,155 0,169 7,11 38,14 49,3 z M 828,1001 c -17,-6 -81,10 -72,19 17,16 69,16 75,0 4,-8 2,-17 -3,-19 z m 31,-57 c 10,-10 -37,-33 -78,-39 -36,-5 -47,-3 -64,13 -33,34 -13,45 67,37 39,-4 73,-9 75,-11 z" />
      <path
         id="pKyxmqfOb"
         d="m 886,1324 c -22,-21 -20,-31 7,-40 38,-13 70,-9 81,10 22,36 -56,63 -88,30 z" />
      <path
         id="pN5xIfCNv"
         d="m 1730,2200 c 0,-5 -14,-10 -31,-10 -37,0 -121,-20 -133,-31 -6,-5 -18,-9 -29,-9 -14,0 -17,-5 -12,-20 3,-11 3,-29 0,-40 -5,-17 -12,-19 -46,-14 -53,9 -71,-7 -63,-55 3,-20 12,-46 20,-58 8,-12 14,-30 14,-40 0,-10 8,-30 17,-43 55,-78 107,-329 92,-439 -6,-43 -6,-68 1,-75 18,-18 12,-114 -9,-144 -26,-37 -35,-111 -20,-164 7,-24 12,-49 10,-55 -1,-7 7,-13 18,-13 14,0 23,9 27,28 3,15 13,52 22,82 13,43 16,101 16,272 0,208 1,217 18,201 10,-9 18,-29 18,-45 0,-48 16,-68 55,-68 24,0 38,6 45,19 13,26 13,107 -1,151 -15,48 -11,121 7,142 10,10 15,31 13,55 -2,21 0,44 5,51 4,6 6,31 5,55 -2,28 4,52 14,67 9,14 17,34 17,45 0,11 9,34 20,50 11,17 20,46 20,66 0,33 -3,37 -31,43 -48,9 -99,7 -99,-4 z m 30,-26 c 0,-3 -5,-14 -10,-25 -6,-11 -7,-19 -1,-19 5,0 7,-9 4,-20 -7,-26 -39,-26 -53,-1 -14,27 -13,58 3,64 17,7 57,8 57,1 z m -53,-204 c -7,-8 -17,-19 -24,-23 -7,-4 -15,-30 -19,-57 -6,-46 -36,-92 -50,-77 -13,12 -10,99 3,104 7,3 13,15 13,26 0,31 49,68 72,54 14,-9 15,-14 5,-27 z" />
      <path
         id="p9MQxc4qA"
         d="m 44,1806 c -13,-35 56,-112 94,-104 25,5 16,34 -26,79 -39,41 -59,48 -68,25 z" />
      <path
         id="p13IwDI0pP"
         d="m 93,1510 c 3,-23 15,-52 26,-64 12,-13 21,-36 21,-55 0,-49 16,-71 52,-71 25,0 29,2 18,15 -14,16 -6,35 16,35 18,0 18,2 -5,77 -23,76 -53,112 -76,93 -14,-11 -20,-11 -37,-1 -20,13 -21,11 -15,-29 z" />
      <path
         id="p1Eht3tVp7"
         d="m 1477,793 c -4,-10 -17,-36 -30,-58 -13,-22 -27,-55 -30,-72 -6,-30 -4,-33 17,-33 13,0 35,9 50,21 24,19 26,27 26,90 0,52 -3,69 -14,69 -7,0 -16,-8 -19,-17 z" />
      <path
         id="pjDbxsVsZ"
         d="m 1329,525 c -25,-16 -65,-47 -88,-68 -24,-21 -45,-36 -48,-33 -3,3 13,28 37,56 47,56 41,68 -9,16 -18,-18 -50,-42 -72,-52 -21,-11 -42,-28 -45,-39 -4,-11 -17,-30 -30,-42 -17,-15 -24,-33 -24,-58 0,-34 1,-35 37,-35 62,0 117,35 208,135 72,78 86,98 83,122 l -3,29 z" />
    </g>
  </g>
  <g
     id="l2n0oAWcyfGu8ogOKj8I85"
     fill="#ccad9e"
     transform="matrix(1.7582589,0,0,1.7582589,0.00125032,401.61142)">
    <g
       id="g862">
      <path
         id="puehi5GPr"
         d="m 767,2252 c -43,-89 -48,-122 -12,-77 13,17 30,37 37,45 7,9 23,37 35,63 l 23,47 h -23 c -17,-1 -30,-16 -60,-78 z" />
      <path
         id="p1E7GVlz7Q"
         d="m 1040,2323 c 0,-5 8,-22 19,-38 10,-17 24,-48 31,-70 7,-22 19,-51 28,-64 22,-36 25,-157 4,-196 -11,-20 -17,-55 -17,-110 0,-76 -1,-80 -27,-93 l -27,-13 52,-53 c 29,-29 63,-66 77,-82 14,-16 36,-37 48,-46 12,-10 22,-29 22,-42 0,-35 36,-107 70,-140 21,-21 30,-39 30,-61 0,-45 11,-95 21,-95 14,0 21,39 22,132 1,64 -3,93 -11,96 -7,2 -12,11 -12,20 0,35 -21,92 -34,92 -7,0 -19,21 -26,46 -11,38 -16,45 -33,40 -14,-3 -35,6 -63,29 -40,33 -43,39 -49,99 -4,35 -3,71 2,81 8,13 13,8 28,-29 15,-35 24,-46 41,-46 20,0 22,4 17,43 -3,23 -12,52 -19,64 -8,12 -14,42 -14,67 0,39 3,45 23,48 19,3 22,9 21,48 -2,101 -28,280 -39,280 -13,0 -10,-112 5,-184 6,-27 5,-45 -3,-57 -11,-15 -16,-16 -45,-3 -26,11 -32,18 -27,33 3,11 -1,30 -9,43 -31,49 -68,114 -79,141 -10,25 -27,37 -27,20 z" />
      <path
         id="pvfW98LaV"
         d="m 1440,2322 c 0,-4 11,-19 25,-34 14,-15 25,-32 25,-38 0,-5 5,-10 10,-10 6,0 10,-15 11,-32 2,-57 13,-81 41,-89 18,-5 31,-3 38,6 6,7 27,16 47,20 20,3 47,13 60,22 17,12 37,14 75,10 28,-4 53,-8 55,-11 7,-7 -30,-66 -40,-66 -5,0 -7,-10 -4,-21 4,-14 -6,-42 -25,-77 -30,-52 -30,-55 -14,-68 17,-12 17,-14 -3,-40 -20,-25 -20,-29 -5,-51 14,-23 14,-26 0,-42 -9,-10 -16,-32 -16,-49 0,-17 -5,-43 -12,-57 -10,-22 -9,-31 7,-58 11,-18 18,-32 16,-32 -1,0 0,-12 4,-27 8,-31 29,-37 39,-12 10,26 7,132 -4,139 -16,10 -13,85 3,85 26,0 44,35 50,94 3,32 13,66 21,75 9,10 16,23 16,29 0,7 4,12 9,12 23,0 32,69 22,164 -11,107 -14,116 -42,116 -14,0 -19,7 -19,25 v 25 h -195 c -107,0 -195,-3 -195,-8 z" />
      <path
         id="p1ENLNIvQR"
         d="m 655,1978 c -4,-13 -28,-54 -53,-93 -43,-66 -53,-102 -31,-116 6,-3 6,-16 -1,-33 -5,-15 -10,-47 -10,-72 0,-33 -4,-44 -16,-44 -12,0 -15,-9 -13,-35 2,-19 -2,-40 -9,-47 -6,-6 -12,-35 -12,-63 0,-29 -9,-78 -20,-111 -24,-72 -24,-74 -5,-74 21,0 20,-49 -2,-79 -24,-36 -43,-127 -36,-182 6,-48 7,-49 40,-49 h 34 l -5,64 c -4,58 -3,63 14,59 28,-7 38,43 44,207 3,80 5,146 5,148 1,1 7,2 15,2 28,0 43,45 51,147 6,85 4,105 -9,125 -23,33 -21,47 25,144 30,63 39,92 32,103 -15,24 -31,24 -38,-1 z M 530,1185 c 0,-14 -4,-25 -10,-25 -5,0 -10,11 -10,25 0,14 5,25 10,25 6,0 10,-11 10,-25 z" />
      <path
         id="ptsmkHJCx"
         d="m 1643,1773 c -7,-3 -13,-15 -13,-27 0,-12 -7,-31 -15,-42 -8,-10 -15,-34 -15,-51 0,-18 -5,-33 -11,-33 -7,0 -9,-16 -4,-51 9,-67 10,-210 1,-231 -4,-9 -3,-25 3,-37 6,-11 11,-29 11,-40 0,-31 33,-26 53,8 18,31 21,81 8,148 l -8,42 36,3 c 26,2 37,8 39,22 2,11 0,16 -7,12 -13,-9 -31,25 -31,60 0,15 -9,38 -21,50 -17,18 -19,26 -9,43 11,21 12,119 1,125 -3,2 -12,1 -18,-1 z" />
      <path
         id="poroP8f6r"
         d="m 920,1571 c -35,-19 -109,-111 -89,-111 5,0 46,12 89,26 45,14 96,24 117,22 25,-2 38,2 41,12 3,8 9,18 14,21 5,3 -1,14 -12,24 -30,27 -116,30 -160,6 z m 95,-21 c 3,-5 -7,-12 -22,-15 -15,-3 -43,-10 -60,-14 -36,-10 -45,3 -17,23 19,14 91,18 99,6 z" />
      <path
         id="p16tR7zMGu"
         d="m 1106,1360 c -3,-22 -11,-49 -17,-58 -8,-12 -8,-50 -1,-126 8,-92 13,-111 32,-129 l 22,-22 -6,28 -7,28 36,-28 c 30,-24 32,-29 17,-35 -13,-5 -10,-7 10,-7 18,-1 26,-5 22,-14 -5,-14 84,-69 129,-81 20,-5 27,-3 27,9 0,8 -8,15 -18,15 -10,0 -33,11 -52,25 l -34,25 h 46 c 39,0 48,4 54,22 4,13 2,24 -5,26 -15,5 -14,62 2,62 8,0 11,13 9,44 l -4,44 -28,-14 c -15,-8 -31,-21 -34,-29 -3,-9 -18,-15 -36,-15 -17,0 -30,-5 -30,-12 -1,-20 -37,-58 -55,-58 -12,0 -15,5 -10,20 5,15 2,20 -14,20 -13,0 -21,9 -26,30 -4,17 -11,30 -16,30 -16,0 -9,31 22,97 29,62 30,66 16,101 -21,52 -43,53 -51,2 z m 158,-316 c 3,-9 -1,-14 -14,-14 -13,0 -20,7 -20,20 0,22 25,18 34,-6 z" />
      <path
         id="p1FtBkECgv"
         d="m 805,1070 c -11,-5 -31,-9 -45,-10 -14,0 -35,-9 -48,-20 -19,-15 -21,-23 -13,-39 11,-20 50,-29 135,-31 27,0 52,-2 54,-5 3,-2 -3,-16 -12,-30 -22,-33 -3,-33 47,0 43,30 49,55 12,55 -28,0 -32,12 -11,29 8,6 16,20 19,31 4,14 -2,20 -24,25 -36,8 -54,-1 -39,-20 8,-9 8,-15 0,-20 -5,-3 -14,5 -20,19 -10,27 -22,30 -55,16 z" />
      <path
         id="pCOacOvMc"
         d="m 1491,829 c -6,-18 -11,-53 -11,-79 0,-30 -6,-52 -15,-60 -8,-7 -12,-16 -9,-21 6,-11 64,-12 80,-1 22,14 44,72 44,117 0,38 -4,48 -20,52 -11,3 -20,9 -20,14 0,5 -9,9 -19,9 -12,0 -23,-11 -30,-31 z" />
      <path
         id="p4SqNieP8"
         d="m 513,791 c 3,-16 18,-46 32,-66 14,-21 25,-43 25,-49 0,-6 15,-43 34,-82 37,-78 53,-134 38,-134 -13,0 -23,-42 -13,-54 5,-6 12,-22 16,-35 7,-22 5,-23 -19,-19 -24,5 -27,3 -24,-21 3,-25 6,-26 63,-26 h 60 l 3,35 3,35 h 54 c 30,0 55,-3 55,-7 0,-5 17,-8 39,-8 22,0 44,-6 51,-15 14,-17 100,-21 100,-5 0,6 9,10 20,10 15,0 22,8 26,29 4,20 14,31 29,35 13,3 26,15 30,26 6,19 27,33 95,66 40,19 52,32 84,94 22,43 52,177 42,187 -2,3 -14,-17 -26,-44 -72,-159 -80,-173 -98,-173 -10,0 -35,-9 -57,-20 -22,-11 -45,-20 -53,-20 -8,0 -19,-13 -25,-30 -7,-19 -18,-30 -30,-30 -11,0 -21,-9 -24,-20 -5,-17 -11,-20 -36,-16 -17,3 -37,0 -44,-5 -8,-8 -16,-2 -28,20 -18,35 -15,34 -52,20 -21,-8 -42,-7 -80,2 -48,11 -55,16 -74,56 -11,23 -25,45 -30,48 -21,14 -79,115 -79,139 0,16 -9,39 -20,53 -11,14 -20,32 -20,39 0,9 -12,14 -36,14 -35,0 -36,-1 -31,-29 z" />
    </g>
  </g>
  <g
     id="l1AAx5jQCPv1YyowAH11sMr"
     fill="#b6a193"
     transform="matrix(1.7582589,0,0,1.7582589,0.00125032,401.61142)">
    <g
       id="g869">
      <path
         id="pVdrybwOu"
         d="m 1704,2315 c 19,-14 11,-21 -18,-16 -26,5 -58,-12 -67,-36 -14,-38 -5,-55 23,-44 13,5 31,12 42,15 18,6 18,7 0,27 -18,20 -18,20 21,17 28,-2 39,1 38,10 -2,6 3,12 11,12 8,0 22,3 31,6 13,5 16,2 15,-17 -5,-52 -1,-62 15,-49 11,9 19,10 26,3 8,-8 7,-13 0,-17 -16,-10 -13,-26 4,-26 18,0 20,-41 4,-57 -9,-9 -8,-18 3,-35 15,-24 7,-78 -13,-78 -5,0 -9,-6 -9,-14 0,-7 -6,-19 -14,-25 -17,-14 -30,-66 -27,-106 1,-22 -6,-38 -28,-60 -28,-25 -31,-35 -31,-86 0,-32 5,-61 11,-65 12,-7 3,-137 -12,-165 -8,-16 -35,-19 -55,-6 -6,3 -14,34 -17,68 -5,59 -11,78 -22,67 -13,-13 -17,-179 -6,-242 11,-63 10,-70 -10,-103 -12,-19 -24,-52 -26,-72 -4,-44 -25,-130 -67,-277 -33,-113 -32,-122 7,-137 21,-8 22,-29 1,-70 -18,-35 -34,-48 -46,-41 -17,11 -76,-49 -102,-102 -38,-77 -192,-246 -251,-274 -54,-26 -68,-21 -33,12 14,13 28,33 32,46 4,12 13,22 20,22 7,0 32,24 54,53 l 41,52 -25,3 c -14,2 -45,-6 -70,-17 -35,-17 -44,-26 -44,-46 0,-21 -5,-25 -29,-25 -21,0 -32,-6 -36,-20 -3,-11 -15,-20 -26,-20 -10,0 -19,-4 -19,-10 0,-21 -30,-8 -57,24 -26,33 -28,34 -41,15 -16,-23 -32,-25 -32,-4 0,17 -32,20 -61,5 -28,-16 -63,5 -50,29 8,15 3,24 -29,50 -37,30 -56,31 -28,2 11,-10 10,-15 -4,-25 -10,-7 -15,-16 -11,-19 3,-4 2,-7 -4,-7 -8,0 -8,-12 -1,-37 16,-64 15,-68 -12,-68 -33,0 -100,40 -100,60 0,8 -9,15 -19,15 -18,0 -33,24 -36,55 -2,36 -52,145 -65,145 -6,0 -10,-4 -10,-10 0,-5 -4,-10 -10,-10 -5,0 -10,15 -10,33 0,17 -9,46 -20,62 -11,17 -20,47 -20,70 -1,22 -7,51 -15,65 -8,14 -14,34 -15,46 0,11 -13,61 -30,110 -16,49 -30,99 -30,110 0,41 -69,235 -94,265 -17,20 -25,41 -24,65 1,23 -6,42 -20,57 -12,13 -22,28 -22,33 0,6 -29,41 -65,79 L 1,1655 0,1507 c 0,-165 -1,-162 72,-195 69,-30 130,-91 147,-146 7,-25 11,-52 8,-59 -3,-7 1,-21 9,-32 15,-20 19,-65 6,-65 -10,0 -2,-92 10,-107 6,-7 12,-29 15,-49 3,-20 20,-67 39,-105 19,-37 34,-74 34,-83 0,-8 5,-18 10,-21 6,-3 10,-16 10,-28 1,-25 35,-103 44,-99 15,6 19,1 6,-8 -21,-13 40,-96 155,-209 l 95,-93 90,4 c 75,3 93,8 113,26 29,27 37,28 37,2 0,-21 19,-60 34,-71 4,-4 39,-10 76,-13 85,-9 120,5 120,46 0,26 2,28 43,28 24,0 46,3 50,6 3,4 38,7 77,9 82,2 87,5 189,135 71,90 82,111 112,205 21,66 50,128 62,133 4,2 7,18 7,35 1,18 9,50 20,72 11,22 19,60 20,84 0,24 6,73 14,110 24,106 46,243 46,277 0,17 11,52 25,78 18,35 25,62 25,106 0,43 6,69 25,101 14,24 25,54 25,65 0,29 25,88 44,104 9,7 16,20 16,29 0,9 11,33 25,53 32,48 35,125 5,151 -19,16 -20,25 -13,182 l 6,165 h -134 c -120,-1 -132,-2 -115,-15 z" />
      <path
         id="pXihXxGAf"
         d="m 1491,2282 c -7,-2 -5,-17 6,-45 22,-59 27,-62 63,-45 l 32,15 -27,7 c -25,6 -26,8 -11,25 9,10 16,22 16,28 0,11 -58,22 -79,15 z" />
      <path
         id="pWoqGdIx4"
         d="m 481,893 c 3,-32 15,-75 25,-96 16,-34 20,-37 31,-21 11,16 13,16 19,1 11,-29 24,-19 24,19 0,49 -58,154 -86,154 -19,0 -20,-4 -13,-57 z" />
      <path
         id="p2kAuvWsT"
         d="m 580,670 c 0,-30 37,-116 46,-107 2,2 2,30 -2,61 -5,41 -12,60 -25,67 -17,8 -19,6 -19,-21 z" />
    </g>
  </g>
  <g
     id="l7WXSs80yEN1QcfiCh8TRjV"
     fill="#a68d80"
     transform="matrix(1.7582589,0,0,1.7582589,0.00125032,401.61142)">
    <g
       id="g884">
      <path
         id="pOornOzgP"
         d="m 1806,2290 c -30,-62 -8,-71 37,-16 21,24 37,47 37,50 0,3 -12,6 -27,6 -23,0 -32,-8 -47,-40 z" />
      <path
         id="p10feVYOPr"
         d="m 1913,2232 c -1,-53 -4,-132 -7,-174 -4,-72 -2,-79 20,-100 30,-29 30,-50 -1,-96 -14,-20 -25,-44 -25,-53 0,-9 -7,-22 -15,-29 -20,-17 -56,-100 -49,-111 3,-5 -8,-34 -25,-63 -26,-47 -29,-61 -25,-103 5,-39 2,-57 -20,-97 -14,-27 -26,-63 -26,-80 0,-34 -22,-171 -46,-277 -8,-37 -14,-86 -14,-110 -1,-24 -9,-62 -20,-84 -11,-22 -19,-54 -20,-72 0,-17 -3,-33 -7,-35 -12,-5 -41,-67 -62,-133 -30,-94 -41,-115 -112,-205 -83,-105 -105,-126 -145,-133 -40,-8 -49,1 -27,25 15,17 15,18 -12,18 -19,0 -40,-11 -61,-31 -29,-28 -36,-30 -62,-21 -17,6 -35,6 -43,1 -19,-12 -110,-11 -129,1 -11,7 -7,10 18,10 17,0 32,5 32,11 0,21 -61,69 -83,65 -26,-4 -34,-31 -16,-52 10,-13 7,-14 -28,-8 -35,5 -43,3 -71,-26 -18,-17 -32,-33 -32,-36 0,-2 12,-4 26,-4 14,0 39,-11 56,-25 20,-17 41,-25 66,-25 31,1 35,3 22,13 -8,7 -21,22 -28,35 -13,24 -3,29 28,12 13,-7 21,-7 25,0 9,15 25,12 25,-5 0,-11 11,-15 40,-15 46,0 52,-11 15,-28 -63,-29 9,-40 146,-23 78,10 158,63 159,106 0,29 1,30 50,30 69,0 90,23 97,104 5,49 9,61 23,61 33,0 82,100 103,210 6,32 19,61 29,68 10,7 23,23 30,35 13,25 46,193 53,276 3,30 10,60 17,68 6,7 8,16 5,19 -3,3 2,25 12,47 10,23 20,76 24,117 5,77 22,129 44,143 7,4 13,14 13,21 0,8 7,20 16,27 13,10 15,25 11,66 -3,29 -2,55 2,58 5,2 11,22 15,43 3,22 13,46 22,53 38,31 44,72 44,277 0,138 -4,202 -12,210 -9,9 -9,18 0,37 7,14 12,39 12,55 0,28 -3,30 -37,30 h -38 z" />
      <path
         id="pfvvqbz9b"
         d="m 1131,1869 c -15,-31 -18,-46 -10,-61 6,-10 11,-42 11,-69 1,-48 4,-53 50,-91 27,-23 48,-50 48,-61 0,-26 26,-67 66,-100 l 34,-29 v 32 c 0,19 -7,38 -17,45 -12,9 -17,29 -18,76 -1,70 -21,140 -66,237 -25,51 -34,62 -54,62 -19,0 -29,-10 -44,-41 z" />
      <path
         id="pGjdamrIl"
         d="m 556,1821 c -43,-48 -43,-195 0,-259 24,-35 33,-79 14,-67 -14,9 -30,-39 -30,-91 0,-66 25,-54 62,30 32,73 32,123 1,158 -15,17 -15,22 3,156 4,36 3,52 -5,52 -6,0 -11,9 -11,20 0,25 -12,25 -34,1 z" />
      <path
         id="pVFqfAuh2"
         d="m 1039,1557 c 13,-17 5,-27 -23,-27 -17,-1 -18,-2 -6,-9 22,-13 131,-34 137,-27 12,11 -68,76 -94,76 -20,0 -23,-3 -14,-13 z" />
      <path
         id="pJp7heRyY"
         d="m 0,1435 c 0,-67 3,-80 22,-96 29,-26 54,-25 28,1 -23,23 -22,76 2,94 12,9 9,16 -19,45 l -33,34 z" />
      <path
         id="pFujqMTO3"
         d="m 521,1256 c -24,-25 -36,-48 -41,-81 -6,-42 -5,-45 16,-45 33,0 66,61 62,117 l -3,44 z" />
      <path
         id="pkjF7mJ8A"
         d="m 228,1118 c -6,-33 16,-208 30,-241 7,-16 12,-38 12,-50 0,-20 2,-19 20,8 26,39 25,49 -5,93 -30,44 -31,55 -5,47 23,-7 23,-7 6,65 -13,55 -34,100 -47,100 -4,0 -9,-10 -11,-22 z" />
      <path
         id="p7zFRq58K"
         d="m 1319,1128 c -1,-7 -2,-25 -3,-40 -1,-34 -12,-45 -20,-20 -4,10 -17,24 -31,30 -22,10 -27,8 -51,-23 -14,-19 -23,-39 -19,-45 3,-5 -1,-10 -9,-10 -28,0 -17,-21 19,-36 36,-15 61,-11 50,7 -4,5 5,9 19,9 14,0 28,5 32,11 4,8 8,8 13,0 4,-5 16,-8 28,-5 16,5 22,16 26,52 3,26 1,55 -4,64 -11,21 -48,24 -50,6 z" />
      <path
         id="pWspOpMEy"
         d="m 481,976 c -11,-20 -10,-29 9,-67 12,-24 28,-51 35,-59 7,-8 18,-32 24,-52 12,-37 37,-66 47,-55 6,6 -8,56 -33,119 -9,20 -12,41 -8,47 3,6 -3,24 -14,40 -12,16 -21,34 -21,40 0,20 -26,11 -39,-13 z" />
      <path
         id="p1FvqywYj8"
         d="m 340,668 c 0,-9 5,-20 10,-23 6,-3 10,-16 10,-28 1,-26 36,-103 45,-99 4,2 9,1 13,-2 3,-3 0,-6 -6,-6 -7,0 -12,-4 -12,-9 0,-14 91,-134 97,-127 6,6 -91,207 -131,271 -15,24 -26,33 -26,23 z" />
      <path
         id="p186I439DK"
         d="m 1216,544 c -22,-8 -47,-21 -56,-29 -9,-8 -22,-15 -28,-15 -6,0 -17,-10 -23,-22 -15,-28 -30,-39 -45,-34 -20,8 -22,-50 -3,-63 27,-16 89,12 82,37 -3,14 6,25 34,42 21,13 41,23 45,22 8,-2 58,56 58,69 0,12 -17,10 -64,-7 z" />
    </g>
  </g>
  <g
     id="l234QHvCXWzHrjTbTYqfm45"
     fill="#8b786a"
     transform="matrix(1.7582589,0,0,1.7582589,0.00125032,401.61142)">
    <g
       id="g897">
      <path
         id="pMN9j0T2L"
         d="m 1951,2293 c -17,-49 -15,-102 5,-124 13,-15 14,-24 6,-48 -11,-31 -2,-48 18,-36 16,10 13,245 -3,245 -6,0 -18,-17 -26,-37 z" />
      <path
         id="p17rZ5IeFU"
         d="m 1974,1879 c -6,-8 -14,-31 -18,-51 -4,-21 -18,-51 -31,-67 -14,-16 -28,-44 -31,-63 -4,-18 -11,-39 -17,-46 -14,-17 -16,-62 -5,-85 7,-13 5,-24 -6,-36 -9,-10 -16,-23 -16,-29 0,-6 -6,-15 -13,-19 -23,-15 -39,-67 -44,-148 -3,-44 -12,-92 -20,-107 -7,-15 -15,-56 -17,-90 -1,-35 -10,-79 -18,-98 -9,-19 -22,-71 -28,-115 -14,-87 -22,-108 -52,-142 -11,-12 -26,-46 -33,-75 -23,-93 -51,-159 -87,-202 -24,-28 -37,-56 -42,-87 -8,-53 -33,-82 -71,-82 -16,0 -36,-11 -54,-32 -16,-18 -53,-50 -82,-70 -45,-30 -60,-36 -88,-31 -19,3 -40,1 -47,-5 -13,-11 -159,-14 -187,-4 -24,10 -23,-36 2,-59 29,-26 247,-36 294,-13 17,8 49,23 71,32 42,19 136,111 192,190 84,119 124,186 124,207 0,13 9,42 19,65 49,107 87,270 96,407 3,49 10,95 16,103 7,7 9,16 6,19 -8,8 35,104 73,161 18,26 54,68 81,93 l 49,45 -2,224 c -2,167 -6,221 -14,210 z" />
      <path
         id="p1Dnmm3nlk"
         d="m 1212,1753 c -5,-10 -12,-38 -15,-62 -5,-41 -3,-47 38,-89 l 43,-46 4,42 c 2,23 0,42 -4,42 -5,0 -8,16 -8,35 0,19 -4,35 -10,35 -5,0 -10,14 -10,30 0,34 -23,41 -38,13 z" />
      <path
         id="pBoPUbPVF"
         d="m 1295,1530 c -8,-13 73,-180 87,-180 17,0 -1,90 -28,136 -25,43 -49,60 -59,44 z" />
      <path
         id="pkeap4hic"
         d="m 528,1223 c -37,-44 -58,-95 -68,-163 -9,-66 -8,-76 12,-117 26,-52 44,-68 34,-30 -3,14 -2,29 4,32 5,3 10,19 10,36 0,22 -5,29 -20,29 -17,0 -18,5 -13,53 7,64 19,80 39,52 21,-29 34,-4 34,68 0,60 -7,69 -32,40 z" />
      <path
         id="p16IBpLDMY"
         d="m 812,1053 c -7,-3 -17,-16 -23,-30 -5,-13 -13,-21 -19,-18 -5,3 -10,-1 -10,-9 0,-30 92,-33 126,-5 11,9 8,17 -14,40 -27,29 -35,32 -60,22 z" />
      <path
         id="pVHU7PuJp"
         d="m 1175,509 c -4,-5 -19,-15 -33,-20 -26,-10 -26,-11 -8,-25 12,-8 29,-11 40,-8 28,9 76,43 76,55 0,13 -67,11 -75,-2 z" />
      <path
         id="p1BskCqfaO"
         d="m 1309,363 c -25,-4 -138,-107 -128,-117 6,-7 117,59 147,87 22,20 29,38 15,36 -5,-1 -20,-4 -34,-6 z" />
      <path
         id="pHa1O8u1h"
         d="m 615,261 c -6,-10 17,-30 68,-60 20,-13 37,-26 37,-30 0,-10 66,-13 103,-5 26,5 28,9 25,47 -3,35 -6,42 -23,39 -11,-1 -41,-5 -67,-8 -30,-4 -61,-1 -92,9 -25,9 -48,12 -51,8 z" />
      <path
         id="pAQG9LoDz"
         d="m 956,257 c 6,-16 47,-37 73,-37 9,0 26,6 37,14 23,17 15,21 -63,31 -43,4 -52,3 -47,-8 z" />
    </g>
  </g>
  <g
     id="l2FnBdhyuWktAboQdu5jv9K"
     fill="#6d5b4e"
     transform="matrix(1.7582589,0,0,1.7582589,0.00125032,401.61142)">
    <g
       id="g904">
      <path
         id="p14ahFaucE"
         d="m 1287,1050 c -45,-16 -46,-17 -29,-33 22,-20 73,-22 90,-5 16,16 15,58 0,57 -7,-1 -34,-9 -61,-19 z" />
      <path
         id="pV3ALcH7V"
         d="m 720,1005 c 0,-33 99,-48 149,-22 29,15 28,33 -2,29 -53,-7 -99,-7 -103,0 -9,14 -44,8 -44,-7 z" />
      <path
         id="ppZ1oywxe"
         d="m 1636,588 c -7,-13 -16,-35 -20,-50 -3,-15 -15,-32 -26,-38 -11,-6 -31,-28 -44,-48 -20,-32 -24,-52 -17,-95 2,-12 71,72 71,87 0,6 11,27 23,46 21,31 45,120 32,120 -2,0 -11,-10 -19,-22 z" />
      <path
         id="p11ZaxHZ2q"
         d="m 828,257 c -39,-21 -49,-37 -23,-37 8,0 15,-4 15,-9 0,-13 -32,-19 -55,-11 -11,4 -28,5 -38,2 -27,-7 -12,-40 37,-84 43,-39 60,-45 71,-27 5,7 13,5 25,-6 11,-10 24,-14 32,-9 18,11 91,14 103,4 5,-4 49,-7 96,-6 80,1 91,4 180,48 64,32 86,47 70,48 -20,0 -22,3 -13,12 28,28 8,25 -55,-8 -67,-36 -69,-36 -161,-30 -100,6 -94,3 -211,102 l -36,31 z" />
    </g>
  </g>
</svg>
