<?xml version="1.0" encoding="UTF-8" standalone="no"?>
<svg
   xmlns:dc="http://purl.org/dc/elements/1.1/"
   xmlns:cc="http://creativecommons.org/ns#"
   xmlns:rdf="http://www.w3.org/1999/02/22-rdf-syntax-ns#"
   xmlns:svg="http://www.w3.org/2000/svg"
   xmlns="http://www.w3.org/2000/svg"
   class="img-fluid"
   id="outputsvg"
   width="350"
   height="450"
   viewBox="0 0 3500 4500"
   version="1.1">
  <metadata
     id="metadata140">
    <rdf:RDF>
      <cc:Work
         rdf:about="">
        <dc:format>image/svg+xml</dc:format>
        <dc:type
           rdf:resource="http://purl.org/dc/dcmitype/StillImage" />
        <dc:title></dc:title>
      </cc:Work>
    </rdf:RDF>
  </metadata>
  <defs
     id="defs138" />
  <g
     id="l2kI3CMgT23RGmH7wqsS9M9"
     fill="#152e3b"
     transform="matrix(3.2679739,0,0,3.2679739,3.2679739,22.875855)">
    <g
       id="g77">
      <path
         id="pYlgA99i2"
         d="m 2,1278 c 3,-84 5,-93 23,-96 11,-2 27,-10 35,-17 30,-26 154,-68 214,-72 l 61,-5 45,55 c 25,30 76,76 113,102 l 68,47 48,-31 c 26,-17 53,-31 58,-31 6,0 21,-11 34,-25 13,-13 29,-25 35,-25 12,0 88,-81 105,-112 9,-17 18,-19 57,-15 26,3 75,15 110,27 l 62,22 v 134 134 H 535 -1 Z" />
    </g>
  </g>
  <g
     id="l3PsUGtbSzvZfjtw1GnzxPC"
     fill="#5d5850"
     transform="matrix(3.2679739,0,0,3.2679739,3.2679739,22.875855)">
    <g
       id="g85">
      <path
         id="pxgc915WM"
         d="m 459,1273 c -37,-26 -72,-55 -78,-65 -10,-16 -8,-18 19,-18 20,0 30,5 30,15 0,8 9,15 20,15 13,0 20,7 20,19 0,21 44,31 133,30 54,0 59,9 18,34 -49,29 -89,21 -162,-30 z" />
      <path
         id="pyDePI2WE"
         d="m 662,1243 c 2,-22 10,-30 36,-38 17,-5 32,-15 32,-22 0,-9 14,-13 42,-13 40,0 41,0 23,20 -10,11 -24,20 -31,20 -7,0 -17,6 -21,14 -8,14 -60,46 -76,46 -5,0 -7,-12 -5,-27 z" />
      <path
         id="pfyMBL74B"
         d="m 820,1126 c 0,-32 3,-36 25,-36 14,0 25,4 25,9 0,4 -11,20 -25,35 l -25,27 z" />
      <path
         id="p12ELZBBbK"
         d="m 485,1026 c -48,-18 -55,-25 -55,-62 v -34 h 78 c 72,0 81,-2 103,-26 13,-14 37,-33 54,-41 28,-15 28,-17 10,-24 -11,-4 -41,-8 -67,-8 -65,-1 -78,-8 -78,-42 0,-24 -5,-30 -32,-37 -29,-7 -33,-13 -36,-45 -3,-36 -2,-37 32,-37 19,0 38,-4 41,-10 7,-11 64,-14 89,-4 11,4 16,19 16,45 0,28 4,39 15,39 9,0 15,-10 15,-26 0,-17 6,-28 20,-31 14,-4 20,-14 20,-35 0,-16 5,-38 11,-50 6,-11 9,-21 7,-23 -2,-3 -42,-7 -88,-11 -47,-4 -91,-11 -97,-17 -7,-5 -13,-24 -13,-43 0,-42 21,-54 94,-54 52,0 70,-10 46,-25 -11,-7 -14,-84 -4,-109 4,-11 19,-16 44,-16 32,0 39,4 50,30 7,16 20,32 30,35 15,5 19,22 25,100 4,52 5,124 3,160 -2,36 0,65 4,65 9,0 11,61 2,84 -4,11 -20,16 -48,17 -22,1 -31,4 -18,6 33,7 30,68 -9,148 -28,58 -35,65 -76,79 -53,18 -143,19 -188,2 z" />
      <path
         id="pwPSfbBdE"
         d="m 320,536 c 0,-30 4,-36 35,-46 19,-6 35,-16 35,-21 0,-10 89,-12 114,-3 10,4 16,18 16,41 0,29 -5,36 -35,49 -19,7 -64,14 -100,14 h -65 z" />
    </g>
  </g>
  <g
     id="l5uZ577SpkIGxf6bqzT0O7O"
     fill="#807266"
     transform="matrix(3.2679739,0,0,3.2679739,3.2679739,22.875855)">
    <g
       id="g92">
      <path
         id="pY47Ai3uo"
         d="m 600,1275 c 0,-22 4,-25 40,-25 47,0 51,9 11,33 -40,23 -51,21 -51,-8 z" />
      <path
         id="pHiHYgXuy"
         d="m 623,1173 c -15,-3 -23,-12 -23,-24 0,-12 -7,-19 -19,-19 -36,0 -51,-12 -51,-39 0,-29 -34,-54 -93,-66 -34,-7 -67,-58 -67,-104 v -34 l 53,8 c 65,10 168,8 178,-2 5,-4 -16,-6 -46,-5 l -55,4 v -31 c 0,-30 -1,-31 -45,-31 h -45 v -40 -40 h 50 c 28,0 50,-4 50,-10 0,-5 -11,-10 -25,-10 -22,0 -25,-4 -25,-35 0,-34 1,-35 39,-35 47,0 60,-23 40,-69 -12,-28 -14,-28 -76,-23 -41,3 -63,1 -63,-6 0,-6 -10,-13 -22,-15 -17,-3 -14,-5 10,-6 18,0 49,-8 70,-16 29,-13 34,-18 22,-25 -19,-12 -60,-13 -60,-1 0,5 -14,14 -31,20 l -30,10 3,-37 3,-37 75,-2 c 131,-5 170,-13 170,-36 0,-11 5,-37 11,-58 10,-32 9,-42 -5,-64 -14,-21 -24,-25 -66,-25 h -50 v -34 c 0,-31 3,-34 38,-40 53,-8 92,-7 92,3 0,5 19,11 42,15 27,4 49,16 65,34 27,31 53,103 53,144 0,27 -1,28 -16,14 -8,-9 -19,-16 -24,-16 -4,0 -13,-13 -20,-30 -7,-16 -16,-30 -21,-30 -14,0 -21,42 -11,64 6,11 13,28 16,36 4,8 17,35 31,59 28,49 31,76 14,118 -7,15 -15,46 -18,68 -3,22 -11,40 -18,40 -17,0 -20,6 -26,55 l -6,45 15,-34 c 14,-30 18,-33 49,-27 22,5 35,2 39,-6 3,-7 3,16 0,52 -3,36 -6,117 -8,180 -3,118 -15,170 -40,170 -7,0 -19,7 -26,15 -12,14 -49,17 -97,8 z m 20,-179 c 42,-14 48,-21 77,-80 32,-66 37,-116 6,-56 -9,17 -21,32 -26,32 -6,0 -27,16 -49,35 -37,34 -41,35 -117,35 -83,0 -90,11 -22,36 47,17 78,16 131,-2 z m -9,-200 c 26,-10 18,-24 -13,-24 -42,0 -66,10 -49,21 15,10 40,11 62,3 z m -33,-80 c 10,-13 10,-17 -2,-25 -18,-11 -26,-11 -34,1 -3,6 -23,10 -43,10 -56,0 -17,25 44,29 12,0 27,-6 35,-15 z m 90,-94 c 33,-18 21,-30 -32,-30 h -51 l 23,20 c 28,23 34,24 60,10 z m 23,-101 c -3,-5 -14,-9 -24,-9 -10,0 -25,-7 -34,-15 -18,-18 -56,-19 -80,-2 -27,20 -1,35 64,39 62,3 82,0 74,-13 z" />
      <path
         id="p132dpFu56"
         d="m 785,576 c 0,-52 3,-92 8,-89 4,2 7,17 7,34 0,24 4,29 25,29 23,0 25,4 25,46 0,48 -16,74 -47,74 -16,0 -18,-10 -18,-94 z" />
      <path
         id="p10MFXaDvx"
         d="m 260,280 c 0,-37 4,-52 18,-59 27,-14 107,-24 141,-16 27,6 31,11 31,41 0,31 -4,37 -37,50 -21,8 -46,19 -55,24 -10,6 -36,10 -58,10 h -40 z" />
    </g>
  </g>
  <g
     id="l4b6NCKLLp4suvoINgYqSKM"
     fill="#6c7b83"
     transform="matrix(3.2679739,0,0,3.2679739,3.2679739,22.875855)">
    <g
       id="g103">
      <path
         id="pzwJYErLn"
         d="m 590,1284 c 0,-21 5,-24 35,-24 19,0 35,5 35,10 0,6 -7,10 -15,10 -8,0 -15,4 -15,9 0,5 -9,11 -20,14 -16,4 -20,0 -20,-19 z" />
      <path
         id="pYKlWhijg"
         d="m 432,1250 c -28,-21 -67,-60 -89,-85 -32,-39 -42,-45 -63,-40 -14,3 -35,7 -46,9 -12,2 -31,9 -42,15 -11,6 -30,11 -41,11 -11,0 -32,11 -48,24 -16,13 -46,28 -67,31 -35,7 -37,6 -34,-15 2,-17 16,-27 58,-43 30,-11 57,-24 60,-28 10,-15 142,-69 169,-69 28,0 61,26 61,48 0,7 5,12 10,12 6,0 10,9 10,20 0,13 7,20 20,20 15,0 20,7 20,25 0,20 5,25 25,25 16,0 25,6 25,15 0,9 9,15 25,15 20,0 25,5 25,25 0,35 -20,32 -78,-15 z" />
      <path
         id="p2H5SMtY2"
         d="m 742,1188 c 2,-23 10,-36 26,-43 12,-5 22,-13 22,-17 0,-5 14,-8 31,-8 h 32 l -25,32 c -14,18 -40,41 -57,50 l -32,18 z" />
      <path
         id="pEKRN3I3Y"
         d="m 1030,1125 c -14,-8 -35,-14 -46,-15 -12,0 -35,-7 -50,-15 -38,-19 -51,-19 -63,3 -8,14 -10,10 -11,-20 0,-48 7,-48 122,-7 68,25 88,36 88,50 0,22 -7,23 -40,4 z" />
      <path
         id="pxQKwEbLe"
         d="m 760,831 c 5,-11 10,-31 10,-45 0,-14 4,-26 9,-26 15,0 22,-33 9,-42 -9,-5 -3,-8 16,-8 h 28 l -7,57 c -9,77 -13,83 -46,83 -26,0 -28,-2 -19,-19 z" />
      <path
         id="pSw0M9mMF"
         d="m 820,601 c 0,-13 -5,-19 -14,-15 -11,4 -15,-15 -21,-90 -4,-53 -11,-96 -15,-96 -5,0 -16,-21 -24,-47 -20,-59 -52,-98 -90,-107 -26,-6 -28,-5 -16,9 18,22 9,27 -36,17 -22,-4 -52,-5 -69,-1 -16,4 -56,7 -87,8 -57,1 -75,-10 -40,-24 15,-6 14,-8 -6,-16 -13,-5 -28,-7 -33,-3 -5,3 -9,-3 -9,-13 0,-15 13,-22 63,-32 34,-7 72,-15 85,-18 17,-4 22,-12 22,-39 v -34 h 58 c 46,0 63,4 77,20 10,11 26,20 36,20 31,0 57,39 65,97 4,35 15,64 30,83 13,15 24,35 24,43 0,10 11,17 27,19 24,3 29,9 36,48 8,46 -6,120 -23,120 -5,0 -10,14 -12,32 -3,35 -28,52 -28,19 z M 600,230 c 0,-5 -14,-7 -32,-3 -46,8 -48,13 -5,13 21,0 37,-4 37,-10 z" />
      <path
         id="p17Ic5LLJf"
         d="m 200,465 c 0,-71 11,-85 68,-85 34,0 42,14 42,70 0,49 -30,80 -77,80 h -33 z" />
      <path
         id="pZRXbh7a1"
         d="m 230,350 c 0,-11 5,-40 12,-65 12,-43 14,-45 48,-45 28,1 32,2 18,11 -10,5 -18,19 -18,31 0,15 5,19 20,15 23,-6 27,20 10,54 -16,28 -90,28 -90,-1 z" />
    </g>
  </g>
  <g
     id="l4UvxrF2ZYXgJcF7jJPv1LW"
     fill="#978a7e"
     transform="matrix(3.2679739,0,0,3.2679739,3.2679739,22.875855)">
    <g
       id="g110">
      <path
         id="pMhi4WQ6l"
         d="m 406,1229 c -34,-27 -33,-39 4,-39 27,0 30,3 30,30 0,36 0,36 -34,9 z" />
      <path
         id="p1GX10wI3g"
         d="m 690,1230 c 0,-6 -32,-10 -75,-10 -72,0 -75,-1 -75,-24 0,-13 -6,-26 -14,-29 -8,-3 -16,-16 -18,-29 -2,-18 -12,-24 -45,-31 -40,-8 -43,-10 -43,-41 0,-25 -5,-35 -20,-39 -26,-7 -80,-125 -80,-177 0,-22 -5,-40 -10,-40 -6,0 -19,-19 -30,-42 -10,-24 -27,-56 -37,-72 -10,-16 -14,-30 -8,-32 12,-5 7,-125 -6,-138 -5,-6 -8,-26 -8,-45 1,-34 2,-35 8,-8 l 6,28 23,-21 c 12,-11 22,-25 22,-30 0,-21 -13,-38 -26,-33 -9,3 -14,-2 -14,-16 0,-12 5,-21 10,-21 6,0 10,-5 10,-10 0,-6 6,-18 12,-27 54,-66 118,-92 254,-100 99,-6 102,-5 117,18 20,29 23,94 8,132 -15,38 -15,38 14,31 27,-7 55,9 55,31 0,9 -24,14 -84,16 -46,2 -87,6 -90,9 -6,7 19,85 28,85 3,0 14,-8 26,-17 19,-17 50,-15 50,3 0,14 34,11 56,-6 42,-32 61,-7 41,57 -7,24 -21,45 -34,51 -25,11 -25,12 -23,79 2,51 -11,101 -41,158 -17,33 -23,36 -89,47 -59,10 -78,9 -112,-3 -23,-8 -43,-13 -44,-11 -10,10 40,67 63,72 15,4 45,14 66,23 33,15 37,20 33,44 -6,29 17,46 39,28 16,-13 25,-3 26,29 0,26 0,26 11,4 15,-31 28,-29 28,4 v 26 l 26,-24 c 14,-13 29,-22 32,-19 15,11 28,-88 22,-165 -8,-85 -1,-113 31,-133 27,-17 35,7 20,57 -16,56 -14,82 11,109 19,19 23,35 23,85 0,54 -3,62 -20,65 -24,5 -38,24 -24,33 12,7 -65,79 -86,79 -8,0 -15,-4 -15,-10 z M 548,893 c -10,-2 -28,-2 -40,0 -13,2 -5,4 17,4 22,1 32,-1 23,-4 z m -70,-53 -4,-40 h 58 58 l -20,20 c -11,11 -24,20 -30,20 -5,0 -10,5 -10,10 0,15 28,12 55,-6 21,-14 28,-14 42,-3 15,13 16,11 10,-18 -5,-28 -4,-33 12,-33 10,0 21,-9 24,-19 4,-15 0,-19 -17,-17 -12,1 -28,6 -35,11 -23,14 -151,19 -151,6 0,-6 -9,-11 -20,-11 -11,0 -20,5 -20,10 0,6 9,18 20,27 12,11 20,30 20,50 0,18 3,33 6,33 3,0 4,-18 2,-40 z M 621,713 c 36,-7 37,-19 2,-55 -34,-35 -39,-35 -46,2 -6,27 -10,30 -48,30 -43,0 -52,22 -11,28 12,2 22,7 22,12 0,14 45,16 48,2 2,-7 17,-15 33,-19 z M 480,660 c 0,-5 14,-10 31,-10 26,0 30,-3 24,-17 -5,-10 -10,-34 -13,-53 -5,-32 -6,-33 -12,-10 -5,23 -11,25 -63,28 -35,2 -57,-1 -57,-8 0,-5 -9,-10 -21,-10 -32,0 -21,41 16,59 17,8 37,18 45,22 22,11 50,11 50,-1 z m 194,-45 c 3,-9 0,-15 -9,-15 -8,0 -15,7 -15,15 0,8 4,15 9,15 5,0 11,-7 15,-15 z M 504,521 c 24,-20 8,-30 -53,-38 -47,-5 -53,-4 -57,14 -3,12 -15,26 -27,32 -18,9 -8,10 49,8 42,-1 78,-8 88,-16 z m 30,-92 c 6,-5 20,-9 32,-9 17,0 23,-8 27,-35 3,-19 3,-51 0,-70 -5,-30 -8,-34 -32,-30 -14,2 -47,6 -74,9 -57,7 -136,44 -117,56 8,5 11,23 9,51 l -4,44 75,-3 c 41,-2 79,-8 84,-13 z" />
      <path
         id="pUelk5lVT"
         d="m 800,735 c 0,-8 -4,-15 -10,-15 -19,0 -11,-72 10,-90 14,-12 19,-28 17,-56 -1,-29 5,-47 20,-63 12,-13 19,-29 16,-37 -3,-9 2,-14 16,-14 25,0 25,-1 6,92 -24,115 -25,118 -40,118 -11,0 -15,11 -15,40 0,22 -4,40 -10,40 -5,0 -10,-7 -10,-15 z" />
      <path
         id="p6VZBzKlu"
         d="m 393,223 c 9,-2 25,-2 35,0 9,3 1,5 -18,5 -19,0 -27,-2 -17,-5 z" />
    </g>
  </g>
  <g
     id="l6R7jDWiUYiaGsVLB92nclK"
     fill="#7b9bad"
     transform="matrix(3.2679739,0,0,3.2679739,3.2679739,22.875855)">
    <g
       id="g118">
      <path
         id="p10JJtnRUn"
         d="m 2,1194 c 2,-9 21,-23 42,-31 68,-23 62,3 -7,32 -36,15 -38,15 -35,-1 z" />
      <path
         id="pMnO7Nr0n"
         d="m 110,1155 c 0,-6 4,-15 8,-22 8,-12 103,-58 152,-73 14,-4 33,-11 43,-15 15,-6 17,-1 17,41 v 47 l -22,-21 c -21,-18 -26,-19 -48,-7 -14,8 -35,14 -47,15 -12,0 -25,5 -28,10 -3,6 -16,10 -29,10 -12,0 -27,5 -34,12 -7,7 -12,8 -12,3 z" />
      <path
         id="pTB7BOJeU"
         d="m 860,1067 c 0,-42 3,-43 54,-22 41,17 49,39 11,29 -18,-4 -32,-1 -45,11 -20,18 -20,17 -20,-18 z" />
      <path
         id="p67dAiCTy"
         d="m 180,419 c 0,-34 6,-58 18,-72 18,-23 62,-36 62,-18 0,5 12,9 27,8 22,-2 29,3 31,21 2,15 -2,22 -12,22 -9,0 -16,6 -16,13 0,7 -13,18 -30,24 -20,8 -30,18 -30,32 0,16 -6,21 -25,21 -23,0 -25,-3 -25,-51 z" />
      <path
         id="p3pNlyldr"
         d="m 803,424 c -7,-7 -13,-21 -13,-30 0,-10 -10,-28 -21,-40 -18,-20 -31,-56 -43,-124 -5,-34 -28,-60 -50,-60 -13,0 -31,-9 -41,-20 -11,-12 -31,-20 -49,-20 h -31 l 28,24 c 33,29 35,40 3,32 -13,-3 -26,-2 -28,4 -3,9 -44,19 -182,44 -58,11 -74,18 -96,44 -15,18 -29,32 -33,32 -3,0 -4,-19 -3,-43 3,-47 26,-101 34,-79 5,16 52,-24 52,-44 0,-16 45,-37 124,-60 48,-13 69,-14 112,-6 120,24 223,105 282,221 32,64 42,124 21,137 -7,4 -16,-1 -21,-10 -11,-20 -25,-21 -30,-2 -2,12 -5,12 -15,0 z" />
    </g>
  </g>
  <g
     id="lb9igfdh9kLBfwElLcdTDK"
     fill="#a99a8e"
     transform="matrix(3.2679739,0,0,3.2679739,3.2679739,22.875855)">
    <g
       id="g126">
      <path
         id="pw6sLqnxI"
         d="m 515,1302 c -16,-10 -32,-19 -35,-22 -3,-3 -14,-10 -25,-16 -11,-7 -19,-19 -19,-28 1,-9 -6,-16 -15,-16 -23,0 -89,-64 -97,-94 -3,-14 -3,-43 0,-64 11,-59 7,-154 -8,-192 -23,-59 -36,-105 -36,-125 0,-23 16,-9 23,20 3,13 5,7 6,-14 1,-28 3,-31 15,-22 15,12 31,80 28,116 -1,11 13,49 31,85 27,54 36,64 55,62 27,-4 40,23 24,49 -17,27 -16,28 28,35 39,6 68,33 53,48 -4,4 3,9 15,13 17,4 21,10 16,29 -5,20 -2,24 15,24 13,0 26,-10 33,-25 13,-30 42,-35 33,-6 -8,27 12,36 25,12 14,-28 37,-16 43,22 6,38 -8,52 -96,97 -65,34 -71,35 -112,12 z" />
      <path
         id="poTawibvm"
         d="m 747,1183 c -22,-21 9,-93 38,-90 17,2 20,-4 19,-30 -2,-29 1,-33 22,-33 22,0 24,4 24,48 -1,49 -16,76 -58,100 -25,14 -36,15 -45,5 z" />
      <path
         id="p1EjYi4tfC"
         d="m 498,933 c -43,-5 -59,-21 -63,-62 -1,-16 -9,-37 -18,-46 -10,-9 -17,-25 -17,-35 0,-10 -4,-21 -10,-25 -16,-10 1,-35 25,-35 12,0 29,-7 36,-17 13,-15 11,-16 -13,-11 -17,3 -29,0 -32,-8 -3,-8 -14,-14 -23,-14 -26,0 -63,-28 -63,-48 0,-9 -11,-30 -25,-47 l -24,-30 -1,26 c 0,14 5,41 12,59 9,28 8,35 -5,45 -12,9 -14,14 -5,23 9,9 9,12 -2,12 -22,0 -60,-74 -60,-114 0,-20 5,-36 10,-36 6,0 10,-15 10,-34 0,-39 14,-53 34,-37 10,9 17,6 30,-13 9,-14 16,-35 16,-47 0,-12 3,-19 7,-16 9,9 33,-12 33,-29 0,-9 -11,-14 -27,-14 -16,0 -36,-7 -46,-15 -18,-13 -18,-14 3,-35 11,-11 25,-18 29,-15 5,2 29,-7 54,-20 31,-18 72,-29 129,-35 131,-15 122,-19 137,51 11,47 11,66 3,80 -18,29 -15,39 21,55 l 32,15 -54,-4 c -41,-3 -63,0 -88,14 -27,15 -37,17 -58,7 -19,-9 -41,-9 -87,0 -65,12 -79,22 -70,54 4,16 11,19 32,15 33,-7 72,2 64,14 -3,5 7,9 21,9 18,0 29,-6 32,-19 5,-21 46,-46 61,-37 10,6 18,40 28,124 6,41 5,42 -22,42 -16,0 -36,5 -44,10 -12,7 -11,13 10,34 13,15 31,26 41,26 10,0 20,4 23,9 3,5 -26,12 -64,15 -39,4 -70,11 -70,17 0,5 35,10 78,10 42,1 64,4 47,6 -70,11 -70,46 0,53 40,4 51,9 53,25 3,21 -43,57 -70,53 -7,-1 -30,-3 -50,-5 z" />
      <path
         id="p6WhwkaVe"
         d="m 790,675 c 0,-20 5,-35 11,-35 7,0 18,-8 25,-17 10,-14 15,-15 25,-6 10,10 10,21 -1,53 -10,31 -18,40 -37,40 -20,0 -23,-5 -23,-35 z" />
      <path
         id="pP1wZOJKL"
         d="m 633,668 c -6,-7 -13,-25 -17,-40 -3,-14 -9,-33 -12,-42 -5,-13 1,-16 30,-16 20,0 48,-8 63,-17 24,-16 26,-16 39,2 21,28 18,36 -27,83 -43,44 -60,50 -76,30 z" />
    </g>
  </g>
</svg>
