<?xml version="1.0" encoding="UTF-8" standalone="no"?>
<svg
   xmlns:dc="http://purl.org/dc/elements/1.1/"
   xmlns:cc="http://creativecommons.org/ns#"
   xmlns:rdf="http://www.w3.org/1999/02/22-rdf-syntax-ns#"
   xmlns:svg="http://www.w3.org/2000/svg"
   xmlns="http://www.w3.org/2000/svg"
   class="img-fluid"
   id="outputsvg"
   width="350"
   height="450"
   viewBox="0 0 3500 4500"
   version="1.1">
  <metadata
     id="metadata258">
    <rdf:RDF>
      <cc:Work
         rdf:about="">
        <dc:format>image/svg+xml</dc:format>
        <dc:type
           rdf:resource="http://purl.org/dc/dcmitype/StillImage" />
        <dc:title></dc:title>
      </cc:Work>
    </rdf:RDF>
  </metadata>
  <defs
     id="defs256" />
  <g
     id="l6Pb4kfNmCOYCvZUbHcNbv4"
     fill="#bdbdbd"
     transform="matrix(0.60763889,0,0,0.60763889,0,3.4612871)">
    <g
       id="g138">
      <path
         id="p151vFW5VD"
         d="m 37,7393 c -4,-3 -7,-14 -7,-23 0,-10 -7,-24 -16,-31 -15,-12 -16,-29 -9,-134 4,-66 7,-136 6,-155 -1,-19 1,-50 4,-67 5,-30 9,-33 40,-33 32,0 35,2 35,30 0,16 11,54 25,84 17,37 25,72 25,110 0,30 5,58 10,61 15,9 12,88 -5,129 -14,33 -18,36 -58,36 -24,0 -47,-3 -50,-7 z" />
      <path
         id="pwFsU5QWI"
         d="m 3628,6614 c -72,-122 -84,-174 -69,-298 14,-106 49,-232 93,-328 28,-62 34,-68 60,-68 33,0 67,33 68,65 0,16 11,24 44,34 36,10 48,20 61,49 9,21 30,62 46,92 16,30 29,61 29,69 0,20 66,82 96,90 28,7 44,31 68,106 25,79 21,106 -21,133 -19,12 -53,28 -74,35 -22,6 -39,15 -39,19 0,5 -6,8 -14,8 -23,0 -140,56 -155,73 -10,13 -30,17 -75,17 h -61 z" />
      <path
         id="p4jA87xL3"
         d="m 2930,6653 v -50 l -82,-9 -83,-9 -3,-55 c -4,-58 12,-208 30,-274 l 9,-39 47,6 c 26,3 61,9 77,12 21,4 37,0 53,-15 l 24,-20 -22,-45 c -30,-62 -51,-75 -111,-68 -56,7 -55,10 -42,-106 l 6,-63 41,4 c 32,4 48,-1 73,-20 18,-13 35,-32 38,-43 4,-13 16,-19 36,-19 23,0 29,-4 29,-21 0,-21 4,-21 83,-17 111,6 172,35 198,93 28,62 56,269 65,478 8,172 3,210 -31,225 -14,6 -25,18 -25,26 0,10 -14,18 -37,22 -21,4 -51,14 -68,22 -16,9 -59,17 -95,19 -36,2 -98,6 -137,9 l -73,7 z m 251,-574 c 3,-15 3,-33 -2,-40 -5,-8 -9,-33 -9,-55 0,-47 -24,-79 -33,-44 -3,13 -14,20 -29,21 h -23 l 23,9 c 17,7 22,17 22,43 0,60 11,98 28,95 9,-2 19,-15 23,-29 z" />
    </g>
  </g>
  <g
     id="l5gBl1Fz3o9cLZg1rUg5dEV"
     fill="#a0a0a0"
     transform="matrix(0.60763889,0,0,0.60763889,0,3.4612871)">
    <g
       id="g153">
      <path
         id="p9nXprhyI"
         d="m 0,7068 v -331 l 105,6 c 63,4 105,2 105,-4 0,-5 17,-9 38,-9 37,0 40,2 51,41 8,26 20,43 32,46 16,4 19,14 19,55 0,45 4,55 44,100 33,35 47,60 51,91 8,49 1,258 -10,305 l -7,32 H 259 c -93,0 -169,-4 -169,-8 0,-5 9,-27 20,-50 22,-46 25,-68 10,-77 -5,-3 -10,-31 -10,-61 0,-38 -8,-73 -25,-110 -14,-30 -25,-69 -25,-86 0,-70 -11,-14 -16,83 -10,182 -10,210 3,221 7,6 13,19 13,29 0,10 5,21 10,24 6,3 10,13 10,21 0,10 -12,14 -40,14 H 0 Z" />
      <path
         id="pjb6NN50S"
         d="m 1413,7385 c -7,-21 2,-99 19,-153 10,-31 18,-42 33,-42 11,0 28,-9 38,-20 16,-19 16,-20 -18,-20 h -35 v -68 c 0,-47 6,-79 19,-106 15,-28 17,-44 10,-63 -5,-13 -9,-54 -9,-91 1,-111 48,-139 152,-90 45,21 48,25 59,77 7,35 8,72 3,100 -11,59 -8,202 5,244 5,17 11,79 13,137 l 3,105 -143,3 c -123,2 -143,0 -149,-13 z" />
      <path
         id="p10XIsN3DH"
         d="m 3156,7373 c -9,-16 -18,-35 -22,-45 -3,-9 -14,-18 -24,-21 -10,-3 -21,-18 -25,-38 -8,-34 -93,-126 -199,-216 -48,-40 -50,-44 -54,-101 -4,-60 -4,-61 28,-77 20,-11 49,-16 76,-13 50,4 58,-11 17,-29 -16,-7 -41,-25 -58,-40 -48,-45 -113,-83 -139,-83 h -25 l 4,-192 c 2,-106 8,-220 14,-253 6,-33 11,-81 11,-107 0,-28 6,-53 15,-62 8,-8 15,-24 15,-36 0,-13 9,-24 26,-30 36,-14 43,-13 38,8 -4,15 1,17 41,14 58,-5 84,12 118,78 37,72 35,92 -13,125 -41,28 -49,29 -132,7 -38,-10 -38,-10 -47,27 -16,58 -35,236 -28,254 3,9 17,17 29,17 13,0 50,2 83,5 l 60,4 -3,50 c -4,59 -3,60 90,36 43,-12 63,-13 73,-5 9,8 25,6 56,-5 24,-9 63,-21 87,-27 25,-6 42,-15 42,-24 0,-36 33,-4 118,115 51,70 92,131 92,135 0,4 25,46 55,93 71,112 73,146 14,210 -56,61 -79,115 -79,191 v 62 h -169 -170 z" />
      <path
         id="p1AQADg3Lp"
         d="m 2495,7313 c -32,-8 -43,-34 -51,-111 -6,-67 -5,-75 16,-96 14,-16 18,-26 11,-31 -6,-3 -11,-22 -11,-41 0,-32 2,-34 34,-34 18,0 39,7 46,15 7,8 23,15 35,15 12,0 28,7 35,15 7,8 19,15 26,15 8,0 19,11 24,25 5,13 27,42 50,65 64,64 50,115 -44,154 -36,15 -127,20 -171,9 z" />
      <path
         id="p161ntQvEU"
         d="m 3938,6593 c 15,-3 22,-10 18,-18 -4,-10 3,-14 24,-12 21,1 30,7 30,20 0,14 -8,17 -47,16 -27,-1 -38,-4 -25,-6 z" />
      <path
         id="pVzpPK2fr"
         d="m 2328,6392 c -15,-9 -29,-26 -30,-37 -3,-18 -9,-20 -65,-17 -56,4 -62,2 -74,-20 -6,-12 -23,-36 -35,-51 -13,-16 -24,-37 -24,-47 0,-11 -13,-29 -30,-42 -24,-17 -30,-29 -30,-58 0,-35 -28,-80 -50,-80 -6,0 -10,-23 -10,-51 0,-38 -9,-69 -32,-118 -29,-57 -33,-76 -33,-141 1,-177 31,-236 126,-247 45,-5 53,-3 79,22 17,16 30,36 31,44 0,9 6,-4 13,-29 8,-32 26,-59 61,-93 44,-42 54,-47 85,-43 51,6 110,29 110,43 0,7 12,18 28,25 18,9 28,22 30,41 2,17 18,39 43,59 49,40 79,95 79,143 0,46 -34,113 -63,124 -35,14 -53,42 -64,98 -9,50 -9,53 17,78 14,14 31,25 36,25 10,0 24,190 24,317 v 43 h -48 c -27,0 -57,6 -68,15 -25,19 -72,17 -106,-3 z" />
      <path
         id="pE0XA5cYb"
         d="m 4056,6365 c -3,-8 -14,-15 -25,-15 -23,0 -101,-70 -101,-91 0,-8 -13,-39 -29,-69 -16,-30 -37,-71 -46,-91 -13,-29 -25,-39 -63,-51 -34,-11 -47,-21 -47,-34 0,-11 -7,-29 -15,-41 l -15,-23 -12,23 c -11,20 -12,18 -13,-21 0,-29 7,-52 20,-69 11,-14 20,-32 20,-40 0,-10 10,-13 38,-11 34,3 37,5 40,38 2,19 10,51 19,70 17,39 71,100 87,100 6,0 33,39 60,88 27,48 62,108 78,135 16,28 28,62 28,82 0,36 -13,47 -24,20 z" />
      <path
         id="pJCUGjW7L"
         d="m 1330,6214 c -14,-7 -35,-14 -47,-14 -17,0 -27,-10 -38,-36 -22,-53 -19,-68 19,-95 19,-13 61,-45 93,-71 32,-26 108,-81 168,-122 l 110,-76 3,32 c 2,17 -1,35 -7,41 -6,6 -11,26 -11,44 0,35 -35,93 -56,93 -19,0 -78,79 -114,153 -30,62 -35,67 -64,66 -17,-1 -42,-7 -56,-15 z" />
      <path
         id="peAchqPeo"
         d="m 3128,6143 c -10,-2 -18,-9 -18,-14 0,-18 -2,-24 -12,-36 -6,-7 -7,-28 -4,-49 6,-30 4,-36 -13,-41 -20,-5 -38,-51 -24,-63 4,-5 17,-10 28,-12 14,-2 21,-13 25,-38 7,-46 31,-49 62,-8 27,35 39,92 41,185 1,74 -21,93 -85,76 z" />
      <path
         id="pdV2SAHAJ"
         d="m 2830,5964 c -6,-14 -10,-67 -10,-118 0,-89 1,-94 23,-100 37,-10 73,-7 103,9 16,8 41,15 55,15 53,0 139,23 139,36 0,8 9,14 19,14 11,0 22,4 26,9 3,6 -17,7 -50,4 -51,-5 -55,-4 -55,15 0,49 -22,66 -45,35 -11,-15 -13,-15 -19,4 -6,17 -56,64 -93,87 -7,4 -24,-1 -38,-10 -24,-16 -25,-15 -25,5 0,29 -18,26 -30,-5 z" />
      <path
         id="prUICCbMh"
         d="m 1405,3885 c -8,-14 -22,-36 -30,-50 -9,-14 -22,-25 -30,-25 -10,0 -15,-10 -15,-28 0,-16 -7,-37 -15,-48 -19,-25 -19,-93 0,-118 8,-11 15,-27 15,-36 0,-9 10,-26 23,-38 33,-31 86,-29 123,5 27,25 34,26 117,24 127,-3 127,-3 127,76 0,60 -3,69 -41,124 -23,32 -49,59 -59,59 -9,0 -27,12 -41,26 -34,37 -72,54 -118,54 -32,0 -44,-5 -56,-25 z" />
      <path
         id="pXbsF3sgf"
         d="m 1295,2670 c -3,-5 -24,-10 -45,-10 -54,0 -68,-7 -86,-46 -11,-23 -14,-47 -10,-76 13,-89 1,-174 -30,-211 -13,-16 -24,-33 -24,-38 0,-5 -11,-14 -24,-19 -17,-6 -26,-20 -31,-47 -11,-53 -7,-225 5,-237 5,-5 10,-34 10,-63 0,-52 16,-103 31,-103 5,0 15,-16 23,-35 8,-19 25,-40 38,-46 34,-16 59,-55 65,-102 3,-23 14,-50 23,-59 10,-9 20,-22 22,-29 2,-7 35,-16 78,-20 40,-5 78,-13 84,-19 13,-13 126,-13 159,-1 16,6 30,24 38,45 10,29 20,37 47,42 18,4 36,13 39,20 3,8 14,14 25,14 35,0 47,29 48,110 0,57 -5,86 -20,115 -11,22 -20,53 -20,70 0,18 -3,34 -6,37 -3,4 -6,35 -7,71 -1,37 -8,71 -16,80 -7,9 -14,43 -15,74 -5,115 -20,228 -31,238 -7,6 -16,34 -19,64 -9,73 -29,101 -73,101 -27,0 -36,5 -40,20 -6,23 -35,33 -84,28 -26,-2 -38,3 -52,20 -13,16 -29,22 -57,22 -21,0 -42,-4 -45,-10 z" />
    </g>
  </g>
  <g
     id="l27UPEGRojqqlcLgZjR0sZ4"
     fill="#8d8d8d"
     transform="matrix(0.60763889,0,0,0.60763889,0,3.4612871)">
    <g
       id="g166">
      <path
         id="pVTsCfBNP"
         d="m 404,7353 c 11,-84 16,-217 10,-260 -4,-31 -17,-55 -49,-91 -39,-44 -45,-55 -46,-100 -2,-39 -6,-52 -20,-55 -10,-3 -23,-22 -30,-46 -14,-46 -19,-49 -37,-21 -12,20 -46,27 -56,11 -9,-14 -75,-21 -103,-10 -17,6 -30,6 -37,-1 -9,-6 -16,-6 -24,2 -9,9 -12,-7 -12,-70 0,-76 2,-83 23,-92 12,-6 51,-31 87,-56 70,-48 112,-64 118,-46 2,7 13,12 25,12 12,0 31,7 41,15 11,8 32,15 47,15 15,0 39,4 53,10 21,8 26,16 26,43 0,31 2,34 25,29 14,-2 28,-8 31,-13 3,-5 15,-9 27,-9 28,-1 57,-23 57,-43 0,-9 14,-25 31,-37 17,-13 34,-33 39,-45 7,-19 19,-24 76,-30 71,-7 83,-16 142,-95 68,-90 158,-178 185,-180 4,0 7,16 7,35 0,24 -5,35 -15,35 -23,0 -55,41 -55,72 0,15 5,28 10,28 11,0 14,73 3,84 -4,4 -6,27 -4,51 4,74 -6,99 -49,124 -21,12 -41,29 -44,39 -3,9 -16,22 -28,27 -27,12 -58,87 -67,165 -5,34 -21,81 -44,124 -37,68 -38,69 -28,139 11,78 25,103 35,63 5,-19 13,-26 30,-26 22,0 46,-33 46,-64 0,-11 25,-63 64,-136 8,-14 24,-49 37,-77 12,-29 26,-53 30,-53 18,0 87,-79 109,-125 13,-27 36,-61 52,-75 22,-19 31,-38 38,-82 5,-31 14,-66 19,-77 6,-11 11,-40 11,-64 0,-41 2,-45 30,-50 18,-4 30,-13 30,-22 0,-8 4,-15 9,-15 5,0 3,-13 -5,-30 -9,-16 -19,-30 -23,-30 -12,0 -41,-75 -41,-107 0,-26 7,-34 40,-52 24,-12 37,-15 34,-8 -2,7 2,30 11,50 11,27 21,37 38,37 12,0 34,6 49,14 26,14 26,14 59,-53 36,-74 95,-151 115,-151 7,0 18,-9 24,-20 35,-66 58,42 41,191 -10,86 -6,129 10,129 12,0 12,66 0,106 -8,30 -6,33 34,62 27,19 44,40 48,58 3,16 10,49 16,74 5,25 17,85 26,135 9,49 25,110 35,135 27,65 32,122 21,235 -5,55 -13,148 -16,208 l -7,107 h -49 c -49,0 -49,0 -48,-32 3,-62 -9,-185 -19,-204 -13,-25 -15,-209 -2,-253 6,-22 6,-49 -1,-80 -9,-43 -14,-49 -59,-70 l -50,-24 -20,24 c -23,29 -25,69 -5,144 14,54 13,58 -7,85 -27,37 -38,130 -15,130 9,0 19,-4 22,-10 3,-5 20,-10 36,-10 29,0 30,1 24,33 -9,39 -52,86 -80,87 -25,0 -50,72 -48,138 l 1,42 H 923 398 Z" />
      <path
         id="pOmksPPaP"
         d="m 2074,7320 c 9,-106 17,-126 56,-134 46,-9 103,-7 120,4 16,10 50,-14 50,-36 0,-7 6,-17 14,-21 13,-7 17,-31 32,-173 7,-70 25,-90 79,-90 35,0 46,6 72,35 17,19 37,35 45,35 7,0 24,14 38,30 14,17 28,30 33,30 4,0 21,16 38,35 37,42 45,43 52,9 3,-19 -2,-29 -20,-42 -14,-9 -43,-32 -64,-51 -35,-30 -39,-38 -39,-80 0,-45 2,-49 71,-111 40,-36 78,-80 86,-97 17,-41 26,-41 60,-3 15,17 43,41 63,53 19,12 41,27 48,34 39,38 83,65 98,59 12,-4 15,-2 11,9 -9,23 10,28 62,14 45,-11 51,-11 81,11 l 32,23 -46,19 -45,20 -31,-22 -30,-21 -26,30 c -25,30 -26,30 -56,15 -29,-15 -34,-15 -66,0 -31,15 -34,20 -28,49 4,21 22,45 54,72 99,84 188,180 198,215 7,23 16,35 27,34 9,-1 18,2 18,7 1,5 2,13 3,18 0,5 5,13 9,18 8,7 37,70 37,79 0,2 -257,4 -571,4 h -572 z m 562,-46 c 22,-9 49,-25 61,-36 l 21,-20 -39,-39 c -22,-22 -44,-51 -49,-64 -5,-14 -16,-25 -24,-25 -7,0 -19,-7 -26,-15 -7,-8 -22,-15 -33,-15 -11,0 -29,-8 -41,-17 -19,-18 -19,-18 -3,7 23,34 21,49 -9,81 -24,25 -25,31 -16,59 6,17 9,36 7,43 -3,7 1,19 8,28 23,31 87,36 143,13 z" />
      <path
         id="pIZT0fB5e"
         d="m 3466,7388 c 4,-6 9,-40 10,-75 4,-77 29,-137 84,-197 31,-33 40,-50 35,-65 -8,-25 42,-88 154,-199 61,-60 71,-75 61,-87 -7,-9 -29,-15 -54,-15 -53,0 -66,-13 -66,-64 1,-39 1,-40 16,-21 13,17 16,18 25,5 8,-11 12,-12 16,-2 7,17 28,15 44,-5 15,-17 132,-73 155,-73 8,0 14,-3 14,-8 0,-4 18,-13 41,-20 22,-7 55,-23 72,-35 18,-12 33,-22 35,-23 3,-1 -28,-94 -39,-116 -8,-15 -5,-18 18,-18 22,0 33,9 50,38 31,54 35,91 25,234 -8,120 -10,130 -39,170 -17,24 -48,80 -69,125 -35,74 -42,82 -67,83 -43,0 -67,-17 -67,-48 0,-26 -15,-62 -22,-52 -19,29 -30,48 -37,66 -5,11 -21,28 -36,38 -25,16 -25,19 -11,35 9,10 16,23 16,29 0,7 7,12 16,12 9,0 27,11 40,26 28,29 31,70 9,129 -8,22 -14,57 -15,77 0,71 10,68 -217,68 -153,0 -202,-3 -197,-12 z" />
      <path
         id="p0Hcb7KYY"
         d="m 4640,7360 v -40 h 44 c 25,0 48,5 51,11 5,7 13,5 24,-5 10,-9 47,-18 92,-22 43,-4 86,-15 104,-26 17,-10 49,-18 73,-18 40,0 54,-11 32,-25 -5,-3 -10,-21 -10,-40 0,-19 5,-37 10,-40 6,-3 10,-15 10,-26 0,-15 7,-19 34,-19 19,0 37,4 40,9 22,35 97,-2 110,-54 4,-14 16,-27 29,-31 12,-3 35,-26 51,-50 27,-44 29,-45 75,-42 45,3 46,4 49,41 2,23 8,37 17,37 7,0 15,5 17,12 6,17 99,11 119,-8 11,-10 40,-16 81,-17 l 63,-2 3,198 2,197 h -560 -560 z" />
      <path
         id="pL16SOO8w"
         d="m 2020,6856 c -5,-13 -14,-26 -20,-28 -19,-6 -1,-156 19,-163 53,-16 54,-185 1,-300 -17,-36 -30,-72 -30,-80 0,-8 -4,-15 -9,-15 -5,0 -12,-12 -16,-27 -4,-16 -15,-36 -25,-45 -11,-10 -22,-35 -25,-55 -3,-21 -14,-90 -26,-153 -28,-151 -34,-252 -20,-325 7,-40 8,-61 1,-63 -18,-6 -10,-20 23,-40 32,-18 34,-24 51,-123 10,-57 29,-153 42,-213 l 24,-109 -20,-19 c -11,-10 -20,-23 -20,-28 0,-13 63,-13 76,0 7,7 9,-2 6,-25 -3,-21 -10,-35 -18,-35 -8,0 -16,-18 -20,-50 -4,-28 -11,-53 -15,-56 -5,-3 -9,-15 -9,-27 0,-12 -7,-31 -15,-41 -19,-26 -19,-60 1,-107 17,-37 18,-37 88,-44 85,-8 126,4 126,36 0,22 1,22 133,16 157,-7 160,-5 171,88 10,87 -9,163 -51,198 -18,16 -33,37 -33,48 0,26 -35,59 -64,59 -17,0 -26,7 -30,24 -5,22 -12,25 -59,28 l -52,3 67,43 c 44,28 73,55 83,77 9,18 25,42 35,53 11,12 20,32 20,46 0,18 6,25 23,28 14,2 23,11 25,26 2,14 10,22 23,22 11,0 35,15 53,33 51,48 152,127 165,127 6,0 11,15 11,33 0,26 -9,42 -41,72 -23,22 -52,63 -65,90 -20,43 -31,82 -60,223 -5,24 -34,31 -34,7 0,-8 -6,-15 -13,-15 -16,0 -64,-49 -68,-70 -2,-8 3,-39 9,-68 7,-30 10,-58 6,-63 -6,-11 30,-45 63,-59 12,-5 32,-28 43,-51 19,-36 20,-45 9,-73 -7,-17 -35,-51 -61,-76 -26,-25 -49,-56 -51,-70 -2,-15 -14,-30 -30,-38 -15,-7 -27,-20 -27,-28 0,-7 -7,-14 -15,-14 -9,0 -28,-6 -43,-14 -27,-14 -30,-13 -79,35 -56,54 -69,86 -53,139 13,45 12,51 -5,74 -13,17 -15,17 -29,3 -9,-9 -16,-20 -16,-25 0,-21 -41,-99 -62,-119 -48,-45 -119,8 -133,98 -15,98 -10,144 23,212 23,47 32,78 32,116 0,28 4,51 10,51 5,0 21,12 35,28 20,21 25,34 20,57 -4,25 0,34 30,58 19,15 32,33 29,41 -3,7 6,26 19,42 13,16 30,40 36,52 10,19 18,22 39,17 15,-3 35,-16 45,-28 17,-22 17,-22 33,-2 8,11 18,31 20,45 3,14 18,33 33,41 26,15 30,15 48,0 11,-9 23,-27 26,-41 3,-14 12,-42 20,-64 l 14,-39 7,67 c 7,56 10,66 27,66 10,0 19,-7 19,-15 0,-8 7,-15 16,-15 14,0 16,9 11,58 -9,99 -68,181 -187,260 -47,31 -128,98 -180,149 -74,73 -101,93 -123,93 -20,0 -30,-7 -37,-24 z" />
      <path
         id="pbQ8ESmr4"
         d="m 4790,6602 c 0,-4 -15,-13 -32,-20 -36,-13 -78,-69 -78,-102 0,-30 -37,-98 -60,-110 -13,-7 -20,-21 -20,-40 0,-30 -1,-30 -55,-30 -30,0 -64,-4 -77,-9 -13,-5 -43,-15 -68,-22 -43,-12 -111,-64 -131,-101 -5,-9 -11,-80 -15,-157 -6,-138 -5,-141 15,-149 22,-8 22,-8 -4,-32 -17,-16 -25,-34 -25,-56 0,-18 -4,-36 -10,-39 -5,-3 -10,-23 -10,-44 0,-47 24,-71 71,-71 27,0 40,-7 62,-35 22,-28 26,-39 17,-54 -5,-11 -10,-42 -10,-69 0,-51 9,-62 49,-62 10,0 28,-11 41,-25 20,-21 32,-25 85,-25 51,0 65,4 83,23 12,13 22,31 22,40 0,9 9,22 20,29 13,8 20,24 20,43 0,16 4,35 8,41 4,6 42,15 84,19 43,3 80,11 84,16 3,5 14,9 25,9 14,0 26,13 40,45 11,24 29,51 40,58 17,13 20,24 17,83 -3,66 -4,69 -29,72 -15,2 -32,13 -39,27 -7,13 -21,25 -31,28 -10,3 -22,21 -28,43 -7,24 -33,63 -69,102 -47,50 -64,62 -89,62 -27,0 -31,4 -37,38 -3,20 -6,56 -6,80 0,41 1,42 33,43 27,0 37,7 62,47 22,34 38,48 61,53 72,14 121,77 111,141 -10,58 -19,93 -30,106 -10,13 -97,17 -97,4 z" />
      <path
         id="p4P5wb2V6"
         d="m 2770,6093 c 0,-66 17,-279 26,-335 6,-36 7,-38 45,-38 37,0 39,2 39,30 0,19 -5,30 -14,30 -11,0 -13,26 -12,135 1,121 -1,135 -18,148 -11,8 -16,19 -12,26 7,11 -31,60 -46,61 -5,0 -8,-26 -8,-57 z" />
      <path
         id="pTLmeMFmP"
         d="m 3904,6085 c -4,-8 -12,-15 -19,-15 -16,0 -85,-76 -85,-93 0,-7 -6,-19 -12,-25 -7,-7 -11,-28 -10,-46 4,-42 -13,-56 -23,-19 -5,21 -8,24 -16,12 -14,-22 -11,-75 8,-114 15,-31 21,-35 55,-35 34,0 38,3 38,25 0,16 6,25 15,25 11,0 15,12 15,48 0,29 11,75 30,121 30,74 39,131 20,131 -6,0 -13,-7 -16,-15 z" />
      <path
         id="pAD8t5rSz"
         d="m 1392,4403 c -16,-30 -79,-232 -100,-323 -12,-47 -32,-132 -46,-190 -14,-58 -34,-170 -46,-250 -11,-80 -25,-161 -30,-180 -5,-19 -23,-107 -40,-195 -17,-88 -34,-168 -37,-178 -4,-15 0,-18 23,-15 25,3 30,9 35,40 6,41 24,68 45,68 7,0 23,18 34,40 20,39 22,40 73,40 43,1 58,6 86,30 32,27 33,32 29,79 l -5,50 55,7 c 30,4 82,4 117,2 66,-6 78,-13 253,-155 29,-24 61,-43 70,-43 10,0 25,-8 34,-17 9,-10 24,-24 32,-31 9,-7 18,-25 22,-40 3,-15 9,-36 14,-47 5,-11 11,-38 15,-60 7,-44 30,-116 46,-146 14,-26 104,-27 117,-1 16,30 22,195 10,263 -6,35 -10,107 -9,159 1,52 -3,118 -8,145 -7,33 -7,72 0,117 11,69 7,102 -26,230 -16,62 -16,68 -1,83 20,21 21,81 1,89 -10,3 -15,19 -15,42 0,27 -5,37 -20,41 -11,3 -20,9 -20,14 0,5 -36,9 -81,9 -75,0 -83,-2 -101,-25 -11,-14 -26,-25 -34,-25 -8,0 -14,-9 -14,-20 0,-11 -4,-20 -10,-20 -5,0 -10,-15 -10,-34 0,-19 5,-38 10,-41 6,-3 10,-15 10,-26 0,-11 5,-30 12,-42 8,-14 12,-70 13,-150 0,-84 -3,-120 -9,-107 -5,11 -13,20 -17,20 -4,0 -23,14 -41,30 -18,17 -40,30 -48,30 -9,0 -25,7 -36,15 -10,8 -28,15 -40,15 -19,0 -21,-5 -19,-45 1,-36 -2,-46 -17,-51 -11,-3 -25,0 -33,6 -9,8 -20,8 -31,2 -11,-6 -28,-6 -47,1 -22,7 -35,7 -48,-2 -10,-6 -26,-11 -34,-11 -8,0 -15,-4 -15,-9 0,-5 -12,-16 -26,-26 -25,-16 -27,-16 -50,6 -13,12 -24,30 -24,39 0,8 -7,26 -16,39 -16,22 -16,25 0,51 9,16 16,39 16,53 0,16 7,26 19,30 11,2 29,23 41,46 11,23 27,44 35,47 17,7 64,-18 94,-50 14,-14 32,-26 42,-26 10,0 23,-8 28,-17 9,-15 10,-12 11,15 0,19 -9,45 -20,59 -11,14 -20,36 -20,49 0,36 -18,74 -35,74 -10,0 -15,10 -15,29 0,16 -6,31 -15,35 -8,3 -15,12 -15,21 0,9 -9,15 -25,15 -14,0 -25,6 -25,14 0,7 -11,30 -25,50 -14,20 -25,50 -25,66 0,17 -7,33 -17,39 -17,9 -17,10 0,23 21,15 38,148 19,148 -6,0 -15,-8 -20,-17 z" />
      <path
         id="p16LZKYX10"
         d="m 1058,2828 c -9,-51 -29,-142 -43,-203 -53,-227 -57,-256 -59,-435 -1,-135 3,-191 16,-245 30,-122 106,-372 128,-422 57,-129 216,-364 324,-480 53,-58 62,-63 100,-63 22,0 47,4 54,9 8,4 52,2 100,-6 48,-8 107,-13 132,-11 l 45,3 3,43 c 2,25 -2,50 -9,59 -11,12 -10,17 4,24 14,8 17,25 17,91 0,64 4,87 21,114 14,23 20,47 18,74 -2,21 0,42 4,46 4,4 7,32 7,61 0,30 5,59 10,66 52,62 70,93 70,122 0,20 6,35 15,39 21,8 21,84 0,92 -8,4 -15,18 -15,33 0,15 -4,31 -9,37 -11,11 -17,112 -8,134 3,8 9,29 14,45 7,20 17,31 33,33 28,4 50,25 50,46 0,9 7,16 15,16 10,0 15,10 15,34 0,34 -13,46 -47,46 -19,0 -42,29 -43,53 0,9 -5,17 -10,17 -6,0 -24,14 -40,30 -16,17 -33,30 -38,30 -11,0 -22,34 -22,72 0,15 -4,30 -10,33 -5,3 -10,23 -10,43 0,56 -11,66 -64,60 -26,-3 -49,-2 -52,3 -3,5 -16,9 -30,9 -13,0 -24,5 -24,10 0,6 -4,10 -10,10 -5,0 -24,15 -42,34 -32,32 -36,33 -131,39 -78,4 -104,10 -135,29 -37,23 -85,44 -132,56 -36,10 -70,34 -70,50 0,27 -41,72 -66,72 -17,0 -24,5 -24,20 0,13 -7,20 -18,20 -15,0 -21,-16 -34,-92 z m 317,-216 c 21,-33 51,-39 71,-13 14,18 50,6 57,-19 4,-15 14,-20 40,-20 44,0 64,-28 71,-101 3,-35 10,-57 22,-66 15,-11 16,-19 7,-58 -8,-36 -7,-47 4,-56 7,-7 11,-20 8,-30 -3,-10 0,-27 7,-38 10,-17 10,-25 0,-41 -18,-29 -15,-59 8,-78 32,-27 36,-76 10,-102 l -23,-23 26,-19 c 17,-13 23,-24 20,-39 -3,-11 6,-43 20,-72 34,-66 31,-91 -11,-95 -18,-2 -32,-7 -32,-13 0,-5 4,-9 9,-9 5,0 21,-4 36,-10 23,-9 24,-12 13,-30 -8,-13 -20,-19 -31,-16 -10,2 -21,-3 -27,-14 -5,-10 -24,-20 -43,-24 -26,-5 -36,-13 -46,-42 -8,-21 -22,-39 -38,-45 -31,-11 -90,-12 -97,0 -8,12 -65,24 -107,21 -24,-1 -42,5 -50,15 -8,9 -21,24 -30,33 -9,9 -19,36 -22,59 -6,47 -31,86 -65,102 -13,6 -30,27 -38,46 -8,19 -18,35 -23,35 -16,0 -31,54 -30,102 1,26 -3,53 -9,60 -12,16 -17,126 -7,181 5,24 14,41 26,45 18,7 54,52 84,105 11,19 13,33 6,44 -5,10 -6,24 -2,33 14,25 22,100 12,100 -18,0 -21,37 -6,67 17,35 36,45 68,38 12,-3 33,1 47,9 33,18 41,16 65,-22 z" />
    </g>
  </g>
  <g
     id="l48rrDYdqDgXANAeeVMxCTO"
     fill="#747474"
     transform="matrix(0.60763889,0,0,0.60763889,0,3.4612871)">
    <g
       id="g181">
      <path
         id="pMyls0dAf"
         d="m 1740,7363 c 0,-21 5,-101 11,-178 15,-203 13,-253 -10,-305 -11,-25 -27,-85 -36,-135 -9,-49 -21,-110 -26,-135 -6,-25 -13,-58 -16,-74 -4,-18 -21,-39 -50,-59 -45,-32 -63,-68 -45,-90 13,-17 26,-77 15,-77 -12,0 -34,-55 -28,-71 12,-34 22,-189 15,-234 -6,-37 -4,-54 6,-65 7,-9 11,-25 8,-37 -8,-31 18,-70 121,-179 101,-108 161,-154 200,-154 22,0 25,4 21,20 -3,11 -9,30 -12,43 -4,12 -18,39 -30,59 -13,21 -24,44 -24,53 0,8 -4,15 -8,15 -14,0 -62,96 -62,124 0,14 -4,26 -10,26 -5,0 -10,9 -10,19 0,11 -7,27 -16,36 -9,9 -22,37 -30,62 -8,26 -23,62 -34,81 -22,36 -30,139 -13,151 5,3 14,22 19,41 7,24 16,36 30,38 32,5 64,83 64,156 0,23 9,59 20,81 11,22 20,45 20,52 0,7 7,13 16,13 15,0 16,15 10,143 -3,78 -10,187 -16,242 -5,55 -12,162 -16,238 l -7,137 h -39 c -37,0 -38,-1 -38,-37 z" />
      <path
         id="pT0q5m8rz"
         d="m 1980,7371 c 0,-16 7,-63 16,-103 8,-40 19,-99 24,-130 15,-105 77,-151 177,-132 26,6 55,8 64,6 18,-3 49,-73 49,-108 0,-38 31,-54 101,-54 46,0 73,6 96,19 35,22 43,19 43,-18 0,-19 22,-47 85,-108 47,-45 90,-94 95,-108 6,-16 17,-25 31,-25 14,0 19,5 16,14 -3,8 -1,17 6,20 9,3 7,9 -4,18 -9,7 -14,19 -11,27 2,7 -31,47 -77,90 -44,43 -81,85 -81,93 0,15 26,39 115,111 38,32 43,48 20,67 -8,7 -15,21 -15,31 0,15 -8,19 -39,19 -32,0 -44,-6 -70,-35 -17,-19 -34,-35 -38,-35 -5,0 -19,-13 -33,-30 -14,-16 -31,-30 -38,-30 -7,0 -26,-15 -43,-32 -33,-37 -46,-41 -71,-20 -13,10 -17,28 -17,62 1,25 -3,56 -9,67 -6,10 -11,39 -10,63 0,30 -5,46 -16,52 -9,5 -16,14 -16,21 0,13 -46,67 -57,67 -3,0 -21,-9 -39,-21 -25,-15 -42,-18 -69,-13 -41,7 -53,28 -56,96 -3,87 -4,88 -70,88 -59,0 -59,0 -59,-29 z" />
      <path
         id="phyQyoq74"
         d="m 3963,7368 c 3,-18 11,-51 18,-73 6,-22 14,-76 16,-120 2,-52 10,-92 22,-115 10,-19 21,-47 25,-62 3,-15 23,-47 44,-71 20,-25 66,-82 101,-127 l 64,-82 70,7 c 88,9 102,24 111,117 6,59 4,73 -19,123 -15,30 -25,59 -23,64 6,18 48,-27 75,-81 28,-52 29,-53 73,-53 45,0 45,0 54,42 8,38 -6,166 -31,296 -3,16 -1,27 6,27 12,0 61,-91 61,-115 0,-8 11,-33 25,-55 14,-22 25,-46 25,-54 0,-7 7,-30 15,-49 9,-22 15,-68 15,-117 v -80 h 64 c 60,0 67,2 100,35 20,19 36,42 36,50 0,9 5,25 11,36 10,20 10,20 45,0 19,-12 46,-21 59,-21 28,0 46,-29 63,-100 12,-51 8,-209 -6,-236 -5,-11 -19,-62 -31,-114 -12,-52 -26,-102 -32,-110 -14,-22 -1,201 17,273 8,32 14,92 14,133 v 74 h -43 c -36,0 -45,-4 -59,-28 -10,-16 -49,-44 -100,-71 -146,-78 -380,-221 -471,-289 -101,-75 -144,-128 -211,-261 -41,-81 -48,-105 -55,-185 -5,-51 -16,-109 -24,-128 -20,-47 -86,-119 -132,-144 -30,-16 -35,-24 -35,-54 0,-55 14,-92 59,-151 22,-30 48,-75 56,-100 9,-26 24,-54 35,-64 10,-9 22,-31 26,-49 4,-17 15,-47 25,-66 11,-19 19,-40 19,-47 0,-7 11,-33 25,-58 l 26,-45 h -26 c -34,0 -65,-17 -65,-35 0,-9 -10,-15 -25,-15 -14,0 -25,-4 -25,-9 0,-5 -9,-11 -20,-14 -15,-4 -20,-14 -20,-37 0,-17 -7,-38 -15,-46 -8,-9 -15,-24 -15,-34 0,-10 -7,-20 -15,-24 -20,-7 -20,-75 1,-105 10,-14 17,-45 18,-80 l 1,-56 36,-3 c 33,-3 38,0 50,30 l 13,33 4,-40 c 2,-22 9,-46 15,-53 7,-9 10,-44 8,-88 -2,-60 1,-75 13,-80 9,-3 16,-15 16,-25 0,-11 11,-37 25,-59 14,-22 25,-44 25,-49 0,-6 7,-14 15,-18 25,-15 55,-85 55,-130 0,-41 1,-43 30,-43 h 30 v 68 c 0,38 3,103 6,145 6,67 9,76 31,86 17,8 23,17 19,29 -3,9 -2,31 3,47 l 9,30 7,-42 c 4,-24 11,-43 15,-43 27,0 159,189 274,393 93,166 90,160 160,327 36,85 83,190 105,233 23,43 41,84 41,91 0,8 16,21 35,30 19,9 35,23 35,31 0,16 30,35 53,35 32,0 96,54 122,102 20,37 28,69 32,129 l 6,79 h -35 c -47,0 -98,-19 -98,-36 0,-8 -8,-22 -17,-33 -10,-10 -31,-34 -47,-52 -16,-19 -26,-28 -22,-22 17,31 36,130 36,187 0,38 8,83 19,112 10,27 26,87 36,134 9,47 20,99 24,115 3,17 24,54 46,83 35,45 45,51 77,52 20,0 40,5 43,10 3,6 22,10 41,10 27,0 34,-4 34,-19 0,-11 8,-27 17,-36 13,-14 14,-21 5,-36 -18,-29 -14,-76 8,-97 15,-14 50,-22 135,-32 l 114,-13 36,27 35,27 v 405 c 0,345 -2,404 -14,404 -8,0 -18,-4 -21,-10 -7,-12 -65,-1 -86,16 -8,8 -30,14 -47,14 -18,0 -41,5 -51,12 -14,9 -26,8 -50,-2 -17,-7 -31,-16 -31,-21 0,-5 -6,-9 -14,-9 -10,0 -16,-13 -18,-37 -4,-55 -29,-54 -64,1 -16,24 -39,47 -51,50 -11,3 -26,19 -31,35 -11,31 -69,81 -95,81 -9,0 -32,-9 -52,-20 -34,-19 -35,-19 -35,0 0,10 -4,21 -10,25 -5,3 -1,19 10,37 17,28 17,33 3,54 -18,29 -49,39 -68,24 -12,-10 -22,-8 -50,9 -22,13 -53,21 -81,21 -32,0 -44,4 -44,15 0,18 -26,20 -33,3 -6,-18 -39,2 -52,30 -13,29 -48,28 -60,0 -15,-34 -45,-36 -45,-4 v 26 h -356 -356 z m 897,-808 c 24,-50 29,-83 15,-110 -17,-32 -58,-61 -100,-70 -22,-4 -38,-19 -60,-52 -33,-52 -69,-64 -80,-28 -5,15 2,28 23,48 16,15 32,37 36,50 4,12 12,22 17,22 6,0 7,-10 4,-22 -6,-19 -5,-21 6,-10 11,10 11,19 1,46 -12,31 -11,39 10,71 13,19 37,40 56,47 17,7 32,16 32,21 0,14 32,3 40,-13 z m -261,-316 c 13,-16 21,-41 21,-64 0,-20 3,-58 6,-84 6,-39 10,-46 25,-41 11,4 28,4 38,0 28,-8 131,-133 125,-149 -6,-15 24,-56 41,-56 6,0 19,-14 29,-30 12,-22 24,-30 39,-28 19,3 22,-3 25,-36 3,-29 -1,-41 -17,-52 -11,-8 -29,-35 -40,-59 -14,-32 -26,-45 -40,-45 -11,0 -22,-4 -25,-9 -10,-15 -85,-18 -90,-4 -6,16 -56,17 -56,2 0,-6 -7,-17 -15,-25 -8,-9 -15,-30 -15,-47 0,-21 -7,-36 -20,-45 -11,-7 -20,-20 -20,-29 0,-9 -10,-27 -22,-40 -31,-33 -77,-31 -113,7 -16,17 -36,30 -45,29 -32,-3 -40,2 -40,25 0,14 11,38 25,54 14,17 25,33 25,36 0,3 -23,29 -51,57 -44,42 -56,49 -79,44 -19,-4 -31,0 -44,14 -17,18 -17,22 -2,42 8,13 13,32 10,43 -3,15 4,30 26,51 37,36 42,82 8,87 -29,4 -35,28 -9,35 26,7 26,7 2,41 -17,23 -19,37 -12,99 6,68 10,76 49,116 29,29 57,47 89,56 27,7 57,16 68,21 41,18 83,11 104,-16 z" />
      <path
         id="pYg4Gf1jJ"
         d="m 717,7238 c -15,-29 -33,-61 -40,-70 -9,-14 -9,-22 0,-36 7,-12 8,-24 2,-33 -15,-23 1,-87 39,-158 22,-40 38,-87 43,-121 9,-78 40,-153 67,-165 12,-5 25,-18 28,-27 3,-10 23,-27 44,-39 41,-23 58,-60 45,-99 -8,-24 -21,-25 -69,-5 -45,19 -49,1 -3,-19 17,-8 46,-26 62,-40 27,-23 28,-27 13,-36 -25,-15 -19,-101 10,-134 12,-14 29,-26 37,-26 8,0 12,-6 10,-12 -6,-17 43,-48 135,-87 89,-37 94,-38 86,-9 -7,29 23,96 46,104 11,3 17,11 15,17 -2,7 1,19 8,27 25,30 27,58 5,65 -11,3 -20,13 -20,21 0,8 -12,17 -28,20 -24,5 -27,10 -29,47 -1,23 -9,59 -18,80 -9,21 -13,46 -10,56 7,22 -21,78 -47,94 -11,7 -31,37 -46,67 -23,50 -92,130 -111,130 -4,0 -18,24 -30,53 -13,28 -29,63 -37,77 -30,55 -62,127 -74,166 -10,35 -15,40 -36,36 -18,-3 -24,1 -29,21 -4,14 -4,31 0,36 8,14 -12,51 -28,51 -7,0 -25,-24 -40,-52 z" />
      <path
         id="p47YjrZGg"
         d="m 3876,7196 c 7,-17 -38,-66 -60,-66 -9,0 -16,-5 -16,-12 0,-6 -7,-19 -15,-28 -8,-9 -17,-30 -21,-46 -5,-25 -1,-32 25,-47 28,-16 52,-48 67,-89 3,-10 15,-18 25,-18 10,0 21,-4 24,-10 3,-5 10,-10 14,-10 11,0 31,47 31,75 0,35 32,50 47,22 11,-20 12,-18 13,23 0,43 -18,89 -72,183 -15,26 -28,37 -44,37 -16,0 -22,-5 -18,-14 z" />
      <path
         id="phfpkEzZo"
         d="m 1950,6903 c 0,-22 9,-49 20,-63 16,-21 20,-41 20,-120 0,-103 -20,-294 -45,-430 -16,-92 -19,-150 -7,-150 14,1 51,47 57,73 4,15 11,27 16,27 5,0 9,7 9,15 0,8 13,43 28,77 28,61 54,207 48,268 -4,39 -29,90 -48,96 -20,6 -23,20 -8,29 8,5 7,11 -1,21 -9,11 -8,14 5,14 24,0 20,19 -6,29 l -23,8 23,7 c 14,5 21,13 18,21 -8,21 6,26 20,7 12,-15 13,-13 14,19 0,30 -6,41 -34,63 -23,17 -47,26 -70,26 -35,0 -36,-1 -36,-37 z" />
      <path
         id="p1EJjFvEGG"
         d="m 390,6650 c 0,-34 -4,-42 -26,-50 -14,-6 -38,-10 -52,-10 -15,0 -38,-7 -50,-16 -16,-11 -39,-15 -77,-12 -29,1 -53,2 -51,1 1,-1 19,-14 41,-29 37,-26 50,-28 185,-35 80,-5 184,-13 232,-19 48,-7 92,-9 98,-5 15,9 12,25 -5,25 -9,0 -20,11 -25,24 -5,13 -22,33 -39,46 -17,12 -31,28 -31,37 0,20 -29,42 -56,43 -11,0 -24,3 -28,7 -9,10 -78,33 -98,33 -14,0 -18,-9 -18,-40 z" />
      <path
         id="pMqVJ3GUB"
         d="m 2726,5735 c -3,-10 -19,-15 -47,-15 h -42 l 23,-25 c 15,-16 18,-25 10,-25 -16,0 -155,-111 -230,-182 -15,-16 -33,-28 -39,-28 -6,0 -14,-12 -17,-27 -4,-16 -18,-38 -31,-50 -13,-12 -24,-26 -24,-30 -4,-31 -26,-56 -82,-91 -65,-41 -127,-107 -127,-135 0,-29 12,-47 31,-47 10,0 19,6 19,14 0,8 14,20 30,28 17,7 30,16 30,20 0,5 11,8 25,8 20,0 27,-6 32,-31 6,-33 28,-48 45,-31 14,14 48,-21 42,-45 -3,-12 8,-27 35,-47 32,-23 40,-37 47,-75 4,-25 6,-53 4,-61 -2,-8 -4,-26 -4,-40 -1,-34 -25,-60 -50,-55 -12,3 -59,7 -106,10 -47,2 -95,7 -108,11 -19,5 -23,2 -28,-26 -9,-40 -48,-59 -74,-35 -12,11 -20,13 -25,6 -13,-22 -41,-10 -57,24 -13,29 -13,37 -2,52 7,10 14,28 14,40 0,12 4,24 9,27 4,3 11,28 15,56 4,32 12,50 20,50 12,0 16,14 33,119 6,34 5,34 -28,27 -18,-3 -40,-13 -49,-21 -9,-8 -20,-12 -24,-8 -4,4 -10,3 -14,-2 -4,-6 -50,-43 -103,-83 -110,-82 -246,-220 -337,-341 -73,-96 -147,-245 -157,-314 -4,-26 -13,-51 -20,-55 -6,-4 -15,-21 -18,-39 -5,-25 -2,-35 11,-42 9,-5 17,-22 18,-38 1,-15 13,-46 28,-67 14,-21 26,-45 26,-52 0,-8 11,-14 25,-14 16,0 25,-6 25,-15 0,-9 7,-18 15,-21 9,-4 15,-19 15,-35 0,-19 5,-29 15,-29 18,0 38,-45 30,-69 -3,-10 11,-36 36,-66 23,-28 59,-76 81,-107 26,-39 48,-60 66,-64 15,-4 33,-11 39,-17 10,-7 13,-3 13,16 0,14 -15,40 -35,63 -19,21 -35,42 -35,46 0,5 -10,25 -23,46 -13,20 -29,58 -36,84 -8,26 -20,53 -27,59 -8,6 -14,23 -14,37 0,14 -11,40 -25,58 -14,18 -25,44 -25,58 0,14 -10,41 -21,61 -19,32 -20,38 -7,53 9,9 18,29 22,45 5,23 11,27 44,28 44,0 123,30 133,50 4,8 10,21 13,29 4,8 17,35 31,59 14,24 25,50 25,57 0,7 8,17 18,23 10,6 23,36 33,78 l 17,68 1,-46 c 1,-27 7,-52 16,-59 7,-6 17,-33 20,-58 8,-68 26,-119 45,-137 12,-11 56,-19 145,-27 l 127,-10 41,30 c 37,26 42,35 45,73 1,24 7,53 13,65 6,11 9,40 7,64 -2,34 -8,47 -25,55 -17,9 -19,15 -11,29 14,25 46,56 58,56 5,0 13,7 18,16 7,13 15,14 48,5 59,-16 199,-14 234,4 26,14 30,21 30,60 0,24 -4,47 -10,50 -5,3 -10,15 -10,27 0,11 -15,34 -34,52 -27,24 -36,42 -41,81 -8,57 -28,85 -60,85 -42,0 -125,111 -125,169 0,12 -8,21 -20,23 -17,2 -11,9 29,35 43,29 50,38 53,70 3,33 14,47 98,120 52,46 112,95 132,108 73,48 108,90 108,129 0,35 -1,36 -39,36 -25,0 -41,-5 -45,-15 z" />
      <path
         id="p17yQ6Oexu"
         d="m 1862,4258 c -7,-7 -12,-20 -12,-30 0,-10 -7,-21 -15,-24 -17,-7 -22,-89 -6,-99 5,-3 13,-20 17,-38 14,-65 54,-126 54,-82 0,8 6,15 14,15 8,0 23,11 34,25 17,21 28,25 71,25 28,0 51,-4 51,-9 0,-5 8,-11 19,-14 14,-3 17,-11 14,-30 -3,-17 2,-32 16,-46 18,-18 18,-22 6,-35 -8,-8 -15,-19 -15,-25 0,-6 -5,-11 -12,-11 -6,0 -8,-3 -5,-7 4,-3 0,-15 -10,-25 -15,-17 -14,-18 40,-18 31,0 58,4 62,9 3,5 30,17 61,26 l 56,16 -5,67 c -8,106 -30,246 -42,258 -5,6 -23,14 -38,18 -15,3 -27,11 -27,16 0,6 -7,10 -15,10 -8,0 -15,4 -15,8 0,14 -285,13 -298,0 z" />
      <path
         id="ppDjDLdRZ"
         d="m 2147,3678 c 2,-18 2,-51 1,-73 -1,-22 -2,-74 -1,-115 1,-41 3,-104 4,-140 0,-36 -1,-83 -3,-105 -3,-22 -1,-45 4,-52 20,-26 26,-240 7,-275 -13,-24 -46,-23 -58,1 -16,30 -39,102 -46,146 -4,22 -10,49 -15,60 -5,11 -11,32 -14,47 -4,15 -13,33 -22,40 -8,7 -25,23 -36,35 -12,12 -25,20 -30,17 -5,-4 -30,8 -54,26 l -44,31 v -30 c 0,-16 4,-33 10,-36 5,-3 32,-40 59,-83 28,-42 59,-86 69,-97 21,-21 35,-75 21,-75 -5,0 -9,-22 -9,-48 0,-41 4,-51 30,-72 17,-14 37,-31 45,-38 19,-17 165,-29 165,-15 0,6 8,13 18,15 36,10 80,136 53,152 -11,7 -24,117 -22,184 1,30 -2,59 -8,66 -5,6 -12,77 -14,156 -2,80 -9,165 -17,190 -21,74 -46,115 -73,118 -22,3 -23,0 -20,-30 z" />
      <path
         id="p1EvDfaRig"
         d="m 1490,3472 c 0,-6 -24,-13 -53,-16 -45,-6 -56,-12 -71,-37 -18,-31 -15,-49 10,-49 24,0 15,-24 -20,-52 -28,-22 -45,-28 -85,-28 -49,0 -51,-1 -71,-40 -11,-22 -27,-40 -35,-40 -19,0 -45,-39 -45,-69 0,-13 -6,-32 -13,-40 -8,-9 -22,-45 -32,-79 -16,-54 -17,-70 -7,-108 7,-24 12,-53 12,-64 0,-23 10,-26 29,-7 10,10 17,6 37,-18 13,-16 24,-37 24,-45 0,-17 33,-42 70,-52 45,-12 94,-33 130,-54 38,-23 171,-47 208,-37 17,4 31,-3 58,-31 19,-20 39,-36 44,-36 6,0 10,-4 10,-10 0,-5 8,-10 17,-10 9,0 37,-10 61,-22 44,-21 45,-21 59,-2 12,16 15,17 23,4 5,-8 10,-32 10,-52 0,-20 5,-40 10,-43 6,-3 10,-18 10,-33 0,-38 11,-72 22,-72 5,0 22,-13 38,-30 16,-16 34,-30 40,-30 5,0 10,-8 10,-17 1,-26 24,-53 46,-53 10,0 26,-5 34,-10 13,-8 12,-10 -2,-10 -10,0 -18,-7 -18,-16 0,-21 -22,-42 -50,-46 -16,-2 -26,-13 -33,-33 -5,-16 -15,-44 -23,-62 -17,-38 -18,-55 -3,-70 15,-15 1,-36 -19,-28 -11,4 -9,-2 7,-19 13,-14 21,-32 18,-40 -3,-8 1,-17 9,-20 8,-3 14,-17 14,-32 0,-15 7,-32 17,-39 19,-14 9,-35 -18,-35 -20,0 -26,-24 -9,-35 21,-13 4,-47 -62,-125 -7,-8 -13,-37 -14,-65 0,-27 -4,-58 -9,-68 -4,-9 -5,-32 -2,-50 3,-22 -2,-43 -16,-67 -18,-29 -21,-49 -20,-112 2,-56 -1,-80 -11,-85 -22,-13 -29,-68 -11,-83 17,-14 20,-36 4,-45 -5,-4 -62,1 -125,10 -89,14 -121,15 -140,6 -14,-6 -42,-11 -62,-11 h -37 l 69,-63 c 109,-97 281,-224 357,-262 37,-19 70,-35 73,-35 8,0 4,166 -6,177 -12,15 -2,33 18,33 9,0 23,9 32,20 10,11 33,29 52,39 l 35,19 -1,73 c -2,62 -5,75 -24,89 l -22,17 34,26 c 18,15 38,31 44,36 6,5 14,43 17,84 7,81 20,127 37,127 6,0 36,25 67,55 l 56,56 -7,75 c -6,61 -4,75 8,80 29,11 30,86 2,184 -28,97 -32,135 -16,145 6,3 10,15 10,26 0,10 7,19 15,19 8,0 15,7 15,15 0,22 37,55 60,55 11,0 20,7 20,15 0,8 9,23 20,32 11,10 20,23 20,30 0,7 7,13 16,13 25,0 16,139 -11,154 -34,20 -125,113 -125,129 0,8 -7,17 -15,21 -8,3 -15,12 -15,20 0,18 -30,36 -60,36 -12,0 -25,10 -32,25 -9,20 -18,25 -50,25 -24,0 -38,-5 -38,-12 0,-9 -3,-10 -8,-2 -7,10 -30,18 -97,31 -16,3 -38,17 -48,29 -14,19 -28,24 -62,24 -24,0 -50,6 -57,13 -12,12 -74,25 -198,42 -85,12 -137,33 -175,69 l -37,36 h 40 c 89,0 122,33 122,120 0,33 -4,39 -32,50 -125,47 -229,118 -243,166 -5,19 0,22 41,28 26,3 62,6 80,6 22,0 40,7 51,20 10,12 30,20 48,20 62,0 75,9 75,51 0,33 -4,41 -26,49 -25,10 -26,13 -19,65 6,52 5,55 -15,55 -12,0 -30,5 -41,10 -11,6 -19,7 -19,2 z" />
      <path
         id="pEdr4jDU7"
         d="m 4254,3055 c 5,-54 3,-74 -13,-110 -11,-25 -24,-45 -28,-45 -19,0 -34,-72 -40,-186 -3,-66 -3,-137 1,-157 6,-34 10,-37 40,-37 57,0 68,23 65,137 -2,99 14,183 35,183 35,1 57,137 40,243 l -7,37 h -50 -50 z" />
    </g>
  </g>
  <g
     id="l1zz4ETqzJ1NtYmZdN5PSBj"
     fill="#585858"
     transform="matrix(0.60763889,0,0,0.60763889,0,3.4612871)">
    <g
       id="g192">
      <path
         id="p9LFyMnOw"
         d="m 3835,7378 c 4,-13 11,-51 16,-86 5,-41 20,-84 44,-125 19,-34 47,-87 61,-117 96,-201 115,-239 138,-269 14,-18 28,-46 31,-62 7,-29 30,-39 38,-16 3,9 16,6 51,-10 92,-45 177,-21 237,66 33,48 35,50 74,44 51,-6 92,10 107,42 l 11,26 22,-43 c 21,-41 23,-43 73,-46 47,-3 52,-1 52,17 0,15 -6,21 -24,21 -23,0 -23,3 -24,80 -1,46 -8,95 -17,116 -8,20 -15,43 -15,50 0,8 -11,32 -25,54 -14,22 -25,47 -25,55 0,31 -82,165 -101,165 -3,0 -13,-22 -23,-50 -14,-39 -16,-56 -8,-82 10,-32 16,-64 28,-158 18,-133 -13,-174 -57,-74 -17,37 -113,143 -139,152 -19,7 -3,-136 20,-184 41,-84 19,-180 -40,-179 -14,0 -33,-3 -42,-7 -13,-6 -31,10 -80,73 -35,45 -80,101 -100,125 -21,25 -42,61 -47,82 -6,21 -17,46 -25,57 -11,14 -15,45 -16,97 0,42 -4,87 -9,100 -5,13 -15,42 -22,66 l -12,42 h -80 c -78,0 -79,0 -72,-22 z" />
      <path
         id="pMv9z3pzn"
         d="m 4900,6958 c -11,-18 -20,-40 -20,-49 0,-9 -9,-26 -20,-39 -27,-32 -25,-40 10,-40 17,0 38,-4 48,-9 9,-5 25,-12 35,-15 11,-3 17,-16 17,-33 1,-25 2,-26 14,-10 28,36 35,19 35,-81 0,-54 5,-110 10,-125 6,-16 11,-41 11,-57 0,-41 10,-60 30,-60 19,0 30,19 30,53 0,12 7,30 15,41 13,17 18,86 16,205 -2,47 -26,137 -46,167 -11,17 -22,23 -35,19 -18,-6 -91,32 -105,55 -11,18 -25,11 -45,-22 z" />
      <path
         id="pN8fe6GAO"
         d="m 1830,6690 c 0,-11 -7,-20 -15,-20 -8,0 -15,-5 -15,-12 0,-6 -9,-31 -21,-55 -12,-24 -21,-60 -21,-81 0,-75 -30,-149 -62,-154 -15,-2 -24,-14 -30,-40 -5,-21 -13,-38 -18,-38 -4,0 -8,-10 -8,-23 0,-13 -5,-28 -11,-34 -9,-9 -9,-20 0,-44 6,-17 11,-42 11,-55 0,-13 9,-38 20,-57 11,-19 27,-57 35,-85 9,-29 20,-52 26,-52 6,0 7,-4 4,-10 -3,-5 0,-10 7,-10 7,-1 2,-7 -12,-15 l -25,-14 34,-1 c 23,0 45,9 70,30 59,50 73,64 81,85 18,48 21,225 6,395 -9,96 -16,205 -16,243 0,60 -2,67 -20,67 -13,0 -20,-7 -20,-20 z" />
      <path
         id="pmjoGRlfX"
         d="m 5243,6453 c -13,-8 -23,-20 -23,-25 0,-6 -18,-32 -40,-58 -22,-26 -40,-54 -40,-63 0,-8 -9,-50 -20,-93 -26,-103 -26,-134 -1,-134 11,0 28,15 40,33 l 21,32 v -33 c 0,-18 -13,-58 -30,-89 -16,-31 -30,-61 -30,-68 0,-7 -7,-27 -16,-45 -9,-18 -19,-52 -22,-76 l -5,-44 h 47 c 25,0 46,4 46,9 0,8 51,31 68,31 13,0 -12,-110 -35,-151 -24,-45 -89,-99 -118,-99 -27,0 -46,-13 -60,-41 -18,-34 -18,-36 -1,-42 8,-3 45,7 83,23 37,16 109,40 158,54 50,15 104,33 120,41 17,8 73,30 125,50 112,43 140,56 140,66 0,4 -20,15 -45,24 -62,24 -69,35 -54,87 7,24 19,52 26,63 7,11 13,32 13,47 0,16 5,28 12,28 6,0 21,9 32,19 12,11 45,31 74,46 l 52,26 v 105 c 0,66 -4,104 -11,104 -5,0 -28,-14 -50,-32 -35,-28 -42,-30 -65,-19 -15,6 -34,9 -44,6 -12,-4 -22,1 -29,12 -8,15 -13,16 -30,6 -28,-17 -34,-16 -59,7 l -21,20 22,40 21,41 -27,25 c -15,14 -27,33 -27,43 0,28 -90,40 -125,17 -31,-21 -35,-20 -35,4 0,24 -7,24 -37,3 z" />
      <path
         id="p1jUc7mfW"
         d="m 3790,5704 c 0,-55 5,-65 90,-179 72,-97 164,-243 200,-315 12,-25 30,-54 39,-65 14,-17 -108,81 -150,121 -9,8 -30,19 -45,23 -20,5 -30,15 -32,32 -5,31 -77,99 -115,106 -16,3 -32,14 -34,23 -3,9 -20,23 -39,30 -19,8 -40,20 -46,27 -25,31 -218,7 -218,-28 0,-5 -5,-9 -11,-9 -22,0 -38,-35 -39,-83 0,-34 9,-66 30,-109 17,-33 30,-67 30,-77 0,-9 14,-43 30,-76 33,-68 36,-81 16,-88 -8,-3 -16,-29 -20,-66 -4,-33 -11,-63 -16,-66 -6,-4 -10,-19 -10,-34 0,-15 -6,-33 -12,-39 -10,-10 -13,-91 -13,-337 0,-179 -3,-325 -7,-325 -5,0 -8,-27 -8,-60 v -60 h 35 c 19,0 35,5 35,10 0,6 7,10 15,10 12,0 15,-13 15,-59 0,-48 3,-61 18,-66 9,-3 26,-20 37,-37 l 20,-32 -55,-56 c -30,-31 -64,-71 -75,-90 -11,-19 -36,-45 -55,-58 -19,-13 -37,-29 -40,-35 -3,-7 -23,-12 -45,-13 -22,0 -65,-11 -95,-22 -30,-12 -70,-22 -88,-22 -20,0 -35,-6 -38,-15 -4,-8 -18,-15 -33,-15 -15,0 -46,-9 -69,-20 -22,-11 -48,-20 -57,-20 -8,0 -15,-4 -15,-10 0,-5 -13,-16 -29,-25 -39,-20 -54,-68 -46,-142 13,-115 34,-144 113,-157 23,-3 62,-13 85,-22 23,-8 71,-19 107,-24 70,-9 151,-36 193,-63 15,-9 40,-17 57,-17 27,0 30,-3 36,-41 6,-35 12,-43 43,-56 20,-9 44,-19 53,-24 10,-5 25,-9 33,-9 8,0 15,-6 15,-14 0,-8 7,-16 15,-19 21,-9 45,-73 45,-125 0,-35 -5,-50 -26,-68 -31,-30 -74,-32 -81,-4 -12,45 -197,33 -343,-22 -8,-3 -23,-9 -32,-12 -15,-4 -18,-17 -18,-73 0,-60 3,-72 27,-97 25,-28 28,-28 105,-24 44,3 83,10 86,16 5,7 12,6 25,-2 16,-12 16,-16 1,-45 -8,-17 -21,-31 -28,-31 -7,0 -21,-10 -32,-21 -17,-20 -26,-21 -104,-16 -47,3 -131,3 -187,-1 -57,-4 -103,-4 -103,0 0,5 -11,8 -25,8 -14,0 -25,4 -25,10 0,5 -17,12 -37,15 -75,12 -123,28 -123,41 0,17 -50,27 -105,19 -30,-5 -45,-4 -45,4 0,7 -20,11 -50,11 -27,0 -50,5 -50,10 0,6 -8,10 -18,10 -21,0 -52,29 -52,48 0,7 -7,12 -16,12 -8,0 -20,13 -25,30 -9,23 -18,31 -47,36 -61,10 -71,14 -77,34 -4,11 -17,23 -31,26 -19,5 -24,13 -24,36 0,31 38,78 62,78 6,0 40,14 75,31 42,20 63,37 63,48 0,10 18,39 40,64 25,28 40,55 40,71 0,14 4,26 9,26 6,0 24,29 41,64 24,52 37,67 64,77 l 33,12 17,111 c 26,160 26,190 1,194 -44,7 -134,45 -139,59 -5,12 2,13 42,7 26,-4 51,-13 55,-20 12,-20 64,-17 114,7 36,17 43,25 43,50 0,16 5,29 10,29 6,0 10,20 10,44 0,66 -32,86 -137,86 -46,0 -99,7 -128,16 -27,9 -56,18 -62,20 -7,2 -13,15 -13,29 0,24 -2,25 -69,25 -66,0 -71,-2 -91,-31 -21,-28 -23,-29 -40,-14 -10,9 -21,32 -24,51 -7,33 -28,45 -41,24 -3,-5 -19,-10 -34,-10 -15,0 -36,-9 -46,-20 -10,-11 -34,-23 -54,-26 -20,-4 -42,-11 -48,-17 -17,-12 -46,11 -39,30 3,8 -4,27 -15,43 -12,16 -19,35 -16,44 3,8 -1,20 -9,27 -10,8 -11,14 -4,19 23,14 8,99 -32,178 -10,20 -10,25 5,33 9,6 17,18 17,28 0,35 25,44 103,37 116,-12 137,-12 141,-1 3,5 5,4 5,-2 1,-7 8,-13 16,-13 8,0 15,-4 15,-10 0,-5 12,-13 27,-16 39,-10 52,-26 46,-57 -3,-15 -2,-35 2,-44 5,-10 7,-22 6,-26 -1,-5 11,-7 26,-6 38,3 112,-10 145,-27 15,-8 45,-14 67,-14 73,0 121,46 121,115 0,25 -8,35 -47,61 -63,40 -103,51 -250,69 -128,16 -153,22 -153,36 0,5 -6,9 -13,9 -7,0 -33,9 -56,21 -61,29 -150,20 -204,-22 l -37,-30 v 59 c 0,74 23,112 58,93 11,-6 29,-11 39,-11 16,0 18,7 17,48 -1,26 -3,47 -4,47 -1,0 -3,8 -5,18 -2,10 -12,28 -21,38 -12,13 -14,23 -8,27 22,15 21,39 -2,61 -13,13 -22,27 -19,31 11,17 -14,19 -44,4 -23,-12 -31,-21 -26,-33 10,-24 10,-22 1,-73 -5,-32 -14,-51 -27,-58 -10,-6 -19,-17 -19,-24 0,-7 -11,-33 -25,-57 -14,-24 -27,-51 -31,-59 -14,-36 -22,-44 -68,-62 -36,-14 -52,-16 -62,-7 -23,19 -53,1 -60,-36 -3,-18 -17,-42 -30,-54 l -24,-20 21,-48 c 11,-27 24,-52 30,-57 5,-6 9,-23 9,-39 0,-15 11,-43 25,-61 14,-18 25,-44 25,-58 0,-14 6,-31 14,-37 7,-6 19,-33 27,-59 7,-26 23,-64 36,-84 13,-21 23,-41 23,-46 0,-17 132,-142 150,-142 5,0 11,-8 14,-17 9,-28 77,-60 102,-49 l 22,10 -27,52 c -17,34 -32,53 -44,53 -36,1 -109,73 -139,136 -15,33 -28,67 -28,75 0,9 -7,26 -16,39 -15,21 -54,157 -54,188 0,8 -7,21 -15,29 -17,18 -20,54 -4,54 6,0 17,-7 26,-16 11,-10 30,-14 61,-13 33,2 47,-1 50,-11 3,-8 11,-23 19,-32 10,-11 16,-44 17,-95 3,-85 58,-273 80,-273 7,0 18,15 24,34 10,27 17,33 32,29 11,-3 45,7 75,22 30,14 60,25 67,23 6,-2 17,-28 25,-58 7,-29 27,-75 43,-102 17,-27 30,-57 30,-68 0,-12 6,-36 14,-55 11,-25 14,-71 13,-168 -1,-97 2,-138 11,-150 8,-9 10,-25 6,-41 -6,-27 12,-179 25,-205 10,-19 -28,-93 -51,-99 -10,-2 -18,-9 -18,-14 0,-13 -89,0 -106,15 -7,7 -27,23 -44,37 -34,27 -37,44 -13,68 16,16 15,17 -16,20 -42,4 -67,-18 -75,-66 -9,-59 -16,-114 -22,-157 l -5,-40 -40,3 c -46,5 -109,-31 -109,-61 0,-10 5,-15 10,-12 6,3 17,-1 26,-9 8,-9 27,-17 42,-18 15,-1 34,-2 43,-3 23,-1 49,-24 49,-42 0,-12 7,-14 29,-10 17,4 36,0 50,-9 12,-9 28,-13 36,-10 8,3 15,1 15,-4 0,-6 7,-10 15,-10 8,0 15,-7 15,-15 0,-24 19,-18 32,10 14,31 22,31 36,0 7,-15 20,-25 32,-25 30,0 60,-18 60,-36 0,-8 7,-17 15,-20 8,-4 15,-13 15,-21 0,-15 91,-109 124,-128 10,-6 20,-27 23,-52 5,-35 3,-43 -11,-43 -9,0 -16,-6 -16,-13 0,-7 -9,-20 -20,-30 -11,-9 -20,-24 -20,-33 0,-12 -6,-14 -30,-9 -25,5 -29,4 -24,-9 4,-10 0,-18 -10,-22 -9,-3 -16,-14 -16,-24 0,-10 -9,-20 -21,-23 -11,-3 -19,-12 -17,-21 2,-8 -6,-21 -17,-29 -16,-13 -17,-17 -6,-31 7,-9 11,-26 8,-37 -3,-12 6,-56 20,-98 29,-86 32,-137 9,-154 -16,-13 -24,-96 -11,-134 6,-19 -3,-32 -48,-78 -31,-30 -61,-55 -66,-55 -12,0 -40,-60 -40,-87 -2,-91 -8,-127 -20,-131 -7,-2 -28,-18 -47,-34 -28,-25 -33,-35 -28,-56 4,-15 15,-34 25,-42 12,-9 19,-31 21,-59 3,-40 1,-44 -32,-62 -19,-10 -42,-27 -51,-38 -8,-10 -24,-20 -35,-23 -14,-2 -20,-13 -22,-42 -2,-21 1,-43 6,-48 6,-6 8,-27 5,-48 -9,-65 2,-88 57,-115 28,-14 73,-36 101,-51 70,-35 142,-59 219,-75 36,-7 67,-14 70,-15 3,0 13,-4 24,-9 23,-10 314,2 381,16 28,6 89,15 138,22 86,10 87,11 87,38 0,30 -23,49 -60,49 -13,0 -24,8 -27,19 -3,14 -21,21 -73,31 -71,13 -206,10 -231,-6 -8,-5 -43,-10 -79,-11 -36,-1 -100,-5 -143,-10 -91,-9 -110,-3 -71,23 15,11 50,42 77,69 47,48 49,52 44,95 -5,44 -5,45 40,72 24,16 54,28 67,28 12,0 27,5 34,12 14,14 16,80 3,93 -18,19 -17,119 2,148 9,15 20,48 24,74 3,27 12,57 19,68 8,11 14,27 14,36 0,9 7,30 15,45 22,43 20,117 -5,139 -11,10 -20,23 -20,28 0,5 -10,29 -21,53 l -22,42 23,32 c 17,23 23,49 26,96 3,61 5,66 36,87 37,25 98,26 98,1 0,-8 7,-14 15,-14 8,0 15,-4 15,-9 0,-5 17,-13 38,-18 27,-6 38,-14 40,-31 3,-18 10,-22 37,-22 21,0 35,6 39,16 10,27 6,92 -7,106 -7,7 -20,25 -30,41 l -17,27 h 49 50 l 6,-47 c 7,-55 8,-57 34,-98 15,-22 20,-49 20,-104 1,-64 5,-81 27,-112 25,-36 53,-60 99,-84 21,-12 23,-28 9,-137 l -6,-57 43,-45 c 24,-25 49,-46 56,-46 8,0 11,-19 10,-57 -2,-55 -1,-58 23,-61 14,-2 29,-8 34,-13 6,-5 46,-9 90,-9 73,0 82,2 108,27 17,16 28,37 28,54 0,15 3,34 6,43 7,17 34,22 34,6 0,-6 43,-10 110,-10 61,0 110,3 110,8 0,4 23,5 52,3 37,-2 55,1 62,11 6,8 21,20 32,26 12,6 24,25 28,42 3,18 15,43 26,57 11,14 20,36 20,49 0,14 6,24 14,24 8,0 25,19 39,43 14,23 37,53 51,66 14,14 26,30 26,36 0,6 20,52 44,102 44,90 116,287 116,317 0,11 -9,16 -31,16 -28,0 -31,3 -25,23 4,12 9,47 12,77 10,111 13,122 29,106 8,-8 15,-20 15,-26 0,-7 9,-24 21,-38 11,-15 35,-48 54,-73 43,-58 104,-80 153,-55 59,30 115,121 157,257 16,50 16,76 7,275 -14,291 -32,362 -135,549 -40,71 -72,111 -154,192 -98,96 -105,105 -114,155 -5,29 -12,189 -16,356 -5,244 -9,302 -19,302 -10,0 -14,14 -14,43 0,45 -30,115 -55,130 -8,4 -15,12 -15,18 0,5 -11,27 -25,49 -14,22 -25,48 -25,59 0,10 -7,21 -15,25 -25,9 -17,55 16,97 30,38 30,43 -2,40 -28,-3 -46,41 -54,132 -4,48 -11,87 -16,87 -13,0 -29,-35 -29,-63 0,-14 -6,-30 -14,-36 -8,-7 -17,-23 -20,-37 -11,-43 -27,-16 -20,36 5,40 3,53 -17,80 -21,28 -22,33 -8,43 9,7 19,24 23,40 3,15 11,27 16,27 6,0 10,16 10,36 0,27 5,37 20,41 11,3 20,10 20,17 0,6 6,0 13,-14 7,-14 21,-26 31,-28 17,-4 18,1 12,37 -5,34 -3,42 13,51 16,8 22,6 30,-7 9,-15 10,-11 11,18 0,26 -7,42 -26,60 l -26,24 31,5 c 31,5 31,5 16,34 -8,15 -15,33 -15,40 0,6 -8,27 -19,46 -10,19 -21,49 -25,66 -4,18 -16,40 -26,49 -11,10 -26,38 -35,64 -8,25 -34,71 -56,100 -51,67 -68,120 -45,133 29,16 17,28 -27,28 -46,0 -67,13 -67,42 0,14 -8,18 -40,18 h -40 z m -69,-1234 c 12,0 19,-7 19,-18 0,-23 19,-42 42,-42 10,0 22,-10 27,-22 5,-13 18,-30 30,-38 29,-20 29,-85 0,-100 -16,-9 -20,-20 -18,-54 2,-23 0,-46 -3,-51 -3,-6 -9,-38 -13,-72 -4,-35 -11,-63 -16,-63 -5,0 -9,-13 -9,-30 0,-19 -7,-33 -20,-40 -11,-6 -20,-17 -20,-25 0,-7 -4,-16 -9,-19 -4,-3 -8,59 -7,137 1,115 -2,148 -15,167 -9,14 -19,50 -22,81 -4,31 -14,69 -22,85 -14,27 -14,47 2,144 l 5,35 15,-37 c 10,-25 22,-38 34,-38 z m 603,-1425 c 8,-52 26,-60 26,-12 l 1,32 29,-33 c 26,-27 30,-40 30,-86 0,-51 2,-56 34,-75 18,-12 45,-21 59,-21 20,0 30,-9 47,-45 19,-40 20,-51 11,-95 -6,-28 -11,-64 -11,-79 0,-15 -12,-44 -27,-64 -26,-34 -32,-36 -81,-37 -47,0 -53,3 -62,26 -7,18 -6,33 5,54 8,16 15,40 15,53 0,14 7,30 15,37 9,8 15,30 15,58 0,41 -4,49 -51,93 -51,50 -79,61 -79,34 0,-8 -6,-15 -13,-15 -27,0 -47,-100 -41,-196 6,-82 5,-91 -14,-107 -20,-19 -21,-19 -28,18 -9,50 3,218 18,252 7,16 18,31 25,36 14,9 53,109 53,137 0,10 6,21 13,23 7,3 5,6 -5,6 -10,1 -18,5 -18,10 0,5 -3,16 -6,25 -4,11 0,16 14,16 16,0 21,-9 26,-45 z m 331,-743 c -9,-45 -26,-92 -42,-114 -14,-21 -27,-38 -28,-38 -1,0 1,19 6,43 4,23 13,74 19,112 6,39 21,99 33,135 l 22,64 3,-63 c 2,-35 -4,-97 -13,-139 z" />
      <path
         id="pUOrDNlbe"
         d="m 2410,5385 c -33,-34 -28,-46 11,-25 12,7 19,7 19,1 0,-6 -25,-26 -55,-47 -31,-20 -60,-44 -65,-54 -13,-25 11,-55 39,-47 16,4 21,1 21,-14 0,-58 83,-169 125,-169 30,0 59,-32 43,-48 -9,-9 -7,-16 6,-31 10,-11 15,-25 11,-31 -4,-6 10,-26 29,-44 20,-18 39,-43 41,-56 3,-13 9,-28 15,-34 5,-5 10,-16 10,-23 0,-15 -50,-42 -67,-36 -9,3 -13,-9 -13,-43 v -47 l 61,7 c 34,3 100,6 145,6 68,0 87,3 102,18 26,26 59,33 73,16 19,-23 70,-44 106,-44 27,0 35,5 43,26 18,45 12,85 -15,106 -16,13 -25,29 -25,49 0,25 -4,29 -29,29 -22,0 -31,6 -41,30 -10,25 -18,30 -45,30 -18,0 -38,-7 -45,-14 -26,-32 -110,31 -110,82 0,35 -7,45 -50,71 -23,13 -52,21 -83,21 -36,0 -49,4 -54,18 -9,26 -35,53 -60,63 -12,4 -27,19 -35,32 -7,14 -21,39 -32,58 l -18,33 33,28 c 19,15 40,28 47,28 7,0 12,15 12,39 0,43 -13,51 -80,51 -26,-1 -43,-9 -70,-35 z" />
      <path
         id="p15R7UD520"
         d="m 2298,4593 c -22,-6 -23,-17 -3,-33 17,-14 20,-46 5,-55 -5,-3 -10,-28 -10,-55 0,-45 -3,-50 -42,-79 -23,-17 -48,-31 -56,-31 -7,0 -12,-8 -10,-17 3,-16 21,-19 158,-24 85,-3 168,-11 183,-17 16,-7 57,-12 93,-12 h 64 v 35 c 0,59 -111,205 -156,205 -20,0 -74,41 -74,55 0,27 -93,44 -152,28 z" />
      <path
         id="pvwyakLlO"
         d="m 1558,3463 c -10,-2 -18,-9 -18,-14 0,-5 -7,-9 -15,-9 -18,0 -19,-12 -3,-28 9,-9 8,-12 -5,-12 -9,0 -17,-4 -17,-9 0,-21 42,-79 60,-84 47,-12 9,-37 -57,-37 -19,0 -36,-7 -41,-16 -9,-15 -51,-23 -145,-26 -24,-1 -28,-5 -25,-26 2,-18 11,-28 31,-33 15,-4 47,-28 72,-53 39,-41 49,-46 87,-46 39,1 46,5 76,45 l 32,45 60,-7 60,-6 v 42 c 0,22 -4,41 -10,41 -5,0 -10,13 -10,29 0,17 -11,42 -26,60 -23,28 -24,32 -10,47 9,8 16,20 16,25 0,5 11,9 25,9 54,0 13,42 -57,59 -49,11 -52,12 -80,4 z" />
    </g>
  </g>
  <g
     id="l77Icz1rtcP6mMdPRifcvaW"
     fill="#464646"
     transform="matrix(0.60763889,0,0,0.60763889,0,3.4612871)">
    <g
       id="g215">
      <path
         id="pUPo6CBBE"
         d="m 1788,7349 c -6,-54 5,-196 15,-206 12,-11 102,31 130,61 23,24 30,27 38,15 5,-8 9,-17 9,-21 0,-5 16,-8 36,-8 25,0 35,4 31,13 -8,20 -35,157 -36,185 -1,9 -30,12 -110,12 h -108 z" />
      <path
         id="p18mMkXRxH"
         d="m 2110,7015 c 0,-29 4,-34 31,-40 17,-4 46,-4 65,0 42,7 74,-1 74,-21 0,-8 5,-14 10,-14 6,0 10,-16 10,-36 0,-20 9,-49 21,-65 19,-28 24,-29 98,-29 h 77 l 101,-91 c 70,-62 105,-101 113,-125 10,-28 16,-34 40,-34 26,0 28,2 25,38 -4,62 -21,89 -110,175 -55,53 -85,90 -85,104 0,59 -30,68 -95,28 -68,-42 -145,-26 -145,30 0,11 -7,39 -16,62 -14,35 -22,44 -50,49 -18,3 -52,2 -76,-3 -25,-6 -54,-6 -66,-2 -20,8 -22,5 -22,-26 z" />
      <path
         id="pPLJc361G"
         d="m 4617,6954 c -4,-4 -7,-21 -7,-38 0,-59 -50,-99 -87,-70 -32,24 -51,15 -94,-47 -39,-54 -96,-99 -128,-99 -6,0 -43,16 -83,35 -40,19 -74,32 -76,30 -12,-11 -22,-174 -13,-198 14,-36 42,-34 65,3 23,40 48,54 121,70 54,11 98,35 137,74 42,42 126,60 261,57 l 87,-3 v 26 c 0,25 -3,26 -41,24 -40,-3 -41,-2 -70,52 -33,61 -62,94 -72,84 z" />
      <path
         id="pR4BWPFP7"
         d="m 5020,6721 c 0,-16 -6,-56 -14,-88 -20,-78 -40,-458 -27,-498 8,-25 9,-26 10,-8 1,20 6,36 32,98 30,72 42,107 58,171 12,47 15,74 8,77 -10,3 -26,82 -33,162 -5,59 -15,105 -25,111 -5,3 -9,-8 -9,-25 z" />
      <path
         id="pXGNX7wlr"
         d="m 5176,6204 c -28,-27 -72,-97 -91,-144 -11,-27 -21,-83 -25,-137 -5,-79 -9,-96 -30,-118 -18,-19 -20,-25 -8,-25 14,0 15,-5 6,-28 -14,-36 -2,-102 17,-102 15,0 35,18 70,66 11,14 29,36 40,48 11,11 19,27 17,33 -2,7 2,13 8,13 5,0 10,5 10,10 0,6 -15,8 -40,4 l -40,-7 11,34 c 7,19 16,38 20,44 5,5 9,16 9,26 0,9 13,41 29,71 23,43 31,74 37,142 6,74 5,86 -9,86 -9,0 -23,-7 -31,-16 z" />
      <path
         id="p14TOVDPZb"
         d="m 5675,6074 c -27,-14 -59,-34 -70,-44 -11,-10 -30,-21 -42,-25 -24,-7 -31,-31 -12,-37 9,-3 8,-11 -2,-28 -20,-37 -48,-122 -49,-146 0,-26 23,-47 74,-68 41,-17 46,-16 134,16 l 52,19 v 90 c 0,71 -3,89 -15,89 -14,0 -81,58 -74,64 2,2 23,13 47,25 32,17 42,27 42,46 0,32 -20,32 -85,-1 z" />
      <path
         id="pvgkJUMEI"
         d="m 1824,6001 c -77,-78 -109,-101 -138,-102 -26,0 -28,-2 -11,-9 11,-5 34,-9 50,-9 26,-1 31,-5 33,-27 2,-30 51,-124 64,-124 4,0 8,-6 8,-14 0,-34 61,-108 77,-93 2,3 -1,31 -7,64 -6,32 -13,120 -17,196 -5,119 -8,137 -23,137 -9,0 -25,-9 -36,-19 z" />
      <path
         id="pI4RnQUD3"
         d="m 3385,5630 c -11,-5 -36,-9 -56,-9 -40,-1 -49,-13 -49,-61 0,-16 -5,-32 -11,-36 -7,-4 -9,-25 -7,-55 4,-34 1,-52 -8,-60 -8,-6 -14,-24 -14,-40 0,-19 -6,-30 -21,-34 -30,-10 -59,-42 -59,-66 0,-12 -8,-23 -20,-26 -10,-3 -22,-14 -26,-25 -4,-13 -11,-17 -22,-13 -34,14 -109,17 -132,5 -21,-11 -22,-17 -17,-75 l 6,-63 -41,-4 c -32,-3 -45,1 -57,15 -9,10 -35,32 -59,48 -46,31 -79,35 -147,19 -32,-7 -42,-6 -51,5 -6,8 -19,15 -28,15 -10,0 -16,8 -16,25 0,15 -6,25 -15,25 -14,0 -35,29 -35,49 0,6 7,11 15,11 8,0 15,4 15,10 0,5 11,12 25,16 23,6 25,11 25,59 0,58 -8,65 -77,65 -26,0 -33,-4 -33,-19 0,-13 9,-21 30,-26 29,-6 42,-25 18,-25 -7,0 -32,-17 -56,-38 l -43,-37 28,-54 c 48,-93 54,-102 71,-108 26,-9 53,-36 63,-60 5,-15 20,-23 49,-28 23,-4 44,-4 47,-1 7,7 56,-18 77,-39 9,-9 16,-30 16,-46 0,-32 48,-89 76,-89 8,0 17,-7 20,-15 9,-22 35,-18 65,11 l 26,25 13,-30 c 12,-31 19,-35 53,-32 13,2 17,-5 17,-28 0,-20 8,-36 25,-49 22,-17 24,-24 15,-46 -5,-14 -13,-26 -17,-25 -8,0 -41,20 -86,52 -23,17 -30,17 -64,5 -21,-7 -43,-20 -50,-28 -9,-12 -35,-15 -115,-15 -57,0 -111,-4 -120,-8 -13,-7 -15,-5 -11,11 6,24 -38,58 -58,46 -19,-11 -73,-13 -86,-2 -7,5 -16,7 -21,4 -5,-3 -21,2 -36,9 -33,18 -80,10 -72,-12 3,-7 -2,-17 -11,-20 -35,-13 -65,-54 -77,-105 -5,-22 -1,-29 22,-40 36,-19 76,-6 122,38 34,32 36,32 70,18 24,-11 51,-13 85,-9 28,3 86,8 130,11 71,5 85,3 123,-17 36,-21 42,-28 42,-57 0,-18 5,-43 11,-54 10,-19 9,-20 -33,-15 -23,3 -88,15 -143,27 -55,11 -128,26 -162,32 -35,6 -63,15 -63,20 0,4 -17,8 -37,8 -34,-1 -36,-2 -20,-14 9,-7 17,-17 17,-22 0,-14 69,-66 79,-60 14,9 80,-54 117,-112 38,-59 41,-67 18,-58 -22,9 -64,-4 -64,-19 0,-8 15,-16 32,-20 18,-4 60,-16 92,-27 47,-15 73,-18 120,-13 33,4 68,12 77,18 17,11 44,1 141,-49 14,-8 42,-14 61,-14 43,0 67,32 67,90 v 41 l 29,-20 c 18,-13 45,-21 69,-21 h 40 l 6,-72 c 3,-40 8,-94 12,-119 5,-44 4,-48 -31,-76 -60,-50 -75,-93 -59,-172 6,-30 9,-31 56,-31 37,0 57,6 82,25 18,14 41,25 51,25 9,0 26,11 37,25 34,44 67,24 33,-21 -8,-10 -15,-26 -15,-35 0,-9 -27,-37 -59,-63 -58,-45 -62,-47 -154,-55 -52,-5 -122,-7 -155,-4 l -60,6 -51,-48 c -34,-32 -51,-56 -51,-72 0,-28 -42,-71 -112,-115 -26,-16 -50,-37 -53,-48 -7,-22 -52,-53 -65,-45 -18,11 -10,33 19,58 38,32 53,85 49,177 -3,73 -4,75 -30,78 -22,3 -26,0 -21,-17 3,-12 1,-21 -6,-21 -6,0 -11,-13 -11,-29 0,-24 -7,-32 -42,-50 -39,-19 -44,-20 -55,-5 -21,28 -203,31 -203,3 0,-5 15,-24 34,-42 28,-28 83,-52 163,-73 10,-2 10,-10 2,-31 -5,-15 -13,-55 -16,-88 -3,-33 -10,-65 -15,-72 -5,-7 -7,-20 -4,-30 5,-15 -2,-22 -29,-32 -28,-10 -40,-24 -65,-77 -17,-35 -34,-64 -38,-64 -4,0 -13,-4 -21,-9 -12,-8 -12,-12 -2,-25 11,-13 7,-23 -28,-62 -23,-26 -41,-55 -41,-65 0,-11 -21,-28 -63,-48 -35,-17 -68,-31 -74,-31 -18,0 -83,-63 -83,-80 0,-9 5,-21 12,-28 8,-8 8,-15 -2,-26 -7,-10 -10,-26 -6,-42 7,-25 8,-25 25,-10 17,16 20,16 35,1 9,-9 16,-20 16,-25 0,-10 16,-15 72,-24 31,-6 38,-12 48,-42 8,-24 17,-34 26,-30 8,3 14,0 14,-7 1,-19 38,-59 50,-52 5,3 16,0 24,-8 8,-7 31,-13 53,-12 25,1 43,-5 54,-17 15,-16 21,-17 60,-5 50,15 79,12 79,-7 0,-13 48,-29 123,-41 20,-3 37,-10 37,-15 0,-6 11,-10 25,-10 14,0 25,-4 25,-9 0,-10 207,-5 235,5 9,4 27,2 40,-4 13,-6 40,-8 60,-5 22,3 46,1 61,-8 24,-12 27,-11 50,19 14,18 32,32 39,32 8,0 20,12 27,27 9,19 23,30 43,33 34,6 37,20 9,35 -11,6 -30,20 -43,32 -13,12 -37,27 -53,32 -26,9 -31,8 -35,-8 -5,-19 -40,-31 -89,-31 -13,0 -35,12 -48,27 -21,22 -25,35 -22,68 3,29 9,41 22,44 11,2 24,7 29,11 6,4 26,10 45,14 19,3 58,13 87,22 68,21 134,13 148,-19 9,-19 17,-22 62,-19 38,2 59,9 76,25 30,28 48,78 35,100 -5,10 -7,21 -3,26 8,14 -24,104 -44,121 -9,8 -20,23 -24,34 -4,10 -13,16 -21,13 -8,-3 -20,1 -27,9 -6,8 -17,13 -23,11 -6,-2 -24,3 -41,11 -17,8 -24,17 -17,19 17,6 15,30 -3,37 -8,3 -15,12 -15,21 0,10 -10,15 -30,15 -17,0 -42,8 -57,17 -40,26 -123,55 -175,60 -46,5 -48,4 -48,-21 0,-19 5,-26 20,-26 19,0 140,-37 148,-45 2,-2 -30,-1 -72,2 l -76,6 v -37 c 0,-25 -4,-36 -15,-36 -11,0 -15,-12 -15,-45 0,-25 5,-45 10,-45 6,0 10,-15 10,-34 0,-40 28,-66 72,-66 15,0 46,-7 68,-16 32,-13 61,-15 126,-11 46,2 84,2 84,-2 0,-16 -50,-37 -105,-42 -33,-4 -82,-14 -110,-24 -27,-9 -75,-24 -105,-34 -45,-14 -56,-21 -58,-41 -2,-14 -8,-29 -13,-34 -18,-19 -10,-78 16,-108 41,-49 29,-72 -55,-109 -32,-14 -174,-7 -194,10 -13,11 -68,24 -163,38 -24,3 -43,9 -43,13 0,4 -28,10 -61,13 -34,3 -66,10 -72,16 -6,6 -26,11 -44,11 -29,0 -33,4 -43,41 -6,23 -22,53 -36,68 -13,14 -24,38 -24,53 0,15 -4,29 -9,32 -10,7 -3,46 9,46 4,0 10,9 13,20 3,11 12,20 20,20 15,0 24,21 67,149 26,79 36,98 69,134 45,49 97,69 176,68 43,-1 97,6 140,19 38,11 92,20 118,20 41,0 48,3 45,18 -2,12 -18,20 -53,27 -85,17 -112,49 -116,137 -3,60 8,86 42,103 16,9 29,20 29,25 0,6 7,10 15,10 9,0 35,9 57,20 23,11 54,20 69,20 15,0 29,7 33,16 4,9 13,13 24,10 10,-4 50,5 88,20 74,28 76,28 116,18 22,-5 29,-2 35,14 5,11 24,31 43,44 19,13 44,39 55,57 26,45 117,141 132,141 19,0 11,61 -12,86 -11,12 -25,29 -32,37 -7,8 -18,17 -25,20 -10,3 -10,9 -1,24 6,11 8,24 3,29 -5,5 -10,22 -12,39 -3,26 -7,29 -41,31 -25,0 -41,-5 -47,-15 -7,-12 -9,-8 -10,17 0,29 3,32 20,27 15,-5 20,-2 20,12 0,11 -5,24 -12,31 -7,7 -12,50 -13,112 -1,88 2,103 17,111 21,11 24,49 4,49 -9,0 -15,20 -19,68 -9,104 -2,271 11,284 7,7 12,24 12,39 0,15 4,30 10,34 5,3 12,33 16,66 4,37 12,63 20,66 8,3 14,10 14,15 0,6 7,16 16,22 14,10 12,18 -18,61 -18,28 -39,70 -47,95 -7,25 -26,73 -42,107 -32,70 -35,90 -14,117 12,16 17,17 30,6 20,-16 32,-5 16,14 -26,31 104,59 148,32 7,-5 11,1 11,14 0,11 -16,34 -35,51 -19,17 -35,37 -35,44 0,7 -16,22 -36,34 -37,22 -111,27 -149,11 z" />
      <path
         id="p1pVsrWCV"
         d="m 3668,5452 c 9,-10 22,-17 29,-15 6,3 13,-4 16,-14 3,-10 5,-4 6,15 1,30 -1,32 -34,32 -34,0 -34,-1 -17,-18 z" />
      <path
         id="pjNfgt4Ib"
         d="m 3730,5410 c 0,-5 7,-10 15,-10 8,0 15,-5 15,-11 0,-5 5,-7 11,-3 6,3 15,0 20,-7 6,-10 9,-6 9,14 0,24 -3,27 -35,27 -19,0 -35,-4 -35,-10 z" />
      <path
         id="pk6VBxEs6"
         d="m 3871,5259 c 8,-16 13,-18 19,-9 4,7 13,9 19,6 6,-4 11,0 11,8 0,11 -10,16 -30,16 -28,0 -30,-2 -19,-21 z" />
      <path
         id="p1FZ1K1kXZ"
         d="m 4120,5182 c 0,-19 -6,-22 -41,-22 h -40 l 93,-93 94,-93 63,-174 c 68,-189 75,-234 54,-345 -6,-33 -9,-62 -7,-65 3,-2 24,3 47,11 l 42,14 -3,64 c -1,43 -15,103 -42,182 -22,65 -40,129 -40,143 0,13 -7,43 -15,67 -25,72 -136,289 -148,289 -6,0 -21,10 -34,22 l -23,21 z" />
      <path
         id="pBTbAFQUl"
         d="m 3639,4608 c -1,-2 -3,-36 -5,-76 -3,-41 -11,-87 -19,-102 -19,-37 -19,-56 1,-64 8,-3 13,-10 10,-15 -3,-5 1,-14 8,-21 8,-6 18,-37 21,-68 3,-31 13,-70 22,-87 13,-23 16,-55 15,-150 -3,-161 5,-215 28,-215 12,0 25,17 39,49 11,27 27,51 36,55 9,3 15,18 15,36 0,16 4,30 9,30 8,0 19,52 24,110 1,13 11,29 22,35 24,12 22,43 -3,63 -16,12 -15,15 8,32 14,11 31,18 38,15 6,-2 12,0 12,5 0,6 -5,10 -11,10 -6,0 -9,9 -6,20 3,11 1,20 -5,20 -5,0 -7,12 -3,29 5,24 1,35 -23,58 -16,15 -31,36 -35,46 -3,9 -15,17 -25,17 -25,0 -42,19 -42,48 0,19 -4,23 -20,19 -16,-4 -23,4 -38,47 -16,42 -24,52 -46,54 -14,2 -26,2 -27,0 z m 127,-485 c 8,-3 14,-16 14,-28 0,-25 -18,-80 -24,-74 -2,2 -6,40 -9,84 -3,44 -3,67 0,52 2,-16 11,-31 19,-34 z" />
      <path
         id="pVSHAnuf4"
         d="m 2557,4142 c 20,-13 -5,-57 -44,-77 -30,-17 -36,-17 -70,-2 -21,8 -51,18 -68,22 -16,3 -38,8 -47,11 -14,4 -18,-1 -18,-24 0,-26 4,-31 37,-37 21,-4 50,-13 65,-21 32,-16 124,-19 133,-3 4,5 18,14 31,19 21,8 24,16 24,65 0,53 -1,55 -27,55 -18,0 -23,-3 -16,-8 z" />
      <path
         id="pFrHXWevx"
         d="m 2915,4141 c -6,-6 -35,-11 -65,-13 l -55,-3 -3,-38 c -2,-21 2,-44 8,-52 8,-9 8,-15 0,-20 -5,-3 -10,-21 -10,-39 0,-25 5,-35 20,-39 17,-4 20,-14 20,-56 0,-44 3,-51 19,-51 11,0 23,-5 27,-11 8,-13 137,-4 165,12 10,5 21,23 24,41 4,18 16,44 26,57 23,28 27,157 7,183 -24,31 -160,52 -183,29 z" />
      <path
         id="pM5dpMocV"
         d="m 2215,3896 c -62,-23 -62,-24 -51,-80 5,-27 61,-96 77,-96 5,0 22,20 38,44 27,39 34,43 71,43 33,0 38,-2 29,-14 -16,-19 -2,-32 45,-43 34,-7 36,-6 36,16 0,13 -4,24 -10,24 -5,0 -10,13 -10,29 0,16 -6,31 -15,35 -8,3 -15,12 -15,19 0,8 -12,19 -26,26 -48,22 -106,21 -169,-3 z" />
      <path
         id="psXRRGsna"
         d="m 1668,3432 c -16,-2 -30,-11 -33,-23 -4,-12 -19,-22 -36,-26 -16,-3 -32,-9 -35,-14 -2,-4 18,-30 46,-57 48,-46 67,-88 35,-76 -8,4 -15,2 -15,-3 0,-13 55,-43 80,-43 20,0 22,4 18,45 -2,25 1,45 5,45 5,0 32,-22 61,-50 29,-27 58,-50 64,-50 18,0 42,-42 42,-75 0,-53 26,-109 54,-119 30,-11 34,-26 7,-26 -10,0 -26,-11 -35,-25 -9,-13 -36,-34 -60,-44 -25,-12 -46,-29 -49,-41 -4,-16 -13,-20 -44,-20 -46,0 -115,-34 -165,-83 -43,-40 -48,-58 -16,-49 14,3 19,1 14,-6 -5,-9 6,-10 38,-6 38,6 46,4 46,-9 0,-13 5,-15 23,-8 14,5 30,5 38,1 18,-12 58,-2 88,22 13,10 31,16 40,14 9,-3 31,-7 49,-11 31,-6 32,-5 32,22 -1,37 7,128 15,178 8,42 30,75 50,75 7,0 16,7 19,16 9,24 7,54 -4,54 -5,0 -10,10 -10,22 0,12 -9,31 -20,43 -12,11 -43,54 -70,96 -74,115 -218,237 -272,231 z" />
      <path
         id="p12wkImF3l"
         d="m 2788,3046 c -45,-20 -57,-44 -58,-118 0,-52 3,-68 14,-68 8,0 17,-10 20,-22 16,-58 76,-97 162,-105 l 65,-6 -3,63 c -2,44 1,65 10,68 6,2 12,17 12,34 0,30 -22,57 -77,95 -15,10 -23,25 -23,44 0,28 -2,29 -47,28 -27,0 -60,-6 -75,-13 z" />
      <path
         id="pe3fq0VTE"
         d="m 4266,2088 c -3,-13 -6,-37 -6,-54 0,-20 -9,-39 -25,-54 -14,-13 -25,-29 -25,-37 0,-23 35,-14 65,17 16,17 39,30 52,30 18,0 23,6 23,25 0,18 -5,25 -20,25 -16,0 -20,7 -20,35 0,28 -4,35 -19,35 -11,0 -21,-9 -25,-22 z" />
      <path
         id="pRqJjeF1J"
         d="m 2925,2011 c -3,-6 -17,-11 -31,-11 -20,0 -24,-5 -24,-30 0,-29 19,-69 47,-98 7,-7 13,-20 13,-28 0,-14 -2,-14 -15,-1 -7,8 -30,18 -50,21 -19,4 -35,11 -35,16 0,6 -6,10 -14,10 -7,0 -16,10 -19,21 -5,17 -11,20 -31,15 -21,-5 -25,-2 -28,20 l -3,27 -46,-36 c -26,-19 -56,-40 -67,-46 -20,-11 -35,-64 -21,-78 12,-14 -3,-72 -26,-97 -26,-28 -28,-80 -3,-118 10,-14 20,-37 23,-51 4,-14 15,-33 26,-43 23,-21 24,-39 4,-78 -8,-15 -15,-36 -15,-46 0,-9 -9,-29 -20,-42 -10,-14 -17,-28 -14,-31 15,-15 -10,-88 -47,-132 -45,-55 -47,-62 -16,-67 19,-3 22,-10 24,-51 1,-27 7,-55 14,-63 15,-19 -5,-44 -36,-44 -24,0 -145,-68 -145,-81 0,-4 6,-12 14,-16 25,-14 22,-48 -9,-87 -29,-37 -91,-85 -127,-99 -26,-9 -22,-32 9,-57 24,-19 36,-21 120,-16 51,3 101,10 112,15 26,14 31,14 31,-3 0,-7 6,-19 14,-25 12,-10 19,-8 35,8 12,12 29,21 39,21 10,0 23,5 29,11 30,30 238,11 246,-23 3,-10 14,-18 27,-18 30,0 60,-18 60,-35 0,-16 51,-13 135,7 22,5 72,16 110,24 39,8 87,24 108,35 21,10 43,19 50,19 10,1 84,36 197,95 37,19 115,70 165,108 53,40 175,160 175,173 0,7 3,14 8,16 6,3 24,28 81,118 9,14 33,61 55,105 21,44 44,91 51,105 7,14 20,50 30,80 9,30 23,69 30,85 28,66 28,75 2,75 -26,0 -65,-39 -93,-91 -8,-16 -21,-29 -29,-29 -9,0 -15,-9 -15,-24 0,-13 -9,-35 -20,-49 -11,-14 -23,-39 -26,-57 -4,-17 -16,-36 -28,-42 -11,-6 -25,-17 -29,-24 -9,-16 -47,-19 -47,-4 0,15 -47,12 -63,-5 -21,-20 -154,-19 -175,2 -10,10 -25,13 -46,9 -36,-7 -46,-21 -46,-62 0,-21 -10,-39 -30,-59 -26,-25 -33,-28 -50,-17 -25,16 -57,15 -64,0 -3,-9 -9,-8 -20,5 -8,10 -24,17 -35,15 -11,-2 -20,0 -21,5 -3,57 1,75 21,80 28,8 15,27 -19,27 -19,0 -40,14 -71,46 l -44,45 13,42 c 24,78 11,157 -25,157 -18,0 -102,85 -110,111 -4,11 -2,26 5,34 7,9 8,15 0,20 -13,8 -13,61 0,86 9,15 7,19 -5,19 -9,0 -18,8 -22,18 -3,9 -12,24 -20,34 -8,9 -13,22 -12,30 1,7 -1,31 -6,54 -6,37 -9,40 -38,40 -18,0 -39,4 -48,8 -10,4 -20,3 -24,-3 z" />
    </g>
  </g>
  <g
     id="l4W89Ecl9l7CBHGzs6Bzm3I"
     fill="#343434"
     transform="matrix(0.60763889,0,0,0.60763889,0,3.4612871)">
    <g
       id="g236">
      <path
         id="pjvS0inAY"
         d="m 1921,7257 c -21,-31 -44,-51 -76,-63 -42,-18 -45,-21 -45,-56 0,-31 4,-38 20,-38 11,0 20,6 20,14 0,8 10,16 23,20 13,3 40,17 60,30 42,29 54,21 64,-38 5,-34 8,-36 45,-36 24,0 37,4 33,10 -3,6 -8,31 -11,56 -4,51 -10,64 -27,64 -7,0 -21,17 -32,37 -11,20 -25,38 -32,40 -6,2 -25,-16 -42,-40 z" />
      <path
         id="pNj3IRCd2"
         d="m 2070,7021 c 0,-54 18,-66 109,-68 42,-1 83,-2 92,-2 9,-1 19,-10 22,-21 5,-19 37,-29 37,-12 0,4 3,17 6,30 5,16 2,22 -10,22 -9,0 -13,6 -10,14 7,17 -36,28 -98,26 -67,-3 -78,-1 -72,13 3,8 -9,18 -29,25 -47,17 -47,17 -47,-27 z" />
      <path
         id="pHlyIAJEc"
         d="m 1814,6948 c 8,-112 13,-136 33,-140 23,-5 53,-88 41,-112 -15,-27 -3,-259 15,-317 11,-32 13,-71 10,-132 l -6,-87 h 27 c 14,0 26,3 26,8 0,4 7,45 16,92 24,134 50,401 48,494 -1,70 -6,90 -24,116 -25,34 -20,52 7,28 35,-30 48,-33 30,-7 -9,13 -17,31 -17,40 0,30 -70,82 -129,96 -89,21 -85,25 -77,-79 z" />
      <path
         id="pIxBJiMwP"
         d="m 2620,6714 c 0,-27 9,-48 35,-80 40,-48 40,-50 20,-70 -16,-17 -21,-79 -6,-88 5,-3 11,-20 14,-38 3,-18 13,-60 22,-93 16,-54 16,-73 4,-204 -10,-118 -10,-152 1,-190 7,-25 15,-59 18,-76 2,-16 9,-35 14,-42 5,-7 5,-14 -2,-18 -5,-3 -10,-22 -10,-41 0,-32 2,-34 36,-34 49,0 64,18 58,71 -2,24 -6,71 -9,104 -6,71 -29,320 -47,493 -9,99 -9,127 1,144 11,17 10,23 -8,39 -12,11 -21,26 -21,33 0,19 -34,59 -80,96 l -40,32 z" />
      <path
         id="pqWGKRB6E"
         d="m 3984,6228 c -15,-29 -37,-69 -50,-90 -41,-65 -94,-212 -94,-262 0,-34 -4,-46 -15,-46 -8,0 -15,-5 -15,-11 0,-6 19,-9 48,-7 l 47,3 17,51 c 9,29 26,67 36,86 11,19 23,49 27,67 4,18 20,48 36,66 29,33 29,35 23,114 -8,98 -22,104 -60,29 z" />
      <path
         id="pSiaHK6Kk"
         d="m 5685,6058 c -22,-11 -52,-31 -67,-44 -26,-21 -26,-23 -9,-29 10,-3 35,-21 56,-40 24,-24 46,-35 66,-35 h 29 v 85 c 0,97 -4,100 -75,63 z" />
      <path
         id="pA9UTwLmF"
         d="m 3287,5896 c -9,-22 -88,-53 -201,-77 -103,-22 -113,-26 -165,-72 -31,-27 -74,-58 -96,-69 -55,-28 -222,-153 -267,-200 -20,-21 -46,-38 -57,-38 -16,0 -21,-6 -21,-25 0,-17 5,-24 18,-23 41,3 52,-2 52,-26 0,-17 -7,-26 -25,-30 -14,-4 -25,-11 -25,-16 0,-6 -6,-10 -14,-10 -7,0 -19,-6 -26,-14 -15,-19 21,-106 45,-106 11,0 15,-7 13,-22 -2,-16 3,-24 16,-26 21,-4 65,-50 66,-68 0,-15 52,-25 64,-13 6,5 3,14 -9,22 -24,19 -10,40 21,33 14,-4 24,-2 24,4 0,5 4,10 9,10 15,0 93,-56 114,-80 16,-19 26,-22 63,-17 34,3 46,1 53,-11 8,-14 11,-14 26,-2 14,12 17,26 12,83 -4,59 -2,69 15,78 21,12 84,-4 90,-23 7,-20 55,0 62,26 3,13 15,26 26,29 12,3 20,13 20,26 0,24 29,56 59,66 19,6 26,21 22,51 -1,6 8,19 19,29 22,20 25,46 9,77 -9,17 -8,24 3,32 7,6 12,19 10,29 -11,52 25,86 57,55 10,-11 14,-10 22,4 16,29 70,33 112,8 20,-12 37,-27 37,-34 0,-24 52,-65 132,-103 20,-9 39,-25 41,-34 2,-9 18,-19 34,-22 37,-7 113,-76 113,-102 0,-29 14,-47 32,-40 15,6 25,-1 107,-71 20,-18 53,-41 74,-53 l 37,-21 v 30 c 0,24 -15,45 -78,108 -78,76 -170,180 -227,254 -16,21 -33,38 -39,38 -10,0 -86,60 -129,102 -16,16 -34,28 -41,28 -21,0 -66,25 -66,37 0,6 -33,39 -72,73 -40,33 -86,74 -103,89 -37,34 -62,44 -68,27 z m -207,-405 c 0,-4 -27,-11 -61,-14 -42,-4 -65,-11 -74,-24 -19,-24 -19,-102 -1,-122 8,-9 17,-28 21,-42 l 7,-27 -80,-7 c -76,-7 -80,-6 -107,19 -22,20 -26,29 -17,38 15,15 16,90 2,104 -10,10 50,28 230,70 68,15 80,16 80,5 z" />
      <path
         id="phNhlCSQH"
         d="m 2371,4636 c -24,-24 -41,-48 -37,-54 3,-5 19,-12 35,-15 17,-4 39,-15 50,-26 11,-11 41,-22 72,-26 30,-4 65,-13 79,-19 14,-7 43,-14 65,-15 21,-1 45,-7 52,-13 7,-5 19,-8 27,-5 8,3 38,-3 67,-13 35,-13 57,-16 63,-10 6,6 20,10 32,10 29,0 37,24 21,63 -8,18 -12,48 -10,67 3,33 1,36 -44,58 -34,16 -69,23 -118,25 -38,1 -73,6 -76,11 -4,4 -28,-1 -54,-13 -58,-26 -56,-26 -107,-1 -23,11 -49,20 -58,20 -9,0 -35,-20 -59,-44 z" />
      <path
         id="p19KRP6G1X"
         d="m 1853,4470 c -34,-14 -46,-47 -47,-139 l -1,-86 30,-1 c 20,0 43,10 68,32 47,40 102,47 154,22 20,-10 41,-18 45,-18 5,0 16,-7 24,-15 9,-8 26,-15 40,-15 13,0 24,-5 24,-11 0,-5 5,-7 10,-4 13,8 195,-13 240,-28 19,-6 56,-25 83,-42 40,-26 47,-34 47,-63 0,-24 -6,-35 -22,-42 -13,-6 -31,-15 -40,-22 -14,-10 -24,-10 -50,1 -18,7 -51,18 -72,24 -22,5 -48,19 -58,29 -30,30 -77,19 -86,-21 -2,-8 2,-28 8,-45 6,-17 14,-50 16,-73 5,-40 4,-41 -30,-53 -37,-12 -48,-36 -21,-46 8,-3 27,4 41,15 17,14 35,19 48,16 50,-14 76,-28 76,-41 0,-7 7,-17 16,-22 11,-6 15,-17 11,-32 -5,-19 2,-25 50,-47 45,-21 70,-25 136,-25 54,0 88,-4 101,-14 23,-16 87,-19 101,-5 18,16 117,41 167,41 45,0 49,3 74,40 32,48 44,54 16,8 -11,-18 -24,-62 -28,-97 l -7,-64 29,21 c 26,19 36,20 94,13 41,-5 70,-5 78,2 7,5 34,7 62,4 27,-3 52,-2 55,4 4,5 15,9 26,9 26,0 139,88 139,107 0,8 8,27 19,41 26,38 18,93 -17,110 -22,10 -29,9 -59,-14 -18,-14 -33,-29 -33,-35 0,-5 -10,-9 -22,-9 -11,0 -36,-11 -54,-25 -32,-25 -81,-35 -69,-15 4,6 1,17 -5,25 -17,21 9,72 56,109 l 36,28 -6,77 c -3,42 -8,97 -12,122 -4,33 -2,48 8,57 9,7 13,23 10,42 -4,29 -5,29 -33,15 -40,-21 -67,-19 -106,11 -24,18 -41,24 -59,20 -21,-6 -24,-12 -24,-49 0,-25 -8,-52 -19,-66 -17,-23 -20,-23 -47,-8 -119,63 -178,79 -203,55 -11,-12 -28,-15 -93,-18 -23,-2 -25,-50 -2,-50 8,0 12,-4 9,-10 -16,-25 -144,-7 -185,26 -8,7 -35,19 -60,27 l -45,16 43,1 c 34,0 42,3 42,19 0,28 -75,43 -238,45 -76,1 -143,5 -149,9 -6,4 -48,9 -94,12 -83,5 -119,21 -119,52 0,21 -55,73 -76,72 -10,0 -29,-4 -41,-9 z m 1417,-309 c 0,-15 5,-32 11,-38 20,-20 3,-39 -45,-50 -39,-9 -46,-8 -46,5 0,9 -7,24 -17,34 -13,15 -14,18 -2,18 9,0 30,16 49,35 37,38 50,37 50,-4 z m -254,-52 c 25,-6 48,-19 53,-28 14,-26 6,-108 -11,-128 -9,-10 -19,-33 -23,-51 -4,-18 -14,-36 -23,-41 -26,-13 -101,-20 -108,-10 -3,5 -14,9 -25,9 -16,0 -19,7 -19,50 0,43 -3,52 -22,59 -14,5 -17,10 -10,15 15,9 16,68 1,83 -20,20 1,33 56,33 30,0 57,5 60,10 8,13 16,13 71,-1 z" />
      <path
         id="pKsWsBTGA"
         d="m 3700,4274 c 0,-14 -4,-34 -10,-44 -7,-13 -5,-27 7,-51 13,-27 17,-60 15,-162 0,-70 2,-137 7,-149 7,-19 9,-17 24,19 9,22 24,43 34,47 15,6 15,8 3,16 -12,8 -13,13 -2,27 7,10 17,30 23,46 6,15 17,27 24,27 22,0 26,29 5,40 -11,6 -20,21 -20,34 0,13 -7,26 -15,30 -8,3 -15,15 -15,27 0,28 -36,92 -61,107 -17,11 -19,9 -19,-14 z" />
      <path
         id="pz5jY3OO0"
         d="m 1645,4210 c -12,-17 -26,-28 -34,-25 -10,4 -12,-1 -7,-17 3,-13 6,-37 6,-55 0,-17 7,-38 15,-47 8,-8 15,-21 15,-29 0,-30 31,-143 49,-182 11,-22 27,-60 35,-85 9,-25 24,-58 34,-75 21,-34 115,-109 150,-120 l 23,-7 -7,94 c -4,52 -17,124 -29,163 -41,123 -46,153 -37,189 10,34 3,57 -37,121 -12,20 -16,37 -10,51 4,11 4,27 -1,34 -6,10 -13,7 -31,-12 -13,-13 -28,-32 -34,-42 -15,-25 -40,-11 -62,35 l -18,38 z m 140,-332 c 18,-31 55,-117 55,-128 0,-15 -55,64 -85,122 -60,116 -37,120 30,6 z" />
      <path
         id="pK5h3UeeM"
         d="m 2895,3581 c -27,-27 -145,-92 -145,-80 0,5 -4,9 -10,9 -5,0 -10,-5 -10,-11 0,-6 -11,-20 -25,-31 -14,-11 -32,-33 -41,-50 -15,-29 -15,-32 4,-57 15,-20 27,-25 51,-23 39,3 78,27 86,52 3,11 27,32 53,48 69,44 112,87 112,114 0,13 5,29 12,36 9,9 3,12 -28,12 -26,0 -46,-7 -59,-19 z" />
      <path
         id="p1CKuWvZDg"
         d="m 1620,3347 c 0,-8 11,-22 25,-31 20,-13 55,-72 55,-92 0,-2 -12,-4 -27,-4 -25,-1 -26,-2 -10,-14 26,-20 21,-26 -15,-19 -25,4 -30,3 -22,-6 7,-7 32,-11 65,-9 53,3 54,4 59,36 l 5,33 40,-40 c 21,-23 45,-41 51,-41 19,0 28,-19 34,-70 4,-40 8,-45 33,-48 16,-2 36,-1 45,3 15,6 15,8 -2,21 -22,16 -40,114 -22,114 6,1 -5,8 -25,18 -20,9 -60,38 -87,65 -28,26 -57,47 -65,47 -7,0 -31,8 -53,19 -63,30 -84,34 -84,18 z" />
      <path
         id="pxB1RxcLk"
         d="m 2913,3190 c -13,-11 -94,-31 -141,-34 -33,-3 -45,1 -53,15 -12,24 -34,24 -51,1 -7,-10 -33,-28 -58,-39 -73,-35 -104,-75 -140,-184 -43,-128 -52,-149 -67,-149 -8,0 -17,-9 -20,-20 -3,-11 -9,-20 -14,-20 -5,0 -9,-6 -9,-14 0,-8 -7,-16 -15,-20 -21,-8 -19,-40 5,-61 11,-10 20,-30 20,-44 0,-14 11,-38 24,-52 14,-15 30,-45 36,-68 10,-38 13,-41 45,-41 19,0 37,-4 40,-10 3,-5 15,-10 26,-10 10,0 19,-4 19,-9 0,-5 19,-7 43,-4 27,3 63,-3 101,-16 33,-12 70,-21 84,-21 21,0 41,-7 117,-41 32,-14 212,5 233,25 10,9 24,16 30,16 6,0 14,9 17,20 3,11 15,20 25,20 10,0 22,5 25,10 3,6 15,10 26,10 10,0 19,4 19,9 0,11 -25,21 -54,21 -29,0 -92,75 -78,93 6,7 12,23 14,37 2,20 13,27 58,41 30,10 78,25 105,35 28,9 77,19 110,21 47,4 68,11 99,36 34,27 36,32 22,43 -9,6 -14,18 -10,28 7,19 -21,33 -39,18 -25,-21 -133,-26 -177,-8 -22,9 -53,16 -68,16 -45,0 -72,25 -65,60 4,22 1,31 -11,36 -22,9 -20,31 4,37 17,4 19,11 13,38 l -6,32 39,-6 c 21,-4 47,-7 57,-7 9,0 17,-6 17,-14 0,-19 28,-28 51,-16 21,12 26,40 7,41 -7,0 -4,4 6,8 18,7 18,8 -3,28 -23,22 -130,64 -168,66 -13,1 -23,5 -23,10 0,4 -9,7 -20,7 -11,0 -37,7 -58,16 -38,16 -175,26 -189,14 z m -223,-138 c 0,-5 -7,-17 -15,-28 -19,-26 -19,-83 2,-106 18,-20 87,-25 98,-8 3,6 15,10 26,10 11,0 17,5 14,10 -3,6 -15,10 -25,10 -46,0 -26,52 29,76 49,21 61,18 61,-15 0,-19 8,-34 23,-44 40,-28 80,-67 69,-67 -7,0 -12,-5 -12,-11 0,-7 16,-10 43,-7 42,4 100,-12 112,-32 3,-5 -1,-10 -10,-10 -14,0 -16,-9 -13,-54 l 3,-54 -155,3 c -85,1 -171,8 -190,14 -79,25 -130,12 -130,-34 0,-34 17,-53 63,-73 15,-6 27,-16 27,-22 0,-5 6,-10 14,-10 7,0 27,-7 42,-15 16,-8 36,-15 45,-15 9,0 22,-7 29,-15 7,-8 19,-15 27,-15 8,0 24,-11 34,-24 12,-15 37,-29 62,-34 34,-8 18,-10 -89,-11 -116,-1 -159,5 -214,27 -8,3 -42,11 -75,17 -51,9 -62,15 -82,44 l -23,35 35,36 c 44,45 45,77 5,136 -25,35 -29,48 -20,63 5,11 10,29 10,41 0,34 37,77 75,90 25,8 43,24 61,56 23,40 44,57 44,36 z" />
      <path
         id="p1CPiuPaKR"
         d="m 4327,3103 c -4,-3 -4,-41 -1,-84 5,-62 4,-81 -10,-100 -24,-35 -21,-46 34,-98 55,-53 60,-69 29,-97 -12,-11 -18,-26 -15,-38 3,-11 -4,-37 -16,-58 -20,-34 -20,-41 -8,-78 7,-23 17,-43 22,-46 4,-3 41,-7 82,-9 l 73,-3 32,41 c 19,25 31,52 31,71 0,17 3,41 6,54 6,19 3,22 -23,22 -32,0 -53,-16 -53,-40 0,-26 -33,-50 -68,-50 -18,0 -32,2 -32,5 0,3 18,30 40,59 50,66 55,120 14,173 l -25,33 h 30 c 17,0 31,5 31,10 0,13 -38,51 -47,48 -8,-3 -9,1 -11,71 -2,36 -8,50 -41,82 -37,37 -60,47 -74,32 z" />
      <path
         id="pqkb7X7d"
         d="m 1530,2982 c 0,-6 7,-15 16,-20 14,-8 15,-14 5,-45 -16,-46 -47,-57 -170,-57 h -95 l 22,-22 c 18,-18 24,-20 31,-10 7,11 14,9 34,-10 82,-75 111,-97 143,-102 20,-4 32,-11 28,-18 -14,-23 81,3 104,29 35,38 111,74 152,71 28,-2 37,2 46,21 7,13 30,32 51,42 21,10 55,38 76,63 l 38,46 h -44 c -32,0 -49,-6 -62,-20 -33,-36 -79,-52 -128,-45 -31,5 -47,12 -50,25 -2,10 -16,25 -30,34 -30,20 -167,35 -167,18 z" />
      <path
         id="pZM0ybXC0"
         d="m 4656,2619 c -10,-46 -26,-105 -37,-131 -19,-50 -43,-155 -54,-241 -7,-55 -19,-92 -34,-102 -34,-21 24,-51 64,-33 76,35 111,168 102,394 -8,198 -17,223 -41,113 z" />
      <path
         id="pZuGpf3Uj"
         d="m 4300,2410 c -7,-35 -26,-326 -22,-357 4,-41 6,-43 37,-43 34,0 45,16 45,68 0,26 22,29 41,5 15,-17 85,-52 107,-53 11,0 -30,62 -107,162 -12,14 -21,31 -21,37 0,7 -8,20 -18,31 -9,10 -23,40 -30,67 -14,50 -30,92 -32,83 z" />
    </g>
  </g>
  <g
     id="l2zJypuLa7p8MVt32l1ech6"
     fill="#161616"
     transform="matrix(0.60763889,0,0,0.60763889,0,3.4612871)">
    <g
       id="g250">
      <path
         id="pHkf1x1Uj"
         d="m 1929,7231 c -17,-24 -43,-45 -72,-57 -32,-13 -48,-26 -52,-42 -7,-27 3,-104 17,-142 9,-23 11,-24 22,-8 10,14 19,16 44,8 34,-9 73,-43 246,-216 63,-62 148,-134 196,-166 84,-56 110,-82 160,-163 25,-39 25,-43 22,-214 -4,-259 30,-410 111,-498 35,-38 45,-43 83,-43 30,0 46,5 53,17 5,10 12,15 16,11 8,-8 -39,-58 -85,-89 -90,-61 -326,-279 -302,-279 7,0 40,13 74,30 34,16 68,30 76,30 7,0 30,17 50,38 45,47 212,172 267,200 22,11 66,43 99,72 32,28 71,54 87,57 16,3 29,12 29,20 0,11 -12,13 -62,7 -35,-3 -75,-12 -90,-19 -15,-7 -37,-11 -48,-8 -14,4 -20,0 -20,-11 0,-9 -4,-16 -10,-16 -5,0 -10,9 -10,20 0,14 -7,20 -21,20 -11,0 -17,5 -14,10 4,6 -3,27 -14,46 -12,19 -21,43 -21,53 0,9 -7,38 -16,64 -13,40 -14,59 -5,130 7,45 12,112 11,150 0,53 3,67 15,67 21,0 19,21 -3,27 -18,4 -36,52 -49,131 -3,18 -9,35 -14,37 -14,9 2,35 22,35 20,0 26,24 9,35 -5,3 -10,15 -10,26 0,12 -16,40 -35,63 -19,24 -35,48 -35,54 0,6 -28,35 -62,66 l -61,56 h -78 c -74,0 -79,1 -98,29 -12,16 -21,40 -21,53 0,51 -21,63 -114,63 -68,1 -89,4 -103,18 -15,14 -15,19 -5,26 10,6 6,16 -17,42 -17,18 -31,39 -31,45 0,7 -8,10 -20,7 -16,-4 -20,0 -20,17 0,23 -49,130 -60,130 -3,-1 -17,-18 -31,-39 z" />
      <path
         id="pGfX5t1WN"
         d="m 3601,7065 c -1,-6 -24,-47 -52,-90 -28,-44 -54,-89 -59,-100 -4,-11 -47,-74 -94,-139 -47,-66 -86,-128 -86,-138 0,-10 11,-24 25,-30 17,-7 27,-22 31,-46 6,-30 -1,-191 -11,-277 -2,-16 -9,-75 -15,-130 -13,-118 -25,-168 -51,-213 -22,-38 -24,-46 -8,-36 6,3 25,-8 42,-24 18,-17 65,-59 105,-92 39,-34 72,-67 72,-73 0,-12 45,-37 66,-37 7,0 25,-12 41,-28 43,-42 119,-102 129,-102 6,0 23,-17 39,-38 67,-87 157,-184 292,-318 78,-77 148,-154 154,-170 9,-22 13,-25 16,-12 5,20 -123,272 -205,403 -31,50 -86,131 -122,180 -37,50 -72,100 -79,112 -14,27 -14,53 -1,53 6,0 10,-8 10,-18 0,-24 31,-52 56,-52 73,0 175,74 214,155 14,28 25,78 30,139 8,83 15,105 56,187 67,133 110,186 211,261 91,68 325,211 471,288 55,30 90,55 103,77 11,17 25,34 32,36 8,3 4,13 -12,30 -13,15 -28,24 -33,21 -5,-3 -17,1 -27,10 -24,22 -80,16 -110,-11 -13,-13 -32,-23 -42,-23 -11,0 -19,-5 -19,-11 0,-8 -20,-9 -66,-4 -100,10 -230,-16 -276,-57 -52,-46 -85,-67 -113,-72 -102,-18 -110,-22 -165,-92 -8,-11 -16,-38 -16,-60 -1,-26 -12,-59 -30,-88 -82,-133 -97,-166 -99,-228 -2,-33 2,-58 7,-58 6,0 -3,-15 -20,-34 -17,-19 -33,-49 -37,-67 -4,-18 -16,-48 -27,-67 -10,-19 -27,-57 -36,-85 -14,-44 -22,-53 -49,-61 -25,-7 -33,-14 -33,-32 0,-13 -4,-24 -8,-24 -11,0 -42,66 -42,89 0,10 -8,29 -19,42 -86,111 -173,418 -149,531 5,26 39,96 77,160 l 67,113 45,3 c 52,4 66,14 74,53 6,28 0,37 -72,107 -43,43 -101,104 -130,137 -29,33 -52,55 -52,50 z" />
      <path
         id="p9UseBKUb"
         d="m 1834,6855 c -7,-39 0,-222 17,-425 12,-142 14,-348 4,-382 -4,-13 -14,-31 -23,-40 -14,-16 -14,-18 0,-18 13,0 17,-19 21,-107 2,-60 11,-126 18,-148 l 13,-40 7,74 c 7,71 39,266 61,365 8,36 7,50 -1,56 -9,5 -10,29 -5,82 5,57 2,89 -11,134 -23,78 -27,238 -7,280 16,34 10,56 -43,158 -27,52 -42,56 -51,11 z" />
      <path
         id="pp2VkVzpu"
         d="m 3037,5534 c -3,-3 -18,-7 -34,-9 -15,-2 -111,-26 -212,-52 l -184,-48 54,-8 c 67,-9 100,-37 81,-67 -20,-33 -15,-86 10,-102 20,-13 21,-17 9,-32 -12,-14 -11,-16 6,-16 11,0 23,3 27,7 7,8 80,15 164,17 36,0 44,4 49,24 7,27 -14,97 -34,113 -17,15 -16,39 2,63 14,19 68,25 135,15 17,-3 25,1 28,14 2,10 -3,17 -12,17 -12,0 -15,6 -10,25 4,16 2,26 -7,29 -34,11 -67,15 -72,10 z" />
      <path
         id="p3H0gHV1J"
         d="m 2351,4297 c -6,-6 -11,-17 -11,-23 0,-14 7,-16 95,-34 33,-6 76,-20 95,-30 97,-51 104,-53 180,-51 118,3 210,12 210,20 0,19 -28,44 -44,38 -9,-4 -40,4 -69,17 -125,57 -166,65 -324,71 -81,2 -124,0 -132,-8 z" />
      <path
         id="p4axgNwaX"
         d="m 3235,4230 c -11,-5 -33,-22 -49,-39 -29,-30 -59,-40 -70,-22 -3,5 -19,11 -35,13 -38,6 -62,-27 -34,-48 10,-7 26,-14 35,-14 9,0 30,-11 46,-25 26,-22 31,-34 38,-98 5,-45 10,-61 12,-42 5,38 47,77 97,90 38,10 40,13 43,54 2,23 -2,49 -9,57 -6,7 -9,25 -5,38 5,20 1,26 -22,34 -15,5 -36,6 -47,2 z" />
      <path
         id="pNjIaNUK6"
         d="m 1682,4044 c -15,-26 8,-135 43,-204 43,-85 138,-190 156,-173 10,10 10,24 -1,70 -25,103 -51,157 -128,264 -44,62 -55,69 -70,43 z" />
      <path
         id="pRvPLsNRZ"
         d="m 2611,3906 c -16,-17 -19,-26 -11,-31 14,-9 9,-110 -7,-126 -5,-5 -29,-13 -54,-18 l -44,-9 40,-2 c 22,-2 63,-2 91,-1 47,3 55,0 88,-33 31,-32 36,-43 36,-83 0,-25 -8,-70 -17,-100 -13,-41 -14,-56 -5,-65 9,-9 18,-7 39,10 16,12 49,33 74,46 25,14 60,36 77,50 16,15 34,26 40,26 5,0 30,22 56,50 31,33 46,58 46,76 0,35 33,87 66,104 14,8 30,25 35,38 11,29 11,33 0,51 -7,12 -14,10 -36,-7 -15,-12 -42,-24 -60,-28 -25,-4 -41,-17 -60,-46 -27,-40 -27,-40 -75,-34 -27,4 -51,2 -54,-2 -3,-5 -18,-12 -33,-15 -16,-3 -41,-11 -58,-18 -60,-25 -87,-20 -128,22 -40,41 -42,65 -11,116 31,50 5,72 -35,29 z" />
      <path
         id="pFqkD27On"
         d="m 1706,3270 c 18,-43 13,-70 -11,-70 -8,0 -15,-4 -15,-8 0,-5 -26,-6 -59,-4 l -59,4 -33,-45 c -19,-26 -40,-46 -46,-47 -7,0 -35,23 -63,50 -28,28 -58,50 -67,50 -9,0 -25,8 -35,17 -16,14 -20,15 -33,2 -11,-11 -12,-24 -4,-61 8,-37 20,-56 52,-84 67,-58 176,-106 270,-119 48,-7 97,-37 97,-58 0,-16 87,-36 125,-30 43,7 88,29 110,53 10,11 26,20 35,20 23,0 52,34 45,51 -3,8 -20,20 -37,27 -26,10 -29,14 -18,27 13,15 14,14 -35,30 -10,3 -15,17 -15,40 0,40 -15,75 -32,75 -6,0 -35,23 -64,50 -29,28 -62,50 -73,50 -11,0 -23,5 -26,10 -3,6 -10,10 -16,10 -5,0 -2,-18 7,-40 z" />
      <path
         id="pXowgun8Y"
         d="m 2620,3051 c -22,-36 -41,-53 -65,-61 -55,-18 -74,-55 -92,-172 -4,-30 1,-45 25,-81 l 31,-44 -40,-39 c -46,-45 -48,-65 -11,-119 25,-36 34,-41 87,-50 33,-6 67,-14 75,-17 50,-21 99,-28 201,-30 62,-1 120,-6 127,-11 7,-6 17,-6 25,0 11,10 60,25 82,27 18,2 17,36 -2,43 -10,3 -22,12 -26,20 -9,15 -47,18 -47,4 0,-16 -40,1 -59,25 -10,13 -26,24 -34,24 -8,0 -20,7 -27,15 -7,8 -20,15 -29,15 -9,0 -29,7 -45,15 -15,8 -35,15 -42,15 -8,0 -14,5 -14,11 0,5 -15,16 -33,24 -19,8 -39,20 -46,29 -17,20 14,29 59,16 63,-19 164,-29 200,-21 19,4 82,5 138,1 103,-7 132,-3 217,30 23,8 26,13 15,20 -8,5 -19,6 -25,2 -14,-10 -85,-10 -85,-1 0,4 -12,9 -27,11 -20,2 -29,9 -31,26 -4,24 16,30 36,10 9,-9 12,-7 12,10 0,39 -29,81 -66,97 -68,28 -128,15 -157,-35 -21,-35 -22,-56 -2,-64 8,-3 15,-12 15,-21 0,-13 -7,-15 -37,-9 -62,11 -116,54 -129,102 -3,12 -13,22 -21,22 -23,0 3,28 30,33 12,2 -1,5 -29,6 -60,1 -96,29 -74,56 15,18 29,80 21,93 -3,5 -20,13 -38,16 -31,7 -34,5 -63,-43 z" />
      <path
         id="p2UxNZJ43"
         d="m 4335,2999 c -16,-25 9,-86 66,-158 32,-42 59,-83 59,-91 0,-8 -20,-41 -45,-72 -44,-57 -57,-99 -34,-114 7,-4 37,-6 68,-5 59,2 88,18 93,55 2,11 12,25 24,30 15,7 24,25 33,68 11,54 10,61 -14,112 -23,48 -29,55 -63,60 -20,3 -53,6 -74,6 -28,-1 -41,6 -57,26 -12,15 -19,34 -16,42 13,35 -22,71 -40,41 z" />
    </g>
  </g>
</svg>
