<?xml version="1.0" encoding="UTF-8" standalone="no"?>
<svg
   xmlns:dc="http://purl.org/dc/elements/1.1/"
   xmlns:cc="http://creativecommons.org/ns#"
   xmlns:rdf="http://www.w3.org/1999/02/22-rdf-syntax-ns#"
   xmlns:svg="http://www.w3.org/2000/svg"
   xmlns="http://www.w3.org/2000/svg"
   class="img-fluid"
   id="outputsvg"
   width="350"
   height="450"
   viewBox="0 0 3500 4500"
   version="1.1">
  <metadata
     id="metadata1398">
    <rdf:RDF>
      <cc:Work
         rdf:about="">
        <dc:format>image/svg+xml</dc:format>
        <dc:type
           rdf:resource="http://purl.org/dc/dcmitype/StillImage" />
        <dc:title></dc:title>
      </cc:Work>
    </rdf:RDF>
  </metadata>
  <defs
     id="defs1396" />
  <g
     id="l2EXJuXlZtPmcIZOHQhbPb6"
     fill="#241b1d"
     transform="matrix(1.1357851,0,0,1.1357851,-2602.0837,1.7036777)">
    <g
       id="g1327">
      <path
         id="pwsDcXLQ9"
         d="m 3610,3934 c 0,-22 38,-65 188,-213 103,-102 220,-216 260,-254 l 72,-67 -26,-52 c -34,-68 -54,-134 -54,-184 0,-38 3,-42 29,-47 17,-4 32,-14 36,-26 5,-18 15,-20 94,-20 100,0 114,-4 135,-36 21,-32 7,-70 -28,-79 -14,-3 -26,-12 -26,-19 0,-6 -9,-23 -20,-37 -18,-24 -23,-25 -109,-22 -90,4 -91,3 -101,-22 -5,-14 -14,-26 -20,-26 -5,0 -10,-9 -10,-20 0,-11 -4,-20 -10,-20 -5,0 -10,-16 -10,-35 0,-31 19,-60 128,-200 l 127,-164 47,-1 c 55,0 78,7 78,26 0,8 5,14 12,14 6,0 9,3 5,6 -3,4 8,16 26,28 18,12 33,32 35,44 2,13 10,26 18,29 8,3 14,12 14,19 0,8 7,17 15,20 8,4 15,17 15,29 0,14 8,26 19,30 26,8 33,43 25,120 l -7,64 27,-12 c 14,-7 26,-15 26,-19 0,-5 24,-8 54,-8 58,0 74,12 104,83 23,54 16,84 -28,113 -22,15 -40,31 -40,35 0,14 -93,10 -110,-4 -9,-7 -22,-37 -29,-69 l -14,-56 -38,56 c -20,32 -49,67 -63,79 -20,17 -26,32 -26,62 0,42 -20,71 -49,71 -10,0 -60,15 -112,33 -108,37 -105,29 -57,146 41,101 36,141 -24,195 -97,86 -236,217 -345,324 l -115,112 h -59 c -57,0 -59,-1 -59,-26 z" />
      <path
         id="pRcALFJZm"
         d="m 4880,3936 c 0,-13 -7,-26 -15,-30 -20,-7 -21,-76 -1,-76 13,0 46,-56 46,-79 0,-6 5,-11 10,-11 6,0 10,-6 10,-13 0,-16 27,-48 55,-63 11,-6 31,-40 44,-75 13,-35 28,-66 33,-67 5,-2 14,-9 21,-16 6,-6 24,-17 40,-23 15,-7 27,-17 27,-23 0,-5 6,-10 13,-10 8,0 24,-12 38,-26 13,-14 38,-34 56,-45 18,-12 33,-26 33,-34 0,-7 24,-18 60,-26 33,-7 60,-17 60,-21 0,-12 82,-10 121,3 19,7 45,22 60,35 14,13 29,24 35,25 5,0 23,30 41,67 18,37 52,101 77,142 25,41 46,81 46,88 0,8 8,26 18,40 19,29 49,102 80,200 l 21,62 h -515 -514 z" />
      <path
         id="p5lt1tW64"
         d="m 2815,3473 c -22,-3 -45,-9 -52,-15 -15,-12 -18,-74 -4,-82 5,-3 12,-21 15,-39 3,-18 13,-42 21,-53 50,-64 105,-145 105,-156 0,-7 7,-22 15,-32 8,-11 15,-32 15,-47 0,-30 15,-39 67,-39 19,0 41,-7 50,-16 10,-10 29,-14 57,-12 39,3 41,4 44,39 2,24 -3,42 -14,53 -30,30 -64,86 -64,105 0,10 -13,36 -29,57 -25,36 -89,161 -111,220 -10,25 -18,26 -115,17 z" />
      <path
         id="pM9GoNVtx"
         d="m 3443,2453 c -7,-2 -13,-11 -13,-19 0,-8 -9,-14 -19,-14 -11,0 -26,-6 -34,-14 -8,-8 -27,-16 -43,-18 -25,-2 -29,-8 -32,-35 -4,-36 33,-107 65,-127 65,-38 83,-52 83,-62 0,-6 7,-17 16,-25 8,-7 25,-31 36,-53 11,-23 25,-44 30,-47 46,-30 108,-95 108,-113 0,-13 11,-33 24,-46 14,-12 28,-36 31,-52 4,-17 17,-40 28,-51 15,-15 24,-39 27,-72 l 5,-50 41,-3 c 41,-3 41,-3 54,42 7,26 17,46 21,46 12,0 11,117 -1,159 -11,40 -4,54 14,28 9,-11 27,-17 53,-17 37,0 41,3 47,30 5,25 10,30 34,30 26,0 30,4 36,38 3,20 6,60 6,89 v 51 l -57,28 c -32,15 -74,34 -93,43 -19,9 -58,39 -85,67 -28,27 -73,65 -100,84 -28,18 -52,37 -55,41 -21,30 -183,60 -227,42 z" />
      <path
         id="pvW2R1ASa"
         d="m 2994,1741 c -16,-22 -37,-43 -46,-47 -42,-13 1,-127 58,-153 37,-16 104,-14 104,3 0,11 9,13 38,9 20,-3 39,-10 40,-15 6,-15 70,-8 87,9 24,23 17,143 -9,172 -24,27 -97,51 -177,58 l -66,6 z" />
      <path
         id="p1GRhhwNUq"
         d="m 4046,1494 c -4,-31 -14,-71 -24,-88 -9,-17 -18,-33 -19,-34 -4,-8 -52,34 -53,46 0,23 -74,15 -98,-11 -37,-39 -27,-167 13,-167 7,0 23,-12 34,-26 18,-23 20,-37 16,-116 -2,-49 -7,-98 -10,-107 -3,-10 -26,-28 -50,-41 -39,-20 -45,-27 -45,-55 0,-18 9,-42 20,-55 11,-13 20,-32 20,-42 0,-20 22,-48 37,-48 19,0 53,-134 53,-210 0,-36 -1,-38 -42,-43 -43,-6 -49,-10 -113,-92 -23,-28 -110,-55 -190,-59 -27,-1 -74,-8 -103,-14 -62,-14 -174,-18 -192,-7 -6,4 -36,4 -65,0 -48,-6 -57,-11 -75,-40 -17,-28 -29,-35 -67,-41 -37,-5 -47,-3 -55,10 -5,9 -15,16 -23,16 -8,0 -18,6 -22,13 -4,8 -20,20 -34,28 -15,8 -58,39 -95,70 -55,46 -76,71 -106,130 -20,41 -40,82 -43,92 -4,14 -13,18 -42,15 -37,-3 -38,-4 -41,-48 -2,-28 -11,-51 -23,-63 -15,-14 -19,-31 -19,-78 0,-44 -4,-61 -15,-65 -10,-4 -15,-20 -15,-44 0,-58 8,-70 46,-70 19,0 34,-4 34,-9 0,-5 30,-14 68,-21 91,-16 122,-29 122,-51 0,-31 82,-46 150,-28 9,3 16,-4 18,-19 2,-12 8,-22 13,-22 15,0 39,-26 39,-43 0,-19 21,-27 71,-27 25,0 39,-5 39,-13 0,-16 280,-21 380,-7 41,6 66,6 68,0 2,-6 76,-10 180,-10 h 176 l 75,37 c 57,28 96,57 153,115 85,85 112,126 97,149 -19,30 -13,43 48,117 13,16 20,34 17,44 -4,14 -1,16 12,11 11,-4 15,-3 11,4 -4,6 0,18 8,26 8,9 15,20 15,26 0,6 4,11 9,11 5,0 19,16 32,36 18,30 23,52 24,125 l 1,89 h -31 c -22,0 -38,-8 -55,-30 -20,-23 -33,-29 -67,-30 -37,0 -42,-3 -52,-31 -6,-18 -11,-42 -11,-55 0,-35 -10,-53 -26,-47 -19,7 -8,69 17,102 12,15 19,40 19,67 0,23 5,46 10,49 6,3 10,17 10,30 0,13 7,28 16,33 26,14 48,152 24,152 -5,0 -10,15 -10,34 0,19 -4,38 -10,41 -5,3 -10,19 -10,34 0,19 -14,44 -39,73 -36,40 -41,53 -56,143 -10,55 -22,111 -27,125 -16,42 -49,70 -83,70 -32,0 -32,-1 -39,-56 z" />
    </g>
  </g>
  <g
     id="l46FrMQQO1dbePcvIsSmusf"
     fill="#2a324a"
     transform="matrix(1.1357851,0,0,1.1357851,-2602.0837,1.7036777)">
    <g
       id="g1333">
      <path
         id="phxd9VfJa"
         d="m 2440,3936 c 0,-13 23,-97 50,-186 28,-89 50,-170 50,-180 0,-9 13,-48 29,-87 15,-38 43,-108 61,-157 48,-131 65,-154 120,-158 32,-2 47,-8 55,-23 6,-11 36,-66 68,-122 56,-100 59,-103 93,-103 28,0 38,6 54,33 24,39 28,117 5,117 -8,0 -15,-7 -15,-15 0,-17 -18,-19 -39,-6 -10,6 -12,19 -7,42 3,18 3,30 0,26 -8,-8 -33,23 -34,41 0,10 -54,92 -104,156 -8,10 -18,33 -22,50 -3,17 -10,36 -15,42 -6,7 -3,16 7,25 12,10 17,10 23,1 6,-10 14,-9 36,2 31,16 45,13 45,-10 0,-8 5,-12 10,-9 25,15 4,78 -94,283 -57,119 -107,227 -111,240 -6,21 -10,22 -136,22 h -129 z" />
      <path
         id="p1GWpIsKTs"
         d="m 3190,3938 c 0,-12 37,-81 82,-153 118,-188 474,-717 549,-816 36,-46 80,-106 99,-134 19,-27 40,-56 47,-63 7,-8 18,-22 23,-33 7,-12 21,-19 42,-19 27,0 29,2 17,17 -11,13 -11,17 -1,20 6,3 12,13 12,24 0,10 5,19 10,19 6,0 15,11 20,24 7,21 15,24 49,22 22,-1 43,-5 47,-9 26,-25 106,9 126,53 13,30 19,34 49,31 9,-1 16,4 17,11 1,7 4,36 8,63 5,44 3,53 -20,78 -20,21 -34,27 -68,27 -24,0 -61,5 -83,10 -28,6 -42,6 -48,-3 -7,-9 -10,-9 -14,1 -9,22 -34,42 -54,42 -10,0 -19,6 -19,13 0,25 29,106 59,165 39,77 34,91 -56,175 -140,129 -404,392 -426,424 l -22,33 h -222 -223 z" />
      <path
         id="pQP5imGQF"
         d="m 3700,3954 c 0,-21 50,-80 135,-159 53,-49 124,-117 158,-151 34,-33 94,-88 133,-122 39,-33 74,-69 76,-80 3,-10 -6,-46 -19,-78 -30,-71 -53,-154 -47,-168 5,-12 188,-76 216,-76 27,0 48,-29 48,-68 0,-30 9,-47 45,-87 62,-67 96,-139 90,-188 -3,-21 0,-47 5,-58 7,-12 7,-19 1,-19 -6,0 -8,-7 -5,-15 4,-8 2,-15 -3,-15 -6,0 -21,-9 -34,-21 -19,-17 -21,-22 -9,-29 10,-7 11,-10 3,-10 -7,0 -13,-9 -13,-20 0,-13 -5,-18 -15,-14 -11,5 -17,-3 -21,-25 -4,-18 -23,-46 -45,-66 -22,-19 -39,-39 -39,-45 0,-5 -3,-11 -7,-11 -39,-7 -60,-4 -70,10 -26,34 -13,-45 16,-98 23,-43 27,-61 23,-97 -4,-36 -2,-44 12,-44 9,0 16,5 16,11 0,6 10,19 23,29 20,16 22,27 21,99 0,50 3,78 9,74 6,-4 8,2 5,15 -4,13 0,23 9,26 21,8 25,7 18,-4 -3,-5 -3,-10 2,-10 13,0 63,88 64,113 1,21 1,21 9,-3 l 8,-25 7,23 c 6,18 10,20 21,11 11,-9 14,-8 14,3 0,7 10,20 21,28 12,8 38,30 58,47 20,18 39,33 43,33 4,0 27,17 51,38 25,20 71,55 103,77 32,22 68,50 81,63 13,12 28,22 33,22 6,0 10,5 10,10 0,6 6,10 14,10 8,0 24,11 37,25 13,13 28,25 32,25 4,0 20,11 34,24 15,14 30,23 35,20 4,-3 8,-1 8,3 0,5 18,19 40,33 22,14 40,28 40,33 0,4 5,5 10,2 6,-3 10,-1 10,4 0,17 38,51 58,52 10,0 12,3 5,6 -10,4 -10,7 0,17 14,14 57,31 70,28 4,-1 7,5 7,13 0,9 9,15 22,15 12,0 18,3 15,7 -4,3 23,24 61,46 37,22 88,57 114,78 26,22 50,39 55,39 5,0 14,14 20,30 15,40 8,38 -34,-10 -24,-27 -44,-40 -61,-40 -13,0 -42,-5 -64,-12 -26,-8 -42,-8 -46,-2 -4,6 -33,16 -64,24 -33,7 -58,19 -58,26 0,7 -15,21 -33,33 -18,11 -43,31 -56,45 -14,14 -30,26 -38,26 -7,0 -13,5 -13,10 0,6 -12,16 -27,23 -16,6 -34,17 -40,23 -7,7 -16,14 -21,16 -5,1 -20,32 -33,68 -16,43 -32,68 -47,75 -12,5 -22,16 -22,23 0,7 -4,11 -9,7 -12,-7 -25,31 -15,47 5,8 2,9 -9,5 -10,-3 -17,-2 -17,4 0,25 -33,79 -49,79 -14,1 -14,2 2,14 9,7 17,22 17,34 0,11 7,23 16,26 8,3 12,10 9,16 -7,11 -1235,15 -1235,4 z m 980,-973 c 0,-4 18,-20 40,-35 37,-25 39,-28 28,-54 -23,-53 -49,-82 -74,-82 -13,0 -24,5 -24,10 0,6 -6,10 -13,10 -8,0 -21,8 -31,19 -15,16 -15,24 -4,67 7,27 20,54 28,61 17,14 50,17 50,4 z" />
    </g>
  </g>
  <g
     id="l12ww3Mkrd7RPnFFS6T3icL"
     fill="#60443e"
     transform="matrix(1.1357851,0,0,1.1357851,-2602.0837,1.7036777)">
    <g
       id="g1342">
      <path
         id="pxBHwmznh"
         d="m 3450,2593 c -103,-6 -300,-58 -315,-83 -13,-20 -34,-9 -56,30 -18,32 -28,40 -51,40 -15,0 -28,-4 -28,-10 0,-5 5,-10 11,-10 5,0 8,-4 4,-9 -3,-5 9,-31 27,-57 l 32,-47 -23,-15 -23,-15 24,-13 c 21,-12 20,-13 -24,-14 -41,0 -48,-3 -48,-19 0,-11 8,-22 18,-24 104,-29 232,-72 232,-79 0,-4 11,-8 23,-8 13,0 32,-9 42,-20 10,-11 24,-20 30,-20 7,0 24,-17 37,-37 14,-21 43,-56 64,-78 30,-31 43,-55 54,-100 7,-33 20,-73 27,-89 32,-63 43,-121 37,-187 -5,-55 -4,-67 10,-72 9,-4 16,-12 16,-20 0,-17 45,-57 65,-57 8,0 15,-4 15,-9 0,-4 10,-19 23,-33 28,-32 57,-85 57,-105 0,-9 18,-51 40,-95 50,-101 52,-120 8,-111 -18,3 -37,10 -42,14 -6,5 -24,9 -40,9 -17,0 -40,7 -50,15 -27,21 -135,20 -142,0 -4,-11 -21,-15 -58,-15 -65,0 -96,-27 -96,-83 0,-51 -21,-48 -76,9 -31,33 -44,55 -44,75 v 29 h -85 -85 v -62 c 1,-80 29,-164 70,-205 38,-40 130,-69 245,-78 44,-3 84,-10 90,-16 14,-14 71,-11 85,6 7,8 21,15 31,15 24,0 27,-51 4,-70 -19,-16 -21,-145 -2,-153 6,-2 20,-28 31,-56 10,-28 24,-51 31,-51 7,0 16,-14 20,-31 4,-19 16,-34 31,-39 14,-6 24,-18 24,-30 0,-20 27,-54 50,-62 20,-6 -29,-48 -57,-48 -13,0 -31,-4 -41,-9 -25,-14 -248,-44 -313,-42 -50,1 -57,-1 -69,-24 -7,-14 -11,-27 -8,-30 8,-9 98,-23 98,-16 0,6 42,10 135,13 17,0 32,4 35,8 8,12 32,14 62,6 15,-5 35,-3 48,4 12,6 47,18 78,26 31,8 64,21 73,29 8,8 19,12 24,8 4,-5 5,0 2,9 -7,21 39,81 55,72 6,-4 14,0 19,7 7,12 9,12 9,0 0,-11 3,-11 15,-1 10,9 15,9 15,1 0,-6 4,-10 9,-9 13,4 62,-52 56,-63 -4,-5 1,-9 9,-9 18,0 30,16 17,24 -11,7 -2,46 10,46 5,0 9,-4 9,-9 0,-5 7,-12 16,-15 12,-5 15,-2 10,10 -3,8 2,23 11,32 15,16 16,15 10,-9 -5,-21 -3,-28 13,-32 17,-4 20,0 20,24 0,16 4,37 9,47 6,9 13,40 17,67 5,31 9,41 12,27 2,-12 8,-22 13,-22 5,0 9,-12 9,-27 0,-22 2,-25 10,-13 16,24 31,-7 28,-59 -1,-25 2,-46 7,-48 6,-2 9,19 7,51 -3,35 2,64 12,84 9,17 16,42 16,55 0,29 19,87 29,87 3,0 5,-20 3,-45 -3,-28 0,-45 7,-45 6,0 11,12 12,28 v 27 l 11,-25 c 10,-24 10,-24 18,-5 5,11 9,28 9,38 1,20 29,52 45,52 6,0 11,5 11,12 0,6 3,15 7,19 4,4 5,-23 1,-60 -4,-47 -3,-66 6,-66 8,0 9,-5 1,-19 -12,-24 -13,-31 -1,-31 18,0 33,71 27,123 -3,29 -2,58 3,66 8,13 -3,47 -20,61 -3,3 -12,29 -19,58 -12,51 -40,74 -40,32 0,-11 -5,-20 -11,-20 -7,0 -17,-8 -24,-17 -11,-15 -17,-15 -39,-5 -39,18 -66,15 -66,-6 0,-10 -5,-23 -10,-28 -6,-6 -12,-32 -14,-57 -1,-26 -10,-55 -19,-65 -9,-10 -17,-29 -18,-43 l -1,-24 -7,23 c -6,24 -6,24 -24,4 -10,-11 -15,-26 -11,-36 3,-9 3,-28 -2,-44 l -8,-27 -6,35 -6,35 -18,-57 c -19,-62 -43,-92 -34,-42 3,16 2,49 -2,74 l -7,45 -13,-35 c -14,-34 -14,-35 -21,-10 -5,17 -8,2 -9,-45 -1,-38 -4,-62 -7,-52 -6,22 -12,22 -29,0 -12,-16 -14,-11 -13,37 1,30 -2,69 -6,85 -5,17 -8,42 -7,57 1,14 -5,32 -13,38 -8,7 -15,19 -15,26 0,8 -5,14 -11,14 -18,0 -41,29 -37,48 2,9 -7,27 -19,40 -13,13 -23,24 -23,26 0,2 21,13 46,26 33,18 47,31 51,52 3,16 10,31 14,34 12,7 11,61 -1,69 -6,4 -7,12 -3,18 5,7 9,35 9,62 1,39 -4,57 -23,83 -13,17 -30,32 -38,32 -35,0 -45,73 -14,106 23,25 39,31 39,14 0,-5 11,-21 25,-35 25,-24 60,-32 80,-17 22,16 45,72 51,126 l 7,57 23,-22 c 26,-24 43,-69 48,-121 2,-18 6,-41 10,-50 4,-9 5,-21 2,-26 -10,-16 19,-78 57,-122 40,-48 47,-70 20,-70 -15,-1 -14,-4 7,-21 15,-13 24,-29 22,-41 -3,-17 2,-19 45,-16 l 48,3 3,65 c 2,36 -4,121 -14,190 -17,131 -35,177 -80,207 -13,8 -24,21 -24,28 0,16 -33,45 -52,45 -21,0 -31,27 -12,34 21,8 18,73 -3,85 -10,5 -45,12 -79,16 -72,8 -76,10 -94,53 -11,29 -11,35 1,43 9,6 18,4 25,-6 6,-8 25,-15 41,-15 29,0 30,2 37,54 3,30 3,87 0,127 -4,63 -2,78 14,98 23,29 39,22 59,-26 13,-32 17,-35 45,-29 38,7 68,33 68,56 0,29 -44,68 -270,237 -118,89 -251,193 -294,232 l -80,70 -80,-1 c -45,-1 -101,-3 -126,-5 z m 130,-184 c 30,-11 57,-24 60,-28 3,-4 27,-22 54,-41 27,-18 71,-55 98,-83 44,-45 108,-87 133,-87 5,0 26,-10 45,-22 19,-12 40,-22 45,-23 9,0 11,-33 6,-103 -1,-20 -3,-21 -21,-10 -24,15 -36,3 -47,-44 -3,-16 -9,-28 -14,-28 -13,0 -49,38 -49,51 0,5 -4,8 -9,4 -6,-3 -13,1 -18,8 -4,8 -18,19 -29,25 -19,10 -23,9 -28,-14 -4,-14 -3,-31 2,-37 22,-30 50,-207 33,-207 -5,0 -14,-20 -21,-45 -14,-49 -37,-56 -32,-10 4,33 -14,81 -33,89 -7,2 -18,22 -25,43 -7,21 -22,48 -33,61 -11,12 -21,32 -22,44 -2,18 -99,118 -116,118 -3,0 -14,18 -24,40 -10,22 -26,47 -36,56 -11,10 -19,23 -19,31 0,7 -4,13 -10,13 -5,0 -24,13 -42,29 -18,16 -37,29 -42,29 -11,1 -56,75 -50,84 2,4 20,4 39,1 30,-5 34,-3 29,11 -6,15 4,20 32,17 6,-1 17,6 24,14 7,8 9,15 4,15 -18,0 22,20 41,20 11,0 45,-9 75,-21 z" />
      <path
         id="p1GU5iqeaC"
         d="m 3107,2090 c -3,-12 -14,-20 -26,-20 -17,0 -21,-6 -21,-34 0,-28 4,-35 25,-40 48,-12 17,-36 -47,-36 -15,0 -50,-5 -78,-11 -48,-10 -50,-12 -50,-45 0,-33 1,-34 43,-34 43,-1 122,-19 144,-33 7,-4 43,-8 80,-8 38,0 98,-3 135,-6 77,-5 98,6 98,54 0,38 -9,49 -65,86 -29,19 -53,44 -59,62 -6,17 -19,42 -30,58 -17,25 -24,27 -81,27 -54,0 -63,-3 -68,-20 z" />
      <path
         id="ptZzd0l3v"
         d="m 2957,1813 c -3,-5 -8,-27 -12,-50 -6,-36 -12,-45 -43,-60 -32,-15 -37,-24 -40,-55 -3,-34 -1,-38 21,-38 13,0 32,-9 42,-20 13,-14 31,-20 63,-20 38,0 43,2 30,13 -8,6 -25,26 -37,44 -20,29 -20,32 -4,37 10,4 31,25 47,47 27,38 31,40 65,34 63,-11 128,-35 146,-55 26,-29 31,-92 9,-115 -16,-16 -19,-16 -22,-3 -2,12 -15,16 -51,16 -26,0 -58,3 -69,7 -18,5 -22,2 -22,-14 0,-12 -7,-21 -15,-21 -8,0 -15,-4 -15,-10 0,-5 12,-10 26,-10 44,0 64,-17 64,-55 0,-34 1,-35 41,-35 36,0 46,5 77,41 20,22 42,52 49,66 18,35 16,102 -4,174 -17,56 -20,60 -57,70 -22,6 -72,9 -112,8 -40,-2 -76,0 -80,4 -10,9 -92,9 -97,0 z" />
      <path
         id="pxuBz4tBW"
         d="m 2756,1221 c -15,-17 -31,-21 -78,-21 h -58 v -58 c 0,-59 18,-92 48,-92 7,0 12,-16 12,-39 0,-35 3,-40 30,-46 70,-15 185,26 192,69 2,11 16,24 33,29 17,6 33,15 37,21 13,20 9,123 -6,135 -7,6 -53,14 -102,17 -82,6 -90,5 -108,-15 z" />
      <path
         id="pO3li257V"
         d="m 4309,451 c -49,-60 -59,-75 -59,-88 0,-15 -31,-14 -42,2 -4,6 -8,-6 -8,-26 0,-30 4,-38 23,-43 35,-9 77,-7 77,5 0,14 28,41 37,36 9,-6 10,130 1,138 -3,3 -16,-7 -29,-24 z" />
      <path
         id="pFoa8RbL7"
         d="m 2840,356 c 0,-11 71,-71 96,-79 13,-5 26,-17 29,-28 4,-12 13,-18 20,-15 21,8 25,-5 9,-29 -8,-13 -27,-26 -42,-30 -51,-13 -157,-14 -189,-3 -28,10 -33,17 -33,45 0,27 -4,34 -27,39 -16,4 -35,12 -43,19 -8,6 -32,12 -53,12 -31,1 -37,-2 -37,-20 0,-29 29,-71 78,-116 21,-20 41,-41 43,-48 5,-15 66,-60 102,-74 15,-6 27,-15 27,-20 0,-5 27,-9 60,-9 59,0 60,0 60,29 0,27 1,28 67,34 67,7 83,16 83,51 0,15 -3,16 -14,7 -11,-9 -15,-8 -20,4 -3,9 -10,14 -15,11 -10,-7 -21,38 -12,52 11,15 38,21 50,9 8,-8 11,-8 11,0 0,6 11,13 25,15 14,3 25,1 25,-4 0,-5 7,-2 16,6 8,9 20,16 25,16 5,0 8,3 7,8 -4,13 23,53 32,47 15,-9 50,14 50,32 0,13 -13,15 -105,8 -87,-6 -112,-4 -139,9 -35,16 -186,34 -186,22 z" />
    </g>
  </g>
  <g
     id="l5RjoZLAaGLz4ygx2QT5pRl"
     fill="#50678f"
     transform="matrix(1.1357851,0,0,1.1357851,-2602.0837,1.7036777)">
    <g
       id="g1348">
      <path
         id="p1DxJLsrZc"
         d="m 2296,3888 c 20,-315 23,-340 48,-377 36,-52 73,-141 92,-219 9,-37 30,-89 47,-117 67,-108 239,-242 347,-270 42,-10 65,-32 52,-48 -15,-17 -6,-27 24,-27 29,0 84,73 84,113 0,24 -2,27 -14,18 -12,-10 -25,6 -73,91 -32,57 -68,123 -79,148 -12,25 -44,93 -72,151 -62,130 -184,438 -213,537 -14,47 -26,72 -36,72 -17,0 -17,-2 48,-180 59,-159 61,-166 132,-336 30,-72 60,-154 66,-183 14,-64 14,-61 -1,-61 -20,1 -53,60 -88,156 -18,49 -46,119 -61,157 -16,39 -29,77 -29,86 0,9 -23,94 -52,189 l -53,172 h -87 -87 z" />
      <path
         id="pWU89O4tx"
         d="m 2660,3955 c 0,-16 56,-147 104,-242 30,-62 88,-183 127,-270 79,-173 82,-180 122,-237 15,-21 27,-47 27,-57 0,-26 73,-129 92,-129 5,0 8,13 8,29 0,41 -36,128 -108,265 -120,226 -212,450 -212,516 0,15 -7,50 -15,78 l -16,52 h -64 c -36,0 -65,-2 -65,-5 z" />
      <path
         id="plkOvgJ6w"
         d="m 3017,3104 c -3,-3 7,-23 21,-45 31,-47 38,-45 17,4 -15,36 -28,51 -38,41 z" />
    </g>
  </g>
  <g
     id="l3Td4CEU6MJG44MGuEph7ae"
     fill="#8c6a62"
     transform="matrix(1.1357851,0,0,1.1357851,-2602.0837,1.7036777)">
    <g
       id="g1361">
      <path
         id="pfcX5ZJ4W"
         d="m 3450,2695 c 0,-8 -6,-15 -14,-15 -8,0 -16,-6 -19,-13 -3,-8 -42,-22 -88,-32 -54,-11 -89,-25 -103,-39 -12,-12 -33,-29 -48,-39 -22,-14 -28,-25 -28,-54 0,-33 1,-35 18,-22 9,8 28,20 42,26 47,20 205,50 253,48 26,-2 49,0 51,4 6,8 109,6 124,-3 8,-5 12,2 12,22 0,25 -11,38 -66,81 -50,38 -75,51 -100,51 -24,0 -34,-5 -34,-15 z" />
      <path
         id="pKLn2NzcZ"
         d="m 3150,2316 c 0,-17 10,-30 35,-45 20,-11 38,-27 41,-36 4,-8 12,-15 20,-15 8,0 14,-9 14,-19 0,-11 2,-25 5,-33 4,-10 -24,-14 -136,-16 -177,-4 -188,-10 -189,-94 0,-48 3,-59 20,-68 25,-14 17,-30 -15,-30 -26,0 -129,-25 -145,-35 -6,-3 -10,-23 -10,-44 v -38 l 66,-6 c 77,-6 93,-16 75,-50 -7,-13 -11,-44 -9,-70 3,-46 3,-46 28,-34 19,10 25,22 28,52 4,50 15,62 44,47 14,-8 52,-11 98,-9 115,6 133,-2 150,-65 21,-80 20,-97 0,-134 l -20,-34 h 30 c 16,0 32,5 36,11 3,6 22,17 40,25 19,8 34,19 34,24 0,18 32,10 66,-15 18,-14 40,-25 48,-25 8,0 31,-13 49,-30 19,-16 39,-30 45,-30 11,0 35,-37 48,-72 3,-10 15,-18 24,-18 10,0 21,-9 25,-19 3,-11 12,-22 20,-25 8,-3 15,-14 15,-25 0,-11 5,-23 10,-26 6,-3 10,-10 10,-15 0,-13 -64,-2 -153,27 -62,20 -94,24 -152,21 -41,-2 -77,-7 -81,-11 -4,-4 -3,-33 2,-64 l 9,-57 81,-3 c 71,-2 81,0 80,15 -1,23 48,28 79,8 13,-9 37,-16 53,-16 15,0 32,-4 38,-8 5,-5 33,-14 63,-21 52,-13 54,-13 72,10 11,15 14,28 8,35 -5,6 -6,13 -3,17 3,3 -13,45 -37,94 -23,48 -41,93 -40,98 4,14 -39,93 -66,123 -13,14 -23,29 -23,33 0,5 -7,9 -15,9 -20,0 -65,40 -65,57 0,8 -7,16 -15,19 -11,5 -13,13 -9,28 16,49 -3,160 -38,232 -8,16 -21,56 -28,89 -11,45 -24,69 -53,100 -22,22 -53,59 -69,83 -16,23 -33,40 -37,38 -5,-3 -19,6 -31,19 -15,16 -30,23 -42,19 -12,-4 -18,0 -18,11 0,9 -6,15 -12,12 -7,-2 -30,2 -52,9 -49,18 -46,18 -46,-10 z m 76,-263 c 11,-16 24,-41 30,-58 6,-18 30,-43 59,-62 60,-40 76,-63 43,-63 -19,0 -20,-2 -8,-11 11,-7 3,-8 -30,-4 -25,4 -76,8 -115,9 -38,2 -77,5 -85,8 -44,16 -102,28 -141,29 -65,1 -20,16 88,29 100,13 111,17 86,36 -15,11 -16,15 -4,23 19,13 6,28 -32,37 l -32,7 32,9 c 23,6 31,13 27,23 -5,12 2,15 29,15 27,0 39,-6 53,-27 z m 228,-105 c 6,-28 6,-28 -44,-28 -46,0 -50,2 -50,24 0,14 -4,28 -10,31 -5,3 -10,12 -9,18 0,9 2,9 6,0 7,-20 72,-16 80,4 6,14 7,14 13,-3 4,-10 10,-31 14,-46 z" />
      <path
         id="pvz17nwHX"
         d="m 4195,2121 c 24,-20 41,-28 43,-21 6,17 -18,38 -53,46 -30,7 -30,7 10,-25 z" />
      <path
         id="pUdrzkZd7"
         d="m 4096,2085 c -21,-39 -27,-98 -15,-155 4,-19 4,-55 0,-80 l -6,-45 -15,35 c -7,19 -20,39 -27,43 -7,5 -11,12 -8,17 3,5 0,12 -6,16 -16,10 -29,-16 -22,-47 6,-29 -13,-50 -23,-25 -8,20 -20,20 -28,1 -6,-16 42,-148 56,-153 4,-2 8,-10 8,-18 0,-8 7,-14 15,-14 8,0 15,4 15,10 0,11 85,2 113,-12 18,-9 18,-10 -1,-29 -18,-16 -19,-23 -10,-56 11,-44 28,-65 35,-45 4,10 9,9 24,-4 10,-9 19,-23 19,-29 0,-7 11,-20 24,-28 45,-30 63,-76 81,-207 9,-69 15,-141 13,-160 -3,-31 -6,-35 -32,-35 -24,-1 -31,-6 -37,-27 -7,-28 10,-55 26,-40 5,4 5,-1 2,-11 -4,-10 -7,-27 -7,-38 0,-11 -9,-27 -20,-36 -11,-10 -20,-28 -20,-42 0,-13 3,-21 6,-18 4,3 15,2 26,-4 13,-7 17,-16 12,-31 -4,-13 -2,-18 4,-14 6,3 12,-2 15,-11 3,-14 8,-9 20,17 l 15,35 4,-30 3,-30 19,43 c 20,43 31,51 39,30 3,-7 6,6 6,29 1,40 -14,132 -26,163 -4,8 -5,19 -4,24 1,5 -2,12 -8,15 -5,4 -4,21 4,45 19,54 29,120 18,113 -5,-3 -9,10 -9,30 0,22 -7,40 -17,48 -19,14 -24,40 -5,29 7,-4 8,-3 4,5 -4,6 -12,9 -17,6 -9,-6 -10,-2 -14,56 -2,31 -54,130 -55,104 -1,-6 -7,1 -14,15 -8,14 -12,29 -9,34 4,5 1,6 -4,3 -15,-10 -24,17 -30,96 -3,37 -9,67 -13,67 -4,0 -5,22 -2,49 2,30 0,51 -7,55 -7,5 -11,-10 -12,-46 0,-51 -17,-117 -18,-75 -1,9 -8,17 -16,17 -12,0 -16,15 -17,68 -6,168 8,232 49,232 51,0 9,67 -47,76 -32,5 -37,3 -54,-31 z" />
      <path
         id="pPqxWAXsS"
         d="m 2950,1592 c 0,-15 14,-45 30,-66 34,-45 36,-58 15,-76 -37,-31 -12,-155 84,-416 14,-37 47,-54 101,-54 47,0 51,11 13,35 -16,10 -36,28 -47,41 -24,29 -55,119 -56,160 0,30 0,30 55,30 49,-1 54,-3 49,-21 -6,-28 71,-111 121,-129 32,-12 35,-15 15,-15 -37,-1 -12,-20 50,-36 95,-25 214,-1 217,43 2,28 -15,32 -73,17 -36,-9 -50,-9 -52,-1 -1,7 -20,11 -45,9 -23,-1 -34,0 -24,3 27,8 16,26 -24,39 -23,8 -41,23 -54,48 -11,21 -28,37 -38,37 -19,0 -37,37 -37,76 0,15 -6,24 -15,24 -11,0 -15,12 -15,45 0,25 5,45 10,45 6,0 10,24 10,53 v 52 l -24,-27 c -31,-37 -43,-35 -38,5 3,29 0,34 -32,50 -28,13 -41,14 -60,6 -20,-9 -33,-6 -80,20 l -56,30 z" />
      <path
         id="prFsStLOM"
         d="m 2943,1116 c -4,-7 -32,-21 -60,-30 -61,-20 -77,-36 -36,-36 h 28 l -35,-22 c -19,-12 -44,-23 -55,-24 -11,0 -24,-2 -30,-4 -5,-1 -18,-2 -29,-1 -15,1 -16,4 -6,16 7,8 19,15 27,15 8,0 11,5 8,10 -3,6 -30,10 -60,10 -45,0 -55,3 -60,20 -3,11 -12,20 -20,20 -26,0 -34,-84 -11,-128 12,-25 22,-97 31,-227 1,-29 -3,-62 -11,-79 -17,-36 -18,-50 -2,-40 8,5 9,2 3,-12 -4,-10 -7,-36 -6,-56 1,-21 -2,-38 -7,-38 -10,0 -22,57 -22,106 0,17 -3,33 -6,37 -9,9 -36,-21 -30,-32 9,-14 10,-234 1,-260 -7,-24 -8,-24 -21,-6 -28,38 -15,-14 19,-76 34,-62 47,-73 47,-38 0,11 3,19 8,17 4,-2 26,-12 50,-22 44,-19 55,-36 22,-36 -16,0 -18,-4 -11,-22 9,-25 46,-38 132,-45 96,-8 160,21 87,40 -29,8 -31,10 -15,22 15,11 13,14 -25,28 -24,8 -74,21 -113,28 -50,9 -64,14 -50,19 18,7 17,8 -7,15 -16,4 -39,4 -52,1 -19,-5 -26,-1 -31,15 -10,30 34,55 50,29 3,-5 18,-10 33,-10 26,0 26,1 -16,36 -32,27 -42,43 -42,65 0,36 16,69 33,69 9,0 11,13 9,41 -5,49 13,75 27,38 8,-21 10,-22 16,-6 7,18 5,43 -14,167 -5,36 -12,86 -14,111 l -4,46 51,16 c 28,9 70,19 94,23 23,3 49,12 57,20 8,8 28,19 44,25 35,12 38,19 47,98 4,41 3,61 -4,61 -6,0 -15,-6 -19,-14 z" />
      <path
         id="p14eSvWCZy"
         d="m 3594,981 c -34,-9 -68,-22 -76,-28 -8,-7 -18,-9 -24,-4 -5,5 -35,12 -66,16 -48,5 -58,4 -58,-8 0,-29 12,-47 32,-47 43,0 58,-18 58,-70 0,-39 -4,-52 -20,-60 -26,-14 -27,-82 -1,-130 10,-19 27,-51 37,-70 10,-19 26,-41 36,-48 37,-27 48,-45 48,-77 0,-28 -5,-35 -32,-45 -46,-16 -205,-31 -320,-30 -60,0 -104,-4 -117,-11 -15,-10 -34,-10 -92,0 -78,14 -117,29 -164,61 -27,18 -85,28 -85,14 0,-40 96,-110 163,-119 28,-4 70,-16 91,-27 22,-10 48,-17 58,-15 10,3 18,1 18,-5 0,-5 10,-6 23,-2 39,12 70,16 145,18 52,1 75,5 82,16 7,11 12,12 20,4 8,-8 31,-7 83,2 40,6 92,15 117,18 119,14 151,20 156,27 3,5 18,9 33,9 41,0 79,41 73,80 -2,16 -8,30 -13,30 -17,0 -49,40 -49,60 0,12 -10,24 -24,30 -15,5 -27,20 -31,39 -4,17 -13,31 -20,31 -7,0 -21,23 -31,51 -11,28 -25,54 -31,56 -20,8 -15,71 8,102 12,16 18,34 14,41 -10,16 26,87 50,99 19,9 18,10 -5,9 -14,0 -53,-8 -86,-17 z" />
      <path
         id="pLrG8val"
         d="m 4287,372 c -10,-10 -17,-27 -17,-38 0,-15 -2,-16 -9,-5 -5,7 -14,10 -20,7 -6,-4 -11,0 -11,9 0,9 -4,13 -10,10 -5,-3 -10,-1 -10,4 0,28 -28,6 -45,-34 l -18,-46 -19,28 c -10,16 -18,23 -18,17 0,-7 -11,-22 -25,-35 -25,-24 -32,-53 -16,-64 5,-3 12,-1 16,5 12,19 26,11 15,-9 -8,-17 -7,-20 9,-18 11,1 22,10 25,20 3,13 10,17 20,14 8,-3 18,-2 21,3 3,5 12,7 19,4 8,-3 23,7 35,22 21,27 25,25 21,-9 -1,-16 1,-16 18,-6 28,18 62,90 55,117 -7,27 -15,28 -36,4 z" />
      <path
         id="pAZEB6rbx"
         d="m 3709,132 c -29,-30 -122,-79 -169,-88 -26,-6 -29,-4 -24,10 5,13 -6,9 -42,-13 -49,-32 -70,-39 -59,-21 4,7 -2,9 -17,5 -17,-4 -29,0 -42,14 -14,16 -23,18 -37,10 -11,-5 -25,-9 -32,-8 -33,4 -47,-2 -47,-21 0,-19 7,-20 195,-20 191,0 195,0 250,27 30,15 54,32 52,39 -1,6 13,23 31,39 36,30 37,46 0,21 -33,-23 -43,-20 -24,9 23,35 -1,33 -35,-3 z" />
      <path
         id="p1AgkXyDjM"
         d="m 2920,123 c -29,-21 -31,-24 -10,-18 26,7 57,32 49,39 -2,2 -20,-7 -39,-21 z" />
    </g>
  </g>
  <g
     id="l6jFAUIpXEgto2rUjqZd1bO"
     fill="#a19393"
     transform="matrix(1.1357851,0,0,1.1357851,-2602.0837,1.7036777)">
    <g
       id="g1372">
      <path
         id="pETI4QO60"
         d="m 2750,3958 c 0,-2 9,-32 20,-66 11,-35 20,-76 20,-91 0,-67 93,-294 212,-517 24,-44 49,-95 56,-112 19,-45 32,-40 32,13 0,48 -56,229 -95,305 -13,25 -31,73 -40,105 -10,33 -25,78 -34,100 -10,22 -37,91 -61,153 -44,111 -45,112 -77,112 -18,0 -33,-1 -33,-2 z" />
      <path
         id="pkkiejXal"
         d="m 3215,3138 c -14,-40 -30,-82 -35,-94 -4,-11 -11,-96 -15,-187 l -8,-167 h 36 c 34,0 36,2 51,53 8,28 18,71 22,94 l 6,42 25,-30 25,-29 -36,-42 c -20,-23 -36,-50 -36,-61 0,-10 -9,-30 -20,-44 -11,-14 -20,-32 -20,-40 0,-8 -9,-26 -20,-40 -11,-14 -20,-41 -20,-59 v -33 l 33,22 c 18,12 42,32 54,43 13,14 50,28 103,40 45,9 84,23 87,31 3,7 14,13 24,13 13,0 17,5 12,16 -5,14 -3,15 15,5 24,-13 27,-6 13,33 -9,21 -5,30 34,68 l 43,44 58,-64 c 64,-71 114,-137 114,-151 0,-6 17,-23 37,-38 47,-35 103,-94 103,-109 0,-7 -19,-21 -42,-32 l -42,-19 211,-158 c 116,-86 215,-158 220,-159 15,-2 42,69 43,116 0,67 6,78 41,71 25,-5 29,-2 29,16 0,12 -10,41 -21,64 -32,62 -280,375 -338,427 -28,24 -51,49 -52,55 0,5 -20,37 -44,70 -25,33 -51,75 -59,93 -19,42 -85,122 -100,122 -15,-1 -66,-46 -66,-60 0,-5 -4,-10 -8,-10 -4,0 -15,-12 -24,-28 -28,-48 -66,-82 -82,-76 -9,3 -16,12 -16,19 0,7 -7,18 -15,25 -8,7 -15,20 -15,29 0,9 -16,23 -39,33 -22,10 -55,31 -74,48 -23,20 -45,30 -66,30 -30,0 -31,2 -31,40 0,39 -1,40 -34,40 -33,0 -35,-2 -61,-72 z" />
      <path
         id="p7A33SPlV"
         d="m 2902,2373 c -15,-12 -30,-23 -33,-23 -4,0 -10,-7 -13,-16 -3,-8 -2,-12 4,-9 6,3 10,2 10,-4 0,-5 -6,-11 -12,-14 -7,-2 27,-8 77,-12 50,-4 92,-10 95,-14 12,-15 52,-31 79,-31 38,0 91,-24 119,-54 30,-32 28,-36 -13,-36 -28,0 -35,-4 -35,-19 0,-13 7,-18 25,-18 47,0 82,-22 90,-56 11,-50 12,-67 4,-73 -13,-8 3,-37 39,-71 25,-24 44,-33 69,-33 21,0 36,-6 39,-15 4,-8 12,-15 20,-15 8,0 14,-4 14,-10 0,-5 5,-10 11,-10 12,0 6,83 -12,153 -11,44 -13,47 -44,47 -20,0 -35,-6 -39,-15 -9,-25 -77,55 -70,82 3,12 -2,33 -12,48 -9,14 -17,40 -16,56 0,20 -5,32 -16,36 -9,4 -20,12 -25,19 -9,16 -87,69 -112,77 -186,57 -209,60 -243,30 z" />
      <path
         id="pz836JTt3"
         d="m 3403,1642 c -24,-2 -43,-7 -43,-12 0,-6 -15,-16 -32,-23 -41,-17 -118,-100 -118,-126 0,-11 -4,-21 -9,-23 -5,-1 -12,-36 -15,-75 -6,-69 -5,-73 14,-73 13,0 20,-7 20,-20 0,-13 7,-20 20,-20 21,0 25,11 35,88 15,121 17,127 52,160 20,17 44,32 54,32 10,0 21,5 24,10 3,6 28,10 55,10 27,0 51,4 54,9 4,5 -11,22 -31,38 -31,22 -46,27 -80,25 z" />
      <path
         id="picBzN4jL"
         d="m 3595,1492 c 4,-39 15,-70 35,-98 l 30,-42 -31,-6 c -18,-3 -51,-6 -75,-6 -71,0 -54,-23 41,-54 47,-15 89,-25 93,-22 5,3 20,-1 35,-9 62,-32 99,16 57,75 -11,15 -20,34 -20,42 0,7 -8,21 -19,30 -10,8 -20,20 -22,26 -2,6 -11,12 -19,14 -15,3 -35,29 -46,60 -3,10 -20,24 -36,33 l -30,15 z" />
      <path
         id="p13G5IU66N"
         d="m 3000,1228 c 0,-103 19,-249 35,-265 7,-7 15,-18 17,-24 2,-6 44,-16 93,-21 50,-6 111,-16 137,-24 55,-16 104,-18 113,-4 3,6 17,10 31,10 17,0 24,5 24,20 0,13 -7,20 -19,20 -10,0 -21,7 -25,15 -3,10 -19,15 -43,15 -35,0 -148,27 -214,52 -27,10 -42,41 -105,226 -26,76 -44,68 -44,-20 z" />
      <path
         id="pp6mcwghu"
         d="m 3390,655 c 0,-37 5,-51 27,-71 19,-17 30,-43 39,-86 15,-72 15,-72 -66,-88 -78,-16 -80,-17 -80,-43 0,-22 1,-23 73,-14 165,18 238,42 220,70 -4,7 -8,23 -9,37 -1,48 -14,75 -43,95 -26,17 -35,30 -39,58 0,4 -12,22 -26,38 -15,17 -26,35 -26,40 0,5 -16,9 -35,9 -35,0 -35,0 -35,-45 z" />
      <path
         id="pattV6CAN"
         d="m 2921,124 c -19,-13 -57,-26 -88,-30 -59,-7 -66,-24 -15,-36 18,-5 47,-12 65,-17 31,-9 31,-9 -15,-10 -36,-1 -48,-5 -48,-16 0,-22 432,-22 470,0 14,8 36,14 49,15 20,0 21,2 11,15 -9,10 -17,12 -30,5 -10,-5 -36,-7 -58,-4 -24,3 -43,1 -47,-5 -3,-6 -11,-11 -16,-11 -5,0 -2,11 7,25 13,21 14,25 2,25 -8,0 -19,-5 -26,-12 -17,-17 -28,-2 -12,17 18,21 3,19 -27,-5 -29,-22 -32,-23 -51,-11 -12,7 -12,12 -1,29 17,28 4,40 -19,19 -20,-19 -37,-23 -27,-7 8,13 -8,13 -21,0 -14,-14 -55,-21 -77,-14 -18,6 -18,7 -1,25 26,28 14,30 -25,3 z" />
    </g>
  </g>
  <g
     id="l74wCML5c8cpxz5ImvSonDa"
     fill="#cbb4b0"
     transform="matrix(1.1357851,0,0,1.1357851,-2602.0837,1.7036777)">
    <g
       id="g1379">
      <path
         id="pgstyj268"
         d="m 3470,3260 c 0,-5 -9,-10 -20,-10 -16,0 -20,-7 -20,-30 0,-30 0,-30 -25,-14 -18,11 -38,15 -65,11 -22,-3 -43,-1 -46,5 -9,14 -114,4 -124,-12 -5,-7 -8,-47 -8,-89 0,-77 -13,-131 -32,-131 -5,0 -10,7 -10,15 0,8 -6,12 -12,10 -19,-7 -34,6 -54,49 -11,21 -23,39 -29,40 -5,0 -12,-21 -15,-49 -3,-27 -10,-57 -15,-65 -28,-45 -98,-129 -111,-134 -8,-3 -13,-10 -9,-15 3,-5 1,-12 -5,-16 -19,-12 -10,-69 16,-107 30,-42 44,-48 44,-18 0,15 7,20 28,20 39,0 48,10 55,59 3,24 13,51 21,60 15,14 16,12 16,-17 0,-17 12,-56 26,-87 20,-41 24,-62 18,-82 -8,-29 -10,-190 -2,-198 3,-3 19,0 37,6 22,8 44,30 71,71 22,33 40,65 40,72 0,7 11,27 25,46 14,19 23,40 21,46 -3,7 15,35 39,63 l 44,52 21,-21 c 12,-12 24,-19 28,-16 3,4 -19,32 -50,64 -30,31 -65,72 -77,90 -12,17 -26,32 -30,32 -4,0 -13,-30 -20,-67 -14,-79 -40,-173 -48,-173 -2,0 -2,60 2,133 5,108 12,147 35,215 31,88 49,126 50,104 0,-7 -4,-21 -9,-30 -4,-9 -11,-30 -15,-46 -6,-24 -5,-27 6,-19 7,6 29,13 48,15 29,4 42,-1 78,-31 23,-20 46,-36 50,-37 4,0 18,-6 32,-12 l 25,-11 -30,-2 c -22,-1 -24,-3 -10,-6 25,-6 65,-42 65,-59 0,-13 28,-28 48,-25 15,2 16,-31 0,-47 -9,-9 -7,-12 11,-12 12,0 20,4 16,9 -6,11 14,61 25,61 4,0 22,21 40,48 19,26 38,49 42,50 4,2 8,10 8,17 0,7 7,15 15,19 21,7 19,35 -2,43 -24,8 -122,99 -152,140 -20,27 -31,33 -63,33 -21,0 -38,-4 -38,-10 z" />
      <path
         id="pLAYTAeEp"
         d="m 2877,2330 c -18,-20 -32,-27 -44,-23 -13,5 -15,3 -10,-12 4,-9 4,-23 -1,-29 -5,-6 -17,-38 -27,-71 -10,-33 -45,-116 -78,-185 -78,-165 -114,-287 -136,-468 -8,-63 -7,-77 7,-93 21,-25 90,-26 107,-2 12,16 90,42 132,43 16,0 25,8 29,25 3,14 13,25 23,25 31,0 40,-20 34,-76 -3,-31 0,-73 7,-99 12,-43 7,-72 -8,-49 -13,19 -96,35 -162,32 -59,-3 -65,-5 -68,-25 -3,-19 -10,-23 -37,-23 -46,0 -54,-19 -45,-110 4,-41 6,-90 3,-110 -2,-19 0,-41 5,-48 17,-26 172,-9 172,19 0,5 -12,11 -27,15 -56,12 -68,17 -85,32 -10,8 -18,28 -18,43 0,22 4,27 21,26 12,-1 34,-14 49,-29 20,-20 35,-26 56,-23 16,2 33,4 37,4 20,2 -7,21 -29,21 -31,0 -31,20 0,49 22,20 30,22 83,16 32,-4 63,-12 70,-17 12,-10 12,-48 -1,-103 -4,-16 -9,-40 -12,-52 -2,-14 -16,-25 -39,-33 -19,-6 -35,-16 -35,-21 0,-5 -20,-14 -45,-20 -94,-24 -35,-53 147,-74 64,-7 126,-16 137,-20 28,-9 61,-66 61,-107 0,-46 22,-97 54,-127 24,-22 26,-29 20,-75 -9,-66 -45,-124 -82,-131 -15,-3 -45,-9 -67,-14 -76,-18 -234,30 -287,86 -20,21 -78,33 -78,16 0,-5 11,-25 24,-46 23,-38 84,-83 141,-104 75,-29 237,-44 249,-24 3,4 47,7 97,5 67,-3 98,0 117,11 15,8 53,19 85,25 66,13 96,39 89,75 -2,14 -8,25 -12,25 -4,0 -10,23 -14,50 -5,36 -15,58 -36,80 -35,36 -41,67 -11,50 26,-14 33,1 19,40 -10,29 -9,35 10,49 18,13 22,29 25,93 4,73 3,77 -21,87 -24,12 -88,6 -107,-10 -6,-4 -31,-1 -55,8 -25,9 -67,17 -95,19 -86,4 -129,12 -133,23 -2,6 -10,18 -18,26 -8,8 -17,43 -20,82 -17,215 -22,261 -29,289 -6,25 -2,39 16,63 20,27 21,34 11,68 -16,52 -95,141 -130,145 l -27,4 32,19 c 23,14 33,28 33,44 0,38 32,101 50,101 10,0 32,-5 50,-12 29,-10 35,-9 47,8 11,14 11,20 1,30 -21,19 -71,31 -103,24 -16,-4 -50,-1 -74,6 -24,7 -57,10 -72,7 -28,-5 -40,9 -19,22 18,11 113,33 202,46 48,7 85,16 82,20 -7,12 -65,39 -83,39 -26,1 -54,28 -57,56 -5,44 29,63 111,64 39,0 100,3 138,7 65,6 67,7 67,34 0,54 -80,116 -159,121 -18,1 -36,8 -38,15 -3,7 -10,10 -15,7 -6,-4 -13,-2 -17,4 -4,6 -29,13 -56,15 -56,5 -85,15 -85,28 0,17 -17,9 -43,-21 z" />
      <path
         id="pIImtUg1E"
         d="m 4163,2083 c -7,-2 -21,-21 -30,-41 -18,-37 -22,-122 -14,-288 3,-75 6,-83 28,-93 13,-6 26,-11 28,-11 4,0 20,239 17,260 -1,8 1,31 4,52 5,31 10,37 38,42 33,6 74,40 59,48 -4,3 -17,8 -27,12 -15,5 -17,4 -8,-7 7,-8 9,-17 5,-20 -12,-13 -34,-7 -40,11 -7,16 -33,42 -43,41 -3,0 -11,-3 -17,-6 z" />
      <path
         id="peLp8tMe4"
         d="m 3420,1610 c -19,-11 -51,-22 -70,-25 -8,-1 -32,-17 -52,-37 -29,-26 -38,-42 -38,-67 0,-18 -4,-41 -10,-51 -9,-17 -13,-42 -25,-168 -4,-40 -2,-43 25,-48 19,-4 32,-16 40,-35 18,-42 33,-51 87,-46 38,3 43,5 26,11 -13,5 -23,14 -23,20 0,22 46,56 76,56 22,0 26,3 14,10 -8,5 -25,10 -37,10 -12,0 -25,5 -28,11 -4,6 -1,10 6,8 29,-3 38,2 36,21 -1,15 -9,20 -32,21 -30,0 -30,0 -5,10 15,6 60,7 115,3 49,-5 95,-7 100,-5 6,2 23,4 38,5 45,2 46,37 3,100 -23,34 -34,59 -30,70 8,22 -88,118 -110,110 -8,-3 -17,0 -21,6 -4,6 -15,8 -26,5 -11,-4 -19,-2 -19,4 0,13 -19,13 -40,1 z" />
    </g>
  </g>
  <g
     id="lV1KBnsVEfRea2Xqg5cD3P"
     fill="#e6d9d8"
     transform="matrix(1.1357851,0,0,1.1357851,-2602.0837,1.7036777)">
    <g
       id="g1390">
      <path
         id="pDE167xor"
         d="m 2780,3951 c 0,-8 91,-243 111,-286 5,-11 22,-58 38,-105 15,-47 45,-124 64,-171 20,-47 45,-119 55,-160 11,-41 31,-104 45,-141 26,-69 26,-78 -5,-78 -10,0 -18,-4 -18,-10 0,-5 -6,-10 -14,-10 -16,0 -29,-41 -20,-65 4,-10 -3,-27 -21,-45 -19,-20 -29,-43 -32,-74 -5,-38 -10,-47 -30,-52 -13,-4 -35,-4 -48,-2 -25,5 -34,-5 -15,-17 6,-3 10,-13 10,-21 0,-17 99,-154 111,-154 4,0 23,-25 41,-55 20,-34 39,-54 48,-53 28,6 115,158 90,158 -5,0 -21,-21 -36,-47 -26,-44 -28,-45 -38,-24 -7,16 -6,32 4,54 21,48 16,110 -13,171 -34,70 -32,133 2,170 14,14 32,26 42,26 20,0 32,15 36,45 1,11 8,46 14,77 8,41 9,61 1,71 -6,7 -8,17 -4,23 11,17 40,24 46,11 3,-8 5,-7 5,2 1,11 6,10 21,-4 17,-15 26,-17 54,-8 30,9 39,7 87,-23 30,-18 57,-34 60,-34 14,0 16,40 3,57 -7,10 -14,25 -14,33 0,8 10,1 21,-15 12,-17 33,-39 47,-49 l 25,-19 -7,28 c -4,16 -16,40 -27,53 -10,14 -17,28 -13,31 3,3 14,-6 24,-20 30,-41 160,-169 160,-157 0,6 6,5 15,-2 13,-11 20,-9 42,11 18,17 24,19 20,8 -3,-10 3,-26 14,-38 11,-12 15,-21 9,-21 -6,0 -2,-12 8,-27 10,-16 22,-35 27,-45 6,-9 29,-44 53,-77 23,-33 42,-63 42,-66 0,-19 131,-125 154,-125 14,0 4,21 -30,62 -19,23 -41,50 -48,58 -6,9 -27,38 -46,65 -19,28 -64,88 -99,135 -64,84 -501,735 -593,884 l -47,76 h -216 c -118,0 -215,-4 -215,-9 z" />
      <path
         id="phnYfJre3"
         d="m 3541,2830 c -45,-53 -94,-85 -117,-76 -35,13 -7,-17 73,-80 49,-38 124,-101 168,-139 165,-145 181,-156 207,-150 13,3 37,17 53,29 26,21 28,25 17,52 -15,35 -63,88 -115,127 -20,15 -37,32 -37,38 0,16 -73,109 -143,181 l -64,67 z" />
      <path
         id="pKm9jZB4P"
         d="m 4433,2394 c 3,-4 0,-16 -8,-28 -17,-24 -19,-46 -5,-46 6,0 10,11 10,24 0,13 7,26 15,30 20,7 19,26 -2,26 -9,0 -13,-3 -10,-6 z" />
      <path
         id="peHnqVPsa"
         d="m 4275,2310 c -9,-16 -17,-54 -19,-84 -2,-29 -10,-68 -19,-86 -16,-31 -16,-33 7,-64 13,-17 21,-37 19,-43 -3,-7 0,-13 5,-13 18,0 29,24 61,129 37,124 38,141 8,169 -31,29 -44,28 -62,-8 z" />
      <path
         id="pAjttBZ9c"
         d="m 2682,1937 c -39,-87 -62,-162 -62,-202 1,-28 2,-28 12,-10 12,20 14,25 17,60 1,15 4,16 10,7 8,-13 48,111 43,136 -2,6 1,12 5,12 4,0 9,16 10,35 2,19 2,35 0,35 -1,-1 -17,-33 -35,-73 z" />
      <path
         id="puEuNvSs8"
         d="m 2588,1580 c -15,-36 -17,-143 -4,-243 14,-102 24,-136 33,-111 2,6 10,20 18,30 14,18 16,18 40,-9 l 24,-27 6,37 c 10,60 12,63 50,63 42,0 125,-21 125,-32 0,-4 6,-8 14,-8 23,0 57,-57 64,-103 5,-41 18,-61 34,-51 10,6 0,97 -17,159 -28,104 -34,143 -28,198 7,66 -2,82 -51,91 -44,8 -63,0 -70,-30 -5,-20 -11,-24 -27,-19 -11,4 -26,2 -33,-4 -7,-6 -28,-13 -47,-15 -18,-2 -41,-13 -50,-25 -10,-12 -21,-21 -26,-21 -20,0 -42,42 -45,87 -2,26 -6,41 -10,33 z" />
      <path
         id="p1vBvWo6w"
         d="m 2610,1114 c 0,-43 4,-64 9,-55 9,15 7,108 -3,118 -3,4 -6,-25 -6,-63 z" />
      <path
         id="p114ZI51Am"
         d="m 2711,941 c -8,-5 -20,-7 -28,-4 -7,3 -13,0 -13,-7 0,-7 -8,-9 -20,-5 -14,4 -19,2 -15,-7 2,-7 9,-65 15,-128 6,-63 15,-132 20,-152 6,-21 15,-57 21,-79 22,-85 155,-171 279,-181 8,0 20,-4 25,-7 13,-9 49,-6 105,7 25,7 57,14 72,17 32,6 80,73 82,114 1,14 5,31 9,38 14,22 -4,91 -30,115 -31,29 -53,80 -53,126 0,58 -43,112 -95,117 -5,0 -23,7 -38,15 -21,10 -30,11 -35,2 -7,-11 -36,-11 -47,0 -4,3 -23,4 -44,1 -24,-3 -49,1 -69,11 -33,17 -118,21 -141,7 z" />
    </g>
  </g>
</svg>
