<?xml version="1.0" encoding="UTF-8" standalone="no"?>
<svg
   xmlns:dc="http://purl.org/dc/elements/1.1/"
   xmlns:cc="http://creativecommons.org/ns#"
   xmlns:rdf="http://www.w3.org/1999/02/22-rdf-syntax-ns#"
   xmlns:svg="http://www.w3.org/2000/svg"
   xmlns="http://www.w3.org/2000/svg"
   xmlns:sodipodi="http://sodipodi.sourceforge.net/DTD/sodipodi-0.dtd"
   xmlns:inkscape="http://www.inkscape.org/namespaces/inkscape"
   class="img-fluid"
   id="outputsvg"
   width="350"
   height="450"
   viewBox="0 0 3500 4500"
   version="1.1"
   sodipodi:docname="WP-passport-style-color-lowres-trp.svg"
   inkscape:version="1.0.2 (e86c870, 2021-01-15)">
  <metadata
     id="metadata392">
    <rdf:RDF>
      <cc:Work
         rdf:about="">
        <dc:format>image/svg+xml</dc:format>
        <dc:type
           rdf:resource="http://purl.org/dc/dcmitype/StillImage" />
        <dc:title></dc:title>
      </cc:Work>
    </rdf:RDF>
  </metadata>
  <defs
     id="defs390" />
  <sodipodi:namedview
     pagecolor="#ffffff"
     bordercolor="#666666"
     borderopacity="1"
     objecttolerance="10"
     gridtolerance="10"
     guidetolerance="10"
     inkscape:pageopacity="0"
     inkscape:pageshadow="2"
     inkscape:window-width="1920"
     inkscape:window-height="1001"
     id="namedview388"
     showgrid="false"
     fit-margin-top="55.1282"
     fit-margin-left="0"
     fit-margin-right="0"
     fit-margin-bottom="0"
     units="in"
     inkscape:zoom="1.4182101"
     inkscape:cx="175"
     inkscape:cy="240.5641"
     inkscape:window-x="-9"
     inkscape:window-y="-9"
     inkscape:window-maximized="1"
     inkscape:current-layer="outputsvg" />
  <g
     id="l5OLW2cHRAVudPHvd2lir0l"
     fill="#332422"
     transform="matrix(2.2435897,0,0,2.2435897,0,12.820472)">
    <g
       id="g306">
      <path
         id="pf8ZdAKqu"
         d="m 12,1955 c 3,-25 2,-45 -3,-45 -5,0 -9,-31 -9,-70 v -70 h 55 c 54,0 55,-1 55,-28 0,-28 26,-46 100,-67 14,-4 32,-13 40,-19 36,-27 80,-46 109,-46 29,0 31,3 31,34 0,65 -12,98 -41,115 -27,15 -29,21 -29,74 v 58 l 53,-7 c 28,-4 56,-10 61,-15 19,-18 75,-10 86,12 18,32 71,59 118,59 40,0 42,1 42,30 v 30 H 344 7 Z" />
      <path
         id="pNNsaaHmf"
         d="m 1160,1955 c 0,-25 5,-45 10,-45 6,0 10,-18 10,-39 0,-52 26,-71 97,-71 h 53 v -48 c 0,-57 12,-72 58,-72 33,0 98,31 114,54 11,16 10,74 -1,78 -5,2 -12,14 -16,28 -6,25 -5,25 34,22 l 41,-4 v 71 71 h -39 c -36,0 -40,-3 -44,-27 l -4,-28 -2,28 -1,27 h -155 -155 z" />
      <path
         id="pRwiWcKCF"
         d="m 400,1760 v -80 h 55 55 v 80 80 h -55 -55 z" />
      <path
         id="pIt9m5vcH"
         d="m 1120,1490 c 0,-55 4,-100 9,-100 4,0 31,25 60,56 55,58 57,70 25,122 -11,17 -24,22 -54,22 h -40 z" />
      <path
         id="p5RcgNoRi"
         d="m 1048,475 c -43,-38 -48,-48 -48,-85 v -42 l 61,4 c 67,5 79,15 79,65 0,17 4,33 9,35 5,2 12,18 16,36 7,32 6,32 -32,32 -31,-1 -47,-9 -85,-45 z" />
      <path
         id="p13TlJJATV"
         d="m 518,413 c -25,-4 -28,-9 -28,-43 0,-35 4,-41 53,-72 28,-19 71,-40 93,-46 51,-15 121,-16 126,-2 2,6 42,12 90,13 96,4 118,14 118,57 0,56 -6,60 -85,60 -41,0 -77,-5 -80,-10 -4,-7 -12,-7 -25,0 -10,5 -37,10 -60,10 -27,0 -51,7 -67,20 -25,20 -66,23 -135,13 z" />
    </g>
  </g>
  <g
     id="l5hhaNVeYgcG0HMOQg5FevX"
     fill="#593c2f"
     transform="matrix(2.2435897,0,0,2.2435897,0,12.820472)">
    <g
       id="g315">
      <path
         id="pddTwasZ8"
         d="m 860,1966 c 0,-51 33,-86 81,-86 36,0 39,2 39,27 0,15 -5,42 -12,60 -11,31 -15,33 -60,33 -48,0 -48,0 -48,-34 z" />
      <path
         id="p199JtGr8E"
         d="m 295,1870 c -6,-69 -10,-80 -26,-80 -12,0 -19,-7 -19,-19 0,-17 8,-20 48,-23 l 47,-3 9,-57 c 7,-52 11,-58 32,-58 20,0 24,-5 24,-30 0,-17 9,-48 20,-70 11,-22 20,-48 20,-60 0,-16 6,-20 30,-20 25,0 30,4 30,25 0,44 30,172 51,221 12,25 34,67 50,92 20,32 29,59 29,89 v 43 h -37 c -31,0 -42,-6 -60,-33 l -23,-32 v 38 c 0,41 -13,48 -30,17 -9,-17 -14,-18 -30,-7 -11,6 -20,17 -20,23 0,7 -7,14 -15,18 -10,3 -15,-1 -15,-14 0,-16 -5,-18 -37,-13 -21,3 -43,12 -49,19 -6,8 -14,14 -17,14 -3,0 -8,-36 -12,-80 z m 203,-56 c 2,-1 -1,-11 -7,-22 -6,-12 -11,-34 -11,-51 0,-26 -4,-31 -25,-31 -24,0 -25,3 -25,60 v 60 l 33,-7 c 17,-3 33,-7 35,-9 z" />
      <path
         id="plbYMp2KN"
         d="m 1080,1678 c 1,-24 7,-54 15,-68 10,-17 14,-58 15,-127 0,-81 3,-103 14,-103 21,0 28,28 26,109 -2,85 12,92 46,22 l 21,-43 16,26 c 18,26 23,86 9,86 -5,0 -7,13 -4,28 2,16 -1,47 -8,70 l -11,42 h -69 -70 z" />
      <path
         id="p4IKowKzg"
         d="m 533,983 c -32,-4 -33,-5 -33,-54 0,-45 2,-49 24,-49 14,0 28,-4 31,-10 3,-5 23,-10 44,-10 45,0 71,29 71,79 0,47 -32,57 -137,44 z" />
      <path
         id="p11VyQMCLV"
         d="m 880,917 c 0,-51 8,-57 76,-57 h 45 l -3,48 -3,47 -57,3 -58,3 z" />
      <path
         id="pMCrwYxxl"
         d="m 1165,793 c -7,-52 -17,-85 -46,-148 -10,-22 -29,-65 -42,-95 -13,-30 -34,-64 -46,-74 -11,-11 -21,-24 -21,-31 0,-12 -55,-35 -83,-35 -9,0 -17,-5 -17,-11 0,-8 -27,-10 -87,-7 -68,3 -101,11 -145,31 -32,15 -58,31 -58,37 0,5 -22,10 -48,10 -43,0 -51,4 -73,33 -62,83 -95,156 -104,230 -6,55 -8,57 -36,57 h -29 v -76 c 0,-83 15,-160 36,-185 8,-8 14,-21 14,-28 0,-7 8,-30 19,-50 10,-20 24,-47 30,-62 15,-31 151,-121 207,-137 23,-7 80,-12 128,-12 113,0 213,28 289,80 32,22 62,40 67,40 8,0 20,24 20,41 0,5 -16,2 -36,-6 -43,-18 -74,-19 -74,-4 0,11 90,98 103,99 4,0 7,-9 7,-20 0,-11 5,-20 10,-20 6,0 10,7 10,16 0,8 13,28 28,44 28,28 29,32 35,163 4,74 10,142 13,151 5,13 -1,16 -29,16 -35,0 -36,-1 -42,-47 z M 621,371 c 13,-10 47,-21 74,-24 28,-4 69,-9 91,-13 26,-3 44,-2 48,5 11,17 93,14 99,-3 3,-8 0,-19 -6,-24 -21,-17 -94,-24 -137,-12 -37,10 -43,9 -55,-7 -7,-10 -11,-21 -9,-25 9,-14 -42,-9 -82,8 -80,32 -102,44 -108,61 -3,10 -9,23 -12,30 -5,10 6,14 62,22 6,0 22,-7 35,-18 z" />
    </g>
  </g>
  <g
     id="l1N5poowy2EOz4bvIjBQYLR"
     fill="#8c5437"
     transform="matrix(2.2435897,0,0,2.2435897,0,12.820472)">
    <g
       id="g327">
      <path
         id="pypGexOEa"
         d="m 790,1985 c 0,-8 5,-15 10,-15 6,0 10,-4 10,-10 0,-9 61,-75 77,-81 13,-6 114,-129 153,-187 25,-37 42,-52 58,-52 19,0 21,4 16,28 -7,24 -6,26 9,13 15,-12 17,-10 17,20 0,19 -8,48 -18,65 -35,64 -125,174 -141,174 -22,0 -41,19 -41,42 0,16 -9,18 -75,18 -60,0 -75,-3 -75,-15 z m 147,-45 c 13,-33 4,-39 -19,-12 -27,32 -30,42 -11,42 11,0 23,-12 30,-30 z" />
      <path
         id="pQYxV9wFL"
         d="m 624,1973 c -36,-5 -54,-35 -54,-86 1,-29 2,-30 14,-14 19,25 29,21 22,-8 -5,-21 -3,-25 17,-25 36,0 69,42 74,94 6,51 9,49 -73,39 z" />
      <path
         id="p13E4csc2h"
         d="m 595,1596 c -35,-37 -55,-110 -55,-198 0,-47 0,-48 33,-49 32,0 32,0 10,-16 -28,-19 -34,-93 -8,-93 11,0 15,-12 15,-45 0,-40 3,-47 26,-55 14,-6 42,-10 64,-10 29,0 41,6 54,25 9,14 23,25 31,25 21,0 21,98 0,106 -9,4 -15,19 -15,41 v 35 l -64,-4 -63,-4 8,31 c 5,16 9,31 9,32 0,2 18,3 41,3 h 41 l -4,60 -3,60 h 37 c 33,0 95,-36 106,-62 2,-5 21,-8 43,-8 h 39 v 41 c 0,24 -8,55 -20,74 -24,39 -50,45 -194,45 h -99 z" />
      <path
         id="p1702vbsLb"
         d="m 485,1543 c -11,-66 -12,-70 -20,-45 -4,12 -12,22 -17,22 -6,0 -7,-7 -4,-16 3,-9 6,-29 6,-45 0,-28 2,-30 33,-27 l 32,3 3,73 c 2,59 0,72 -12,72 -10,0 -17,-14 -21,-37 z" />
      <path
         id="pKiPUpq8Z"
         d="m 873,1316 c -18,-8 -23,-19 -23,-47 0,-24 5,-39 15,-43 8,-3 15,-12 15,-21 0,-19 70,-21 88,-3 7,7 12,38 12,70 v 58 l -42,-1 c -24,-1 -53,-6 -65,-13 z" />
      <path
         id="pfuWd5LTx"
         d="m 443,1052 c -9,-6 -12,-47 -11,-150 l 1,-142 h 41 c 22,0 60,7 83,16 37,14 43,21 43,45 0,22 6,30 23,33 112,23 102,16 105,73 3,45 -1,56 -24,83 -15,17 -37,30 -50,30 -13,0 -26,5 -29,10 -7,12 -164,13 -182,2 z M 630,944 c 5,-5 1,-19 -10,-34 -15,-20 -21,-23 -31,-12 -7,6 -23,12 -36,12 -28,0 -33,37 -5,42 28,6 72,2 82,-8 z" />
      <path
         id="psEbfYpVM"
         d="m 801,996 c -7,-8 -11,-38 -9,-72 3,-57 3,-58 38,-67 19,-4 45,-11 57,-14 13,-3 39,-2 58,1 26,5 35,12 35,26 0,11 5,20 10,20 6,0 10,18 10,40 0,36 -2,40 -26,40 -17,0 -28,6 -31,20 -5,17 -14,20 -68,20 -42,0 -66,-5 -74,-14 z m 166,-81 c 3,-9 3,-18 0,-22 -11,-10 -57,7 -57,22 0,20 49,20 57,0 z" />
      <path
         id="p10PUi3ZNg"
         d="m 1147,820 c -6,-120 -3,-150 14,-150 13,0 27,37 34,93 7,52 24,55 26,4 1,-27 3,-26 10,13 4,25 11,58 15,74 5,21 3,31 -10,38 -9,5 -16,18 -16,28 0,16 -7,20 -33,20 h -34 z" />
      <path
         id="p2CVbIcB9"
         d="m 336,908 c -3,-13 -5,-70 -4,-128 1,-58 3,-89 5,-70 8,61 20,53 31,-19 7,-49 20,-87 41,-121 17,-28 31,-54 31,-58 0,-4 16,-24 35,-45 32,-35 37,-37 75,-31 27,4 40,3 40,-5 0,-6 26,-23 58,-38 49,-24 73,-28 175,-31 81,-3 117,-1 117,7 0,6 9,11 20,11 30,0 68,21 85,47 15,23 15,23 -22,23 -21,0 -58,-9 -82,-20 -59,-27 -145,-27 -168,0 -10,11 -26,20 -36,20 -10,0 -31,7 -45,15 -64,34 -141,65 -165,65 -14,0 -29,5 -32,10 -3,6 -17,10 -30,10 -20,0 -24,6 -28,48 -5,60 -27,162 -38,184 -5,10 -9,47 -9,83 0,62 -1,65 -24,65 -16,0 -26,-7 -30,-22 z" />
    </g>
  </g>
  <g
     id="l6P8WUeM99UGY3l4dEXfV1s"
     fill="#796c6a"
     transform="matrix(2.2435897,0,0,2.2435897,0,12.820472)">
    <g
       id="g338">
      <path
         id="pirgkZmjV"
         d="m 0,1944 c 0,-46 4,-59 23,-75 27,-23 69,-26 61,-4 -4,10 0,15 14,15 11,0 33,3 49,6 24,5 31,2 41,-21 7,-14 12,-37 12,-50 0,-21 -5,-25 -30,-25 -20,0 -40,9 -56,25 -31,31 -68,34 -59,5 5,-17 2,-20 -25,-20 -24,0 -31,-4 -28,-16 3,-19 3,-18 113,-69 44,-20 112,-52 150,-70 39,-19 84,-37 101,-40 20,-4 34,-13 37,-26 3,-10 13,-22 22,-25 21,-8 40,10 29,28 -5,7 -10,30 -11,50 -2,30 2,40 20,50 l 22,12 -25,6 c -22,5 -25,12 -28,58 -3,50 -2,52 22,52 20,0 25,-5 28,-32 4,-47 24,-45 49,4 42,83 103,168 121,168 11,0 15,-5 12,-15 -5,-11 1,-15 23,-15 34,0 63,27 63,58 0,19 -5,22 -45,22 -31,0 -47,-5 -51,-15 -4,-10 -20,-15 -49,-15 -61,0 -108,-34 -115,-83 -5,-36 -6,-37 -26,-23 -16,12 -23,30 -28,76 -4,33 -11,60 -16,60 -5,0 -10,-28 -12,-62 l -3,-63 -37,-3 c -32,-3 -38,0 -36,15 1,10 -4,39 -12,66 -13,44 -17,47 -47,47 h -32 l 14,-40 c 16,-45 9,-55 -35,-45 -24,5 -32,14 -41,46 -7,22 -18,39 -27,39 -9,0 -12,-6 -8,-16 20,-53 18,-61 -15,-68 -62,-12 -68,-9 -81,39 -9,32 -17,45 -30,45 -15,0 -18,-9 -18,-56 z m 282,-73 c 8,-8 29,-84 24,-89 -2,-2 -23,2 -45,9 -32,9 -43,18 -47,38 -3,14 -8,34 -11,44 -4,16 0,17 34,11 21,-3 41,-9 45,-13 z m 102,-17 c 21,-8 23,-84 2,-84 -19,0 -23,7 -31,53 -7,38 -2,43 29,31 z M 240,1740 c 0,-5 3,-16 7,-26 5,-15 2,-16 -33,-10 -84,16 -99,44 -24,44 28,0 50,-4 50,-8 z m 85,-14 c 19,-13 42,-72 31,-83 -2,-2 -21,6 -42,18 -22,13 -40,23 -40,23 -1,1 -5,15 -9,33 -6,29 -4,32 16,28 12,-2 32,-11 44,-19 z m 85,-26 c 0,-22 -4,-40 -10,-40 -5,0 -10,8 -10,18 0,9 -3,27 -6,40 -5,16 -2,22 10,22 12,0 16,-10 16,-40 z" />
      <path
         id="pE9eFBjv5"
         d="m 880,1991 c 0,-5 11,-12 25,-15 14,-4 25,-13 25,-20 0,-8 16,-31 35,-53 52,-57 135,-165 135,-176 0,-5 15,-32 33,-60 l 32,-50 3,37 c 2,20 7,36 12,36 14,0 28,-63 19,-82 -16,-30 -10,-39 24,-36 23,2 33,8 35,23 3,20 31,34 107,54 17,4 67,27 113,50 l 82,43 v 74 c 0,68 -2,74 -21,74 -12,0 -23,8 -26,20 -3,11 -9,20 -14,20 -4,0 -11,16 -15,35 l -6,35 h -78 c -43,0 -86,-3 -94,-6 -15,-6 -15,-8 1,-19 22,-17 11,-22 -64,-28 -53,-4 -53,-4 -53,24 v 29 h -155 c -85,0 -155,-4 -155,-9 z m 556,-24 c 1,-1 5,-23 9,-49 l 7,-46 -61,2 c -54,3 -61,1 -61,-16 0,-11 -4,-17 -9,-13 -5,3 -12,1 -16,-5 -9,-15 -48,-12 -73,6 -26,18 -25,36 2,40 10,1 40,8 66,14 48,12 48,12 43,47 l -6,36 48,-6 c 27,-4 49,-8 51,-10 z m -35,-146 c 23,5 59,-11 59,-27 0,-8 4,-14 10,-14 20,0 -2,-26 -41,-48 -48,-28 -69,-18 -69,32 0,44 11,80 20,66 4,-6 13,-10 21,-9 z" />
      <path
         id="pbsvfJyVs"
         d="m 910,1900 c 6,-11 15,-20 19,-20 5,0 30,-29 56,-65 25,-36 51,-65 56,-65 12,0 2,15 -66,98 -52,63 -85,90 -65,52 z" />
      <path
         id="p5xOLPxh1"
         d="m 624,1878 c -28,-31 -80,-118 -89,-145 -11,-40 4,-25 31,30 15,28 37,66 49,82 41,56 46,75 9,33 z" />
      <path
         id="ptExMReLL"
         d="m 1070,1699 c 0,-18 64,-112 68,-100 4,12 -42,96 -58,106 -6,3 -10,1 -10,-6 z" />
      <path
         id="pgicYdbAU"
         d="m 1216,728 c -3,-13 -5,-48 -4,-78 1,-52 1,-51 8,20 8,79 7,96 -4,58 z" />
      <path
         id="pRKJLMNh"
         d="m 420,415 c 1,-11 7,-29 15,-39 19,-26 19,-6 0,30 -12,23 -15,25 -15,9 z" />
      <path
         id="p1DW8qZpn8"
         d="m 713,243 c 32,-2 81,-2 110,0 29,2 3,3 -58,3 -60,0 -84,-1 -52,-3 z" />
    </g>
  </g>
  <g
     id="l1w540c4Q7PgE6aS78dZJiC"
     fill="#b27450"
     transform="matrix(2.2435897,0,0,2.2435897,0,12.820472)">
    <g
       id="g346">
      <path
         id="prSSVMgBD"
         d="m 698,1967 c -21,-19 -38,-39 -38,-44 0,-5 -10,-18 -21,-29 -26,-23 -83,-111 -105,-161 -13,-30 -43,-127 -44,-140 0,-2 11,-3 25,-3 15,0 29,8 36,23 6,12 19,31 28,42 10,11 25,45 34,76 14,46 31,70 90,130 73,74 73,74 120,71 44,-4 47,-6 47,-33 0,-40 53,-88 98,-89 h 33 l -20,28 c -11,15 -30,37 -43,49 -13,12 -42,41 -66,64 -36,35 -50,43 -90,46 -42,3 -51,0 -84,-30 z" />
      <path
         id="pxsFykRGz"
         d="m 640,1618 c 0,-22 3,-23 105,-23 58,0 101,2 95,3 -5,2 -10,12 -10,23 0,17 -8,19 -95,19 -92,0 -95,-1 -95,-22 z" />
      <path
         id="p15ORXTSlC"
         d="m 677,1563 c -11,-10 -8,-51 3,-58 5,-3 9,-17 8,-31 -2,-20 -6,-24 -23,-19 -42,13 -49,10 -60,-29 -12,-43 -35,-60 -35,-27 0,32 21,125 31,136 16,17 10,25 -19,25 -45,0 -60,-48 -68,-216 l -6,-142 25,-16 c 25,-17 55,-72 44,-82 -2,-3 -49,-10 -103,-15 -55,-6 -102,-13 -106,-17 -13,-13 -38,-197 -36,-272 l 1,-75 6,82 c 8,103 21,119 21,25 0,-39 5,-74 10,-77 5,-3 10,-19 10,-34 0,-15 6,-50 14,-77 8,-27 17,-61 20,-76 7,-31 78,-84 96,-73 9,6 86,-25 152,-60 14,-8 36,-15 47,-15 12,0 24,-6 27,-14 22,-58 247,-29 327,43 37,34 34,41 -15,41 -31,0 -55,-9 -88,-31 -39,-27 -51,-30 -90,-24 -89,13 -119,24 -126,49 -8,34 -62,82 -114,101 -9,4 -21,15 -28,26 -11,17 -9,19 15,19 42,0 52,11 59,63 8,57 -5,77 -52,77 -40,0 -44,12 -9,28 15,7 25,20 25,32 0,16 7,20 30,20 18,0 33,6 36,15 4,8 14,15 24,15 26,0 32,39 24,142 -6,85 -8,90 -38,112 -17,13 -44,28 -61,33 -24,8 -30,15 -30,39 0,27 3,29 45,32 24,2 48,8 51,14 4,6 12,7 18,4 16,-11 13,-46 -4,-46 -8,0 -15,-7 -15,-15 0,-8 7,-15 15,-15 8,0 24,-9 35,-20 25,-25 124,-29 134,-5 3,8 15,15 27,15 12,0 23,8 26,20 4,14 14,20 34,20 28,0 29,2 29,50 0,28 -6,63 -14,78 -7,15 -19,59 -26,97 -17,97 -25,115 -53,115 -13,0 -29,6 -36,13 -7,6 -4,-2 6,-20 16,-29 12,-61 -5,-38 -4,6 -22,23 -40,38 -29,23 -42,27 -101,27 -37,0 -71,-3 -74,-7 z m 213,-200 c 0,-17 -4,-22 -12,-16 -7,4 -33,10 -58,14 -35,4 -40,7 -25,13 11,4 31,14 45,21 30,16 50,4 50,-32 z m -170,-42 c 0,-11 -25,-21 -50,-21 -9,0 -23,-7 -30,-15 -13,-16 -50,-21 -50,-6 0,11 39,37 65,44 34,8 65,7 65,-2 z m 230,-49 c 0,-27 -15,-52 -32,-52 -4,0 -5,6 -2,14 3,9 -3,17 -15,21 -27,8 -26,18 2,31 37,19 47,16 47,-14 z M 595,1020 c 3,-5 16,-10 29,-10 29,0 78,-54 74,-82 -4,-26 -33,-35 -134,-44 -79,-7 -104,6 -104,52 0,24 2,24 67,22 56,-3 68,0 71,14 4,20 -16,27 -85,29 -51,2 -67,12 -40,22 23,10 116,7 122,-3 z M 570,831 c 0,-9 -77,-41 -98,-41 -7,0 -12,5 -12,10 0,6 5,10 11,10 5,0 8,4 4,9 -6,10 20,17 68,20 15,0 27,-3 27,-8 z" />
      <path
         id="pDwqwHWWK"
         d="m 850,1035 c -25,-13 -53,-26 -62,-29 -15,-4 -18,-17 -18,-70 0,-69 14,-96 51,-96 12,0 19,-7 19,-19 0,-10 6,-23 13,-28 19,-15 91,-33 131,-33 35,0 36,1 36,40 0,36 3,40 24,40 18,0 29,9 40,32 20,40 21,107 1,114 -8,3 -23,21 -34,40 -20,34 -21,34 -88,33 -51,-1 -79,-7 -113,-24 z m 57,-69 c -6,-15 12,-26 44,-26 13,0 19,-7 19,-24 0,-18 -8,-27 -31,-35 -17,-6 -36,-8 -42,-4 -6,3 -24,9 -40,12 -25,5 -31,12 -32,36 -2,41 11,55 52,55 26,0 34,-4 30,-14 z" />
      <path
         id="poxmxzGjj"
         d="m 1140,900 c 0,-113 -3,-136 -21,-172 -25,-48 -40,-198 -20,-198 17,0 75,130 77,175 1,22 3,78 4,125 1,47 5,76 7,65 3,-11 17,-31 31,-43 l 25,-24 -6,63 c -4,34 -7,79 -7,100 v 39 h -45 -45 z" />
    </g>
  </g>
  <g
     id="l6vfTx9zwms0b4Hlze2ErKx"
     fill="#ca916e"
     transform="matrix(2.2435897,0,0,2.2435897,0,12.820472)">
    <g
       id="g355">
      <path
         id="po170WdK2"
         d="m 682,1902 c -67,-71 -85,-96 -99,-142 -9,-30 -24,-64 -33,-75 -43,-53 -55,-83 -60,-149 -5,-69 -24,-100 -33,-54 -3,15 -5,10 -6,-14 0,-21 4,-38 9,-38 6,0 10,-13 10,-30 0,-24 4,-30 21,-30 14,0 19,-5 17,-17 -4,-19 -40,-20 -46,-2 -2,5 -16,9 -32,9 -34,0 -50,-36 -50,-114 0,-28 -7,-89 -15,-136 -18,-99 -19,-134 -5,-125 5,3 10,-1 10,-9 0,-9 4,-16 9,-16 6,0 6,-12 0,-32 -13,-46 -11,-71 4,-65 6,2 26,-1 44,-9 21,-8 58,-11 110,-8 71,5 76,4 58,-10 -11,-8 -30,-25 -42,-38 -21,-20 -21,-23 -6,-40 9,-10 30,-18 48,-18 39,0 53,-14 47,-45 -5,-27 -29,-40 -47,-25 -9,7 -20,7 -38,-1 -19,-9 -23,-16 -18,-33 11,-40 53,-82 106,-105 27,-12 61,-51 69,-78 7,-22 37,-35 111,-47 92,-15 127,-9 184,35 13,11 34,19 47,19 32,0 53,44 66,133 5,39 18,88 29,109 15,30 19,58 19,143 0,97 -1,105 -19,105 -17,0 -20,8 -23,47 -3,44 -5,48 -33,53 -17,3 -34,14 -40,26 -19,38 -37,54 -61,54 -28,0 -28,1 -12,35 6,14 17,25 25,25 9,0 13,13 13,40 0,22 -4,40 -10,40 -5,0 -10,7 -10,15 0,8 -4,15 -8,15 -5,0 -7,-13 -4,-30 4,-31 -14,-43 -20,-12 -2,13 -9,8 -26,-20 -14,-23 -31,-38 -43,-38 -11,0 -22,-7 -25,-15 -9,-21 -50,-19 -74,5 -28,28 -76,26 -96,-4 -8,-14 -27,-26 -41,-28 -37,-4 -40,-26 -6,-39 48,-18 62,-38 61,-84 0,-24 3,-48 6,-54 11,-17 -4,-71 -19,-71 -7,0 -18,-7 -26,-16 -10,-13 -29,-15 -106,-11 -88,4 -95,6 -121,34 -15,17 -35,33 -44,36 -10,4 -19,14 -19,24 -2,29 2,57 9,65 4,4 51,11 104,17 131,13 131,13 108,80 -10,32 -29,63 -46,76 l -28,23 11,93 c 7,52 11,103 9,114 -5,29 21,74 72,123 l 44,44 67,-5 c 105,-7 126,-16 166,-72 19,-27 35,-60 35,-73 0,-43 22,-112 36,-112 8,0 14,9 14,19 0,11 5,23 10,26 28,17 -3,105 -37,105 -8,0 -13,13 -13,32 0,34 -35,94 -60,103 -8,4 -52,9 -97,12 -67,5 -86,10 -103,28 l -21,22 30,62 c 16,35 37,71 47,82 30,33 134,21 134,-16 0,-8 24,-31 53,-50 30,-20 64,-49 76,-65 17,-23 29,-30 56,-30 h 34 l -44,64 c -25,35 -69,83 -98,107 -29,24 -60,57 -68,73 -11,21 -26,33 -48,37 -18,4 -38,12 -44,18 -6,6 -16,11 -21,11 -6,-1 -48,-40 -94,-88 z m 336,-899 c 14,-23 14,-23 -31,-23 -53,0 -70,-16 -32,-30 41,-16 78,-13 71,5 -7,19 4,19 29,1 18,-13 18,-15 1,-50 l -17,-36 H 935 c -118,0 -135,8 -135,66 0,24 5,36 18,40 9,3 37,16 62,29 58,30 116,29 138,-2 z m 103,-226 c -6,-16 -11,-41 -11,-53 0,-17 -6,-24 -20,-24 -15,0 -20,7 -20,29 0,17 6,31 16,35 11,4 15,17 13,50 -2,27 3,51 12,62 13,16 14,13 17,-25 2,-24 -2,-57 -7,-74 z m -371,63 c 0,-5 -19,-10 -42,-10 -32,0 -39,3 -28,10 20,13 70,13 70,0 z m 229,-26 c 8,-7 12,-16 9,-19 -9,-9 -91,16 -108,33 -13,12 -9,13 35,7 28,-3 56,-13 64,-21 z m -79,-34 c 0,-5 -15,-10 -34,-10 -19,0 -38,5 -41,10 -4,6 10,10 34,10 23,0 41,-4 41,-10 z" />
      <path
         id="phsyrPAi3"
         d="m 767,1564 c -4,-4 -7,-18 -7,-31 0,-30 -24,-26 -28,5 -4,25 -30,29 -39,6 -11,-28 14,-64 45,-64 15,0 37,-6 48,-14 13,-10 23,-11 31,-4 19,16 16,36 -8,43 -15,5 -19,14 -17,32 3,26 -11,40 -25,27 z" />
      <path
         id="pPMH1iYNN"
         d="m 814,1425 c -10,-8 -27,-15 -37,-15 -11,0 -21,-9 -24,-20 -7,-27 -26,-25 -38,3 -7,15 -20,23 -42,25 -30,3 -32,1 -40,-40 l -9,-43 106,-5 c 86,-4 111,-9 141,-28 29,-18 38,-20 47,-9 14,17 9,112 -7,131 -17,20 -71,21 -97,1 z" />
      <path
         id="p6asytgUw"
         d="m 675,1301 c -43,-9 -45,-39 -3,-45 18,-2 42,-4 53,-4 11,1 53,-2 93,-6 79,-8 91,1 45,31 -19,13 -43,17 -80,16 -30,-2 -53,2 -53,7 0,11 -9,11 -55,1 z" />
      <path
         id="pGcBQxXhQ"
         d="m 1160,1050 c 0,-43 3,-50 20,-50 11,0 20,-7 20,-15 0,-9 9,-15 25,-15 22,0 25,4 25,33 0,21 -7,38 -20,47 -11,8 -20,22 -20,32 0,13 -8,18 -25,18 -23,0 -25,-3 -25,-50 z" />
      <path
         id="pMBmd68kb"
         d="m 343,925 c 0,-27 2,-38 4,-22 2,15 2,37 0,50 -2,12 -4,0 -4,-28 z" />
    </g>
  </g>
  <g
     id="l4aSHWgkTIbLMHiUdY67kso"
     fill="#a69a96"
     transform="matrix(2.2435897,0,0,2.2435897,0,12.820472)">
    <g
       id="g372">
      <path
         id="pecZa1WTt"
         d="m 865,1990 c 3,-5 15,-10 26,-10 11,0 17,5 14,10 -3,6 -15,10 -26,10 -11,0 -17,-4 -14,-10 z" />
      <path
         id="pOngsubLG"
         d="m 1040,1965 c 0,-31 -3,-35 -26,-35 -22,0 -24,-3 -19,-22 4,-13 20,-36 35,-53 15,-16 31,-41 35,-55 13,-41 36,-70 56,-70 23,0 24,14 4,70 -8,23 -15,44 -15,45 0,5 71,27 74,23 5,-7 26,-86 26,-100 0,-8 -12,-20 -26,-26 -30,-14 -22,-36 11,-28 19,5 24,1 29,-25 11,-57 7,-81 -14,-86 -24,-6 -28,-53 -5,-53 11,0 15,-11 15,-36 v -37 l 19,24 c 10,13 28,43 40,67 18,36 33,48 96,79 41,21 70,40 64,44 -7,4 4,17 27,33 40,27 74,34 74,15 0,-5 5,-7 10,-4 6,3 10,22 10,41 0,26 -4,34 -19,34 -15,0 -19,10 -25,53 -3,28 -6,71 -6,95 v 42 h -55 c -34,0 -55,-4 -55,-11 0,-6 9,-9 20,-6 29,7 33,-5 35,-106 2,-56 7,-92 15,-97 8,-5 7,-11 -5,-24 -9,-9 -20,-16 -24,-16 -4,0 -16,-8 -27,-17 -51,-45 -91,-53 -66,-13 7,11 12,38 12,60 0,34 4,41 25,46 18,4 25,13 25,30 0,20 -5,24 -29,24 -27,0 -29,2 -37,63 -9,59 -10,62 -39,65 l -30,2 23,-16 c 37,-27 28,-40 -47,-72 -10,-4 -13,-1 -8,10 9,24 -54,28 -95,6 -48,-25 -54,-23 -68,27 -15,55 -40,61 -40,10 z m 295,-116 c 4,-27 5,-52 4,-53 -2,-2 -25,-10 -51,-19 l -48,-16 -9,37 c -20,74 -19,84 14,89 16,2 32,6 34,9 2,2 14,4 27,4 19,0 23,-7 29,-51 z m 5,-100 c 0,-26 -33,-77 -56,-88 -35,-16 -35,-16 -32,31 3,37 7,43 38,54 45,16 50,16 50,3 z" />
      <path
         id="pycMwC7u6"
         d="m 172,1914 c 1,-9 9,-19 16,-22 9,-3 13,2 10,14 -1,9 -9,19 -16,22 -9,3 -13,-2 -10,-14 z" />
      <path
         id="pBhKtdneU"
         d="m 288,1923 c -34,-8 -20,-33 17,-33 19,0 35,4 35,10 0,13 -32,27 -52,23 z" />
      <path
         id="p17FM6a6N1"
         d="m 413,1901 c -3,-12 -17,-24 -31,-28 l -25,-6 27,-14 c 14,-7 26,-18 26,-23 0,-6 6,-10 13,-10 7,0 13,17 14,45 2,47 -14,72 -24,36 z" />
      <path
         id="p1EvrOn0nz"
         d="m 38,1903 c -24,-6 -23,-16 7,-63 14,-22 25,-46 25,-54 0,-14 48,-32 58,-21 3,3 -6,29 -20,58 -14,29 -29,60 -32,70 -5,17 -8,18 -38,10 z" />
      <path
         id="pxQpWnWsk"
         d="m 310,1772 c 0,-5 6,-17 14,-27 16,-23 46,-14 46,15 0,16 -7,20 -30,20 -16,0 -30,-4 -30,-8 z" />
      <path
         id="po5lTqBBS"
         d="m 123,1725 c -8,-9 -3,-16 26,-29 48,-21 56,-20 34,2 -36,36 -47,41 -60,27 z" />
      <path
         id="p73SSccn2"
         d="m 275,1660 c 3,-5 0,-10 -7,-10 -7,0 5,-9 26,-21 21,-11 43,-18 49,-15 7,2 2,8 -10,11 -13,4 -23,15 -23,26 0,13 -7,19 -21,19 -11,0 -17,-4 -14,-10 z" />
      <path
         id="pf0Oeu7Iq"
         d="m 420,1590 c 0,-6 -4,-8 -10,-5 -15,9 -12,1 15,-46 14,-24 25,-54 25,-66 0,-17 6,-23 23,-22 16,1 18,2 5,6 -18,4 -24,34 -19,95 1,18 -4,30 -18,38 -15,8 -21,8 -21,0 z" />
      <path
         id="p19WiFjNyW"
         d="m 332,735 c -2,-87 5,-137 24,-194 10,-30 13,-2 3,30 -6,19 -14,86 -18,149 l -8,115 z" />
      <path
         id="p92jhcJo0"
         d="m 1223,765 c 0,-27 2,-38 4,-22 2,15 2,37 0,50 -2,12 -4,0 -4,-28 z" />
      <path
         id="pzBSk9eDc"
         d="m 380,499 c 1,-8 7,-25 15,-39 13,-22 14,-23 14,-5 0,11 -6,29 -14,39 -11,14 -15,16 -15,5 z" />
      <path
         id="pBJBde8XH"
         d="m 1122,385 c -6,-14 -7,-25 -2,-25 9,0 25,39 18,46 -3,2 -10,-7 -16,-21 z" />
    </g>
  </g>
  <g
     id="l73Ahdfb1r32KjU63HkDBWh"
     fill="#deb193"
     transform="matrix(2.2435897,0,0,2.2435897,0,12.820472)">
    <g
       id="g384">
      <path
         id="pw7cnKsvY"
         d="m 715,1870 c -9,-10 -28,-43 -42,-72 -13,-29 -33,-62 -43,-73 -19,-20 -18,-21 16,-63 33,-39 39,-42 87,-42 77,-1 136,-15 153,-36 7,-11 28,-47 45,-81 16,-35 35,-63 42,-63 8,0 8,-3 -1,-12 -16,-16 -15,-87 3,-118 18,-31 20,-90 3,-90 -11,0 -60,-79 -77,-123 -2,-6 14,-7 41,-3 47,7 59,0 83,-48 6,-12 23,-23 40,-26 28,-5 30,-9 33,-51 3,-41 0,-49 -27,-72 -21,-17 -49,-28 -86,-32 -30,-4 -55,-11 -55,-16 0,-15 46,-28 82,-23 18,3 40,0 48,-6 13,-9 12,-12 -5,-26 -11,-8 -20,-27 -20,-42 0,-22 -5,-28 -27,-30 -31,-4 -42,-25 -27,-54 9,-17 17,-19 47,-13 21,4 53,8 72,8 32,2 35,5 43,42 8,42 28,234 27,273 0,13 6,22 15,22 11,0 15,-13 15,-55 0,-35 7,-68 19,-91 25,-45 29,-31 29,96 0,67 -2,88 -9,72 -5,-13 -15,-22 -21,-20 -19,6 -35,57 -22,66 17,11 26,59 11,65 -7,2 -18,37 -26,78 -7,40 -19,89 -26,110 -8,21 -14,88 -14,164 -1,91 -6,135 -16,156 -20,38 -109,128 -167,168 -27,17 -48,38 -48,46 0,24 -35,35 -108,35 -56,0 -72,-4 -87,-20 z" />
      <path
         id="pb9vUJFRT"
         d="m 451,1463 c -1,-29 -31,-103 -41,-103 -13,0 -30,-60 -29,-104 l 1,-41 7,35 c 9,45 31,86 40,73 3,-5 14,-13 25,-16 16,-6 17,-14 12,-60 -6,-42 -4,-56 8,-67 9,-7 16,-19 16,-27 0,-10 6,-12 23,-7 31,9 31,8 17,72 -9,44 -9,65 -1,80 6,11 11,39 11,61 0,35 -3,41 -21,41 -18,0 -20,4 -14,30 6,27 4,30 -18,30 -14,0 -28,6 -30,13 -3,6 -6,2 -6,-10 z" />
      <path
         id="pHJh65Ihw"
         d="m 826,1385 c -3,-8 -18,-20 -33,-26 l -28,-11 50,-19 c 58,-22 84,-17 83,14 -3,45 -58,78 -72,42 z" />
      <path
         id="pbvCRaLbJ"
         d="m 700,1299 c 0,-5 -7,-9 -15,-9 -8,0 -15,-4 -15,-10 0,-5 7,-10 15,-10 8,0 15,-5 15,-11 0,-6 8,-8 18,-5 9,3 45,7 80,8 66,2 79,12 35,29 -36,14 -133,20 -133,8 z" />
      <path
         id="p1475VJJA"
         d="m 720,1181 c -5,-11 -10,-27 -10,-35 0,-18 40,-31 69,-21 l 20,6 -21,34 c -22,39 -42,44 -58,16 z" />
      <path
         id="p13ZYE98tR"
         d="m 362,1094 c -1,-12 -4,-37 -7,-55 -5,-31 -5,-32 5,-9 6,13 9,38 7,55 -2,18 -4,21 -5,9 z" />
      <path
         id="pZX5qyHwP"
         d="m 335,897 c -4,-42 -5,-81 -3,-89 3,-7 8,24 13,70 4,46 5,85 2,88 -3,3 -8,-28 -12,-69 z" />
      <path
         id="pR4U4kYHe"
         d="m 741,896 c -8,-9 -29,-16 -47,-16 -32,0 -43,-7 -83,-56 -13,-15 -12,-18 4,-30 13,-10 22,-11 29,-4 5,5 34,10 63,10 47,0 55,-3 75,-30 18,-25 29,-30 65,-30 30,0 45,-5 49,-15 10,-24 22,-17 33,18 16,49 6,65 -45,73 -24,3 -53,15 -65,25 -12,10 -25,19 -28,19 -4,0 -13,12 -22,26 -14,22 -17,24 -28,10 z" />
      <path
         id="p1EbqkORLk"
         d="m 1207,595 c -5,-21 -15,-52 -23,-67 -18,-35 -2,-37 20,-3 11,17 16,41 14,68 l -3,42 z" />
    </g>
  </g>
</svg>
